G04 #@! TF.GenerationSoftware,KiCad,Pcbnew,(2017-04-29 revision a92ea8c75)-makepkg*
G04 #@! TF.CreationDate,2017-06-10T12:44:28+05:30*
G04 #@! TF.ProjectId,MyIMX233,4D79494D583233332E6B696361645F70,rev?*
G04 #@! TF.FileFunction,Copper,L2,Bot,Signal*
G04 #@! TF.FilePolarity,Positive*
%FSLAX46Y46*%
G04 Gerber Fmt 4.6, Leading zero omitted, Abs format (unit mm)*
G04 Created by KiCad (PCBNEW (2017-04-29 revision a92ea8c75)-makepkg) date 06/10/17 12:44:28*
%MOMM*%
%LPD*%
G01*
G04 APERTURE LIST*
%ADD10C,0.100000*%
%ADD11C,5.000000*%
%ADD12R,1.905000X1.905000*%
%ADD13C,1.750000*%
%ADD14R,1.750000X1.750000*%
%ADD15O,1.550000X1.550000*%
%ADD16O,1.250000X1.250000*%
%ADD17O,1.700000X1.700000*%
%ADD18R,1.700000X1.700000*%
%ADD19C,2.000000*%
%ADD20C,1.500000*%
%ADD21C,1.800000*%
%ADD22R,1.800000X1.800000*%
%ADD23C,0.450000*%
%ADD24C,0.127000*%
%ADD25C,0.254000*%
G04 APERTURE END LIST*
D10*
D11*
X130111500Y-133096000D03*
D12*
X135890000Y-80010000D03*
X135890000Y-87630000D03*
X135890000Y-82550000D03*
X135890000Y-90106500D03*
X135890000Y-85090000D03*
D13*
X134429500Y-56261000D03*
D14*
X131929500Y-56261000D03*
D15*
X122088000Y-53561000D03*
X115088000Y-53561000D03*
D16*
X121088000Y-56261000D03*
X116088000Y-56261000D03*
D17*
X106807000Y-53340000D03*
X104267000Y-53340000D03*
X101727000Y-53340000D03*
D18*
X99187000Y-53340000D03*
D17*
X130746500Y-72453500D03*
D18*
X128206500Y-72453500D03*
D17*
X130746500Y-67881500D03*
D18*
X128206500Y-67881500D03*
D17*
X69151500Y-54673500D03*
X69151500Y-57213500D03*
X69151500Y-59753500D03*
X69151500Y-62293500D03*
X69151500Y-64833500D03*
X69151500Y-67373500D03*
X69151500Y-69913500D03*
X69151500Y-72453500D03*
X69151500Y-74993500D03*
X69151500Y-77533500D03*
X69151500Y-80073500D03*
X69151500Y-82613500D03*
X69151500Y-85153500D03*
X69151500Y-87693500D03*
X69151500Y-90233500D03*
X69151500Y-92773500D03*
X69151500Y-95313500D03*
X69151500Y-97853500D03*
X69151500Y-100393500D03*
X69151500Y-102933500D03*
X69151500Y-105473500D03*
X69151500Y-108013500D03*
X69151500Y-110553500D03*
X69151500Y-113093500D03*
X69151500Y-115633500D03*
X69151500Y-118173500D03*
X69151500Y-120713500D03*
X69151500Y-123253500D03*
X69151500Y-125793500D03*
D18*
X69151500Y-128333500D03*
D17*
X68707000Y-139065000D03*
X71247000Y-139065000D03*
X73787000Y-139065000D03*
X76327000Y-139065000D03*
D18*
X78867000Y-139065000D03*
D19*
X113538000Y-70652500D03*
X118038000Y-70652500D03*
X113538000Y-77152500D03*
X118038000Y-77152500D03*
D20*
X104499319Y-85556181D03*
X107950000Y-82105500D03*
D21*
X132397500Y-97853500D03*
D22*
X134937500Y-97853500D03*
D17*
X79946500Y-53340000D03*
X82486500Y-53340000D03*
X85026500Y-53340000D03*
D18*
X87566500Y-53340000D03*
D23*
X99504500Y-98107500D03*
X112839500Y-88963500D03*
X132778500Y-81343500D03*
X96837500Y-125285500D03*
X94043500Y-104521000D03*
X98234500Y-111506000D03*
X97218500Y-120269000D03*
X94008990Y-81362842D03*
X100884533Y-94200913D03*
X86360000Y-90106500D03*
X92710000Y-117856000D03*
X113220500Y-102552500D03*
X108458000Y-93408500D03*
X128333500Y-94869000D03*
X115824000Y-92329000D03*
X109220000Y-76200000D03*
X114173000Y-84582000D03*
X112839500Y-98679000D03*
X117919500Y-100203000D03*
X108195677Y-97443510D03*
X117221000Y-54737000D03*
X106807000Y-121920000D03*
X87884000Y-124206000D03*
X89725500Y-109093004D03*
X88773000Y-99441000D03*
X88582500Y-98107500D03*
X86955190Y-125007810D03*
X87503000Y-106616500D03*
X88709500Y-117792500D03*
X90741500Y-118427500D03*
X91503496Y-124523500D03*
X94615008Y-124523500D03*
X84836000Y-104140000D03*
X88773000Y-136017000D03*
X92646500Y-135953500D03*
X88011000Y-133286500D03*
X86423500Y-133096000D03*
X103441500Y-106489500D03*
X101917500Y-131572000D03*
X102552500Y-132334000D03*
X104394000Y-106680000D03*
X102171498Y-130429000D03*
X101473000Y-111696500D03*
X106870500Y-111125000D03*
X103695500Y-131826000D03*
X107061000Y-113093500D03*
X104394000Y-132715000D03*
X106616500Y-113791998D03*
X105029000Y-131826000D03*
X106108498Y-115125500D03*
X105727500Y-132524500D03*
X99830060Y-93146440D03*
X106426000Y-92773500D03*
X115316000Y-103412510D03*
X103568500Y-101200512D03*
X92519506Y-72707500D03*
X92519500Y-90678000D03*
X74358500Y-80073502D03*
X92519500Y-94678500D03*
X75247500Y-85280500D03*
X93472000Y-94297500D03*
X86360000Y-95186500D03*
X87249000Y-95821500D03*
X84963000Y-96837500D03*
X83058000Y-96647000D03*
X76454001Y-111633000D03*
X81978500Y-105410000D03*
X97853500Y-56197500D03*
X104203500Y-101092000D03*
X101981000Y-95440500D03*
X109029500Y-99568000D03*
X108394500Y-101219000D03*
X104013000Y-69405500D03*
X104267000Y-100139500D03*
X95250000Y-132715000D03*
X84772500Y-105854500D03*
X86490812Y-104591859D03*
X95250000Y-121221500D03*
X86423500Y-107696000D03*
X97790000Y-132461000D03*
X92455998Y-108839000D03*
X97790000Y-121094500D03*
X105418060Y-109211940D03*
X107283250Y-118395750D03*
X95694500Y-106680000D03*
X99123500Y-132524500D03*
X96774000Y-106426000D03*
X99949000Y-131826000D03*
X102548454Y-105854840D03*
X100965000Y-114046000D03*
X100687310Y-130913310D03*
X98044000Y-106553000D03*
X86521796Y-101755704D03*
X98269296Y-124240796D03*
X86960204Y-101317296D03*
X98707704Y-124679204D03*
X104330500Y-104838500D03*
X118681500Y-113030000D03*
X107037310Y-106957690D03*
X119507000Y-108648494D03*
X106680000Y-105190510D03*
X118554500Y-106807000D03*
X105135102Y-103906898D03*
X119189500Y-104838500D03*
X130810000Y-75120500D03*
X118110000Y-83058000D03*
X132715000Y-80010000D03*
X126873000Y-82677000D03*
D24*
X94805500Y-102806500D02*
X99279501Y-98332499D01*
X94805500Y-105283000D02*
X94805500Y-102806500D01*
X99279501Y-98332499D02*
X99504500Y-98107500D01*
X113157698Y-88963500D02*
X112839500Y-88963500D01*
X125158500Y-88963500D02*
X113157698Y-88963500D01*
X132778500Y-81343500D02*
X125158500Y-88963500D01*
X96837500Y-124967302D02*
X96837500Y-125285500D01*
X96837500Y-120650000D02*
X96837500Y-124967302D01*
X97218500Y-120269000D02*
X96837500Y-120650000D01*
X94805500Y-105283000D02*
X94043500Y-104521000D01*
X94805500Y-107378500D02*
X94805500Y-105283000D01*
X98234500Y-110807500D02*
X94805500Y-107378500D01*
X98234500Y-111506000D02*
X98234500Y-110807500D01*
X109572158Y-96752462D02*
X109797157Y-96527463D01*
X108195677Y-97443510D02*
X108881110Y-97443510D01*
X108881110Y-97443510D02*
X109572158Y-96752462D01*
X89724802Y-117729000D02*
X88773000Y-117729000D01*
X88773000Y-117729000D02*
X88709500Y-117792500D01*
X90741500Y-118427500D02*
X90423302Y-118427500D01*
X90423302Y-118427500D02*
X89724802Y-117729000D01*
X94615008Y-124523500D02*
X91503496Y-124523500D01*
X86423500Y-133096000D02*
X87820500Y-133096000D01*
X87820500Y-133096000D02*
X88011000Y-133286500D01*
X101917500Y-131572000D02*
X102806500Y-130683000D01*
X102806500Y-130683000D02*
X102806500Y-107124500D01*
X102806500Y-107124500D02*
X103216501Y-106714499D01*
X103216501Y-106714499D02*
X103441500Y-106489500D01*
X104394000Y-106680000D02*
X104394000Y-108267500D01*
X103568500Y-109093000D02*
X103568500Y-109855000D01*
X104394000Y-108267500D02*
X103568500Y-109093000D01*
X103568500Y-131318000D02*
X103568500Y-109855000D01*
X103427511Y-131458989D02*
X103568500Y-131318000D01*
X102552500Y-132334000D02*
X103427511Y-131458989D01*
X102171498Y-130110802D02*
X102171498Y-130429000D01*
X102171498Y-112394998D02*
X102171498Y-130110802D01*
X101473000Y-111696500D02*
X102171498Y-112394998D01*
X106645501Y-111349999D02*
X106870500Y-111125000D01*
X103920499Y-114075001D02*
X106645501Y-111349999D01*
X103920499Y-131601001D02*
X103920499Y-114075001D01*
X103695500Y-131826000D02*
X103920499Y-131601001D01*
X106742802Y-113093500D02*
X107061000Y-113093500D01*
X106679302Y-113093500D02*
X106742802Y-113093500D01*
X104394000Y-115378802D02*
X106679302Y-113093500D01*
X104394000Y-132715000D02*
X104394000Y-115378802D01*
X106391501Y-114016997D02*
X106616500Y-113791998D01*
X105029000Y-115379498D02*
X106391501Y-114016997D01*
X105029000Y-131826000D02*
X105029000Y-115379498D01*
X106108498Y-115443698D02*
X106108498Y-115125500D01*
X106108498Y-132143502D02*
X106108498Y-115443698D01*
X105727500Y-132524500D02*
X106108498Y-132143502D01*
X100203000Y-92773500D02*
X100055059Y-92921441D01*
X100055059Y-92921441D02*
X99830060Y-93146440D01*
X106426000Y-92773500D02*
X100203000Y-92773500D01*
X114997802Y-103412510D02*
X115316000Y-103412510D01*
X105780498Y-103412510D02*
X114997802Y-103412510D01*
X103568500Y-101200512D02*
X105780498Y-103412510D01*
X92519500Y-72707506D02*
X92519506Y-72707500D01*
X92519500Y-90678000D02*
X92519500Y-72707506D01*
X74676698Y-80073502D02*
X74358500Y-80073502D01*
X77914502Y-80073502D02*
X74676698Y-80073502D01*
X92519500Y-94678500D02*
X77914502Y-80073502D01*
X89598500Y-95123000D02*
X79756000Y-85280500D01*
X79756000Y-85280500D02*
X75247500Y-85280500D01*
X92837000Y-95123000D02*
X89598500Y-95123000D01*
X93247001Y-94712999D02*
X92837000Y-95123000D01*
X93472000Y-94297500D02*
X93247001Y-94522499D01*
X93247001Y-94522499D02*
X93247001Y-94712999D01*
X86614000Y-95186500D02*
X86360000Y-95186500D01*
X87249000Y-95821500D02*
X86614000Y-95186500D01*
X83058000Y-96647000D02*
X84772500Y-96647000D01*
X84772500Y-96647000D02*
X84963000Y-96837500D01*
X76454001Y-111314802D02*
X76454001Y-111633000D01*
X76454001Y-110934499D02*
X76454001Y-111314802D01*
X81978500Y-105410000D02*
X76454001Y-110934499D01*
X104203500Y-101092000D02*
X103631989Y-100520489D01*
X94742000Y-85788500D02*
X94742000Y-59309000D01*
X103631989Y-100520489D02*
X103631989Y-98085713D01*
X96358501Y-87405001D02*
X94742000Y-85788500D01*
X103631989Y-98085713D02*
X101783289Y-96237013D01*
X101783289Y-96237013D02*
X101211788Y-96237013D01*
X101211788Y-96237013D02*
X96358501Y-91383726D01*
X96358501Y-91383726D02*
X96358501Y-87405001D01*
X94742000Y-59309000D02*
X97628501Y-56422499D01*
X97628501Y-56422499D02*
X97853500Y-56197500D01*
X108394500Y-101219000D02*
X107759500Y-101219000D01*
X107759500Y-101219000D02*
X102205999Y-95665499D01*
X102205999Y-95665499D02*
X101981000Y-95440500D01*
X108394500Y-100203000D02*
X109029500Y-99568000D01*
X108394500Y-101219000D02*
X108394500Y-100203000D01*
X104267000Y-100139500D02*
X104267000Y-98361500D01*
X104267000Y-98361500D02*
X101888502Y-95983002D01*
X101888502Y-95983002D02*
X101317002Y-95983002D01*
X101317002Y-95983002D02*
X96647000Y-91313000D01*
X96647000Y-91313000D02*
X96647000Y-87185500D01*
X96647000Y-87185500D02*
X95059500Y-85598000D01*
X95059500Y-85598000D02*
X95059500Y-81258224D01*
X95059500Y-81258224D02*
X95059500Y-73533000D01*
X95059500Y-73533000D02*
X95948500Y-72644000D01*
X95948500Y-72644000D02*
X103038724Y-72644000D01*
X103038724Y-72644000D02*
X104013000Y-71669724D01*
X104013000Y-71669724D02*
X104013000Y-69405500D01*
X95059500Y-81258224D02*
X95059500Y-83566000D01*
X93419061Y-129759160D02*
X93358535Y-129788307D01*
X93386018Y-130691278D02*
X93400967Y-130625784D01*
X91940929Y-130771012D02*
X91899042Y-130718488D01*
X95250000Y-132715000D02*
X93472000Y-130937000D01*
X93472000Y-130937000D02*
X93430114Y-130884477D01*
X93801310Y-130141408D02*
X93816259Y-130075914D01*
X84772500Y-122237500D02*
X84772500Y-105854500D01*
X92365193Y-130771012D02*
X92312669Y-130812897D01*
X93430114Y-130884477D02*
X93400967Y-130823951D01*
X93801310Y-129943241D02*
X93772163Y-129882715D01*
X93400967Y-130823951D02*
X93386018Y-130758457D01*
X92312669Y-130812897D02*
X92252144Y-130842045D01*
X91869896Y-130657963D02*
X91854946Y-130592468D01*
X93772163Y-129882715D02*
X93730277Y-129830193D01*
X91313000Y-128778000D02*
X91313000Y-128735986D01*
X93386018Y-130758457D02*
X93386018Y-130691278D01*
X93730277Y-130254457D02*
X93772163Y-130201934D01*
X93400967Y-130625784D02*
X93430114Y-130565258D01*
X93430114Y-130565258D02*
X93472000Y-130512735D01*
X92270239Y-129975420D02*
X92285187Y-129909925D01*
X91993451Y-130812898D02*
X91940929Y-130771012D01*
X85090000Y-122555000D02*
X84772500Y-122237500D01*
X93472000Y-130512735D02*
X93730277Y-130254457D01*
X93772163Y-130201934D02*
X93801310Y-130141408D01*
X93816259Y-130075914D02*
X93816259Y-130008735D01*
X93816259Y-130008735D02*
X93801310Y-129943241D01*
X93730277Y-129830193D02*
X93677754Y-129788307D01*
X92241091Y-130035945D02*
X92270239Y-129975420D01*
X85132014Y-122555000D02*
X85090000Y-122555000D01*
X93617228Y-129759160D02*
X93551734Y-129744211D01*
X93677754Y-129788307D02*
X93617228Y-129759160D01*
X93551734Y-129744211D02*
X93484555Y-129744211D01*
X91869895Y-130459795D02*
X91899043Y-130399270D01*
X91940928Y-130346746D02*
X92199206Y-130088469D01*
X93484555Y-129744211D02*
X93419061Y-129759160D01*
X93358535Y-129788307D02*
X93306012Y-129830193D01*
X92252144Y-130842045D02*
X92186649Y-130856993D01*
X93306012Y-129830193D02*
X92365193Y-130771012D01*
X92186649Y-130856993D02*
X92119471Y-130856994D01*
X92241092Y-129716727D02*
X92199206Y-129664205D01*
X92119471Y-130856994D02*
X92053976Y-130842044D01*
X92053976Y-130842044D02*
X91993451Y-130812898D01*
X91899042Y-130718488D02*
X91869896Y-130657963D01*
X91854946Y-130592468D02*
X91854947Y-130525290D01*
X91854947Y-130525290D02*
X91869895Y-130459795D01*
X91899043Y-130399270D02*
X91940928Y-130346746D01*
X92199206Y-130088469D02*
X92241091Y-130035945D01*
X92285187Y-129909925D02*
X92285188Y-129842747D01*
X92285188Y-129842747D02*
X92270238Y-129777252D01*
X92270238Y-129777252D02*
X92241092Y-129716727D01*
X92199206Y-129664205D02*
X91313000Y-128778000D01*
X91313000Y-128735986D02*
X85132014Y-122555000D01*
X86715811Y-104816858D02*
X86490812Y-104591859D01*
X95250000Y-121221500D02*
X95250000Y-113351047D01*
X95250000Y-113351047D02*
X86715811Y-104816858D01*
X97790000Y-132461000D02*
X95694500Y-130365500D01*
X95135558Y-128710556D02*
X95135558Y-128643377D01*
X94871034Y-128378852D02*
X94803855Y-128378852D01*
X95694500Y-130365500D02*
X95652614Y-130312977D01*
X95694500Y-129941235D02*
X95898107Y-129737627D01*
X95652614Y-130312977D02*
X95623467Y-130252451D01*
X95623467Y-130252451D02*
X95608518Y-130186957D01*
X95049577Y-128889098D02*
X95091462Y-128836576D01*
X95608518Y-130186957D02*
X95608518Y-130119778D01*
X95845584Y-129271477D02*
X95785058Y-129242330D01*
X95969140Y-129624579D02*
X95984088Y-129559085D01*
X95984088Y-129559085D02*
X95984088Y-129491906D01*
X95608518Y-130119778D02*
X95623467Y-130054284D01*
X95719564Y-129227381D02*
X95652385Y-129227381D01*
X95473842Y-129313363D02*
X94642363Y-130144842D01*
X94738361Y-128393801D02*
X94677835Y-128422948D01*
X94331148Y-130215875D02*
X94270622Y-130186727D01*
X95939992Y-129685105D02*
X95969140Y-129624579D01*
X95623467Y-130054284D02*
X95652614Y-129993758D01*
X94218098Y-129720576D02*
X95049577Y-128889098D01*
X95652614Y-129993758D02*
X95694500Y-129941235D01*
X95939992Y-129365886D02*
X95898107Y-129313363D01*
X94110489Y-128739474D02*
X94049963Y-128710326D01*
X95898107Y-129737627D02*
X95939992Y-129685105D01*
X95984088Y-129491906D02*
X95969140Y-129426412D01*
X95969140Y-129426412D02*
X95939992Y-129365886D01*
X94175983Y-128754422D02*
X94110489Y-128739474D01*
X95898107Y-129313363D02*
X95845584Y-129271477D01*
X94176212Y-130092318D02*
X94147066Y-130031793D01*
X95785058Y-129242330D02*
X95719564Y-129227381D01*
X95586891Y-129242330D02*
X95526365Y-129271477D01*
X95049577Y-128464834D02*
X94997054Y-128422948D01*
X94529314Y-130215874D02*
X94463820Y-130230822D01*
X95652385Y-129227381D02*
X95586891Y-129242330D01*
X95526365Y-129271477D02*
X95473842Y-129313363D01*
X86423500Y-121094500D02*
X86423500Y-107696000D01*
X94642363Y-130144842D02*
X94589840Y-130186726D01*
X94589840Y-130186726D02*
X94529314Y-130215874D01*
X94463820Y-130230822D02*
X94396642Y-130230823D01*
X94396642Y-130230823D02*
X94331148Y-130215875D01*
X94270622Y-130186727D02*
X94218099Y-130144842D01*
X94218099Y-130144842D02*
X94176212Y-130092318D01*
X94147066Y-130031793D02*
X94132116Y-129966298D01*
X94132116Y-129966298D02*
X94132117Y-129899120D01*
X94243162Y-128754422D02*
X94175983Y-128754422D01*
X94132117Y-129899120D02*
X94147065Y-129833625D01*
X94147065Y-129833625D02*
X94176213Y-129773100D01*
X94176213Y-129773100D02*
X94218098Y-129720576D01*
X95091462Y-128836576D02*
X95120610Y-128776050D01*
X94369182Y-128710326D02*
X94308656Y-128739474D01*
X95120610Y-128776050D02*
X95135558Y-128710556D01*
X94803855Y-128378852D02*
X94738361Y-128393801D01*
X94049963Y-128710326D02*
X93997440Y-128668441D01*
X95135558Y-128643377D02*
X95120610Y-128577883D01*
X95120610Y-128577883D02*
X95091462Y-128517357D01*
X95091462Y-128517357D02*
X95049577Y-128464834D01*
X94997054Y-128422948D02*
X94936528Y-128393801D01*
X94936528Y-128393801D02*
X94871034Y-128378852D01*
X94625312Y-128464834D02*
X94421704Y-128668441D01*
X94677835Y-128422948D02*
X94625312Y-128464834D01*
X94421704Y-128668441D02*
X94369182Y-128710326D01*
X94308656Y-128739474D02*
X94243162Y-128754422D01*
X93997440Y-128668441D02*
X86423500Y-121094500D01*
X95244411Y-111627414D02*
X95296933Y-111669299D01*
X92455998Y-108839000D02*
X95244411Y-111627414D01*
X95545578Y-113207389D02*
X95611072Y-113222337D01*
X95973769Y-111482061D02*
X96039263Y-111497010D01*
X95296933Y-111669299D02*
X95357459Y-111698447D01*
X95728047Y-111568043D02*
X95780570Y-111526157D01*
X97920404Y-113378149D02*
X97935353Y-113443644D01*
X96099789Y-111526157D02*
X96152312Y-111568043D01*
X97849371Y-113265101D02*
X97891256Y-113317623D01*
X97891256Y-113317623D02*
X97920404Y-113378149D01*
X95357459Y-111698447D02*
X95422954Y-111713396D01*
X96152312Y-111992307D02*
X95432528Y-112712090D01*
X95422954Y-111713396D02*
X95490132Y-111713396D01*
X96556918Y-114091272D02*
X96617444Y-114062124D01*
X96159720Y-113841696D02*
X96174670Y-113907191D01*
X96159721Y-113774518D02*
X96159720Y-113841696D01*
X97071874Y-112727788D02*
X97042726Y-112788314D01*
X95490132Y-111713396D02*
X95555627Y-111698447D01*
X96238294Y-111813764D02*
X96223345Y-111879259D01*
X97538155Y-113194068D02*
X97603649Y-113179119D01*
X95616153Y-111669299D02*
X95668675Y-111627414D01*
X95555627Y-111698447D02*
X95616153Y-111669299D01*
X95668675Y-111627414D02*
X95728047Y-111568043D01*
X95611072Y-113222337D02*
X95678250Y-113222336D01*
X96039263Y-111497010D02*
X96099789Y-111526157D01*
X97935353Y-113443644D02*
X97935353Y-113510822D01*
X96948318Y-112374686D02*
X97000841Y-112416572D01*
X96887792Y-112345539D02*
X96948318Y-112374686D01*
X96822298Y-112330590D02*
X96887792Y-112345539D01*
X97000841Y-112416572D02*
X97042726Y-112469094D01*
X95780570Y-111526157D02*
X95841096Y-111497010D01*
X96174669Y-113709023D02*
X96159721Y-113774518D01*
X96203817Y-113648498D02*
X96174669Y-113709023D01*
X96152312Y-111568043D02*
X96194197Y-111620565D01*
X96194197Y-111620565D02*
X96223345Y-111681091D01*
X95906590Y-111482061D02*
X95973769Y-111482061D01*
X95841096Y-111497010D02*
X95906590Y-111482061D01*
X95432528Y-112712090D02*
X95390643Y-112764614D01*
X95390643Y-112764614D02*
X95361495Y-112825139D01*
X95361496Y-113023307D02*
X95390642Y-113083832D01*
X95390642Y-113083832D02*
X95432529Y-113136356D01*
X97704018Y-113927280D02*
X97704018Y-113994459D01*
X96223345Y-111681091D02*
X96238294Y-111746586D01*
X96245702Y-113595974D02*
X96203817Y-113648498D01*
X96238294Y-111746586D02*
X96238294Y-111813764D01*
X97477629Y-113223215D02*
X97538155Y-113194068D01*
X96223345Y-111879259D02*
X96194197Y-111939785D01*
X96194197Y-111939785D02*
X96152312Y-111992307D01*
X95856793Y-113136356D02*
X96576576Y-112416572D01*
X95804270Y-113178240D02*
X95856793Y-113136356D01*
X95361495Y-112825139D02*
X95346547Y-112890634D01*
X97000841Y-112840836D02*
X96245702Y-113595974D01*
X95346547Y-112890634D02*
X95346546Y-112957812D01*
X95346546Y-112957812D02*
X95361496Y-113023307D01*
X96669967Y-114020240D02*
X97425106Y-113265101D01*
X97425106Y-113265101D02*
X97477629Y-113223215D01*
X95485052Y-113178241D02*
X95545578Y-113207389D01*
X95432529Y-113136356D02*
X95485052Y-113178241D01*
X95678250Y-113222336D02*
X95743744Y-113207388D01*
X95743744Y-113207388D02*
X95804270Y-113178240D01*
X96576576Y-112416572D02*
X96629099Y-112374686D01*
X96689625Y-112345539D02*
X96755119Y-112330590D01*
X96629099Y-112374686D02*
X96689625Y-112345539D01*
X96755119Y-112330590D02*
X96822298Y-112330590D01*
X97042726Y-112469094D02*
X97071874Y-112529620D01*
X97071874Y-112529620D02*
X97086823Y-112595115D01*
X96245703Y-114020240D02*
X96298224Y-114062124D01*
X97086823Y-112662293D02*
X97071874Y-112727788D01*
X97086823Y-112595115D02*
X97086823Y-112662293D01*
X97042726Y-112788314D02*
X97000841Y-112840836D01*
X96174670Y-113907191D02*
X96203816Y-113967716D01*
X96203816Y-113967716D02*
X96245703Y-114020240D01*
X96298224Y-114062124D02*
X96358750Y-114091272D01*
X96358750Y-114091272D02*
X96424245Y-114106221D01*
X96424245Y-114106221D02*
X96491423Y-114106221D01*
X96491423Y-114106221D02*
X96556918Y-114091272D01*
X96617444Y-114062124D02*
X96669967Y-114020240D01*
X97704018Y-113994459D02*
X97718967Y-114059953D01*
X97603649Y-113179119D02*
X97670828Y-113179119D01*
X97670828Y-113179119D02*
X97736322Y-113194068D01*
X97736322Y-113194068D02*
X97796848Y-113223215D01*
X97796848Y-113223215D02*
X97849371Y-113265101D01*
X97935353Y-113510822D02*
X97920404Y-113576317D01*
X97920404Y-113576317D02*
X97891256Y-113636843D01*
X97891256Y-113636843D02*
X97849371Y-113689365D01*
X97849371Y-113689365D02*
X97790000Y-113748737D01*
X97790000Y-113748737D02*
X97748114Y-113801260D01*
X97748114Y-113801260D02*
X97718967Y-113861786D01*
X97718967Y-113861786D02*
X97704018Y-113927280D01*
X97718967Y-114059953D02*
X97748114Y-114120479D01*
X97748114Y-114120479D02*
X97790000Y-114173002D01*
X97790000Y-114173002D02*
X97790000Y-121094500D01*
X107283250Y-118395750D02*
X108380510Y-117298490D01*
X105909940Y-109211940D02*
X105418060Y-109211940D01*
X108380510Y-117298490D02*
X108380510Y-111682510D01*
X108380510Y-111682510D02*
X105909940Y-109211940D01*
X95919499Y-106904999D02*
X95694500Y-106680000D01*
X99475502Y-110461002D02*
X95919499Y-106904999D01*
X99475502Y-132172498D02*
X99475502Y-110461002D01*
X99123500Y-132524500D02*
X99475502Y-132172498D01*
X96998999Y-106650999D02*
X96774000Y-106426000D01*
X99949000Y-109601000D02*
X96998999Y-106650999D01*
X99949000Y-131826000D02*
X99949000Y-109601000D01*
X102323455Y-106079839D02*
X102548454Y-105854840D01*
X100965000Y-114046000D02*
X100965000Y-107438294D01*
X100965000Y-107438294D02*
X102323455Y-106079839D01*
X100687310Y-130595112D02*
X100687310Y-130913310D01*
X100520500Y-130428302D02*
X100687310Y-130595112D01*
X98044000Y-106553000D02*
X100520500Y-109029500D01*
X100520500Y-109029500D02*
X100520500Y-130428302D01*
X98269296Y-124240796D02*
X98497693Y-124240796D01*
X98497693Y-124240796D02*
X98594000Y-124144489D01*
X98594000Y-124144489D02*
X98594000Y-113599511D01*
X98594000Y-113599511D02*
X86750193Y-101755704D01*
X86750193Y-101755704D02*
X86521796Y-101755704D01*
X98890999Y-113476488D02*
X86960204Y-101545693D01*
X98707704Y-124679204D02*
X98707704Y-124450807D01*
X98707704Y-124450807D02*
X98891000Y-124267511D01*
X98891000Y-124267511D02*
X98890999Y-113476488D01*
X86960204Y-101545693D02*
X86960204Y-101317296D01*
X118681500Y-113030000D02*
X112522000Y-113030000D01*
X112522000Y-113030000D02*
X104555499Y-105063499D01*
X104555499Y-105063499D02*
X104330500Y-104838500D01*
X107037310Y-106957690D02*
X108728114Y-108648494D01*
X118290834Y-108678203D02*
X118354243Y-108656015D01*
X117513478Y-108881737D02*
X117521000Y-108948494D01*
X118128521Y-108881737D02*
X118150709Y-108818328D01*
X108728114Y-108648494D02*
X117221000Y-108648494D01*
X117586450Y-109467002D02*
X117633953Y-109514505D01*
X117221000Y-108648494D02*
X117287756Y-108656015D01*
X117351165Y-108678203D02*
X117408046Y-108713944D01*
X118055549Y-109467002D02*
X118091290Y-109410121D01*
X117951165Y-109550246D02*
X118008046Y-109514505D01*
X117287756Y-108656015D02*
X117351165Y-108678203D01*
X117408046Y-108713944D02*
X117455549Y-108761447D01*
X117521000Y-108948494D02*
X117521000Y-109279956D01*
X117521000Y-109279956D02*
X117528521Y-109346712D01*
X117550709Y-109410121D02*
X117586450Y-109467002D01*
X117455549Y-108761447D02*
X117491290Y-108818328D01*
X118233953Y-108713944D02*
X118290834Y-108678203D01*
X117491290Y-108818328D02*
X117513478Y-108881737D01*
X117528521Y-109346712D02*
X117550709Y-109410121D01*
X117633953Y-109514505D02*
X117690834Y-109550246D01*
X118091290Y-109410121D02*
X118113478Y-109346712D01*
X117690834Y-109550246D02*
X117754243Y-109572434D01*
X117821000Y-109579956D02*
X117887756Y-109572434D01*
X117754243Y-109572434D02*
X117821000Y-109579956D01*
X117887756Y-109572434D02*
X117951165Y-109550246D01*
X118113478Y-109346712D02*
X118121000Y-109279956D01*
X118008046Y-109514505D02*
X118055549Y-109467002D01*
X118121000Y-109279956D02*
X118121000Y-108948494D01*
X118121000Y-108948494D02*
X118128521Y-108881737D01*
X118150709Y-108818328D02*
X118186450Y-108761447D01*
X118186450Y-108761447D02*
X118233953Y-108713944D01*
X118354243Y-108656015D02*
X118421000Y-108648494D01*
X118421000Y-108648494D02*
X119255904Y-108648494D01*
X119255904Y-108648494D02*
X119507000Y-108648494D01*
X115389243Y-107690703D02*
X115325834Y-107668515D01*
X118554500Y-106807000D02*
X117856000Y-106807000D01*
X115821450Y-106028729D02*
X115785709Y-106085610D01*
X117621450Y-106694046D02*
X117585709Y-106637165D01*
X112537927Y-106807000D02*
X109791500Y-106807000D01*
X116722756Y-107690703D02*
X116656000Y-107698224D01*
X116948478Y-107464981D02*
X116926290Y-107528390D01*
X117856000Y-106807000D02*
X117789243Y-106799478D01*
X117443046Y-105981226D02*
X117386165Y-105945485D01*
X116786165Y-107668515D02*
X116722756Y-107690703D01*
X117789243Y-106799478D02*
X117725834Y-106777290D01*
X114856000Y-105915776D02*
X114789243Y-105923297D01*
X115756000Y-106215776D02*
X115756000Y-107398224D01*
X117386165Y-105945485D02*
X117322756Y-105923297D01*
X116056000Y-105915776D02*
X115989243Y-105923297D01*
X115456000Y-107698224D02*
X115389243Y-107690703D01*
X117725834Y-106777290D02*
X117668953Y-106741549D01*
X117189243Y-105923297D02*
X117125834Y-105945485D01*
X114556000Y-106215776D02*
X114556000Y-107398224D01*
X113186165Y-106777290D02*
X113122756Y-106799478D01*
X117563521Y-106573756D02*
X117556000Y-106507000D01*
X117668953Y-106741549D02*
X117621450Y-106694046D01*
X117256000Y-105915776D02*
X117189243Y-105923297D01*
X115156000Y-107398224D02*
X115156000Y-106215776D01*
X114021450Y-107585271D02*
X113985709Y-107528390D01*
X116956000Y-106215776D02*
X116956000Y-107398224D01*
X117585709Y-106637165D02*
X117563521Y-106573756D01*
X114189243Y-107690703D02*
X114125834Y-107668515D01*
X113722756Y-105923297D02*
X113656000Y-105915776D01*
X115325834Y-107668515D02*
X115268953Y-107632774D01*
X116348478Y-106149019D02*
X116326290Y-106085610D01*
X116356000Y-107398224D02*
X116356000Y-106215776D01*
X115868953Y-105981226D02*
X115821450Y-106028729D01*
X117068953Y-105981226D02*
X117021450Y-106028729D01*
X114443046Y-107632774D02*
X114386165Y-107668515D01*
X113956000Y-106215776D02*
X113948478Y-106149019D01*
X113656000Y-105915776D02*
X113589243Y-105923297D01*
X113589243Y-105923297D02*
X113525834Y-105945485D01*
X117548478Y-106149019D02*
X117526290Y-106085610D01*
X113843046Y-105981226D02*
X113786165Y-105945485D01*
X117556000Y-106507000D02*
X117556000Y-106215776D01*
X117556000Y-106215776D02*
X117548478Y-106149019D01*
X116290549Y-106028729D02*
X116243046Y-105981226D01*
X117125834Y-105945485D02*
X117068953Y-105981226D01*
X114125834Y-107668515D02*
X114068953Y-107632774D01*
X117526290Y-106085610D02*
X117490549Y-106028729D01*
X113786165Y-105945485D02*
X113722756Y-105923297D01*
X115690549Y-107585271D02*
X115643046Y-107632774D01*
X117490549Y-106028729D02*
X117443046Y-105981226D01*
X113356000Y-106507000D02*
X113348478Y-106573756D01*
X116656000Y-107698224D02*
X116589243Y-107690703D01*
X113956000Y-107398224D02*
X113956000Y-106215776D01*
X117322756Y-105923297D02*
X117256000Y-105915776D01*
X117021450Y-106028729D02*
X116985709Y-106085610D01*
X116843046Y-107632774D02*
X116786165Y-107668515D01*
X113963521Y-107464981D02*
X113956000Y-107398224D01*
X116985709Y-106085610D02*
X116963521Y-106149019D01*
X115156000Y-106215776D02*
X115148478Y-106149019D01*
X116956000Y-107398224D02*
X116948478Y-107464981D01*
X116963521Y-106149019D02*
X116956000Y-106215776D01*
X116926290Y-107528390D02*
X116890549Y-107585271D01*
X116890549Y-107585271D02*
X116843046Y-107632774D01*
X114563521Y-106149019D02*
X114556000Y-106215776D01*
X116385709Y-107528390D02*
X116363521Y-107464981D01*
X116589243Y-107690703D02*
X116525834Y-107668515D01*
X115726290Y-107528390D02*
X115690549Y-107585271D01*
X116525834Y-107668515D02*
X116468953Y-107632774D01*
X116468953Y-107632774D02*
X116421450Y-107585271D01*
X116421450Y-107585271D02*
X116385709Y-107528390D01*
X116363521Y-107464981D02*
X116356000Y-107398224D01*
X116356000Y-106215776D02*
X116348478Y-106149019D01*
X116122756Y-105923297D02*
X116056000Y-105915776D01*
X115268953Y-107632774D02*
X115221450Y-107585271D01*
X116326290Y-106085610D02*
X116290549Y-106028729D01*
X116243046Y-105981226D02*
X116186165Y-105945485D01*
X116186165Y-105945485D02*
X116122756Y-105923297D01*
X113326290Y-106637165D02*
X113290549Y-106694046D01*
X115989243Y-105923297D02*
X115925834Y-105945485D01*
X114322756Y-107690703D02*
X114256000Y-107698224D01*
X115925834Y-105945485D02*
X115868953Y-105981226D01*
X115785709Y-106085610D02*
X115763521Y-106149019D01*
X115763521Y-106149019D02*
X115756000Y-106215776D01*
X115748478Y-107464981D02*
X115726290Y-107528390D01*
X113056000Y-106807000D02*
X112537927Y-106807000D01*
X115756000Y-107398224D02*
X115748478Y-107464981D01*
X115090549Y-106028729D02*
X115043046Y-105981226D01*
X113348478Y-106573756D02*
X113326290Y-106637165D01*
X115643046Y-107632774D02*
X115586165Y-107668515D01*
X115586165Y-107668515D02*
X115522756Y-107690703D01*
X115522756Y-107690703D02*
X115456000Y-107698224D01*
X115148478Y-106149019D02*
X115126290Y-106085610D01*
X115221450Y-107585271D02*
X115185709Y-107528390D01*
X114725834Y-105945485D02*
X114668953Y-105981226D01*
X115185709Y-107528390D02*
X115163521Y-107464981D01*
X114789243Y-105923297D02*
X114725834Y-105945485D01*
X113356000Y-106215776D02*
X113356000Y-106507000D01*
X115163521Y-107464981D02*
X115156000Y-107398224D01*
X114068953Y-107632774D02*
X114021450Y-107585271D01*
X115126290Y-106085610D02*
X115090549Y-106028729D01*
X115043046Y-105981226D02*
X114986165Y-105945485D01*
X114526290Y-107528390D02*
X114490549Y-107585271D01*
X114986165Y-105945485D02*
X114922756Y-105923297D01*
X114922756Y-105923297D02*
X114856000Y-105915776D01*
X114668953Y-105981226D02*
X114621450Y-106028729D01*
X114621450Y-106028729D02*
X114585709Y-106085610D01*
X114585709Y-106085610D02*
X114563521Y-106149019D01*
X114556000Y-107398224D02*
X114548478Y-107464981D01*
X114548478Y-107464981D02*
X114526290Y-107528390D01*
X114490549Y-107585271D02*
X114443046Y-107632774D01*
X114386165Y-107668515D02*
X114322756Y-107690703D01*
X113468953Y-105981226D02*
X113421450Y-106028729D01*
X114256000Y-107698224D02*
X114189243Y-107690703D01*
X113985709Y-107528390D02*
X113963521Y-107464981D01*
X113948478Y-106149019D02*
X113926290Y-106085610D01*
X113926290Y-106085610D02*
X113890549Y-106028729D01*
X113890549Y-106028729D02*
X113843046Y-105981226D01*
X113525834Y-105945485D02*
X113468953Y-105981226D01*
X113385709Y-106085610D02*
X113363521Y-106149019D01*
X113421450Y-106028729D02*
X113385709Y-106085610D01*
X113363521Y-106149019D02*
X113356000Y-106215776D01*
X113290549Y-106694046D02*
X113243046Y-106741549D01*
X113243046Y-106741549D02*
X113186165Y-106777290D01*
X113122756Y-106799478D02*
X113056000Y-106807000D01*
X109791500Y-106807000D02*
X108296490Y-106807000D01*
X108296490Y-106807000D02*
X106904999Y-105415509D01*
X106904999Y-105415509D02*
X106680000Y-105190510D01*
X109791500Y-106807000D02*
X109537500Y-106807000D01*
X105135102Y-103906898D02*
X105453300Y-103906898D01*
X114642546Y-105321899D02*
X114690049Y-105274396D01*
X105453300Y-103906898D02*
X106194402Y-104648000D01*
X114090049Y-104760953D02*
X114125790Y-104817834D01*
X113985665Y-104677709D02*
X114042546Y-104713450D01*
X114042546Y-104713450D02*
X114090049Y-104760953D01*
X113922256Y-104655521D02*
X113985665Y-104677709D01*
X115588743Y-105379828D02*
X115655500Y-105387350D01*
X106194402Y-104648000D02*
X113855500Y-104648000D01*
X113855500Y-104648000D02*
X113922256Y-104655521D01*
X114125790Y-104817834D02*
X114147978Y-104881243D01*
X115963021Y-104881243D02*
X115985209Y-104817834D01*
X114155500Y-105087350D02*
X114163021Y-105154106D01*
X115785665Y-105357640D02*
X115842546Y-105321899D01*
X115055500Y-103908650D02*
X115122256Y-103916172D01*
X114747978Y-105154106D02*
X114755500Y-105087350D01*
X116068453Y-104713450D02*
X116125334Y-104677709D01*
X115242546Y-103974101D02*
X115290049Y-104021604D01*
X114147978Y-104881243D02*
X114155500Y-104948000D01*
X114268453Y-105321899D02*
X114325334Y-105357640D01*
X115122256Y-103916172D02*
X115185665Y-103938360D01*
X114325334Y-105357640D02*
X114388743Y-105379828D01*
X114155500Y-104948000D02*
X114155500Y-105087350D01*
X114220950Y-105274396D02*
X114268453Y-105321899D01*
X114755500Y-105087350D02*
X114755500Y-104208650D01*
X114163021Y-105154106D02*
X114185209Y-105217515D01*
X114785209Y-104078485D02*
X114820950Y-104021604D01*
X114185209Y-105217515D02*
X114220950Y-105274396D01*
X114388743Y-105379828D02*
X114455500Y-105387350D01*
X115468453Y-105321899D02*
X115525334Y-105357640D01*
X114988743Y-103916172D02*
X115055500Y-103908650D01*
X114868453Y-103974101D02*
X114925334Y-103938360D01*
X114455500Y-105387350D02*
X114522256Y-105379828D01*
X114522256Y-105379828D02*
X114585665Y-105357640D01*
X115420950Y-105274396D02*
X115468453Y-105321899D01*
X115985209Y-104817834D02*
X116020950Y-104760953D01*
X114585665Y-105357640D02*
X114642546Y-105321899D01*
X115185665Y-103938360D02*
X115242546Y-103974101D01*
X114725790Y-105217515D02*
X114747978Y-105154106D01*
X115355500Y-105087350D02*
X115363021Y-105154106D01*
X114690049Y-105274396D02*
X114725790Y-105217515D01*
X114755500Y-104208650D02*
X114763021Y-104141894D01*
X115722256Y-105379828D02*
X115785665Y-105357640D01*
X114763021Y-104141894D02*
X114785209Y-104078485D01*
X114820950Y-104021604D02*
X114868453Y-103974101D01*
X114925334Y-103938360D02*
X114988743Y-103916172D01*
X115290049Y-104021604D02*
X115325790Y-104078485D01*
X116020950Y-104760953D02*
X116068453Y-104713450D01*
X115347978Y-104141894D02*
X115355500Y-104208650D01*
X115325790Y-104078485D02*
X115347978Y-104141894D01*
X115355500Y-104208650D02*
X115355500Y-105087350D01*
X115363021Y-105154106D02*
X115385209Y-105217515D01*
X115925790Y-105217515D02*
X115947978Y-105154106D01*
X115385209Y-105217515D02*
X115420950Y-105274396D01*
X115525334Y-105357640D02*
X115588743Y-105379828D01*
X115655500Y-105387350D02*
X115722256Y-105379828D01*
X115947978Y-105154106D02*
X115955500Y-105087350D01*
X115842546Y-105321899D02*
X115890049Y-105274396D01*
X116188743Y-104655521D02*
X116255500Y-104648000D01*
X115890049Y-105274396D02*
X115925790Y-105217515D01*
X115955500Y-105087350D02*
X115955500Y-104948000D01*
X115955500Y-104948000D02*
X115963021Y-104881243D01*
X116125334Y-104677709D02*
X116188743Y-104655521D01*
X116255500Y-104648000D02*
X118999000Y-104648000D01*
X118999000Y-104648000D02*
X119189500Y-104838500D01*
X128905000Y-77406500D02*
X130810000Y-75501500D01*
X130810000Y-75501500D02*
X130810000Y-75120500D01*
X123761500Y-77406500D02*
X128905000Y-77406500D01*
X118110000Y-83058000D02*
X123761500Y-77406500D01*
X126873000Y-82677000D02*
X129540000Y-80010000D01*
X129540000Y-80010000D02*
X132715000Y-80010000D01*
D25*
G36*
X139142000Y-50627742D02*
X139142000Y-81170213D01*
X138684488Y-139066298D01*
X136417818Y-140842877D01*
X68520903Y-140652511D01*
X67621923Y-140592579D01*
X66484576Y-139395372D01*
X66485110Y-139035907D01*
X67222000Y-139035907D01*
X67222000Y-139094093D01*
X67335039Y-139662378D01*
X67656946Y-140144147D01*
X68138715Y-140466054D01*
X68707000Y-140579093D01*
X69275285Y-140466054D01*
X69757054Y-140144147D01*
X69977000Y-139814974D01*
X70196946Y-140144147D01*
X70678715Y-140466054D01*
X71247000Y-140579093D01*
X71815285Y-140466054D01*
X72297054Y-140144147D01*
X72517000Y-139814974D01*
X72736946Y-140144147D01*
X73218715Y-140466054D01*
X73787000Y-140579093D01*
X74355285Y-140466054D01*
X74837054Y-140144147D01*
X75057000Y-139814974D01*
X75276946Y-140144147D01*
X75758715Y-140466054D01*
X76327000Y-140579093D01*
X76895285Y-140466054D01*
X77377054Y-140144147D01*
X77406403Y-140100223D01*
X77418843Y-140162765D01*
X77559191Y-140372809D01*
X77769235Y-140513157D01*
X78017000Y-140562440D01*
X79717000Y-140562440D01*
X79964765Y-140513157D01*
X80174809Y-140372809D01*
X80315157Y-140162765D01*
X80364440Y-139915000D01*
X80364440Y-138215000D01*
X80315157Y-137967235D01*
X80174809Y-137757191D01*
X79964765Y-137616843D01*
X79717000Y-137567560D01*
X78017000Y-137567560D01*
X77769235Y-137616843D01*
X77559191Y-137757191D01*
X77418843Y-137967235D01*
X77406403Y-138029777D01*
X77377054Y-137985853D01*
X76895285Y-137663946D01*
X76327000Y-137550907D01*
X75758715Y-137663946D01*
X75276946Y-137985853D01*
X75057000Y-138315026D01*
X74837054Y-137985853D01*
X74355285Y-137663946D01*
X73787000Y-137550907D01*
X73218715Y-137663946D01*
X72736946Y-137985853D01*
X72517000Y-138315026D01*
X72297054Y-137985853D01*
X71815285Y-137663946D01*
X71247000Y-137550907D01*
X70678715Y-137663946D01*
X70196946Y-137985853D01*
X69977000Y-138315026D01*
X69757054Y-137985853D01*
X69275285Y-137663946D01*
X68707000Y-137550907D01*
X68138715Y-137663946D01*
X67656946Y-137985853D01*
X67335039Y-138467622D01*
X67222000Y-139035907D01*
X66485110Y-139035907D01*
X66493695Y-133266314D01*
X85563351Y-133266314D01*
X85694003Y-133582514D01*
X85935713Y-133824647D01*
X86251685Y-133955850D01*
X86593814Y-133956149D01*
X86910014Y-133825497D01*
X86941065Y-133794500D01*
X87302951Y-133794500D01*
X87523213Y-134015147D01*
X87839185Y-134146350D01*
X88181314Y-134146649D01*
X88497514Y-134015997D01*
X88739647Y-133774287D01*
X88870850Y-133458315D01*
X88871149Y-133116186D01*
X88740497Y-132799986D01*
X88498787Y-132557853D01*
X88182815Y-132426650D01*
X87966096Y-132426461D01*
X87820500Y-132397500D01*
X86941381Y-132397500D01*
X86911287Y-132367353D01*
X86595315Y-132236150D01*
X86253186Y-132235851D01*
X85936986Y-132366503D01*
X85694853Y-132608213D01*
X85563650Y-132924185D01*
X85563351Y-133266314D01*
X66493695Y-133266314D01*
X66542613Y-100393500D01*
X67637407Y-100393500D01*
X67750446Y-100961785D01*
X68072353Y-101443554D01*
X68401526Y-101663500D01*
X68072353Y-101883446D01*
X67750446Y-102365215D01*
X67637407Y-102933500D01*
X67750446Y-103501785D01*
X68072353Y-103983554D01*
X68401526Y-104203500D01*
X68072353Y-104423446D01*
X67750446Y-104905215D01*
X67637407Y-105473500D01*
X67750446Y-106041785D01*
X68072353Y-106523554D01*
X68401526Y-106743500D01*
X68072353Y-106963446D01*
X67750446Y-107445215D01*
X67637407Y-108013500D01*
X67750446Y-108581785D01*
X68072353Y-109063554D01*
X68401526Y-109283500D01*
X68072353Y-109503446D01*
X67750446Y-109985215D01*
X67637407Y-110553500D01*
X67750446Y-111121785D01*
X68072353Y-111603554D01*
X68401526Y-111823500D01*
X68072353Y-112043446D01*
X67750446Y-112525215D01*
X67637407Y-113093500D01*
X67750446Y-113661785D01*
X68072353Y-114143554D01*
X68401526Y-114363500D01*
X68072353Y-114583446D01*
X67750446Y-115065215D01*
X67637407Y-115633500D01*
X67750446Y-116201785D01*
X68072353Y-116683554D01*
X68401526Y-116903500D01*
X68072353Y-117123446D01*
X67750446Y-117605215D01*
X67637407Y-118173500D01*
X67750446Y-118741785D01*
X68072353Y-119223554D01*
X68401526Y-119443500D01*
X68072353Y-119663446D01*
X67750446Y-120145215D01*
X67637407Y-120713500D01*
X67750446Y-121281785D01*
X68072353Y-121763554D01*
X68401526Y-121983500D01*
X68072353Y-122203446D01*
X67750446Y-122685215D01*
X67637407Y-123253500D01*
X67750446Y-123821785D01*
X68072353Y-124303554D01*
X68401526Y-124523500D01*
X68072353Y-124743446D01*
X67750446Y-125225215D01*
X67637407Y-125793500D01*
X67750446Y-126361785D01*
X68072353Y-126843554D01*
X68116277Y-126872903D01*
X68053735Y-126885343D01*
X67843691Y-127025691D01*
X67703343Y-127235735D01*
X67654060Y-127483500D01*
X67654060Y-129183500D01*
X67703343Y-129431265D01*
X67843691Y-129641309D01*
X68053735Y-129781657D01*
X68301500Y-129830940D01*
X70001500Y-129830940D01*
X70249265Y-129781657D01*
X70459309Y-129641309D01*
X70599657Y-129431265D01*
X70648940Y-129183500D01*
X70648940Y-127483500D01*
X70599657Y-127235735D01*
X70459309Y-127025691D01*
X70249265Y-126885343D01*
X70186723Y-126872903D01*
X70230647Y-126843554D01*
X70552554Y-126361785D01*
X70665593Y-125793500D01*
X70552554Y-125225215D01*
X70230647Y-124743446D01*
X69901474Y-124523500D01*
X70230647Y-124303554D01*
X70552554Y-123821785D01*
X70665593Y-123253500D01*
X70552554Y-122685215D01*
X70230647Y-122203446D01*
X69901474Y-121983500D01*
X70230647Y-121763554D01*
X70552554Y-121281785D01*
X70665593Y-120713500D01*
X70552554Y-120145215D01*
X70230647Y-119663446D01*
X69901474Y-119443500D01*
X70230647Y-119223554D01*
X70552554Y-118741785D01*
X70665593Y-118173500D01*
X70552554Y-117605215D01*
X70230647Y-117123446D01*
X69901474Y-116903500D01*
X70230647Y-116683554D01*
X70552554Y-116201785D01*
X70665593Y-115633500D01*
X70552554Y-115065215D01*
X70230647Y-114583446D01*
X69901474Y-114363500D01*
X70230647Y-114143554D01*
X70552554Y-113661785D01*
X70665593Y-113093500D01*
X70552554Y-112525215D01*
X70230647Y-112043446D01*
X69901474Y-111823500D01*
X69931684Y-111803314D01*
X75593852Y-111803314D01*
X75724504Y-112119514D01*
X75966214Y-112361647D01*
X76282186Y-112492850D01*
X76624315Y-112493149D01*
X76940515Y-112362497D01*
X77182648Y-112120787D01*
X77313851Y-111804815D01*
X77314150Y-111462686D01*
X77197048Y-111179280D01*
X82106216Y-106270112D01*
X82148814Y-106270149D01*
X82465014Y-106139497D01*
X82579897Y-106024814D01*
X83912351Y-106024814D01*
X84043003Y-106341014D01*
X84074000Y-106372065D01*
X84074000Y-122237500D01*
X84127170Y-122504805D01*
X84278586Y-122731414D01*
X84596086Y-123048914D01*
X84722704Y-123133518D01*
X90734482Y-129145296D01*
X90819086Y-129271914D01*
X91428185Y-129881012D01*
X91425037Y-129885724D01*
X91394811Y-129911248D01*
X91352926Y-129963772D01*
X91316909Y-130033492D01*
X91300395Y-130055436D01*
X91300221Y-130055600D01*
X91300147Y-130055764D01*
X91269719Y-130096196D01*
X91240571Y-130156721D01*
X91227924Y-130205748D01*
X91227839Y-130205912D01*
X91227818Y-130206157D01*
X91220964Y-130232726D01*
X91209758Y-130257771D01*
X91209621Y-130257976D01*
X91209585Y-130258158D01*
X91188906Y-130304372D01*
X91173958Y-130369867D01*
X91172539Y-130420447D01*
X91172494Y-130420623D01*
X91172528Y-130420862D01*
X91171758Y-130448313D01*
X91166399Y-130475252D01*
X91166313Y-130475477D01*
X91166318Y-130475658D01*
X91156447Y-130525280D01*
X91156446Y-130592458D01*
X91166322Y-130642113D01*
X91166317Y-130642301D01*
X91166406Y-130642534D01*
X91171759Y-130669448D01*
X91172529Y-130696869D01*
X91172494Y-130697116D01*
X91172541Y-130697298D01*
X91173962Y-130747911D01*
X91188912Y-130813406D01*
X91209577Y-130859585D01*
X91209612Y-130859762D01*
X91209745Y-130859961D01*
X91220964Y-130885032D01*
X91227823Y-130911623D01*
X91227843Y-130911862D01*
X91227926Y-130912022D01*
X91240564Y-130961020D01*
X91269710Y-131021545D01*
X91300158Y-131062005D01*
X91300234Y-131062175D01*
X91300414Y-131062345D01*
X91316908Y-131084263D01*
X91329507Y-131108651D01*
X91329581Y-131108882D01*
X91329699Y-131109022D01*
X91352935Y-131153999D01*
X91394822Y-131206523D01*
X91433480Y-131239166D01*
X91433589Y-131239311D01*
X91433796Y-131239433D01*
X91454782Y-131257153D01*
X91472508Y-131278146D01*
X91472628Y-131278350D01*
X91472771Y-131278457D01*
X91505414Y-131317116D01*
X91557936Y-131359002D01*
X91602916Y-131382240D01*
X91603055Y-131382357D01*
X91603284Y-131382430D01*
X91627676Y-131395031D01*
X91649597Y-131411528D01*
X91649765Y-131411706D01*
X91649933Y-131411781D01*
X91690394Y-131442230D01*
X91750919Y-131471376D01*
X91799913Y-131484013D01*
X91800073Y-131484096D01*
X91800312Y-131484116D01*
X91826908Y-131490976D01*
X91851978Y-131502195D01*
X91852177Y-131502328D01*
X91852354Y-131502363D01*
X91898533Y-131523028D01*
X91964029Y-131537979D01*
X92014643Y-131539400D01*
X92014822Y-131539446D01*
X92015065Y-131539412D01*
X92042495Y-131540182D01*
X92069405Y-131545534D01*
X92069638Y-131545623D01*
X92069826Y-131545618D01*
X92119481Y-131555494D01*
X92186659Y-131555493D01*
X92236281Y-131545622D01*
X92236462Y-131545627D01*
X92236687Y-131545541D01*
X92263626Y-131540182D01*
X92291077Y-131539412D01*
X92291316Y-131539446D01*
X92291492Y-131539401D01*
X92342072Y-131537982D01*
X92407567Y-131523034D01*
X92453781Y-131502355D01*
X92453963Y-131502319D01*
X92454168Y-131502182D01*
X92479213Y-131490976D01*
X92505782Y-131484122D01*
X92506027Y-131484101D01*
X92506191Y-131484016D01*
X92555218Y-131471369D01*
X92615743Y-131442221D01*
X92656175Y-131411793D01*
X92656339Y-131411719D01*
X92656503Y-131411545D01*
X92678447Y-131395031D01*
X92748167Y-131359014D01*
X92800691Y-131317129D01*
X92826215Y-131286904D01*
X92856471Y-131266688D01*
X92884006Y-131319987D01*
X92925892Y-131372510D01*
X92956113Y-131398029D01*
X92978086Y-131430914D01*
X94389888Y-132842716D01*
X94389851Y-132885314D01*
X94520503Y-133201514D01*
X94762213Y-133443647D01*
X95078185Y-133574850D01*
X95420314Y-133575149D01*
X95736514Y-133444497D01*
X95978647Y-133202787D01*
X96109850Y-132886815D01*
X96110149Y-132544686D01*
X95979497Y-132228486D01*
X95737787Y-131986353D01*
X95421815Y-131855150D01*
X95377940Y-131855112D01*
X94452150Y-130929322D01*
X94463830Y-130929322D01*
X94513467Y-130919448D01*
X94513650Y-130919453D01*
X94513877Y-130919366D01*
X94540801Y-130914010D01*
X94568239Y-130913241D01*
X94568482Y-130913275D01*
X94568661Y-130913229D01*
X94619245Y-130911810D01*
X94684739Y-130896862D01*
X94730950Y-130876185D01*
X94731134Y-130876148D01*
X94731342Y-130876009D01*
X94756380Y-130864806D01*
X94782955Y-130857950D01*
X94783197Y-130857930D01*
X94783359Y-130857846D01*
X94832384Y-130845200D01*
X94892910Y-130816052D01*
X94933345Y-130785621D01*
X94933511Y-130785547D01*
X94933677Y-130785372D01*
X94955615Y-130768862D01*
X95025337Y-130732844D01*
X95077100Y-130691566D01*
X95106506Y-130748487D01*
X95148392Y-130801010D01*
X95178613Y-130826529D01*
X95200586Y-130859414D01*
X96929888Y-132588716D01*
X96929851Y-132631314D01*
X97060503Y-132947514D01*
X97302213Y-133189647D01*
X97618185Y-133320850D01*
X97960314Y-133321149D01*
X98276514Y-133190497D01*
X98425103Y-133042168D01*
X98635713Y-133253147D01*
X98951685Y-133384350D01*
X99293814Y-133384649D01*
X99610014Y-133253997D01*
X99852147Y-133012287D01*
X99983350Y-132696315D01*
X99983359Y-132686030D01*
X100119314Y-132686149D01*
X100435514Y-132555497D01*
X100677647Y-132313787D01*
X100808850Y-131997815D01*
X100809046Y-131773417D01*
X100857624Y-131773459D01*
X101057396Y-131690914D01*
X101057351Y-131742314D01*
X101188003Y-132058514D01*
X101429713Y-132300647D01*
X101692434Y-132409738D01*
X101692351Y-132504314D01*
X101823003Y-132820514D01*
X102064713Y-133062647D01*
X102380685Y-133193850D01*
X102722814Y-133194149D01*
X103039014Y-133063497D01*
X103281147Y-132821787D01*
X103364960Y-132619942D01*
X103523685Y-132685850D01*
X103534025Y-132685859D01*
X103533851Y-132885314D01*
X103664503Y-133201514D01*
X103906213Y-133443647D01*
X104222185Y-133574850D01*
X104564314Y-133575149D01*
X104880514Y-133444497D01*
X105122647Y-133202787D01*
X105142269Y-133155532D01*
X105239713Y-133253147D01*
X105555685Y-133384350D01*
X105897814Y-133384649D01*
X106214014Y-133253997D01*
X106456147Y-133012287D01*
X106587350Y-132696315D01*
X106587388Y-132652440D01*
X106602412Y-132637416D01*
X106753828Y-132410806D01*
X106806998Y-132143502D01*
X106806998Y-119129187D01*
X107111435Y-119255600D01*
X107453564Y-119255899D01*
X107769764Y-119125247D01*
X108011897Y-118883537D01*
X108143100Y-118567565D01*
X108143138Y-118523690D01*
X108874424Y-117792404D01*
X109025840Y-117565795D01*
X109079010Y-117298490D01*
X109079010Y-111682510D01*
X109025840Y-111415206D01*
X108874424Y-111188596D01*
X106403854Y-108718026D01*
X106177245Y-108566610D01*
X105942383Y-108519893D01*
X105905847Y-108483293D01*
X105589875Y-108352090D01*
X105247746Y-108351791D01*
X105060330Y-108429230D01*
X105092500Y-108267500D01*
X105092500Y-107197881D01*
X105122647Y-107167787D01*
X105253850Y-106851815D01*
X105253939Y-106749767D01*
X112028086Y-113523914D01*
X112254695Y-113675330D01*
X112522000Y-113728500D01*
X118163619Y-113728500D01*
X118193713Y-113758647D01*
X118509685Y-113889850D01*
X118851814Y-113890149D01*
X119168014Y-113759497D01*
X119410147Y-113517787D01*
X119541350Y-113201815D01*
X119541649Y-112859686D01*
X119410997Y-112543486D01*
X119169287Y-112301353D01*
X118853315Y-112170150D01*
X118511186Y-112169851D01*
X118194986Y-112300503D01*
X118163935Y-112331500D01*
X112811328Y-112331500D01*
X109826822Y-109346994D01*
X116827833Y-109346994D01*
X116826891Y-109358157D01*
X116834412Y-109424913D01*
X116858247Y-109499697D01*
X116862086Y-109526887D01*
X116862079Y-109527127D01*
X116862143Y-109527296D01*
X116869219Y-109577414D01*
X116891407Y-109640823D01*
X116917119Y-109684410D01*
X116917174Y-109684584D01*
X116917330Y-109684769D01*
X116931285Y-109708426D01*
X116941071Y-109734063D01*
X116941120Y-109734307D01*
X116941224Y-109734463D01*
X116959274Y-109781748D01*
X116995015Y-109838629D01*
X117029784Y-109875406D01*
X117029879Y-109875566D01*
X117030077Y-109875715D01*
X117048933Y-109895659D01*
X117064182Y-109918481D01*
X117064282Y-109918705D01*
X117064416Y-109918832D01*
X117092536Y-109960916D01*
X117140039Y-110008419D01*
X117182123Y-110036538D01*
X117182250Y-110036673D01*
X117182475Y-110036773D01*
X117205295Y-110052021D01*
X117225244Y-110070882D01*
X117225390Y-110071076D01*
X117225548Y-110071169D01*
X117262326Y-110105940D01*
X117319207Y-110141682D01*
X117366499Y-110159734D01*
X117366648Y-110159834D01*
X117366882Y-110159881D01*
X117392533Y-110169672D01*
X117416179Y-110183620D01*
X117416363Y-110183776D01*
X117416536Y-110183831D01*
X117460132Y-110209548D01*
X117523541Y-110231736D01*
X117573659Y-110238812D01*
X117573828Y-110238876D01*
X117574068Y-110238869D01*
X117601254Y-110242707D01*
X117627422Y-110251048D01*
X117627635Y-110251158D01*
X117627815Y-110251173D01*
X117676033Y-110266542D01*
X117742789Y-110274064D01*
X117793227Y-110269810D01*
X117793406Y-110269835D01*
X117793638Y-110269775D01*
X117821000Y-110267467D01*
X117848361Y-110269775D01*
X117848593Y-110269835D01*
X117848772Y-110269810D01*
X117899211Y-110274064D01*
X117965967Y-110266542D01*
X118014185Y-110251173D01*
X118014366Y-110251158D01*
X118014581Y-110251047D01*
X118040746Y-110242707D01*
X118067931Y-110238869D01*
X118068171Y-110238876D01*
X118068340Y-110238812D01*
X118118458Y-110231736D01*
X118181867Y-110209548D01*
X118225462Y-110183832D01*
X118225637Y-110183776D01*
X118225823Y-110183619D01*
X118249470Y-110169670D01*
X118275107Y-110159884D01*
X118275351Y-110159835D01*
X118275507Y-110159731D01*
X118322792Y-110141681D01*
X118379673Y-110105940D01*
X118416450Y-110071171D01*
X118416610Y-110071076D01*
X118416759Y-110070878D01*
X118436703Y-110052022D01*
X118459525Y-110036773D01*
X118459749Y-110036673D01*
X118459876Y-110036539D01*
X118501960Y-110008419D01*
X118549463Y-109960916D01*
X118577582Y-109918832D01*
X118577717Y-109918705D01*
X118577817Y-109918480D01*
X118593065Y-109895660D01*
X118611926Y-109875711D01*
X118612120Y-109875565D01*
X118612213Y-109875407D01*
X118646984Y-109838629D01*
X118682726Y-109781748D01*
X118700778Y-109734456D01*
X118700878Y-109734307D01*
X118700925Y-109734073D01*
X118710716Y-109708422D01*
X118724662Y-109684780D01*
X118724820Y-109684593D01*
X118724876Y-109684418D01*
X118750592Y-109640823D01*
X118772780Y-109577414D01*
X118779856Y-109527296D01*
X118779920Y-109527127D01*
X118779913Y-109526887D01*
X118783751Y-109499702D01*
X118807586Y-109424923D01*
X118815107Y-109358168D01*
X118814165Y-109346994D01*
X118989119Y-109346994D01*
X119019213Y-109377141D01*
X119335185Y-109508344D01*
X119677314Y-109508643D01*
X119993514Y-109377991D01*
X120235647Y-109136281D01*
X120366850Y-108820309D01*
X120367149Y-108478180D01*
X120236497Y-108161980D01*
X119994787Y-107919847D01*
X119678815Y-107788644D01*
X119336686Y-107788345D01*
X119020486Y-107918997D01*
X118989435Y-107949994D01*
X118421000Y-107949994D01*
X118382211Y-107957710D01*
X118342800Y-107954385D01*
X118276043Y-107961906D01*
X118201260Y-107985741D01*
X118174068Y-107989580D01*
X118173828Y-107989573D01*
X118173659Y-107989637D01*
X118123541Y-107996713D01*
X118060132Y-108018901D01*
X118016544Y-108044613D01*
X118016372Y-108044668D01*
X118016189Y-108044823D01*
X117992533Y-108058777D01*
X117966882Y-108068568D01*
X117966648Y-108068615D01*
X117966499Y-108068715D01*
X117919207Y-108086767D01*
X117862326Y-108122509D01*
X117825548Y-108157280D01*
X117825390Y-108157373D01*
X117825244Y-108157567D01*
X117820999Y-108161580D01*
X117816759Y-108157571D01*
X117816610Y-108157373D01*
X117816450Y-108157278D01*
X117779673Y-108122509D01*
X117722792Y-108086768D01*
X117675507Y-108068718D01*
X117675351Y-108068614D01*
X117675107Y-108068565D01*
X117649470Y-108058779D01*
X117625813Y-108044824D01*
X117625628Y-108044668D01*
X117625454Y-108044613D01*
X117581867Y-108018901D01*
X117518458Y-107996713D01*
X117468340Y-107989637D01*
X117468171Y-107989573D01*
X117467931Y-107989580D01*
X117453070Y-107987482D01*
X117481984Y-107956898D01*
X117517726Y-107900017D01*
X117535778Y-107852725D01*
X117535878Y-107852576D01*
X117535925Y-107852342D01*
X117545716Y-107826691D01*
X117559664Y-107803045D01*
X117559820Y-107802861D01*
X117559875Y-107802688D01*
X117585592Y-107759092D01*
X117607780Y-107695683D01*
X117614856Y-107645565D01*
X117614920Y-107645396D01*
X117614913Y-107645156D01*
X117618751Y-107617970D01*
X117642586Y-107543191D01*
X117650108Y-107476435D01*
X117649911Y-107474104D01*
X117711033Y-107493586D01*
X117777789Y-107501108D01*
X117817206Y-107497783D01*
X117856000Y-107505500D01*
X118036619Y-107505500D01*
X118066713Y-107535647D01*
X118382685Y-107666850D01*
X118724814Y-107667149D01*
X119041014Y-107536497D01*
X119283147Y-107294787D01*
X119414350Y-106978815D01*
X119414649Y-106636686D01*
X119283997Y-106320486D01*
X119042287Y-106078353D01*
X118726315Y-105947150D01*
X118384186Y-105946851D01*
X118224153Y-106012976D01*
X118218751Y-105996030D01*
X118214913Y-105968844D01*
X118214920Y-105968604D01*
X118214856Y-105968435D01*
X118207780Y-105918317D01*
X118185592Y-105854908D01*
X118159875Y-105811312D01*
X118159820Y-105811139D01*
X118159664Y-105810955D01*
X118145716Y-105787309D01*
X118135925Y-105761658D01*
X118135878Y-105761424D01*
X118135778Y-105761275D01*
X118117726Y-105713983D01*
X118081984Y-105657102D01*
X118047213Y-105620324D01*
X118047120Y-105620166D01*
X118046926Y-105620020D01*
X118028065Y-105600071D01*
X118012817Y-105577251D01*
X118012717Y-105577026D01*
X118012582Y-105576899D01*
X117984463Y-105534815D01*
X117936960Y-105487312D01*
X117894876Y-105459192D01*
X117894749Y-105459058D01*
X117894525Y-105458958D01*
X117871703Y-105443709D01*
X117851759Y-105424853D01*
X117851610Y-105424655D01*
X117851450Y-105424560D01*
X117814673Y-105389791D01*
X117757792Y-105354050D01*
X117738013Y-105346500D01*
X118481451Y-105346500D01*
X118701713Y-105567147D01*
X119017685Y-105698350D01*
X119359814Y-105698649D01*
X119676014Y-105567997D01*
X119918147Y-105326287D01*
X120049350Y-105010315D01*
X120049649Y-104668186D01*
X119918997Y-104351986D01*
X119677287Y-104109853D01*
X119361315Y-103978650D01*
X119144596Y-103978461D01*
X118999000Y-103949500D01*
X116255500Y-103949500D01*
X116216711Y-103957216D01*
X116177300Y-103953891D01*
X116110543Y-103961412D01*
X116035760Y-103985247D01*
X116018087Y-103987742D01*
X116014413Y-103961719D01*
X116014420Y-103961479D01*
X116014356Y-103961310D01*
X116010548Y-103934337D01*
X116044647Y-103900297D01*
X116175850Y-103584325D01*
X116176149Y-103242196D01*
X116045497Y-102925996D01*
X115803787Y-102683863D01*
X115487815Y-102552660D01*
X115145686Y-102552361D01*
X114829486Y-102683013D01*
X114798435Y-102714010D01*
X106069826Y-102714010D01*
X104933161Y-101577345D01*
X105063350Y-101263815D01*
X105063649Y-100921686D01*
X104957670Y-100665198D01*
X104995647Y-100627287D01*
X105126850Y-100311315D01*
X105127149Y-99969186D01*
X104996497Y-99652986D01*
X104965500Y-99621935D01*
X104965500Y-99412828D01*
X107265586Y-101712914D01*
X107492196Y-101864330D01*
X107759500Y-101917500D01*
X107876619Y-101917500D01*
X107906713Y-101947647D01*
X108222685Y-102078850D01*
X108564814Y-102079149D01*
X108881014Y-101948497D01*
X109123147Y-101706787D01*
X109254350Y-101390815D01*
X109254649Y-101048686D01*
X109123997Y-100732486D01*
X109093000Y-100701435D01*
X109093000Y-100492328D01*
X109157216Y-100428112D01*
X109199814Y-100428149D01*
X109516014Y-100297497D01*
X109758147Y-100055787D01*
X109889350Y-99739815D01*
X109889649Y-99397686D01*
X109758997Y-99081486D01*
X109517287Y-98839353D01*
X109201315Y-98708150D01*
X108859186Y-98707851D01*
X108542986Y-98838503D01*
X108300853Y-99080213D01*
X108169650Y-99396185D01*
X108169612Y-99440060D01*
X107900586Y-99709086D01*
X107749170Y-99935695D01*
X107749170Y-99935696D01*
X107701861Y-100173533D01*
X105685819Y-98157491D01*
X130862235Y-98157491D01*
X131095432Y-98721871D01*
X131526857Y-99154051D01*
X132090830Y-99388233D01*
X132701491Y-99388765D01*
X133265871Y-99155568D01*
X133443341Y-98978408D01*
X133499173Y-99113199D01*
X133677802Y-99291827D01*
X133911191Y-99388500D01*
X134651750Y-99388500D01*
X134810500Y-99229750D01*
X134810500Y-97980500D01*
X135064500Y-97980500D01*
X135064500Y-99229750D01*
X135223250Y-99388500D01*
X135963809Y-99388500D01*
X136197198Y-99291827D01*
X136375827Y-99113199D01*
X136472500Y-98879810D01*
X136472500Y-98139250D01*
X136313750Y-97980500D01*
X135064500Y-97980500D01*
X134810500Y-97980500D01*
X134790500Y-97980500D01*
X134790500Y-97726500D01*
X134810500Y-97726500D01*
X134810500Y-96477250D01*
X135064500Y-96477250D01*
X135064500Y-97726500D01*
X136313750Y-97726500D01*
X136472500Y-97567750D01*
X136472500Y-96827190D01*
X136375827Y-96593801D01*
X136197198Y-96415173D01*
X135963809Y-96318500D01*
X135223250Y-96318500D01*
X135064500Y-96477250D01*
X134810500Y-96477250D01*
X134651750Y-96318500D01*
X133911191Y-96318500D01*
X133677802Y-96415173D01*
X133499173Y-96593801D01*
X133443381Y-96728494D01*
X133268143Y-96552949D01*
X132704170Y-96318767D01*
X132093509Y-96318235D01*
X131529129Y-96551432D01*
X131096949Y-96982857D01*
X130862767Y-97546830D01*
X130862235Y-98157491D01*
X105685819Y-98157491D01*
X102841112Y-95312784D01*
X102841149Y-95270186D01*
X102710497Y-94953986D01*
X102468787Y-94711853D01*
X102152815Y-94580650D01*
X101810686Y-94580351D01*
X101494486Y-94711003D01*
X101263457Y-94941629D01*
X100232503Y-93910675D01*
X100316574Y-93875937D01*
X100558707Y-93634227D01*
X100626070Y-93472000D01*
X105908119Y-93472000D01*
X105938213Y-93502147D01*
X106254185Y-93633350D01*
X106596314Y-93633649D01*
X106912514Y-93502997D01*
X107154647Y-93261287D01*
X107285850Y-92945315D01*
X107286149Y-92603186D01*
X107155497Y-92286986D01*
X106913787Y-92044853D01*
X106597815Y-91913650D01*
X106255686Y-91913351D01*
X105939486Y-92044003D01*
X105908435Y-92075000D01*
X100203000Y-92075000D01*
X99935695Y-92128170D01*
X99709086Y-92279586D01*
X99702344Y-92286328D01*
X99659746Y-92286291D01*
X99343546Y-92416943D01*
X99101413Y-92658653D01*
X99065931Y-92744103D01*
X97345500Y-91023672D01*
X97345500Y-89133814D01*
X111979351Y-89133814D01*
X112110003Y-89450014D01*
X112351713Y-89692147D01*
X112667685Y-89823350D01*
X113009814Y-89823649D01*
X113326014Y-89692997D01*
X113357065Y-89662000D01*
X125158500Y-89662000D01*
X125425805Y-89608830D01*
X125652414Y-89457414D01*
X132906216Y-82203612D01*
X132948814Y-82203649D01*
X133265014Y-82072997D01*
X133507147Y-81831287D01*
X133638350Y-81515315D01*
X133638649Y-81173186D01*
X133507997Y-80856986D01*
X133296279Y-80644898D01*
X133443647Y-80497787D01*
X133574850Y-80181815D01*
X133575149Y-79839686D01*
X133444497Y-79523486D01*
X133202787Y-79281353D01*
X132886815Y-79150150D01*
X132544686Y-79149851D01*
X132228486Y-79280503D01*
X132197435Y-79311500D01*
X129540000Y-79311500D01*
X129272696Y-79364670D01*
X129046086Y-79516086D01*
X126745284Y-81816888D01*
X126702686Y-81816851D01*
X126386486Y-81947503D01*
X126144353Y-82189213D01*
X126013150Y-82505185D01*
X126012851Y-82847314D01*
X126143503Y-83163514D01*
X126385213Y-83405647D01*
X126701185Y-83536850D01*
X127043314Y-83537149D01*
X127359514Y-83406497D01*
X127601647Y-83164787D01*
X127732850Y-82848815D01*
X127732888Y-82804940D01*
X129829328Y-80708500D01*
X132197119Y-80708500D01*
X132197221Y-80708602D01*
X132049853Y-80855713D01*
X131918650Y-81171685D01*
X131918612Y-81215560D01*
X124869172Y-88265000D01*
X113357381Y-88265000D01*
X113327287Y-88234853D01*
X113011315Y-88103650D01*
X112669186Y-88103351D01*
X112352986Y-88234003D01*
X112110853Y-88475713D01*
X111979650Y-88791685D01*
X111979351Y-89133814D01*
X97345500Y-89133814D01*
X97345500Y-87185500D01*
X97292330Y-86918196D01*
X97292330Y-86918195D01*
X97140914Y-86691586D01*
X96279794Y-85830466D01*
X103114079Y-85830466D01*
X103324488Y-86339696D01*
X103713755Y-86729642D01*
X104222617Y-86940940D01*
X104773604Y-86941421D01*
X105282834Y-86731012D01*
X105672780Y-86341745D01*
X105884078Y-85832883D01*
X105884559Y-85281896D01*
X105674150Y-84772666D01*
X105284883Y-84382720D01*
X104776021Y-84171422D01*
X104225034Y-84170941D01*
X103715804Y-84381350D01*
X103325858Y-84770617D01*
X103114560Y-85279479D01*
X103114079Y-85830466D01*
X96279794Y-85830466D01*
X95758000Y-85308672D01*
X95758000Y-82379785D01*
X106564760Y-82379785D01*
X106775169Y-82889015D01*
X107164436Y-83278961D01*
X107673298Y-83490259D01*
X108224285Y-83490740D01*
X108733515Y-83280331D01*
X108785622Y-83228314D01*
X117249851Y-83228314D01*
X117380503Y-83544514D01*
X117622213Y-83786647D01*
X117938185Y-83917850D01*
X118280314Y-83918149D01*
X118596514Y-83787497D01*
X118838647Y-83545787D01*
X118969850Y-83229815D01*
X118969888Y-83185940D01*
X123098328Y-79057500D01*
X134290060Y-79057500D01*
X134290060Y-80962500D01*
X134339343Y-81210265D01*
X134385939Y-81280000D01*
X134339343Y-81349735D01*
X134290060Y-81597500D01*
X134290060Y-83502500D01*
X134339343Y-83750265D01*
X134385939Y-83820000D01*
X134339343Y-83889735D01*
X134290060Y-84137500D01*
X134290060Y-86042500D01*
X134339343Y-86290265D01*
X134385939Y-86360000D01*
X134339343Y-86429735D01*
X134290060Y-86677500D01*
X134290060Y-88582500D01*
X134339343Y-88830265D01*
X134364724Y-88868250D01*
X134339343Y-88906235D01*
X134290060Y-89154000D01*
X134290060Y-91059000D01*
X134339343Y-91306765D01*
X134479691Y-91516809D01*
X134689735Y-91657157D01*
X134937500Y-91706440D01*
X136842500Y-91706440D01*
X137090265Y-91657157D01*
X137300309Y-91516809D01*
X137440657Y-91306765D01*
X137489940Y-91059000D01*
X137489940Y-89154000D01*
X137440657Y-88906235D01*
X137415276Y-88868250D01*
X137440657Y-88830265D01*
X137489940Y-88582500D01*
X137489940Y-86677500D01*
X137440657Y-86429735D01*
X137394061Y-86360000D01*
X137440657Y-86290265D01*
X137489940Y-86042500D01*
X137489940Y-84137500D01*
X137440657Y-83889735D01*
X137394061Y-83820000D01*
X137440657Y-83750265D01*
X137489940Y-83502500D01*
X137489940Y-81597500D01*
X137440657Y-81349735D01*
X137394061Y-81280000D01*
X137440657Y-81210265D01*
X137489940Y-80962500D01*
X137489940Y-79057500D01*
X137440657Y-78809735D01*
X137300309Y-78599691D01*
X137090265Y-78459343D01*
X136842500Y-78410060D01*
X134937500Y-78410060D01*
X134689735Y-78459343D01*
X134479691Y-78599691D01*
X134339343Y-78809735D01*
X134290060Y-79057500D01*
X123098328Y-79057500D01*
X124050828Y-78105000D01*
X128905000Y-78105000D01*
X129172305Y-78051830D01*
X129398914Y-77900414D01*
X131303914Y-75995414D01*
X131455330Y-75768805D01*
X131474527Y-75672295D01*
X131538647Y-75608287D01*
X131669850Y-75292315D01*
X131670149Y-74950186D01*
X131539497Y-74633986D01*
X131297787Y-74391853D01*
X130981815Y-74260650D01*
X130639686Y-74260351D01*
X130323486Y-74391003D01*
X130081353Y-74632713D01*
X129950150Y-74948685D01*
X129949851Y-75290814D01*
X129974121Y-75349551D01*
X128615672Y-76708000D01*
X123761500Y-76708000D01*
X123494195Y-76761170D01*
X123267586Y-76912586D01*
X117982284Y-82197888D01*
X117939686Y-82197851D01*
X117623486Y-82328503D01*
X117381353Y-82570213D01*
X117250150Y-82886185D01*
X117249851Y-83228314D01*
X108785622Y-83228314D01*
X109123461Y-82891064D01*
X109334759Y-82382202D01*
X109335240Y-81831215D01*
X109124831Y-81321985D01*
X108735564Y-80932039D01*
X108226702Y-80720741D01*
X107675715Y-80720260D01*
X107166485Y-80930669D01*
X106776539Y-81319936D01*
X106565241Y-81828798D01*
X106564760Y-82379785D01*
X95758000Y-82379785D01*
X95758000Y-77476295D01*
X111902716Y-77476295D01*
X112151106Y-78077443D01*
X112610637Y-78537778D01*
X113211352Y-78787216D01*
X113861795Y-78787784D01*
X114462943Y-78539394D01*
X114923278Y-78079863D01*
X115172716Y-77479148D01*
X115172718Y-77476295D01*
X116402716Y-77476295D01*
X116651106Y-78077443D01*
X117110637Y-78537778D01*
X117711352Y-78787216D01*
X118361795Y-78787784D01*
X118962943Y-78539394D01*
X119423278Y-78079863D01*
X119672716Y-77479148D01*
X119673284Y-76828705D01*
X119424894Y-76227557D01*
X118965363Y-75767222D01*
X118364648Y-75517784D01*
X117714205Y-75517216D01*
X117113057Y-75765606D01*
X116652722Y-76225137D01*
X116403284Y-76825852D01*
X116402716Y-77476295D01*
X115172718Y-77476295D01*
X115173284Y-76828705D01*
X114924894Y-76227557D01*
X114465363Y-75767222D01*
X113864648Y-75517784D01*
X113214205Y-75517216D01*
X112613057Y-75765606D01*
X112152722Y-76225137D01*
X111903284Y-76825852D01*
X111902716Y-77476295D01*
X95758000Y-77476295D01*
X95758000Y-73822328D01*
X96237828Y-73342500D01*
X103038724Y-73342500D01*
X103306029Y-73289330D01*
X103532638Y-73137914D01*
X104506914Y-72163638D01*
X104658329Y-71937029D01*
X104658330Y-71937028D01*
X104711500Y-71669724D01*
X104711500Y-70976295D01*
X111902716Y-70976295D01*
X112151106Y-71577443D01*
X112610637Y-72037778D01*
X113211352Y-72287216D01*
X113861795Y-72287784D01*
X114462943Y-72039394D01*
X114923278Y-71579863D01*
X115172716Y-70979148D01*
X115172718Y-70976295D01*
X116402716Y-70976295D01*
X116651106Y-71577443D01*
X117110637Y-72037778D01*
X117711352Y-72287216D01*
X118361795Y-72287784D01*
X118962943Y-72039394D01*
X119399599Y-71603500D01*
X126709060Y-71603500D01*
X126709060Y-73303500D01*
X126758343Y-73551265D01*
X126898691Y-73761309D01*
X127108735Y-73901657D01*
X127356500Y-73950940D01*
X129056500Y-73950940D01*
X129304265Y-73901657D01*
X129514309Y-73761309D01*
X129654657Y-73551265D01*
X129667097Y-73488723D01*
X129696446Y-73532647D01*
X130178215Y-73854554D01*
X130746500Y-73967593D01*
X131314785Y-73854554D01*
X131796554Y-73532647D01*
X132118461Y-73050878D01*
X132231500Y-72482593D01*
X132231500Y-72424407D01*
X132118461Y-71856122D01*
X131796554Y-71374353D01*
X131314785Y-71052446D01*
X130746500Y-70939407D01*
X130178215Y-71052446D01*
X129696446Y-71374353D01*
X129667097Y-71418277D01*
X129654657Y-71355735D01*
X129514309Y-71145691D01*
X129304265Y-71005343D01*
X129056500Y-70956060D01*
X127356500Y-70956060D01*
X127108735Y-71005343D01*
X126898691Y-71145691D01*
X126758343Y-71355735D01*
X126709060Y-71603500D01*
X119399599Y-71603500D01*
X119423278Y-71579863D01*
X119672716Y-70979148D01*
X119673284Y-70328705D01*
X119424894Y-69727557D01*
X118965363Y-69267222D01*
X118364648Y-69017784D01*
X117714205Y-69017216D01*
X117113057Y-69265606D01*
X116652722Y-69725137D01*
X116403284Y-70325852D01*
X116402716Y-70976295D01*
X115172718Y-70976295D01*
X115173284Y-70328705D01*
X114924894Y-69727557D01*
X114465363Y-69267222D01*
X113864648Y-69017784D01*
X113214205Y-69017216D01*
X112613057Y-69265606D01*
X112152722Y-69725137D01*
X111903284Y-70325852D01*
X111902716Y-70976295D01*
X104711500Y-70976295D01*
X104711500Y-69923381D01*
X104741647Y-69893287D01*
X104872850Y-69577315D01*
X104873149Y-69235186D01*
X104742497Y-68918986D01*
X104500787Y-68676853D01*
X104184815Y-68545650D01*
X103842686Y-68545351D01*
X103526486Y-68676003D01*
X103284353Y-68917713D01*
X103153150Y-69233685D01*
X103152851Y-69575814D01*
X103283503Y-69892014D01*
X103314500Y-69923065D01*
X103314500Y-71380396D01*
X102749396Y-71945500D01*
X95948500Y-71945500D01*
X95681195Y-71998670D01*
X95454586Y-72150086D01*
X95440500Y-72164172D01*
X95440500Y-67031500D01*
X126709060Y-67031500D01*
X126709060Y-68731500D01*
X126758343Y-68979265D01*
X126898691Y-69189309D01*
X127108735Y-69329657D01*
X127356500Y-69378940D01*
X129056500Y-69378940D01*
X129304265Y-69329657D01*
X129514309Y-69189309D01*
X129654657Y-68979265D01*
X129675239Y-68875792D01*
X129979576Y-69153145D01*
X130389610Y-69322976D01*
X130619500Y-69201655D01*
X130619500Y-68008500D01*
X130873500Y-68008500D01*
X130873500Y-69201655D01*
X131103390Y-69322976D01*
X131513424Y-69153145D01*
X131941683Y-68762858D01*
X132187986Y-68238392D01*
X132067319Y-68008500D01*
X130873500Y-68008500D01*
X130619500Y-68008500D01*
X130599500Y-68008500D01*
X130599500Y-67754500D01*
X130619500Y-67754500D01*
X130619500Y-66561345D01*
X130873500Y-66561345D01*
X130873500Y-67754500D01*
X132067319Y-67754500D01*
X132187986Y-67524608D01*
X131941683Y-67000142D01*
X131513424Y-66609855D01*
X131103390Y-66440024D01*
X130873500Y-66561345D01*
X130619500Y-66561345D01*
X130389610Y-66440024D01*
X129979576Y-66609855D01*
X129675239Y-66887208D01*
X129654657Y-66783735D01*
X129514309Y-66573691D01*
X129304265Y-66433343D01*
X129056500Y-66384060D01*
X127356500Y-66384060D01*
X127108735Y-66433343D01*
X126898691Y-66573691D01*
X126758343Y-66783735D01*
X126709060Y-67031500D01*
X95440500Y-67031500D01*
X95440500Y-59598328D01*
X97981216Y-57057612D01*
X98023814Y-57057649D01*
X98340014Y-56926997D01*
X98582147Y-56685287D01*
X98713350Y-56369315D01*
X98713444Y-56261000D01*
X114803315Y-56261000D01*
X114899227Y-56743181D01*
X115172360Y-57151955D01*
X115581134Y-57425088D01*
X116063315Y-57521000D01*
X116112685Y-57521000D01*
X116594866Y-57425088D01*
X117003640Y-57151955D01*
X117276773Y-56743181D01*
X117372685Y-56261000D01*
X119803315Y-56261000D01*
X119899227Y-56743181D01*
X120172360Y-57151955D01*
X120581134Y-57425088D01*
X121063315Y-57521000D01*
X121112685Y-57521000D01*
X121594866Y-57425088D01*
X122003640Y-57151955D01*
X122276773Y-56743181D01*
X122372685Y-56261000D01*
X122276773Y-55778819D01*
X122014301Y-55386000D01*
X130407060Y-55386000D01*
X130407060Y-57136000D01*
X130456343Y-57383765D01*
X130596691Y-57593809D01*
X130806735Y-57734157D01*
X131054500Y-57783440D01*
X132804500Y-57783440D01*
X133052265Y-57734157D01*
X133262309Y-57593809D01*
X133392975Y-57398255D01*
X133432414Y-57437694D01*
X133547046Y-57323062D01*
X133630384Y-57576953D01*
X134194806Y-57782590D01*
X134794958Y-57756579D01*
X135228616Y-57576953D01*
X135311955Y-57323060D01*
X134429500Y-56440605D01*
X134415358Y-56454748D01*
X134235753Y-56275143D01*
X134249895Y-56261000D01*
X134609105Y-56261000D01*
X135491560Y-57143455D01*
X135745453Y-57060116D01*
X135951090Y-56495694D01*
X135925079Y-55895542D01*
X135745453Y-55461884D01*
X135491560Y-55378545D01*
X134609105Y-56261000D01*
X134249895Y-56261000D01*
X134235753Y-56246858D01*
X134415358Y-56067253D01*
X134429500Y-56081395D01*
X135311955Y-55198940D01*
X135228616Y-54945047D01*
X134664194Y-54739410D01*
X134064042Y-54765421D01*
X133630384Y-54945047D01*
X133547046Y-55198938D01*
X133432414Y-55084306D01*
X133392975Y-55123745D01*
X133262309Y-54928191D01*
X133052265Y-54787843D01*
X132804500Y-54738560D01*
X131054500Y-54738560D01*
X130806735Y-54787843D01*
X130596691Y-54928191D01*
X130456343Y-55138235D01*
X130407060Y-55386000D01*
X122014301Y-55386000D01*
X122003640Y-55370045D01*
X121594866Y-55096912D01*
X121112685Y-55001000D01*
X121063315Y-55001000D01*
X120581134Y-55096912D01*
X120172360Y-55370045D01*
X119899227Y-55778819D01*
X119803315Y-56261000D01*
X117372685Y-56261000D01*
X117276773Y-55778819D01*
X117003640Y-55370045D01*
X116594866Y-55096912D01*
X116112685Y-55001000D01*
X116063315Y-55001000D01*
X115581134Y-55096912D01*
X115172360Y-55370045D01*
X114899227Y-55778819D01*
X114803315Y-56261000D01*
X98713444Y-56261000D01*
X98713649Y-56027186D01*
X98582997Y-55710986D01*
X98341287Y-55468853D01*
X98025315Y-55337650D01*
X97683186Y-55337351D01*
X97366986Y-55468003D01*
X97124853Y-55709713D01*
X96993650Y-56025685D01*
X96993612Y-56069560D01*
X94248086Y-58815086D01*
X94096670Y-59041695D01*
X94096670Y-59041696D01*
X94043500Y-59309000D01*
X94043500Y-85788500D01*
X94096670Y-86055805D01*
X94248086Y-86282414D01*
X95660001Y-87694329D01*
X95660001Y-91383726D01*
X95713171Y-91651031D01*
X95864587Y-91877640D01*
X100717874Y-96730927D01*
X100944484Y-96882343D01*
X101211788Y-96935513D01*
X101493961Y-96935513D01*
X102933489Y-98375041D01*
X102933489Y-100520489D01*
X102949880Y-100602891D01*
X102839853Y-100712725D01*
X102708650Y-101028697D01*
X102708351Y-101370826D01*
X102839003Y-101687026D01*
X103080713Y-101929159D01*
X103396685Y-102060362D01*
X103440560Y-102060400D01*
X104603035Y-103222875D01*
X104406455Y-103419111D01*
X104275252Y-103735083D01*
X104275039Y-103978451D01*
X104160186Y-103978351D01*
X103843986Y-104109003D01*
X103601853Y-104350713D01*
X103470650Y-104666685D01*
X103470351Y-105008814D01*
X103601003Y-105325014D01*
X103842713Y-105567147D01*
X104158685Y-105698350D01*
X104202560Y-105698388D01*
X104324111Y-105819939D01*
X104223686Y-105819851D01*
X104056954Y-105888744D01*
X103929287Y-105760853D01*
X103613315Y-105629650D01*
X103385846Y-105629451D01*
X103277951Y-105368326D01*
X103036241Y-105126193D01*
X102720269Y-104994990D01*
X102378140Y-104994691D01*
X102061940Y-105125343D01*
X101819807Y-105367053D01*
X101688604Y-105683025D01*
X101688566Y-105726900D01*
X100471086Y-106944380D01*
X100319670Y-107170989D01*
X100283500Y-107352831D01*
X100266500Y-107438294D01*
X100266500Y-107787672D01*
X98904112Y-106425284D01*
X98904149Y-106382686D01*
X98773497Y-106066486D01*
X98531787Y-105824353D01*
X98215815Y-105693150D01*
X97873686Y-105692851D01*
X97557486Y-105823503D01*
X97472453Y-105908388D01*
X97261787Y-105697353D01*
X96945815Y-105566150D01*
X96603686Y-105565851D01*
X96287486Y-105696503D01*
X96076284Y-105907337D01*
X95866315Y-105820150D01*
X95524186Y-105819851D01*
X95504000Y-105828192D01*
X95504000Y-103095828D01*
X99632216Y-98967612D01*
X99674814Y-98967649D01*
X99991014Y-98836997D01*
X100233147Y-98595287D01*
X100364350Y-98279315D01*
X100364649Y-97937186D01*
X100233997Y-97620986D01*
X99992287Y-97378853D01*
X99676315Y-97247650D01*
X99334186Y-97247351D01*
X99017986Y-97378003D01*
X98775853Y-97619713D01*
X98644650Y-97935685D01*
X98644612Y-97979560D01*
X94311586Y-102312586D01*
X94160170Y-102539195D01*
X94160170Y-102539196D01*
X94107000Y-102806500D01*
X94107000Y-103661055D01*
X93873186Y-103660851D01*
X93556986Y-103791503D01*
X93314853Y-104033213D01*
X93183650Y-104349185D01*
X93183351Y-104691314D01*
X93314003Y-105007514D01*
X93555713Y-105249647D01*
X93871685Y-105380850D01*
X93915560Y-105380888D01*
X94107000Y-105572328D01*
X94107000Y-107378500D01*
X94160170Y-107645805D01*
X94311586Y-107872414D01*
X97491632Y-111052460D01*
X97480825Y-111078486D01*
X87820116Y-101417777D01*
X87820353Y-101146982D01*
X87689701Y-100830782D01*
X87447991Y-100588649D01*
X87132019Y-100457446D01*
X86789890Y-100457147D01*
X86473690Y-100587799D01*
X86231557Y-100829509D01*
X86173615Y-100969049D01*
X86035282Y-101026207D01*
X85793149Y-101267917D01*
X85661946Y-101583889D01*
X85661647Y-101926018D01*
X85792299Y-102242218D01*
X86034009Y-102484351D01*
X86349981Y-102615554D01*
X86622453Y-102615792D01*
X92073277Y-108066616D01*
X91969484Y-108109503D01*
X91727351Y-108351213D01*
X91596148Y-108667185D01*
X91596111Y-108709330D01*
X87350924Y-104464143D01*
X87350961Y-104421545D01*
X87220309Y-104105345D01*
X86978599Y-103863212D01*
X86662627Y-103732009D01*
X86320498Y-103731710D01*
X86004298Y-103862362D01*
X85762165Y-104104072D01*
X85630962Y-104420044D01*
X85630663Y-104762173D01*
X85761315Y-105078373D01*
X86003025Y-105320506D01*
X86318997Y-105451709D01*
X86362872Y-105451747D01*
X94551500Y-113640375D01*
X94551500Y-120703619D01*
X94521353Y-120733713D01*
X94390150Y-121049685D01*
X94389851Y-121391814D01*
X94520503Y-121708014D01*
X94762213Y-121950147D01*
X95078185Y-122081350D01*
X95420314Y-122081649D01*
X95736514Y-121950997D01*
X95978647Y-121709287D01*
X96109850Y-121393315D01*
X96110149Y-121051186D01*
X95979497Y-120734986D01*
X95948500Y-120703935D01*
X95948500Y-114656339D01*
X95954383Y-114660766D01*
X95954547Y-114660940D01*
X95954711Y-114661014D01*
X95995154Y-114691450D01*
X96055681Y-114720598D01*
X96104692Y-114733241D01*
X96104855Y-114733325D01*
X96105098Y-114733346D01*
X96131677Y-114740202D01*
X96156741Y-114751417D01*
X96156941Y-114751551D01*
X96157119Y-114751586D01*
X96203317Y-114772259D01*
X96268812Y-114787208D01*
X96319406Y-114788628D01*
X96319582Y-114788673D01*
X96319821Y-114788639D01*
X96347268Y-114789409D01*
X96374196Y-114794766D01*
X96374422Y-114794852D01*
X96374604Y-114794847D01*
X96424245Y-114804721D01*
X96491423Y-114804721D01*
X96541063Y-114794847D01*
X96541245Y-114794852D01*
X96541470Y-114794766D01*
X96568400Y-114789409D01*
X96595847Y-114788639D01*
X96596086Y-114788673D01*
X96596262Y-114788628D01*
X96646856Y-114787208D01*
X96712350Y-114772259D01*
X96758548Y-114751587D01*
X96758727Y-114751551D01*
X96758929Y-114751416D01*
X96783989Y-114740202D01*
X96810559Y-114733348D01*
X96810801Y-114733328D01*
X96810963Y-114733244D01*
X96859988Y-114720598D01*
X96920514Y-114691450D01*
X96960957Y-114661014D01*
X96961121Y-114660940D01*
X96961285Y-114660766D01*
X96983219Y-114644260D01*
X97052941Y-114608242D01*
X97091500Y-114577493D01*
X97091500Y-119408889D01*
X97048186Y-119408851D01*
X96731986Y-119539503D01*
X96489853Y-119781213D01*
X96358650Y-120097185D01*
X96358612Y-120141060D01*
X96343586Y-120156086D01*
X96192170Y-120382695D01*
X96170258Y-120492853D01*
X96139000Y-120650000D01*
X96139000Y-124767619D01*
X96108853Y-124797713D01*
X95977650Y-125113685D01*
X95977351Y-125455814D01*
X96108003Y-125772014D01*
X96349713Y-126014147D01*
X96665685Y-126145350D01*
X97007814Y-126145649D01*
X97324014Y-126014997D01*
X97566147Y-125773287D01*
X97697350Y-125457315D01*
X97697649Y-125115186D01*
X97566997Y-124798986D01*
X97536000Y-124767935D01*
X97536000Y-124718116D01*
X97539799Y-124727310D01*
X97781509Y-124969443D01*
X97921049Y-125027385D01*
X97978207Y-125165718D01*
X98219917Y-125407851D01*
X98535889Y-125539054D01*
X98777002Y-125539265D01*
X98777002Y-131737149D01*
X98636986Y-131795003D01*
X98488397Y-131943332D01*
X98277787Y-131732353D01*
X97961815Y-131601150D01*
X97917940Y-131601112D01*
X96464512Y-130147684D01*
X96486101Y-130120613D01*
X96522123Y-130050886D01*
X96538638Y-130028942D01*
X96538813Y-130028776D01*
X96538887Y-130028610D01*
X96569318Y-129988175D01*
X96598466Y-129927648D01*
X96611109Y-129878637D01*
X96611192Y-129878476D01*
X96611212Y-129878235D01*
X96618071Y-129851646D01*
X96629281Y-129826594D01*
X96629418Y-129826389D01*
X96629454Y-129826207D01*
X96650128Y-129780004D01*
X96665076Y-129714510D01*
X96666495Y-129663926D01*
X96666541Y-129663747D01*
X96666507Y-129663504D01*
X96667277Y-129636061D01*
X96672631Y-129609142D01*
X96672718Y-129608914D01*
X96672713Y-129608731D01*
X96682588Y-129559085D01*
X96682588Y-129491906D01*
X96672713Y-129442260D01*
X96672718Y-129442077D01*
X96672631Y-129441849D01*
X96667277Y-129414930D01*
X96666507Y-129387487D01*
X96666541Y-129387244D01*
X96666495Y-129387065D01*
X96665076Y-129336481D01*
X96650128Y-129270987D01*
X96629454Y-129224784D01*
X96629418Y-129224602D01*
X96629281Y-129224397D01*
X96618071Y-129199345D01*
X96611215Y-129172764D01*
X96611194Y-129172521D01*
X96611110Y-129172358D01*
X96598466Y-129123343D01*
X96569318Y-129062816D01*
X96538887Y-129022381D01*
X96538813Y-129022215D01*
X96538638Y-129022049D01*
X96522125Y-129000108D01*
X96509526Y-128975720D01*
X96509452Y-128975487D01*
X96509333Y-128975346D01*
X96486105Y-128930383D01*
X96444220Y-128877860D01*
X96405544Y-128845201D01*
X96405434Y-128845054D01*
X96405224Y-128844930D01*
X96384256Y-128827224D01*
X96366528Y-128806230D01*
X96366409Y-128806028D01*
X96366268Y-128805922D01*
X96333617Y-128767255D01*
X96281094Y-128725369D01*
X96236129Y-128702140D01*
X96235990Y-128702022D01*
X96235759Y-128701949D01*
X96211358Y-128689342D01*
X96189432Y-128672842D01*
X96189263Y-128672663D01*
X96189094Y-128672587D01*
X96148645Y-128642147D01*
X96088119Y-128613000D01*
X96039117Y-128600360D01*
X96038956Y-128600277D01*
X96038716Y-128600257D01*
X96012126Y-128593398D01*
X95987071Y-128582187D01*
X95986868Y-128582051D01*
X95986688Y-128582015D01*
X95940493Y-128561344D01*
X95874999Y-128546395D01*
X95824398Y-128544975D01*
X95824216Y-128544928D01*
X95823969Y-128544963D01*
X95818141Y-128544799D01*
X95817977Y-128538958D01*
X95818011Y-128538715D01*
X95817965Y-128538536D01*
X95816546Y-128487952D01*
X95801598Y-128422458D01*
X95780924Y-128376255D01*
X95780888Y-128376073D01*
X95780751Y-128375868D01*
X95769541Y-128350816D01*
X95762685Y-128324235D01*
X95762664Y-128323992D01*
X95762580Y-128323829D01*
X95749936Y-128274814D01*
X95720788Y-128214287D01*
X95690357Y-128173852D01*
X95690283Y-128173686D01*
X95690108Y-128173520D01*
X95673595Y-128151579D01*
X95660996Y-128127191D01*
X95660922Y-128126958D01*
X95660803Y-128126817D01*
X95637575Y-128081854D01*
X95595690Y-128029331D01*
X95557014Y-127996672D01*
X95556904Y-127996525D01*
X95556694Y-127996401D01*
X95535726Y-127978695D01*
X95517998Y-127957701D01*
X95517879Y-127957499D01*
X95517738Y-127957393D01*
X95485087Y-127918726D01*
X95432564Y-127876840D01*
X95387599Y-127853611D01*
X95387460Y-127853493D01*
X95387229Y-127853420D01*
X95362828Y-127840813D01*
X95340902Y-127824313D01*
X95340733Y-127824134D01*
X95340564Y-127824058D01*
X95300115Y-127793618D01*
X95239589Y-127764471D01*
X95190587Y-127751831D01*
X95190426Y-127751748D01*
X95190186Y-127751728D01*
X95163596Y-127744869D01*
X95138541Y-127733658D01*
X95138338Y-127733522D01*
X95138158Y-127733486D01*
X95091963Y-127712815D01*
X95026469Y-127697866D01*
X94975868Y-127696446D01*
X94975686Y-127696399D01*
X94975439Y-127696434D01*
X94948013Y-127695664D01*
X94921081Y-127690307D01*
X94920853Y-127690220D01*
X94920670Y-127690225D01*
X94871034Y-127680352D01*
X94803855Y-127680352D01*
X94754219Y-127690225D01*
X94754036Y-127690220D01*
X94753808Y-127690307D01*
X94726876Y-127695664D01*
X94699443Y-127696434D01*
X94699202Y-127696400D01*
X94699025Y-127696446D01*
X94648420Y-127697866D01*
X94582926Y-127712815D01*
X94536731Y-127733486D01*
X94536551Y-127733522D01*
X94536348Y-127733658D01*
X94511293Y-127744869D01*
X94484703Y-127751728D01*
X94484463Y-127751748D01*
X94484302Y-127751831D01*
X94435299Y-127764471D01*
X94374774Y-127793618D01*
X94334325Y-127824059D01*
X94334156Y-127824134D01*
X94333987Y-127824312D01*
X94312059Y-127840815D01*
X94242326Y-127876840D01*
X94215255Y-127898428D01*
X87122000Y-120805172D01*
X87122000Y-108213881D01*
X87152147Y-108183787D01*
X87283350Y-107867815D01*
X87283649Y-107525686D01*
X87152997Y-107209486D01*
X86911287Y-106967353D01*
X86595315Y-106836150D01*
X86253186Y-106835851D01*
X85936986Y-106966503D01*
X85694853Y-107208213D01*
X85563650Y-107524185D01*
X85563351Y-107866314D01*
X85694003Y-108182514D01*
X85725000Y-108213565D01*
X85725000Y-121094500D01*
X85778170Y-121361805D01*
X85929586Y-121588414D01*
X93402341Y-129061170D01*
X93380143Y-129061793D01*
X93379902Y-129061759D01*
X93379725Y-129061805D01*
X93329120Y-129063225D01*
X93263626Y-129078174D01*
X93217431Y-129098845D01*
X93217251Y-129098881D01*
X93217048Y-129099017D01*
X93191993Y-129110228D01*
X93165403Y-129117087D01*
X93165163Y-129117107D01*
X93165002Y-129117190D01*
X93115999Y-129129830D01*
X93055474Y-129158977D01*
X93015025Y-129189418D01*
X93014856Y-129189493D01*
X93014687Y-129189671D01*
X92992759Y-129206174D01*
X92923026Y-129242199D01*
X92870502Y-129284085D01*
X92844983Y-129314306D01*
X92814735Y-129334517D01*
X92787196Y-129281212D01*
X92745310Y-129228690D01*
X92715090Y-129203172D01*
X92693120Y-129170291D01*
X91891517Y-128368689D01*
X91806914Y-128242072D01*
X85625928Y-122061086D01*
X85499310Y-121976482D01*
X85471000Y-121948172D01*
X85471000Y-106372381D01*
X85501147Y-106342287D01*
X85632350Y-106026315D01*
X85632649Y-105684186D01*
X85501997Y-105367986D01*
X85260287Y-105125853D01*
X84944315Y-104994650D01*
X84602186Y-104994351D01*
X84285986Y-105125003D01*
X84043853Y-105366713D01*
X83912650Y-105682685D01*
X83912351Y-106024814D01*
X82579897Y-106024814D01*
X82707147Y-105897787D01*
X82838350Y-105581815D01*
X82838649Y-105239686D01*
X82707997Y-104923486D01*
X82466287Y-104681353D01*
X82150315Y-104550150D01*
X81808186Y-104549851D01*
X81491986Y-104680503D01*
X81249853Y-104922213D01*
X81118650Y-105238185D01*
X81118612Y-105282060D01*
X75960087Y-110440585D01*
X75808671Y-110667194D01*
X75767548Y-110873935D01*
X75755501Y-110934499D01*
X75755501Y-111115119D01*
X75725354Y-111145213D01*
X75594151Y-111461185D01*
X75593852Y-111803314D01*
X69931684Y-111803314D01*
X70230647Y-111603554D01*
X70552554Y-111121785D01*
X70665593Y-110553500D01*
X70552554Y-109985215D01*
X70230647Y-109503446D01*
X69901474Y-109283500D01*
X70230647Y-109063554D01*
X70552554Y-108581785D01*
X70665593Y-108013500D01*
X70552554Y-107445215D01*
X70230647Y-106963446D01*
X69901474Y-106743500D01*
X70230647Y-106523554D01*
X70552554Y-106041785D01*
X70665593Y-105473500D01*
X70552554Y-104905215D01*
X70230647Y-104423446D01*
X69901474Y-104203500D01*
X70230647Y-103983554D01*
X70552554Y-103501785D01*
X70665593Y-102933500D01*
X70552554Y-102365215D01*
X70230647Y-101883446D01*
X69901474Y-101663500D01*
X70230647Y-101443554D01*
X70552554Y-100961785D01*
X70665593Y-100393500D01*
X70552554Y-99825215D01*
X70230647Y-99343446D01*
X69889947Y-99115798D01*
X70032858Y-99048683D01*
X70423145Y-98620424D01*
X70592976Y-98210390D01*
X70471655Y-97980500D01*
X69278500Y-97980500D01*
X69278500Y-98000500D01*
X69024500Y-98000500D01*
X69024500Y-97980500D01*
X67831345Y-97980500D01*
X67710024Y-98210390D01*
X67879855Y-98620424D01*
X68270142Y-99048683D01*
X68413053Y-99115798D01*
X68072353Y-99343446D01*
X67750446Y-99825215D01*
X67637407Y-100393500D01*
X66542613Y-100393500D01*
X66610649Y-54673500D01*
X67637407Y-54673500D01*
X67750446Y-55241785D01*
X68072353Y-55723554D01*
X68401526Y-55943500D01*
X68072353Y-56163446D01*
X67750446Y-56645215D01*
X67637407Y-57213500D01*
X67750446Y-57781785D01*
X68072353Y-58263554D01*
X68401526Y-58483500D01*
X68072353Y-58703446D01*
X67750446Y-59185215D01*
X67637407Y-59753500D01*
X67750446Y-60321785D01*
X68072353Y-60803554D01*
X68401526Y-61023500D01*
X68072353Y-61243446D01*
X67750446Y-61725215D01*
X67637407Y-62293500D01*
X67750446Y-62861785D01*
X68072353Y-63343554D01*
X68401526Y-63563500D01*
X68072353Y-63783446D01*
X67750446Y-64265215D01*
X67637407Y-64833500D01*
X67750446Y-65401785D01*
X68072353Y-65883554D01*
X68401526Y-66103500D01*
X68072353Y-66323446D01*
X67750446Y-66805215D01*
X67637407Y-67373500D01*
X67750446Y-67941785D01*
X68072353Y-68423554D01*
X68401526Y-68643500D01*
X68072353Y-68863446D01*
X67750446Y-69345215D01*
X67637407Y-69913500D01*
X67750446Y-70481785D01*
X68072353Y-70963554D01*
X68401526Y-71183500D01*
X68072353Y-71403446D01*
X67750446Y-71885215D01*
X67637407Y-72453500D01*
X67750446Y-73021785D01*
X68072353Y-73503554D01*
X68401526Y-73723500D01*
X68072353Y-73943446D01*
X67750446Y-74425215D01*
X67637407Y-74993500D01*
X67750446Y-75561785D01*
X68072353Y-76043554D01*
X68401526Y-76263500D01*
X68072353Y-76483446D01*
X67750446Y-76965215D01*
X67637407Y-77533500D01*
X67750446Y-78101785D01*
X68072353Y-78583554D01*
X68401526Y-78803500D01*
X68072353Y-79023446D01*
X67750446Y-79505215D01*
X67637407Y-80073500D01*
X67750446Y-80641785D01*
X68072353Y-81123554D01*
X68401526Y-81343500D01*
X68072353Y-81563446D01*
X67750446Y-82045215D01*
X67637407Y-82613500D01*
X67750446Y-83181785D01*
X68072353Y-83663554D01*
X68401526Y-83883500D01*
X68072353Y-84103446D01*
X67750446Y-84585215D01*
X67637407Y-85153500D01*
X67750446Y-85721785D01*
X68072353Y-86203554D01*
X68401526Y-86423500D01*
X68072353Y-86643446D01*
X67750446Y-87125215D01*
X67637407Y-87693500D01*
X67750446Y-88261785D01*
X68072353Y-88743554D01*
X68401526Y-88963500D01*
X68072353Y-89183446D01*
X67750446Y-89665215D01*
X67637407Y-90233500D01*
X67750446Y-90801785D01*
X68072353Y-91283554D01*
X68401526Y-91503500D01*
X68072353Y-91723446D01*
X67750446Y-92205215D01*
X67637407Y-92773500D01*
X67750446Y-93341785D01*
X68072353Y-93823554D01*
X68401526Y-94043500D01*
X68072353Y-94263446D01*
X67750446Y-94745215D01*
X67637407Y-95313500D01*
X67750446Y-95881785D01*
X68072353Y-96363554D01*
X68413053Y-96591202D01*
X68270142Y-96658317D01*
X67879855Y-97086576D01*
X67710024Y-97496610D01*
X67831345Y-97726500D01*
X69024500Y-97726500D01*
X69024500Y-97706500D01*
X69278500Y-97706500D01*
X69278500Y-97726500D01*
X70471655Y-97726500D01*
X70592976Y-97496610D01*
X70423145Y-97086576D01*
X70177758Y-96817314D01*
X82197851Y-96817314D01*
X82328503Y-97133514D01*
X82570213Y-97375647D01*
X82886185Y-97506850D01*
X83228314Y-97507149D01*
X83544514Y-97376497D01*
X83575565Y-97345500D01*
X84254951Y-97345500D01*
X84475213Y-97566147D01*
X84791185Y-97697350D01*
X85133314Y-97697649D01*
X85449514Y-97566997D01*
X85691647Y-97325287D01*
X85822850Y-97009315D01*
X85823149Y-96667186D01*
X85692497Y-96350986D01*
X85450787Y-96108853D01*
X85134815Y-95977650D01*
X84918096Y-95977461D01*
X84772500Y-95948500D01*
X83575881Y-95948500D01*
X83545787Y-95918353D01*
X83229815Y-95787150D01*
X82887686Y-95786851D01*
X82571486Y-95917503D01*
X82329353Y-96159213D01*
X82198150Y-96475185D01*
X82197851Y-96817314D01*
X70177758Y-96817314D01*
X70032858Y-96658317D01*
X69889947Y-96591202D01*
X70230647Y-96363554D01*
X70552554Y-95881785D01*
X70656977Y-95356814D01*
X85499851Y-95356814D01*
X85630503Y-95673014D01*
X85872213Y-95915147D01*
X86188185Y-96046350D01*
X86411466Y-96046545D01*
X86519503Y-96308014D01*
X86761213Y-96550147D01*
X87077185Y-96681350D01*
X87419314Y-96681649D01*
X87735514Y-96550997D01*
X87977647Y-96309287D01*
X88108850Y-95993315D01*
X88109149Y-95651186D01*
X87978497Y-95334986D01*
X87736787Y-95092853D01*
X87420815Y-94961650D01*
X87376940Y-94961612D01*
X87107914Y-94692586D01*
X87030421Y-94640807D01*
X86847787Y-94457853D01*
X86531815Y-94326650D01*
X86189686Y-94326351D01*
X85873486Y-94457003D01*
X85631353Y-94698713D01*
X85500150Y-95014685D01*
X85499851Y-95356814D01*
X70656977Y-95356814D01*
X70665593Y-95313500D01*
X70552554Y-94745215D01*
X70230647Y-94263446D01*
X69901474Y-94043500D01*
X70230647Y-93823554D01*
X70552554Y-93341785D01*
X70665593Y-92773500D01*
X70552554Y-92205215D01*
X70230647Y-91723446D01*
X69901474Y-91503500D01*
X70230647Y-91283554D01*
X70552554Y-90801785D01*
X70665593Y-90233500D01*
X70552554Y-89665215D01*
X70230647Y-89183446D01*
X69901474Y-88963500D01*
X70230647Y-88743554D01*
X70552554Y-88261785D01*
X70665593Y-87693500D01*
X70552554Y-87125215D01*
X70230647Y-86643446D01*
X69901474Y-86423500D01*
X70230647Y-86203554D01*
X70552554Y-85721785D01*
X70665593Y-85153500D01*
X70552554Y-84585215D01*
X70230647Y-84103446D01*
X69901474Y-83883500D01*
X70230647Y-83663554D01*
X70552554Y-83181785D01*
X70665593Y-82613500D01*
X70552554Y-82045215D01*
X70230647Y-81563446D01*
X69901474Y-81343500D01*
X70230647Y-81123554D01*
X70552554Y-80641785D01*
X70631715Y-80243816D01*
X73498351Y-80243816D01*
X73629003Y-80560016D01*
X73870713Y-80802149D01*
X74186685Y-80933352D01*
X74528814Y-80933651D01*
X74845014Y-80802999D01*
X74876065Y-80772002D01*
X77625174Y-80772002D01*
X91277672Y-94424500D01*
X89887828Y-94424500D01*
X80249914Y-84786586D01*
X80023305Y-84635170D01*
X79756000Y-84582000D01*
X75765381Y-84582000D01*
X75735287Y-84551853D01*
X75419315Y-84420650D01*
X75077186Y-84420351D01*
X74760986Y-84551003D01*
X74518853Y-84792713D01*
X74387650Y-85108685D01*
X74387351Y-85450814D01*
X74518003Y-85767014D01*
X74759713Y-86009147D01*
X75075685Y-86140350D01*
X75417814Y-86140649D01*
X75734014Y-86009997D01*
X75765065Y-85979000D01*
X79466672Y-85979000D01*
X89104586Y-95616914D01*
X89331195Y-95768330D01*
X89598500Y-95821500D01*
X92837000Y-95821500D01*
X93104305Y-95768330D01*
X93330914Y-95616914D01*
X93740915Y-95206913D01*
X93823991Y-95082581D01*
X93958514Y-95026997D01*
X94200647Y-94785287D01*
X94331850Y-94469315D01*
X94332149Y-94127186D01*
X94201497Y-93810986D01*
X93959787Y-93568853D01*
X93643815Y-93437650D01*
X93301686Y-93437351D01*
X92985486Y-93568003D01*
X92743353Y-93809713D01*
X92732535Y-93835766D01*
X92691315Y-93818650D01*
X92647440Y-93818612D01*
X89677142Y-90848314D01*
X91659351Y-90848314D01*
X91790003Y-91164514D01*
X92031713Y-91406647D01*
X92347685Y-91537850D01*
X92689814Y-91538149D01*
X93006014Y-91407497D01*
X93248147Y-91165787D01*
X93379350Y-90849815D01*
X93379649Y-90507686D01*
X93248997Y-90191486D01*
X93218000Y-90160435D01*
X93218000Y-73225387D01*
X93248153Y-73195287D01*
X93379356Y-72879315D01*
X93379655Y-72537186D01*
X93249003Y-72220986D01*
X93007293Y-71978853D01*
X92691321Y-71847650D01*
X92349192Y-71847351D01*
X92032992Y-71978003D01*
X91790859Y-72219713D01*
X91659656Y-72535685D01*
X91659357Y-72877814D01*
X91790009Y-73194014D01*
X91821000Y-73225059D01*
X91821000Y-90160119D01*
X91790853Y-90190213D01*
X91659650Y-90506185D01*
X91659351Y-90848314D01*
X89677142Y-90848314D01*
X78408416Y-79579588D01*
X78181807Y-79428172D01*
X77914502Y-79375002D01*
X74876381Y-79375002D01*
X74846287Y-79344855D01*
X74530315Y-79213652D01*
X74188186Y-79213353D01*
X73871986Y-79344005D01*
X73629853Y-79585715D01*
X73498650Y-79901687D01*
X73498351Y-80243816D01*
X70631715Y-80243816D01*
X70665593Y-80073500D01*
X70552554Y-79505215D01*
X70230647Y-79023446D01*
X69901474Y-78803500D01*
X70230647Y-78583554D01*
X70552554Y-78101785D01*
X70665593Y-77533500D01*
X70552554Y-76965215D01*
X70230647Y-76483446D01*
X69901474Y-76263500D01*
X70230647Y-76043554D01*
X70552554Y-75561785D01*
X70665593Y-74993500D01*
X70552554Y-74425215D01*
X70230647Y-73943446D01*
X69901474Y-73723500D01*
X70230647Y-73503554D01*
X70552554Y-73021785D01*
X70665593Y-72453500D01*
X70552554Y-71885215D01*
X70230647Y-71403446D01*
X69901474Y-71183500D01*
X70230647Y-70963554D01*
X70552554Y-70481785D01*
X70665593Y-69913500D01*
X70552554Y-69345215D01*
X70230647Y-68863446D01*
X69901474Y-68643500D01*
X70230647Y-68423554D01*
X70552554Y-67941785D01*
X70665593Y-67373500D01*
X70552554Y-66805215D01*
X70230647Y-66323446D01*
X69901474Y-66103500D01*
X70230647Y-65883554D01*
X70552554Y-65401785D01*
X70665593Y-64833500D01*
X70552554Y-64265215D01*
X70230647Y-63783446D01*
X69901474Y-63563500D01*
X70230647Y-63343554D01*
X70552554Y-62861785D01*
X70665593Y-62293500D01*
X70552554Y-61725215D01*
X70230647Y-61243446D01*
X69901474Y-61023500D01*
X70230647Y-60803554D01*
X70552554Y-60321785D01*
X70665593Y-59753500D01*
X70552554Y-59185215D01*
X70230647Y-58703446D01*
X69901474Y-58483500D01*
X70230647Y-58263554D01*
X70552554Y-57781785D01*
X70665593Y-57213500D01*
X70552554Y-56645215D01*
X70230647Y-56163446D01*
X69901474Y-55943500D01*
X70230647Y-55723554D01*
X70552554Y-55241785D01*
X70665593Y-54673500D01*
X70552554Y-54105215D01*
X70279722Y-53696892D01*
X78505014Y-53696892D01*
X78751317Y-54221358D01*
X79179576Y-54611645D01*
X79589610Y-54781476D01*
X79819500Y-54660155D01*
X79819500Y-53467000D01*
X78625681Y-53467000D01*
X78505014Y-53696892D01*
X70279722Y-53696892D01*
X70230647Y-53623446D01*
X69748878Y-53301539D01*
X69180593Y-53188500D01*
X69122407Y-53188500D01*
X68554122Y-53301539D01*
X68072353Y-53623446D01*
X67750446Y-54105215D01*
X67637407Y-54673500D01*
X66610649Y-54673500D01*
X66611427Y-54151006D01*
X67668096Y-52983108D01*
X78505014Y-52983108D01*
X78625681Y-53213000D01*
X79819500Y-53213000D01*
X79819500Y-52019845D01*
X80073500Y-52019845D01*
X80073500Y-53213000D01*
X80093500Y-53213000D01*
X80093500Y-53467000D01*
X80073500Y-53467000D01*
X80073500Y-54660155D01*
X80303390Y-54781476D01*
X80713424Y-54611645D01*
X81141683Y-54221358D01*
X81208798Y-54078447D01*
X81436446Y-54419147D01*
X81918215Y-54741054D01*
X82486500Y-54854093D01*
X83054785Y-54741054D01*
X83536554Y-54419147D01*
X83756500Y-54089974D01*
X83976446Y-54419147D01*
X84458215Y-54741054D01*
X85026500Y-54854093D01*
X85594785Y-54741054D01*
X86076554Y-54419147D01*
X86105903Y-54375223D01*
X86118343Y-54437765D01*
X86258691Y-54647809D01*
X86468735Y-54788157D01*
X86716500Y-54837440D01*
X88416500Y-54837440D01*
X88664265Y-54788157D01*
X88874309Y-54647809D01*
X89014657Y-54437765D01*
X89063940Y-54190000D01*
X89063940Y-52490000D01*
X97689560Y-52490000D01*
X97689560Y-54190000D01*
X97738843Y-54437765D01*
X97879191Y-54647809D01*
X98089235Y-54788157D01*
X98337000Y-54837440D01*
X100037000Y-54837440D01*
X100284765Y-54788157D01*
X100494809Y-54647809D01*
X100635157Y-54437765D01*
X100647597Y-54375223D01*
X100676946Y-54419147D01*
X101158715Y-54741054D01*
X101727000Y-54854093D01*
X102295285Y-54741054D01*
X102777054Y-54419147D01*
X102997000Y-54089974D01*
X103216946Y-54419147D01*
X103698715Y-54741054D01*
X104267000Y-54854093D01*
X104835285Y-54741054D01*
X105317054Y-54419147D01*
X105544702Y-54078447D01*
X105611817Y-54221358D01*
X106040076Y-54611645D01*
X106450110Y-54781476D01*
X106680000Y-54660155D01*
X106680000Y-53467000D01*
X106934000Y-53467000D01*
X106934000Y-54660155D01*
X107163890Y-54781476D01*
X107573924Y-54611645D01*
X108002183Y-54221358D01*
X108248486Y-53696892D01*
X108177159Y-53561000D01*
X113650376Y-53561000D01*
X113757706Y-54100584D01*
X114063355Y-54558021D01*
X114520792Y-54863670D01*
X115060376Y-54971000D01*
X115115624Y-54971000D01*
X115655208Y-54863670D01*
X116112645Y-54558021D01*
X116418294Y-54100584D01*
X116525624Y-53561000D01*
X120650376Y-53561000D01*
X120757706Y-54100584D01*
X121063355Y-54558021D01*
X121520792Y-54863670D01*
X122060376Y-54971000D01*
X122115624Y-54971000D01*
X122655208Y-54863670D01*
X123112645Y-54558021D01*
X123418294Y-54100584D01*
X123525624Y-53561000D01*
X123418294Y-53021416D01*
X123112645Y-52563979D01*
X122655208Y-52258330D01*
X122115624Y-52151000D01*
X122060376Y-52151000D01*
X121520792Y-52258330D01*
X121063355Y-52563979D01*
X120757706Y-53021416D01*
X120650376Y-53561000D01*
X116525624Y-53561000D01*
X116418294Y-53021416D01*
X116112645Y-52563979D01*
X115655208Y-52258330D01*
X115115624Y-52151000D01*
X115060376Y-52151000D01*
X114520792Y-52258330D01*
X114063355Y-52563979D01*
X113757706Y-53021416D01*
X113650376Y-53561000D01*
X108177159Y-53561000D01*
X108127819Y-53467000D01*
X106934000Y-53467000D01*
X106680000Y-53467000D01*
X106660000Y-53467000D01*
X106660000Y-53213000D01*
X106680000Y-53213000D01*
X106680000Y-52019845D01*
X106934000Y-52019845D01*
X106934000Y-53213000D01*
X108127819Y-53213000D01*
X108248486Y-52983108D01*
X108002183Y-52458642D01*
X107573924Y-52068355D01*
X107163890Y-51898524D01*
X106934000Y-52019845D01*
X106680000Y-52019845D01*
X106450110Y-51898524D01*
X106040076Y-52068355D01*
X105611817Y-52458642D01*
X105544702Y-52601553D01*
X105317054Y-52260853D01*
X104835285Y-51938946D01*
X104267000Y-51825907D01*
X103698715Y-51938946D01*
X103216946Y-52260853D01*
X102997000Y-52590026D01*
X102777054Y-52260853D01*
X102295285Y-51938946D01*
X101727000Y-51825907D01*
X101158715Y-51938946D01*
X100676946Y-52260853D01*
X100647597Y-52304777D01*
X100635157Y-52242235D01*
X100494809Y-52032191D01*
X100284765Y-51891843D01*
X100037000Y-51842560D01*
X98337000Y-51842560D01*
X98089235Y-51891843D01*
X97879191Y-52032191D01*
X97738843Y-52242235D01*
X97689560Y-52490000D01*
X89063940Y-52490000D01*
X89014657Y-52242235D01*
X88874309Y-52032191D01*
X88664265Y-51891843D01*
X88416500Y-51842560D01*
X86716500Y-51842560D01*
X86468735Y-51891843D01*
X86258691Y-52032191D01*
X86118343Y-52242235D01*
X86105903Y-52304777D01*
X86076554Y-52260853D01*
X85594785Y-51938946D01*
X85026500Y-51825907D01*
X84458215Y-51938946D01*
X83976446Y-52260853D01*
X83756500Y-52590026D01*
X83536554Y-52260853D01*
X83054785Y-51938946D01*
X82486500Y-51825907D01*
X81918215Y-51938946D01*
X81436446Y-52260853D01*
X81208798Y-52601553D01*
X81141683Y-52458642D01*
X80713424Y-52068355D01*
X80303390Y-51898524D01*
X80073500Y-52019845D01*
X79819500Y-52019845D01*
X79589610Y-51898524D01*
X79179576Y-52068355D01*
X78751317Y-52458642D01*
X78505014Y-52983108D01*
X67668096Y-52983108D01*
X70160503Y-50228343D01*
X74941749Y-50215000D01*
X138570512Y-50215000D01*
X139142000Y-50627742D01*
X139142000Y-50627742D01*
G37*
X139142000Y-50627742D02*
X139142000Y-81170213D01*
X138684488Y-139066298D01*
X136417818Y-140842877D01*
X68520903Y-140652511D01*
X67621923Y-140592579D01*
X66484576Y-139395372D01*
X66485110Y-139035907D01*
X67222000Y-139035907D01*
X67222000Y-139094093D01*
X67335039Y-139662378D01*
X67656946Y-140144147D01*
X68138715Y-140466054D01*
X68707000Y-140579093D01*
X69275285Y-140466054D01*
X69757054Y-140144147D01*
X69977000Y-139814974D01*
X70196946Y-140144147D01*
X70678715Y-140466054D01*
X71247000Y-140579093D01*
X71815285Y-140466054D01*
X72297054Y-140144147D01*
X72517000Y-139814974D01*
X72736946Y-140144147D01*
X73218715Y-140466054D01*
X73787000Y-140579093D01*
X74355285Y-140466054D01*
X74837054Y-140144147D01*
X75057000Y-139814974D01*
X75276946Y-140144147D01*
X75758715Y-140466054D01*
X76327000Y-140579093D01*
X76895285Y-140466054D01*
X77377054Y-140144147D01*
X77406403Y-140100223D01*
X77418843Y-140162765D01*
X77559191Y-140372809D01*
X77769235Y-140513157D01*
X78017000Y-140562440D01*
X79717000Y-140562440D01*
X79964765Y-140513157D01*
X80174809Y-140372809D01*
X80315157Y-140162765D01*
X80364440Y-139915000D01*
X80364440Y-138215000D01*
X80315157Y-137967235D01*
X80174809Y-137757191D01*
X79964765Y-137616843D01*
X79717000Y-137567560D01*
X78017000Y-137567560D01*
X77769235Y-137616843D01*
X77559191Y-137757191D01*
X77418843Y-137967235D01*
X77406403Y-138029777D01*
X77377054Y-137985853D01*
X76895285Y-137663946D01*
X76327000Y-137550907D01*
X75758715Y-137663946D01*
X75276946Y-137985853D01*
X75057000Y-138315026D01*
X74837054Y-137985853D01*
X74355285Y-137663946D01*
X73787000Y-137550907D01*
X73218715Y-137663946D01*
X72736946Y-137985853D01*
X72517000Y-138315026D01*
X72297054Y-137985853D01*
X71815285Y-137663946D01*
X71247000Y-137550907D01*
X70678715Y-137663946D01*
X70196946Y-137985853D01*
X69977000Y-138315026D01*
X69757054Y-137985853D01*
X69275285Y-137663946D01*
X68707000Y-137550907D01*
X68138715Y-137663946D01*
X67656946Y-137985853D01*
X67335039Y-138467622D01*
X67222000Y-139035907D01*
X66485110Y-139035907D01*
X66493695Y-133266314D01*
X85563351Y-133266314D01*
X85694003Y-133582514D01*
X85935713Y-133824647D01*
X86251685Y-133955850D01*
X86593814Y-133956149D01*
X86910014Y-133825497D01*
X86941065Y-133794500D01*
X87302951Y-133794500D01*
X87523213Y-134015147D01*
X87839185Y-134146350D01*
X88181314Y-134146649D01*
X88497514Y-134015997D01*
X88739647Y-133774287D01*
X88870850Y-133458315D01*
X88871149Y-133116186D01*
X88740497Y-132799986D01*
X88498787Y-132557853D01*
X88182815Y-132426650D01*
X87966096Y-132426461D01*
X87820500Y-132397500D01*
X86941381Y-132397500D01*
X86911287Y-132367353D01*
X86595315Y-132236150D01*
X86253186Y-132235851D01*
X85936986Y-132366503D01*
X85694853Y-132608213D01*
X85563650Y-132924185D01*
X85563351Y-133266314D01*
X66493695Y-133266314D01*
X66542613Y-100393500D01*
X67637407Y-100393500D01*
X67750446Y-100961785D01*
X68072353Y-101443554D01*
X68401526Y-101663500D01*
X68072353Y-101883446D01*
X67750446Y-102365215D01*
X67637407Y-102933500D01*
X67750446Y-103501785D01*
X68072353Y-103983554D01*
X68401526Y-104203500D01*
X68072353Y-104423446D01*
X67750446Y-104905215D01*
X67637407Y-105473500D01*
X67750446Y-106041785D01*
X68072353Y-106523554D01*
X68401526Y-106743500D01*
X68072353Y-106963446D01*
X67750446Y-107445215D01*
X67637407Y-108013500D01*
X67750446Y-108581785D01*
X68072353Y-109063554D01*
X68401526Y-109283500D01*
X68072353Y-109503446D01*
X67750446Y-109985215D01*
X67637407Y-110553500D01*
X67750446Y-111121785D01*
X68072353Y-111603554D01*
X68401526Y-111823500D01*
X68072353Y-112043446D01*
X67750446Y-112525215D01*
X67637407Y-113093500D01*
X67750446Y-113661785D01*
X68072353Y-114143554D01*
X68401526Y-114363500D01*
X68072353Y-114583446D01*
X67750446Y-115065215D01*
X67637407Y-115633500D01*
X67750446Y-116201785D01*
X68072353Y-116683554D01*
X68401526Y-116903500D01*
X68072353Y-117123446D01*
X67750446Y-117605215D01*
X67637407Y-118173500D01*
X67750446Y-118741785D01*
X68072353Y-119223554D01*
X68401526Y-119443500D01*
X68072353Y-119663446D01*
X67750446Y-120145215D01*
X67637407Y-120713500D01*
X67750446Y-121281785D01*
X68072353Y-121763554D01*
X68401526Y-121983500D01*
X68072353Y-122203446D01*
X67750446Y-122685215D01*
X67637407Y-123253500D01*
X67750446Y-123821785D01*
X68072353Y-124303554D01*
X68401526Y-124523500D01*
X68072353Y-124743446D01*
X67750446Y-125225215D01*
X67637407Y-125793500D01*
X67750446Y-126361785D01*
X68072353Y-126843554D01*
X68116277Y-126872903D01*
X68053735Y-126885343D01*
X67843691Y-127025691D01*
X67703343Y-127235735D01*
X67654060Y-127483500D01*
X67654060Y-129183500D01*
X67703343Y-129431265D01*
X67843691Y-129641309D01*
X68053735Y-129781657D01*
X68301500Y-129830940D01*
X70001500Y-129830940D01*
X70249265Y-129781657D01*
X70459309Y-129641309D01*
X70599657Y-129431265D01*
X70648940Y-129183500D01*
X70648940Y-127483500D01*
X70599657Y-127235735D01*
X70459309Y-127025691D01*
X70249265Y-126885343D01*
X70186723Y-126872903D01*
X70230647Y-126843554D01*
X70552554Y-126361785D01*
X70665593Y-125793500D01*
X70552554Y-125225215D01*
X70230647Y-124743446D01*
X69901474Y-124523500D01*
X70230647Y-124303554D01*
X70552554Y-123821785D01*
X70665593Y-123253500D01*
X70552554Y-122685215D01*
X70230647Y-122203446D01*
X69901474Y-121983500D01*
X70230647Y-121763554D01*
X70552554Y-121281785D01*
X70665593Y-120713500D01*
X70552554Y-120145215D01*
X70230647Y-119663446D01*
X69901474Y-119443500D01*
X70230647Y-119223554D01*
X70552554Y-118741785D01*
X70665593Y-118173500D01*
X70552554Y-117605215D01*
X70230647Y-117123446D01*
X69901474Y-116903500D01*
X70230647Y-116683554D01*
X70552554Y-116201785D01*
X70665593Y-115633500D01*
X70552554Y-115065215D01*
X70230647Y-114583446D01*
X69901474Y-114363500D01*
X70230647Y-114143554D01*
X70552554Y-113661785D01*
X70665593Y-113093500D01*
X70552554Y-112525215D01*
X70230647Y-112043446D01*
X69901474Y-111823500D01*
X69931684Y-111803314D01*
X75593852Y-111803314D01*
X75724504Y-112119514D01*
X75966214Y-112361647D01*
X76282186Y-112492850D01*
X76624315Y-112493149D01*
X76940515Y-112362497D01*
X77182648Y-112120787D01*
X77313851Y-111804815D01*
X77314150Y-111462686D01*
X77197048Y-111179280D01*
X82106216Y-106270112D01*
X82148814Y-106270149D01*
X82465014Y-106139497D01*
X82579897Y-106024814D01*
X83912351Y-106024814D01*
X84043003Y-106341014D01*
X84074000Y-106372065D01*
X84074000Y-122237500D01*
X84127170Y-122504805D01*
X84278586Y-122731414D01*
X84596086Y-123048914D01*
X84722704Y-123133518D01*
X90734482Y-129145296D01*
X90819086Y-129271914D01*
X91428185Y-129881012D01*
X91425037Y-129885724D01*
X91394811Y-129911248D01*
X91352926Y-129963772D01*
X91316909Y-130033492D01*
X91300395Y-130055436D01*
X91300221Y-130055600D01*
X91300147Y-130055764D01*
X91269719Y-130096196D01*
X91240571Y-130156721D01*
X91227924Y-130205748D01*
X91227839Y-130205912D01*
X91227818Y-130206157D01*
X91220964Y-130232726D01*
X91209758Y-130257771D01*
X91209621Y-130257976D01*
X91209585Y-130258158D01*
X91188906Y-130304372D01*
X91173958Y-130369867D01*
X91172539Y-130420447D01*
X91172494Y-130420623D01*
X91172528Y-130420862D01*
X91171758Y-130448313D01*
X91166399Y-130475252D01*
X91166313Y-130475477D01*
X91166318Y-130475658D01*
X91156447Y-130525280D01*
X91156446Y-130592458D01*
X91166322Y-130642113D01*
X91166317Y-130642301D01*
X91166406Y-130642534D01*
X91171759Y-130669448D01*
X91172529Y-130696869D01*
X91172494Y-130697116D01*
X91172541Y-130697298D01*
X91173962Y-130747911D01*
X91188912Y-130813406D01*
X91209577Y-130859585D01*
X91209612Y-130859762D01*
X91209745Y-130859961D01*
X91220964Y-130885032D01*
X91227823Y-130911623D01*
X91227843Y-130911862D01*
X91227926Y-130912022D01*
X91240564Y-130961020D01*
X91269710Y-131021545D01*
X91300158Y-131062005D01*
X91300234Y-131062175D01*
X91300414Y-131062345D01*
X91316908Y-131084263D01*
X91329507Y-131108651D01*
X91329581Y-131108882D01*
X91329699Y-131109022D01*
X91352935Y-131153999D01*
X91394822Y-131206523D01*
X91433480Y-131239166D01*
X91433589Y-131239311D01*
X91433796Y-131239433D01*
X91454782Y-131257153D01*
X91472508Y-131278146D01*
X91472628Y-131278350D01*
X91472771Y-131278457D01*
X91505414Y-131317116D01*
X91557936Y-131359002D01*
X91602916Y-131382240D01*
X91603055Y-131382357D01*
X91603284Y-131382430D01*
X91627676Y-131395031D01*
X91649597Y-131411528D01*
X91649765Y-131411706D01*
X91649933Y-131411781D01*
X91690394Y-131442230D01*
X91750919Y-131471376D01*
X91799913Y-131484013D01*
X91800073Y-131484096D01*
X91800312Y-131484116D01*
X91826908Y-131490976D01*
X91851978Y-131502195D01*
X91852177Y-131502328D01*
X91852354Y-131502363D01*
X91898533Y-131523028D01*
X91964029Y-131537979D01*
X92014643Y-131539400D01*
X92014822Y-131539446D01*
X92015065Y-131539412D01*
X92042495Y-131540182D01*
X92069405Y-131545534D01*
X92069638Y-131545623D01*
X92069826Y-131545618D01*
X92119481Y-131555494D01*
X92186659Y-131555493D01*
X92236281Y-131545622D01*
X92236462Y-131545627D01*
X92236687Y-131545541D01*
X92263626Y-131540182D01*
X92291077Y-131539412D01*
X92291316Y-131539446D01*
X92291492Y-131539401D01*
X92342072Y-131537982D01*
X92407567Y-131523034D01*
X92453781Y-131502355D01*
X92453963Y-131502319D01*
X92454168Y-131502182D01*
X92479213Y-131490976D01*
X92505782Y-131484122D01*
X92506027Y-131484101D01*
X92506191Y-131484016D01*
X92555218Y-131471369D01*
X92615743Y-131442221D01*
X92656175Y-131411793D01*
X92656339Y-131411719D01*
X92656503Y-131411545D01*
X92678447Y-131395031D01*
X92748167Y-131359014D01*
X92800691Y-131317129D01*
X92826215Y-131286904D01*
X92856471Y-131266688D01*
X92884006Y-131319987D01*
X92925892Y-131372510D01*
X92956113Y-131398029D01*
X92978086Y-131430914D01*
X94389888Y-132842716D01*
X94389851Y-132885314D01*
X94520503Y-133201514D01*
X94762213Y-133443647D01*
X95078185Y-133574850D01*
X95420314Y-133575149D01*
X95736514Y-133444497D01*
X95978647Y-133202787D01*
X96109850Y-132886815D01*
X96110149Y-132544686D01*
X95979497Y-132228486D01*
X95737787Y-131986353D01*
X95421815Y-131855150D01*
X95377940Y-131855112D01*
X94452150Y-130929322D01*
X94463830Y-130929322D01*
X94513467Y-130919448D01*
X94513650Y-130919453D01*
X94513877Y-130919366D01*
X94540801Y-130914010D01*
X94568239Y-130913241D01*
X94568482Y-130913275D01*
X94568661Y-130913229D01*
X94619245Y-130911810D01*
X94684739Y-130896862D01*
X94730950Y-130876185D01*
X94731134Y-130876148D01*
X94731342Y-130876009D01*
X94756380Y-130864806D01*
X94782955Y-130857950D01*
X94783197Y-130857930D01*
X94783359Y-130857846D01*
X94832384Y-130845200D01*
X94892910Y-130816052D01*
X94933345Y-130785621D01*
X94933511Y-130785547D01*
X94933677Y-130785372D01*
X94955615Y-130768862D01*
X95025337Y-130732844D01*
X95077100Y-130691566D01*
X95106506Y-130748487D01*
X95148392Y-130801010D01*
X95178613Y-130826529D01*
X95200586Y-130859414D01*
X96929888Y-132588716D01*
X96929851Y-132631314D01*
X97060503Y-132947514D01*
X97302213Y-133189647D01*
X97618185Y-133320850D01*
X97960314Y-133321149D01*
X98276514Y-133190497D01*
X98425103Y-133042168D01*
X98635713Y-133253147D01*
X98951685Y-133384350D01*
X99293814Y-133384649D01*
X99610014Y-133253997D01*
X99852147Y-133012287D01*
X99983350Y-132696315D01*
X99983359Y-132686030D01*
X100119314Y-132686149D01*
X100435514Y-132555497D01*
X100677647Y-132313787D01*
X100808850Y-131997815D01*
X100809046Y-131773417D01*
X100857624Y-131773459D01*
X101057396Y-131690914D01*
X101057351Y-131742314D01*
X101188003Y-132058514D01*
X101429713Y-132300647D01*
X101692434Y-132409738D01*
X101692351Y-132504314D01*
X101823003Y-132820514D01*
X102064713Y-133062647D01*
X102380685Y-133193850D01*
X102722814Y-133194149D01*
X103039014Y-133063497D01*
X103281147Y-132821787D01*
X103364960Y-132619942D01*
X103523685Y-132685850D01*
X103534025Y-132685859D01*
X103533851Y-132885314D01*
X103664503Y-133201514D01*
X103906213Y-133443647D01*
X104222185Y-133574850D01*
X104564314Y-133575149D01*
X104880514Y-133444497D01*
X105122647Y-133202787D01*
X105142269Y-133155532D01*
X105239713Y-133253147D01*
X105555685Y-133384350D01*
X105897814Y-133384649D01*
X106214014Y-133253997D01*
X106456147Y-133012287D01*
X106587350Y-132696315D01*
X106587388Y-132652440D01*
X106602412Y-132637416D01*
X106753828Y-132410806D01*
X106806998Y-132143502D01*
X106806998Y-119129187D01*
X107111435Y-119255600D01*
X107453564Y-119255899D01*
X107769764Y-119125247D01*
X108011897Y-118883537D01*
X108143100Y-118567565D01*
X108143138Y-118523690D01*
X108874424Y-117792404D01*
X109025840Y-117565795D01*
X109079010Y-117298490D01*
X109079010Y-111682510D01*
X109025840Y-111415206D01*
X108874424Y-111188596D01*
X106403854Y-108718026D01*
X106177245Y-108566610D01*
X105942383Y-108519893D01*
X105905847Y-108483293D01*
X105589875Y-108352090D01*
X105247746Y-108351791D01*
X105060330Y-108429230D01*
X105092500Y-108267500D01*
X105092500Y-107197881D01*
X105122647Y-107167787D01*
X105253850Y-106851815D01*
X105253939Y-106749767D01*
X112028086Y-113523914D01*
X112254695Y-113675330D01*
X112522000Y-113728500D01*
X118163619Y-113728500D01*
X118193713Y-113758647D01*
X118509685Y-113889850D01*
X118851814Y-113890149D01*
X119168014Y-113759497D01*
X119410147Y-113517787D01*
X119541350Y-113201815D01*
X119541649Y-112859686D01*
X119410997Y-112543486D01*
X119169287Y-112301353D01*
X118853315Y-112170150D01*
X118511186Y-112169851D01*
X118194986Y-112300503D01*
X118163935Y-112331500D01*
X112811328Y-112331500D01*
X109826822Y-109346994D01*
X116827833Y-109346994D01*
X116826891Y-109358157D01*
X116834412Y-109424913D01*
X116858247Y-109499697D01*
X116862086Y-109526887D01*
X116862079Y-109527127D01*
X116862143Y-109527296D01*
X116869219Y-109577414D01*
X116891407Y-109640823D01*
X116917119Y-109684410D01*
X116917174Y-109684584D01*
X116917330Y-109684769D01*
X116931285Y-109708426D01*
X116941071Y-109734063D01*
X116941120Y-109734307D01*
X116941224Y-109734463D01*
X116959274Y-109781748D01*
X116995015Y-109838629D01*
X117029784Y-109875406D01*
X117029879Y-109875566D01*
X117030077Y-109875715D01*
X117048933Y-109895659D01*
X117064182Y-109918481D01*
X117064282Y-109918705D01*
X117064416Y-109918832D01*
X117092536Y-109960916D01*
X117140039Y-110008419D01*
X117182123Y-110036538D01*
X117182250Y-110036673D01*
X117182475Y-110036773D01*
X117205295Y-110052021D01*
X117225244Y-110070882D01*
X117225390Y-110071076D01*
X117225548Y-110071169D01*
X117262326Y-110105940D01*
X117319207Y-110141682D01*
X117366499Y-110159734D01*
X117366648Y-110159834D01*
X117366882Y-110159881D01*
X117392533Y-110169672D01*
X117416179Y-110183620D01*
X117416363Y-110183776D01*
X117416536Y-110183831D01*
X117460132Y-110209548D01*
X117523541Y-110231736D01*
X117573659Y-110238812D01*
X117573828Y-110238876D01*
X117574068Y-110238869D01*
X117601254Y-110242707D01*
X117627422Y-110251048D01*
X117627635Y-110251158D01*
X117627815Y-110251173D01*
X117676033Y-110266542D01*
X117742789Y-110274064D01*
X117793227Y-110269810D01*
X117793406Y-110269835D01*
X117793638Y-110269775D01*
X117821000Y-110267467D01*
X117848361Y-110269775D01*
X117848593Y-110269835D01*
X117848772Y-110269810D01*
X117899211Y-110274064D01*
X117965967Y-110266542D01*
X118014185Y-110251173D01*
X118014366Y-110251158D01*
X118014581Y-110251047D01*
X118040746Y-110242707D01*
X118067931Y-110238869D01*
X118068171Y-110238876D01*
X118068340Y-110238812D01*
X118118458Y-110231736D01*
X118181867Y-110209548D01*
X118225462Y-110183832D01*
X118225637Y-110183776D01*
X118225823Y-110183619D01*
X118249470Y-110169670D01*
X118275107Y-110159884D01*
X118275351Y-110159835D01*
X118275507Y-110159731D01*
X118322792Y-110141681D01*
X118379673Y-110105940D01*
X118416450Y-110071171D01*
X118416610Y-110071076D01*
X118416759Y-110070878D01*
X118436703Y-110052022D01*
X118459525Y-110036773D01*
X118459749Y-110036673D01*
X118459876Y-110036539D01*
X118501960Y-110008419D01*
X118549463Y-109960916D01*
X118577582Y-109918832D01*
X118577717Y-109918705D01*
X118577817Y-109918480D01*
X118593065Y-109895660D01*
X118611926Y-109875711D01*
X118612120Y-109875565D01*
X118612213Y-109875407D01*
X118646984Y-109838629D01*
X118682726Y-109781748D01*
X118700778Y-109734456D01*
X118700878Y-109734307D01*
X118700925Y-109734073D01*
X118710716Y-109708422D01*
X118724662Y-109684780D01*
X118724820Y-109684593D01*
X118724876Y-109684418D01*
X118750592Y-109640823D01*
X118772780Y-109577414D01*
X118779856Y-109527296D01*
X118779920Y-109527127D01*
X118779913Y-109526887D01*
X118783751Y-109499702D01*
X118807586Y-109424923D01*
X118815107Y-109358168D01*
X118814165Y-109346994D01*
X118989119Y-109346994D01*
X119019213Y-109377141D01*
X119335185Y-109508344D01*
X119677314Y-109508643D01*
X119993514Y-109377991D01*
X120235647Y-109136281D01*
X120366850Y-108820309D01*
X120367149Y-108478180D01*
X120236497Y-108161980D01*
X119994787Y-107919847D01*
X119678815Y-107788644D01*
X119336686Y-107788345D01*
X119020486Y-107918997D01*
X118989435Y-107949994D01*
X118421000Y-107949994D01*
X118382211Y-107957710D01*
X118342800Y-107954385D01*
X118276043Y-107961906D01*
X118201260Y-107985741D01*
X118174068Y-107989580D01*
X118173828Y-107989573D01*
X118173659Y-107989637D01*
X118123541Y-107996713D01*
X118060132Y-108018901D01*
X118016544Y-108044613D01*
X118016372Y-108044668D01*
X118016189Y-108044823D01*
X117992533Y-108058777D01*
X117966882Y-108068568D01*
X117966648Y-108068615D01*
X117966499Y-108068715D01*
X117919207Y-108086767D01*
X117862326Y-108122509D01*
X117825548Y-108157280D01*
X117825390Y-108157373D01*
X117825244Y-108157567D01*
X117820999Y-108161580D01*
X117816759Y-108157571D01*
X117816610Y-108157373D01*
X117816450Y-108157278D01*
X117779673Y-108122509D01*
X117722792Y-108086768D01*
X117675507Y-108068718D01*
X117675351Y-108068614D01*
X117675107Y-108068565D01*
X117649470Y-108058779D01*
X117625813Y-108044824D01*
X117625628Y-108044668D01*
X117625454Y-108044613D01*
X117581867Y-108018901D01*
X117518458Y-107996713D01*
X117468340Y-107989637D01*
X117468171Y-107989573D01*
X117467931Y-107989580D01*
X117453070Y-107987482D01*
X117481984Y-107956898D01*
X117517726Y-107900017D01*
X117535778Y-107852725D01*
X117535878Y-107852576D01*
X117535925Y-107852342D01*
X117545716Y-107826691D01*
X117559664Y-107803045D01*
X117559820Y-107802861D01*
X117559875Y-107802688D01*
X117585592Y-107759092D01*
X117607780Y-107695683D01*
X117614856Y-107645565D01*
X117614920Y-107645396D01*
X117614913Y-107645156D01*
X117618751Y-107617970D01*
X117642586Y-107543191D01*
X117650108Y-107476435D01*
X117649911Y-107474104D01*
X117711033Y-107493586D01*
X117777789Y-107501108D01*
X117817206Y-107497783D01*
X117856000Y-107505500D01*
X118036619Y-107505500D01*
X118066713Y-107535647D01*
X118382685Y-107666850D01*
X118724814Y-107667149D01*
X119041014Y-107536497D01*
X119283147Y-107294787D01*
X119414350Y-106978815D01*
X119414649Y-106636686D01*
X119283997Y-106320486D01*
X119042287Y-106078353D01*
X118726315Y-105947150D01*
X118384186Y-105946851D01*
X118224153Y-106012976D01*
X118218751Y-105996030D01*
X118214913Y-105968844D01*
X118214920Y-105968604D01*
X118214856Y-105968435D01*
X118207780Y-105918317D01*
X118185592Y-105854908D01*
X118159875Y-105811312D01*
X118159820Y-105811139D01*
X118159664Y-105810955D01*
X118145716Y-105787309D01*
X118135925Y-105761658D01*
X118135878Y-105761424D01*
X118135778Y-105761275D01*
X118117726Y-105713983D01*
X118081984Y-105657102D01*
X118047213Y-105620324D01*
X118047120Y-105620166D01*
X118046926Y-105620020D01*
X118028065Y-105600071D01*
X118012817Y-105577251D01*
X118012717Y-105577026D01*
X118012582Y-105576899D01*
X117984463Y-105534815D01*
X117936960Y-105487312D01*
X117894876Y-105459192D01*
X117894749Y-105459058D01*
X117894525Y-105458958D01*
X117871703Y-105443709D01*
X117851759Y-105424853D01*
X117851610Y-105424655D01*
X117851450Y-105424560D01*
X117814673Y-105389791D01*
X117757792Y-105354050D01*
X117738013Y-105346500D01*
X118481451Y-105346500D01*
X118701713Y-105567147D01*
X119017685Y-105698350D01*
X119359814Y-105698649D01*
X119676014Y-105567997D01*
X119918147Y-105326287D01*
X120049350Y-105010315D01*
X120049649Y-104668186D01*
X119918997Y-104351986D01*
X119677287Y-104109853D01*
X119361315Y-103978650D01*
X119144596Y-103978461D01*
X118999000Y-103949500D01*
X116255500Y-103949500D01*
X116216711Y-103957216D01*
X116177300Y-103953891D01*
X116110543Y-103961412D01*
X116035760Y-103985247D01*
X116018087Y-103987742D01*
X116014413Y-103961719D01*
X116014420Y-103961479D01*
X116014356Y-103961310D01*
X116010548Y-103934337D01*
X116044647Y-103900297D01*
X116175850Y-103584325D01*
X116176149Y-103242196D01*
X116045497Y-102925996D01*
X115803787Y-102683863D01*
X115487815Y-102552660D01*
X115145686Y-102552361D01*
X114829486Y-102683013D01*
X114798435Y-102714010D01*
X106069826Y-102714010D01*
X104933161Y-101577345D01*
X105063350Y-101263815D01*
X105063649Y-100921686D01*
X104957670Y-100665198D01*
X104995647Y-100627287D01*
X105126850Y-100311315D01*
X105127149Y-99969186D01*
X104996497Y-99652986D01*
X104965500Y-99621935D01*
X104965500Y-99412828D01*
X107265586Y-101712914D01*
X107492196Y-101864330D01*
X107759500Y-101917500D01*
X107876619Y-101917500D01*
X107906713Y-101947647D01*
X108222685Y-102078850D01*
X108564814Y-102079149D01*
X108881014Y-101948497D01*
X109123147Y-101706787D01*
X109254350Y-101390815D01*
X109254649Y-101048686D01*
X109123997Y-100732486D01*
X109093000Y-100701435D01*
X109093000Y-100492328D01*
X109157216Y-100428112D01*
X109199814Y-100428149D01*
X109516014Y-100297497D01*
X109758147Y-100055787D01*
X109889350Y-99739815D01*
X109889649Y-99397686D01*
X109758997Y-99081486D01*
X109517287Y-98839353D01*
X109201315Y-98708150D01*
X108859186Y-98707851D01*
X108542986Y-98838503D01*
X108300853Y-99080213D01*
X108169650Y-99396185D01*
X108169612Y-99440060D01*
X107900586Y-99709086D01*
X107749170Y-99935695D01*
X107749170Y-99935696D01*
X107701861Y-100173533D01*
X105685819Y-98157491D01*
X130862235Y-98157491D01*
X131095432Y-98721871D01*
X131526857Y-99154051D01*
X132090830Y-99388233D01*
X132701491Y-99388765D01*
X133265871Y-99155568D01*
X133443341Y-98978408D01*
X133499173Y-99113199D01*
X133677802Y-99291827D01*
X133911191Y-99388500D01*
X134651750Y-99388500D01*
X134810500Y-99229750D01*
X134810500Y-97980500D01*
X135064500Y-97980500D01*
X135064500Y-99229750D01*
X135223250Y-99388500D01*
X135963809Y-99388500D01*
X136197198Y-99291827D01*
X136375827Y-99113199D01*
X136472500Y-98879810D01*
X136472500Y-98139250D01*
X136313750Y-97980500D01*
X135064500Y-97980500D01*
X134810500Y-97980500D01*
X134790500Y-97980500D01*
X134790500Y-97726500D01*
X134810500Y-97726500D01*
X134810500Y-96477250D01*
X135064500Y-96477250D01*
X135064500Y-97726500D01*
X136313750Y-97726500D01*
X136472500Y-97567750D01*
X136472500Y-96827190D01*
X136375827Y-96593801D01*
X136197198Y-96415173D01*
X135963809Y-96318500D01*
X135223250Y-96318500D01*
X135064500Y-96477250D01*
X134810500Y-96477250D01*
X134651750Y-96318500D01*
X133911191Y-96318500D01*
X133677802Y-96415173D01*
X133499173Y-96593801D01*
X133443381Y-96728494D01*
X133268143Y-96552949D01*
X132704170Y-96318767D01*
X132093509Y-96318235D01*
X131529129Y-96551432D01*
X131096949Y-96982857D01*
X130862767Y-97546830D01*
X130862235Y-98157491D01*
X105685819Y-98157491D01*
X102841112Y-95312784D01*
X102841149Y-95270186D01*
X102710497Y-94953986D01*
X102468787Y-94711853D01*
X102152815Y-94580650D01*
X101810686Y-94580351D01*
X101494486Y-94711003D01*
X101263457Y-94941629D01*
X100232503Y-93910675D01*
X100316574Y-93875937D01*
X100558707Y-93634227D01*
X100626070Y-93472000D01*
X105908119Y-93472000D01*
X105938213Y-93502147D01*
X106254185Y-93633350D01*
X106596314Y-93633649D01*
X106912514Y-93502997D01*
X107154647Y-93261287D01*
X107285850Y-92945315D01*
X107286149Y-92603186D01*
X107155497Y-92286986D01*
X106913787Y-92044853D01*
X106597815Y-91913650D01*
X106255686Y-91913351D01*
X105939486Y-92044003D01*
X105908435Y-92075000D01*
X100203000Y-92075000D01*
X99935695Y-92128170D01*
X99709086Y-92279586D01*
X99702344Y-92286328D01*
X99659746Y-92286291D01*
X99343546Y-92416943D01*
X99101413Y-92658653D01*
X99065931Y-92744103D01*
X97345500Y-91023672D01*
X97345500Y-89133814D01*
X111979351Y-89133814D01*
X112110003Y-89450014D01*
X112351713Y-89692147D01*
X112667685Y-89823350D01*
X113009814Y-89823649D01*
X113326014Y-89692997D01*
X113357065Y-89662000D01*
X125158500Y-89662000D01*
X125425805Y-89608830D01*
X125652414Y-89457414D01*
X132906216Y-82203612D01*
X132948814Y-82203649D01*
X133265014Y-82072997D01*
X133507147Y-81831287D01*
X133638350Y-81515315D01*
X133638649Y-81173186D01*
X133507997Y-80856986D01*
X133296279Y-80644898D01*
X133443647Y-80497787D01*
X133574850Y-80181815D01*
X133575149Y-79839686D01*
X133444497Y-79523486D01*
X133202787Y-79281353D01*
X132886815Y-79150150D01*
X132544686Y-79149851D01*
X132228486Y-79280503D01*
X132197435Y-79311500D01*
X129540000Y-79311500D01*
X129272696Y-79364670D01*
X129046086Y-79516086D01*
X126745284Y-81816888D01*
X126702686Y-81816851D01*
X126386486Y-81947503D01*
X126144353Y-82189213D01*
X126013150Y-82505185D01*
X126012851Y-82847314D01*
X126143503Y-83163514D01*
X126385213Y-83405647D01*
X126701185Y-83536850D01*
X127043314Y-83537149D01*
X127359514Y-83406497D01*
X127601647Y-83164787D01*
X127732850Y-82848815D01*
X127732888Y-82804940D01*
X129829328Y-80708500D01*
X132197119Y-80708500D01*
X132197221Y-80708602D01*
X132049853Y-80855713D01*
X131918650Y-81171685D01*
X131918612Y-81215560D01*
X124869172Y-88265000D01*
X113357381Y-88265000D01*
X113327287Y-88234853D01*
X113011315Y-88103650D01*
X112669186Y-88103351D01*
X112352986Y-88234003D01*
X112110853Y-88475713D01*
X111979650Y-88791685D01*
X111979351Y-89133814D01*
X97345500Y-89133814D01*
X97345500Y-87185500D01*
X97292330Y-86918196D01*
X97292330Y-86918195D01*
X97140914Y-86691586D01*
X96279794Y-85830466D01*
X103114079Y-85830466D01*
X103324488Y-86339696D01*
X103713755Y-86729642D01*
X104222617Y-86940940D01*
X104773604Y-86941421D01*
X105282834Y-86731012D01*
X105672780Y-86341745D01*
X105884078Y-85832883D01*
X105884559Y-85281896D01*
X105674150Y-84772666D01*
X105284883Y-84382720D01*
X104776021Y-84171422D01*
X104225034Y-84170941D01*
X103715804Y-84381350D01*
X103325858Y-84770617D01*
X103114560Y-85279479D01*
X103114079Y-85830466D01*
X96279794Y-85830466D01*
X95758000Y-85308672D01*
X95758000Y-82379785D01*
X106564760Y-82379785D01*
X106775169Y-82889015D01*
X107164436Y-83278961D01*
X107673298Y-83490259D01*
X108224285Y-83490740D01*
X108733515Y-83280331D01*
X108785622Y-83228314D01*
X117249851Y-83228314D01*
X117380503Y-83544514D01*
X117622213Y-83786647D01*
X117938185Y-83917850D01*
X118280314Y-83918149D01*
X118596514Y-83787497D01*
X118838647Y-83545787D01*
X118969850Y-83229815D01*
X118969888Y-83185940D01*
X123098328Y-79057500D01*
X134290060Y-79057500D01*
X134290060Y-80962500D01*
X134339343Y-81210265D01*
X134385939Y-81280000D01*
X134339343Y-81349735D01*
X134290060Y-81597500D01*
X134290060Y-83502500D01*
X134339343Y-83750265D01*
X134385939Y-83820000D01*
X134339343Y-83889735D01*
X134290060Y-84137500D01*
X134290060Y-86042500D01*
X134339343Y-86290265D01*
X134385939Y-86360000D01*
X134339343Y-86429735D01*
X134290060Y-86677500D01*
X134290060Y-88582500D01*
X134339343Y-88830265D01*
X134364724Y-88868250D01*
X134339343Y-88906235D01*
X134290060Y-89154000D01*
X134290060Y-91059000D01*
X134339343Y-91306765D01*
X134479691Y-91516809D01*
X134689735Y-91657157D01*
X134937500Y-91706440D01*
X136842500Y-91706440D01*
X137090265Y-91657157D01*
X137300309Y-91516809D01*
X137440657Y-91306765D01*
X137489940Y-91059000D01*
X137489940Y-89154000D01*
X137440657Y-88906235D01*
X137415276Y-88868250D01*
X137440657Y-88830265D01*
X137489940Y-88582500D01*
X137489940Y-86677500D01*
X137440657Y-86429735D01*
X137394061Y-86360000D01*
X137440657Y-86290265D01*
X137489940Y-86042500D01*
X137489940Y-84137500D01*
X137440657Y-83889735D01*
X137394061Y-83820000D01*
X137440657Y-83750265D01*
X137489940Y-83502500D01*
X137489940Y-81597500D01*
X137440657Y-81349735D01*
X137394061Y-81280000D01*
X137440657Y-81210265D01*
X137489940Y-80962500D01*
X137489940Y-79057500D01*
X137440657Y-78809735D01*
X137300309Y-78599691D01*
X137090265Y-78459343D01*
X136842500Y-78410060D01*
X134937500Y-78410060D01*
X134689735Y-78459343D01*
X134479691Y-78599691D01*
X134339343Y-78809735D01*
X134290060Y-79057500D01*
X123098328Y-79057500D01*
X124050828Y-78105000D01*
X128905000Y-78105000D01*
X129172305Y-78051830D01*
X129398914Y-77900414D01*
X131303914Y-75995414D01*
X131455330Y-75768805D01*
X131474527Y-75672295D01*
X131538647Y-75608287D01*
X131669850Y-75292315D01*
X131670149Y-74950186D01*
X131539497Y-74633986D01*
X131297787Y-74391853D01*
X130981815Y-74260650D01*
X130639686Y-74260351D01*
X130323486Y-74391003D01*
X130081353Y-74632713D01*
X129950150Y-74948685D01*
X129949851Y-75290814D01*
X129974121Y-75349551D01*
X128615672Y-76708000D01*
X123761500Y-76708000D01*
X123494195Y-76761170D01*
X123267586Y-76912586D01*
X117982284Y-82197888D01*
X117939686Y-82197851D01*
X117623486Y-82328503D01*
X117381353Y-82570213D01*
X117250150Y-82886185D01*
X117249851Y-83228314D01*
X108785622Y-83228314D01*
X109123461Y-82891064D01*
X109334759Y-82382202D01*
X109335240Y-81831215D01*
X109124831Y-81321985D01*
X108735564Y-80932039D01*
X108226702Y-80720741D01*
X107675715Y-80720260D01*
X107166485Y-80930669D01*
X106776539Y-81319936D01*
X106565241Y-81828798D01*
X106564760Y-82379785D01*
X95758000Y-82379785D01*
X95758000Y-77476295D01*
X111902716Y-77476295D01*
X112151106Y-78077443D01*
X112610637Y-78537778D01*
X113211352Y-78787216D01*
X113861795Y-78787784D01*
X114462943Y-78539394D01*
X114923278Y-78079863D01*
X115172716Y-77479148D01*
X115172718Y-77476295D01*
X116402716Y-77476295D01*
X116651106Y-78077443D01*
X117110637Y-78537778D01*
X117711352Y-78787216D01*
X118361795Y-78787784D01*
X118962943Y-78539394D01*
X119423278Y-78079863D01*
X119672716Y-77479148D01*
X119673284Y-76828705D01*
X119424894Y-76227557D01*
X118965363Y-75767222D01*
X118364648Y-75517784D01*
X117714205Y-75517216D01*
X117113057Y-75765606D01*
X116652722Y-76225137D01*
X116403284Y-76825852D01*
X116402716Y-77476295D01*
X115172718Y-77476295D01*
X115173284Y-76828705D01*
X114924894Y-76227557D01*
X114465363Y-75767222D01*
X113864648Y-75517784D01*
X113214205Y-75517216D01*
X112613057Y-75765606D01*
X112152722Y-76225137D01*
X111903284Y-76825852D01*
X111902716Y-77476295D01*
X95758000Y-77476295D01*
X95758000Y-73822328D01*
X96237828Y-73342500D01*
X103038724Y-73342500D01*
X103306029Y-73289330D01*
X103532638Y-73137914D01*
X104506914Y-72163638D01*
X104658329Y-71937029D01*
X104658330Y-71937028D01*
X104711500Y-71669724D01*
X104711500Y-70976295D01*
X111902716Y-70976295D01*
X112151106Y-71577443D01*
X112610637Y-72037778D01*
X113211352Y-72287216D01*
X113861795Y-72287784D01*
X114462943Y-72039394D01*
X114923278Y-71579863D01*
X115172716Y-70979148D01*
X115172718Y-70976295D01*
X116402716Y-70976295D01*
X116651106Y-71577443D01*
X117110637Y-72037778D01*
X117711352Y-72287216D01*
X118361795Y-72287784D01*
X118962943Y-72039394D01*
X119399599Y-71603500D01*
X126709060Y-71603500D01*
X126709060Y-73303500D01*
X126758343Y-73551265D01*
X126898691Y-73761309D01*
X127108735Y-73901657D01*
X127356500Y-73950940D01*
X129056500Y-73950940D01*
X129304265Y-73901657D01*
X129514309Y-73761309D01*
X129654657Y-73551265D01*
X129667097Y-73488723D01*
X129696446Y-73532647D01*
X130178215Y-73854554D01*
X130746500Y-73967593D01*
X131314785Y-73854554D01*
X131796554Y-73532647D01*
X132118461Y-73050878D01*
X132231500Y-72482593D01*
X132231500Y-72424407D01*
X132118461Y-71856122D01*
X131796554Y-71374353D01*
X131314785Y-71052446D01*
X130746500Y-70939407D01*
X130178215Y-71052446D01*
X129696446Y-71374353D01*
X129667097Y-71418277D01*
X129654657Y-71355735D01*
X129514309Y-71145691D01*
X129304265Y-71005343D01*
X129056500Y-70956060D01*
X127356500Y-70956060D01*
X127108735Y-71005343D01*
X126898691Y-71145691D01*
X126758343Y-71355735D01*
X126709060Y-71603500D01*
X119399599Y-71603500D01*
X119423278Y-71579863D01*
X119672716Y-70979148D01*
X119673284Y-70328705D01*
X119424894Y-69727557D01*
X118965363Y-69267222D01*
X118364648Y-69017784D01*
X117714205Y-69017216D01*
X117113057Y-69265606D01*
X116652722Y-69725137D01*
X116403284Y-70325852D01*
X116402716Y-70976295D01*
X115172718Y-70976295D01*
X115173284Y-70328705D01*
X114924894Y-69727557D01*
X114465363Y-69267222D01*
X113864648Y-69017784D01*
X113214205Y-69017216D01*
X112613057Y-69265606D01*
X112152722Y-69725137D01*
X111903284Y-70325852D01*
X111902716Y-70976295D01*
X104711500Y-70976295D01*
X104711500Y-69923381D01*
X104741647Y-69893287D01*
X104872850Y-69577315D01*
X104873149Y-69235186D01*
X104742497Y-68918986D01*
X104500787Y-68676853D01*
X104184815Y-68545650D01*
X103842686Y-68545351D01*
X103526486Y-68676003D01*
X103284353Y-68917713D01*
X103153150Y-69233685D01*
X103152851Y-69575814D01*
X103283503Y-69892014D01*
X103314500Y-69923065D01*
X103314500Y-71380396D01*
X102749396Y-71945500D01*
X95948500Y-71945500D01*
X95681195Y-71998670D01*
X95454586Y-72150086D01*
X95440500Y-72164172D01*
X95440500Y-67031500D01*
X126709060Y-67031500D01*
X126709060Y-68731500D01*
X126758343Y-68979265D01*
X126898691Y-69189309D01*
X127108735Y-69329657D01*
X127356500Y-69378940D01*
X129056500Y-69378940D01*
X129304265Y-69329657D01*
X129514309Y-69189309D01*
X129654657Y-68979265D01*
X129675239Y-68875792D01*
X129979576Y-69153145D01*
X130389610Y-69322976D01*
X130619500Y-69201655D01*
X130619500Y-68008500D01*
X130873500Y-68008500D01*
X130873500Y-69201655D01*
X131103390Y-69322976D01*
X131513424Y-69153145D01*
X131941683Y-68762858D01*
X132187986Y-68238392D01*
X132067319Y-68008500D01*
X130873500Y-68008500D01*
X130619500Y-68008500D01*
X130599500Y-68008500D01*
X130599500Y-67754500D01*
X130619500Y-67754500D01*
X130619500Y-66561345D01*
X130873500Y-66561345D01*
X130873500Y-67754500D01*
X132067319Y-67754500D01*
X132187986Y-67524608D01*
X131941683Y-67000142D01*
X131513424Y-66609855D01*
X131103390Y-66440024D01*
X130873500Y-66561345D01*
X130619500Y-66561345D01*
X130389610Y-66440024D01*
X129979576Y-66609855D01*
X129675239Y-66887208D01*
X129654657Y-66783735D01*
X129514309Y-66573691D01*
X129304265Y-66433343D01*
X129056500Y-66384060D01*
X127356500Y-66384060D01*
X127108735Y-66433343D01*
X126898691Y-66573691D01*
X126758343Y-66783735D01*
X126709060Y-67031500D01*
X95440500Y-67031500D01*
X95440500Y-59598328D01*
X97981216Y-57057612D01*
X98023814Y-57057649D01*
X98340014Y-56926997D01*
X98582147Y-56685287D01*
X98713350Y-56369315D01*
X98713444Y-56261000D01*
X114803315Y-56261000D01*
X114899227Y-56743181D01*
X115172360Y-57151955D01*
X115581134Y-57425088D01*
X116063315Y-57521000D01*
X116112685Y-57521000D01*
X116594866Y-57425088D01*
X117003640Y-57151955D01*
X117276773Y-56743181D01*
X117372685Y-56261000D01*
X119803315Y-56261000D01*
X119899227Y-56743181D01*
X120172360Y-57151955D01*
X120581134Y-57425088D01*
X121063315Y-57521000D01*
X121112685Y-57521000D01*
X121594866Y-57425088D01*
X122003640Y-57151955D01*
X122276773Y-56743181D01*
X122372685Y-56261000D01*
X122276773Y-55778819D01*
X122014301Y-55386000D01*
X130407060Y-55386000D01*
X130407060Y-57136000D01*
X130456343Y-57383765D01*
X130596691Y-57593809D01*
X130806735Y-57734157D01*
X131054500Y-57783440D01*
X132804500Y-57783440D01*
X133052265Y-57734157D01*
X133262309Y-57593809D01*
X133392975Y-57398255D01*
X133432414Y-57437694D01*
X133547046Y-57323062D01*
X133630384Y-57576953D01*
X134194806Y-57782590D01*
X134794958Y-57756579D01*
X135228616Y-57576953D01*
X135311955Y-57323060D01*
X134429500Y-56440605D01*
X134415358Y-56454748D01*
X134235753Y-56275143D01*
X134249895Y-56261000D01*
X134609105Y-56261000D01*
X135491560Y-57143455D01*
X135745453Y-57060116D01*
X135951090Y-56495694D01*
X135925079Y-55895542D01*
X135745453Y-55461884D01*
X135491560Y-55378545D01*
X134609105Y-56261000D01*
X134249895Y-56261000D01*
X134235753Y-56246858D01*
X134415358Y-56067253D01*
X134429500Y-56081395D01*
X135311955Y-55198940D01*
X135228616Y-54945047D01*
X134664194Y-54739410D01*
X134064042Y-54765421D01*
X133630384Y-54945047D01*
X133547046Y-55198938D01*
X133432414Y-55084306D01*
X133392975Y-55123745D01*
X133262309Y-54928191D01*
X133052265Y-54787843D01*
X132804500Y-54738560D01*
X131054500Y-54738560D01*
X130806735Y-54787843D01*
X130596691Y-54928191D01*
X130456343Y-55138235D01*
X130407060Y-55386000D01*
X122014301Y-55386000D01*
X122003640Y-55370045D01*
X121594866Y-55096912D01*
X121112685Y-55001000D01*
X121063315Y-55001000D01*
X120581134Y-55096912D01*
X120172360Y-55370045D01*
X119899227Y-55778819D01*
X119803315Y-56261000D01*
X117372685Y-56261000D01*
X117276773Y-55778819D01*
X117003640Y-55370045D01*
X116594866Y-55096912D01*
X116112685Y-55001000D01*
X116063315Y-55001000D01*
X115581134Y-55096912D01*
X115172360Y-55370045D01*
X114899227Y-55778819D01*
X114803315Y-56261000D01*
X98713444Y-56261000D01*
X98713649Y-56027186D01*
X98582997Y-55710986D01*
X98341287Y-55468853D01*
X98025315Y-55337650D01*
X97683186Y-55337351D01*
X97366986Y-55468003D01*
X97124853Y-55709713D01*
X96993650Y-56025685D01*
X96993612Y-56069560D01*
X94248086Y-58815086D01*
X94096670Y-59041695D01*
X94096670Y-59041696D01*
X94043500Y-59309000D01*
X94043500Y-85788500D01*
X94096670Y-86055805D01*
X94248086Y-86282414D01*
X95660001Y-87694329D01*
X95660001Y-91383726D01*
X95713171Y-91651031D01*
X95864587Y-91877640D01*
X100717874Y-96730927D01*
X100944484Y-96882343D01*
X101211788Y-96935513D01*
X101493961Y-96935513D01*
X102933489Y-98375041D01*
X102933489Y-100520489D01*
X102949880Y-100602891D01*
X102839853Y-100712725D01*
X102708650Y-101028697D01*
X102708351Y-101370826D01*
X102839003Y-101687026D01*
X103080713Y-101929159D01*
X103396685Y-102060362D01*
X103440560Y-102060400D01*
X104603035Y-103222875D01*
X104406455Y-103419111D01*
X104275252Y-103735083D01*
X104275039Y-103978451D01*
X104160186Y-103978351D01*
X103843986Y-104109003D01*
X103601853Y-104350713D01*
X103470650Y-104666685D01*
X103470351Y-105008814D01*
X103601003Y-105325014D01*
X103842713Y-105567147D01*
X104158685Y-105698350D01*
X104202560Y-105698388D01*
X104324111Y-105819939D01*
X104223686Y-105819851D01*
X104056954Y-105888744D01*
X103929287Y-105760853D01*
X103613315Y-105629650D01*
X103385846Y-105629451D01*
X103277951Y-105368326D01*
X103036241Y-105126193D01*
X102720269Y-104994990D01*
X102378140Y-104994691D01*
X102061940Y-105125343D01*
X101819807Y-105367053D01*
X101688604Y-105683025D01*
X101688566Y-105726900D01*
X100471086Y-106944380D01*
X100319670Y-107170989D01*
X100283500Y-107352831D01*
X100266500Y-107438294D01*
X100266500Y-107787672D01*
X98904112Y-106425284D01*
X98904149Y-106382686D01*
X98773497Y-106066486D01*
X98531787Y-105824353D01*
X98215815Y-105693150D01*
X97873686Y-105692851D01*
X97557486Y-105823503D01*
X97472453Y-105908388D01*
X97261787Y-105697353D01*
X96945815Y-105566150D01*
X96603686Y-105565851D01*
X96287486Y-105696503D01*
X96076284Y-105907337D01*
X95866315Y-105820150D01*
X95524186Y-105819851D01*
X95504000Y-105828192D01*
X95504000Y-103095828D01*
X99632216Y-98967612D01*
X99674814Y-98967649D01*
X99991014Y-98836997D01*
X100233147Y-98595287D01*
X100364350Y-98279315D01*
X100364649Y-97937186D01*
X100233997Y-97620986D01*
X99992287Y-97378853D01*
X99676315Y-97247650D01*
X99334186Y-97247351D01*
X99017986Y-97378003D01*
X98775853Y-97619713D01*
X98644650Y-97935685D01*
X98644612Y-97979560D01*
X94311586Y-102312586D01*
X94160170Y-102539195D01*
X94160170Y-102539196D01*
X94107000Y-102806500D01*
X94107000Y-103661055D01*
X93873186Y-103660851D01*
X93556986Y-103791503D01*
X93314853Y-104033213D01*
X93183650Y-104349185D01*
X93183351Y-104691314D01*
X93314003Y-105007514D01*
X93555713Y-105249647D01*
X93871685Y-105380850D01*
X93915560Y-105380888D01*
X94107000Y-105572328D01*
X94107000Y-107378500D01*
X94160170Y-107645805D01*
X94311586Y-107872414D01*
X97491632Y-111052460D01*
X97480825Y-111078486D01*
X87820116Y-101417777D01*
X87820353Y-101146982D01*
X87689701Y-100830782D01*
X87447991Y-100588649D01*
X87132019Y-100457446D01*
X86789890Y-100457147D01*
X86473690Y-100587799D01*
X86231557Y-100829509D01*
X86173615Y-100969049D01*
X86035282Y-101026207D01*
X85793149Y-101267917D01*
X85661946Y-101583889D01*
X85661647Y-101926018D01*
X85792299Y-102242218D01*
X86034009Y-102484351D01*
X86349981Y-102615554D01*
X86622453Y-102615792D01*
X92073277Y-108066616D01*
X91969484Y-108109503D01*
X91727351Y-108351213D01*
X91596148Y-108667185D01*
X91596111Y-108709330D01*
X87350924Y-104464143D01*
X87350961Y-104421545D01*
X87220309Y-104105345D01*
X86978599Y-103863212D01*
X86662627Y-103732009D01*
X86320498Y-103731710D01*
X86004298Y-103862362D01*
X85762165Y-104104072D01*
X85630962Y-104420044D01*
X85630663Y-104762173D01*
X85761315Y-105078373D01*
X86003025Y-105320506D01*
X86318997Y-105451709D01*
X86362872Y-105451747D01*
X94551500Y-113640375D01*
X94551500Y-120703619D01*
X94521353Y-120733713D01*
X94390150Y-121049685D01*
X94389851Y-121391814D01*
X94520503Y-121708014D01*
X94762213Y-121950147D01*
X95078185Y-122081350D01*
X95420314Y-122081649D01*
X95736514Y-121950997D01*
X95978647Y-121709287D01*
X96109850Y-121393315D01*
X96110149Y-121051186D01*
X95979497Y-120734986D01*
X95948500Y-120703935D01*
X95948500Y-114656339D01*
X95954383Y-114660766D01*
X95954547Y-114660940D01*
X95954711Y-114661014D01*
X95995154Y-114691450D01*
X96055681Y-114720598D01*
X96104692Y-114733241D01*
X96104855Y-114733325D01*
X96105098Y-114733346D01*
X96131677Y-114740202D01*
X96156741Y-114751417D01*
X96156941Y-114751551D01*
X96157119Y-114751586D01*
X96203317Y-114772259D01*
X96268812Y-114787208D01*
X96319406Y-114788628D01*
X96319582Y-114788673D01*
X96319821Y-114788639D01*
X96347268Y-114789409D01*
X96374196Y-114794766D01*
X96374422Y-114794852D01*
X96374604Y-114794847D01*
X96424245Y-114804721D01*
X96491423Y-114804721D01*
X96541063Y-114794847D01*
X96541245Y-114794852D01*
X96541470Y-114794766D01*
X96568400Y-114789409D01*
X96595847Y-114788639D01*
X96596086Y-114788673D01*
X96596262Y-114788628D01*
X96646856Y-114787208D01*
X96712350Y-114772259D01*
X96758548Y-114751587D01*
X96758727Y-114751551D01*
X96758929Y-114751416D01*
X96783989Y-114740202D01*
X96810559Y-114733348D01*
X96810801Y-114733328D01*
X96810963Y-114733244D01*
X96859988Y-114720598D01*
X96920514Y-114691450D01*
X96960957Y-114661014D01*
X96961121Y-114660940D01*
X96961285Y-114660766D01*
X96983219Y-114644260D01*
X97052941Y-114608242D01*
X97091500Y-114577493D01*
X97091500Y-119408889D01*
X97048186Y-119408851D01*
X96731986Y-119539503D01*
X96489853Y-119781213D01*
X96358650Y-120097185D01*
X96358612Y-120141060D01*
X96343586Y-120156086D01*
X96192170Y-120382695D01*
X96170258Y-120492853D01*
X96139000Y-120650000D01*
X96139000Y-124767619D01*
X96108853Y-124797713D01*
X95977650Y-125113685D01*
X95977351Y-125455814D01*
X96108003Y-125772014D01*
X96349713Y-126014147D01*
X96665685Y-126145350D01*
X97007814Y-126145649D01*
X97324014Y-126014997D01*
X97566147Y-125773287D01*
X97697350Y-125457315D01*
X97697649Y-125115186D01*
X97566997Y-124798986D01*
X97536000Y-124767935D01*
X97536000Y-124718116D01*
X97539799Y-124727310D01*
X97781509Y-124969443D01*
X97921049Y-125027385D01*
X97978207Y-125165718D01*
X98219917Y-125407851D01*
X98535889Y-125539054D01*
X98777002Y-125539265D01*
X98777002Y-131737149D01*
X98636986Y-131795003D01*
X98488397Y-131943332D01*
X98277787Y-131732353D01*
X97961815Y-131601150D01*
X97917940Y-131601112D01*
X96464512Y-130147684D01*
X96486101Y-130120613D01*
X96522123Y-130050886D01*
X96538638Y-130028942D01*
X96538813Y-130028776D01*
X96538887Y-130028610D01*
X96569318Y-129988175D01*
X96598466Y-129927648D01*
X96611109Y-129878637D01*
X96611192Y-129878476D01*
X96611212Y-129878235D01*
X96618071Y-129851646D01*
X96629281Y-129826594D01*
X96629418Y-129826389D01*
X96629454Y-129826207D01*
X96650128Y-129780004D01*
X96665076Y-129714510D01*
X96666495Y-129663926D01*
X96666541Y-129663747D01*
X96666507Y-129663504D01*
X96667277Y-129636061D01*
X96672631Y-129609142D01*
X96672718Y-129608914D01*
X96672713Y-129608731D01*
X96682588Y-129559085D01*
X96682588Y-129491906D01*
X96672713Y-129442260D01*
X96672718Y-129442077D01*
X96672631Y-129441849D01*
X96667277Y-129414930D01*
X96666507Y-129387487D01*
X96666541Y-129387244D01*
X96666495Y-129387065D01*
X96665076Y-129336481D01*
X96650128Y-129270987D01*
X96629454Y-129224784D01*
X96629418Y-129224602D01*
X96629281Y-129224397D01*
X96618071Y-129199345D01*
X96611215Y-129172764D01*
X96611194Y-129172521D01*
X96611110Y-129172358D01*
X96598466Y-129123343D01*
X96569318Y-129062816D01*
X96538887Y-129022381D01*
X96538813Y-129022215D01*
X96538638Y-129022049D01*
X96522125Y-129000108D01*
X96509526Y-128975720D01*
X96509452Y-128975487D01*
X96509333Y-128975346D01*
X96486105Y-128930383D01*
X96444220Y-128877860D01*
X96405544Y-128845201D01*
X96405434Y-128845054D01*
X96405224Y-128844930D01*
X96384256Y-128827224D01*
X96366528Y-128806230D01*
X96366409Y-128806028D01*
X96366268Y-128805922D01*
X96333617Y-128767255D01*
X96281094Y-128725369D01*
X96236129Y-128702140D01*
X96235990Y-128702022D01*
X96235759Y-128701949D01*
X96211358Y-128689342D01*
X96189432Y-128672842D01*
X96189263Y-128672663D01*
X96189094Y-128672587D01*
X96148645Y-128642147D01*
X96088119Y-128613000D01*
X96039117Y-128600360D01*
X96038956Y-128600277D01*
X96038716Y-128600257D01*
X96012126Y-128593398D01*
X95987071Y-128582187D01*
X95986868Y-128582051D01*
X95986688Y-128582015D01*
X95940493Y-128561344D01*
X95874999Y-128546395D01*
X95824398Y-128544975D01*
X95824216Y-128544928D01*
X95823969Y-128544963D01*
X95818141Y-128544799D01*
X95817977Y-128538958D01*
X95818011Y-128538715D01*
X95817965Y-128538536D01*
X95816546Y-128487952D01*
X95801598Y-128422458D01*
X95780924Y-128376255D01*
X95780888Y-128376073D01*
X95780751Y-128375868D01*
X95769541Y-128350816D01*
X95762685Y-128324235D01*
X95762664Y-128323992D01*
X95762580Y-128323829D01*
X95749936Y-128274814D01*
X95720788Y-128214287D01*
X95690357Y-128173852D01*
X95690283Y-128173686D01*
X95690108Y-128173520D01*
X95673595Y-128151579D01*
X95660996Y-128127191D01*
X95660922Y-128126958D01*
X95660803Y-128126817D01*
X95637575Y-128081854D01*
X95595690Y-128029331D01*
X95557014Y-127996672D01*
X95556904Y-127996525D01*
X95556694Y-127996401D01*
X95535726Y-127978695D01*
X95517998Y-127957701D01*
X95517879Y-127957499D01*
X95517738Y-127957393D01*
X95485087Y-127918726D01*
X95432564Y-127876840D01*
X95387599Y-127853611D01*
X95387460Y-127853493D01*
X95387229Y-127853420D01*
X95362828Y-127840813D01*
X95340902Y-127824313D01*
X95340733Y-127824134D01*
X95340564Y-127824058D01*
X95300115Y-127793618D01*
X95239589Y-127764471D01*
X95190587Y-127751831D01*
X95190426Y-127751748D01*
X95190186Y-127751728D01*
X95163596Y-127744869D01*
X95138541Y-127733658D01*
X95138338Y-127733522D01*
X95138158Y-127733486D01*
X95091963Y-127712815D01*
X95026469Y-127697866D01*
X94975868Y-127696446D01*
X94975686Y-127696399D01*
X94975439Y-127696434D01*
X94948013Y-127695664D01*
X94921081Y-127690307D01*
X94920853Y-127690220D01*
X94920670Y-127690225D01*
X94871034Y-127680352D01*
X94803855Y-127680352D01*
X94754219Y-127690225D01*
X94754036Y-127690220D01*
X94753808Y-127690307D01*
X94726876Y-127695664D01*
X94699443Y-127696434D01*
X94699202Y-127696400D01*
X94699025Y-127696446D01*
X94648420Y-127697866D01*
X94582926Y-127712815D01*
X94536731Y-127733486D01*
X94536551Y-127733522D01*
X94536348Y-127733658D01*
X94511293Y-127744869D01*
X94484703Y-127751728D01*
X94484463Y-127751748D01*
X94484302Y-127751831D01*
X94435299Y-127764471D01*
X94374774Y-127793618D01*
X94334325Y-127824059D01*
X94334156Y-127824134D01*
X94333987Y-127824312D01*
X94312059Y-127840815D01*
X94242326Y-127876840D01*
X94215255Y-127898428D01*
X87122000Y-120805172D01*
X87122000Y-108213881D01*
X87152147Y-108183787D01*
X87283350Y-107867815D01*
X87283649Y-107525686D01*
X87152997Y-107209486D01*
X86911287Y-106967353D01*
X86595315Y-106836150D01*
X86253186Y-106835851D01*
X85936986Y-106966503D01*
X85694853Y-107208213D01*
X85563650Y-107524185D01*
X85563351Y-107866314D01*
X85694003Y-108182514D01*
X85725000Y-108213565D01*
X85725000Y-121094500D01*
X85778170Y-121361805D01*
X85929586Y-121588414D01*
X93402341Y-129061170D01*
X93380143Y-129061793D01*
X93379902Y-129061759D01*
X93379725Y-129061805D01*
X93329120Y-129063225D01*
X93263626Y-129078174D01*
X93217431Y-129098845D01*
X93217251Y-129098881D01*
X93217048Y-129099017D01*
X93191993Y-129110228D01*
X93165403Y-129117087D01*
X93165163Y-129117107D01*
X93165002Y-129117190D01*
X93115999Y-129129830D01*
X93055474Y-129158977D01*
X93015025Y-129189418D01*
X93014856Y-129189493D01*
X93014687Y-129189671D01*
X92992759Y-129206174D01*
X92923026Y-129242199D01*
X92870502Y-129284085D01*
X92844983Y-129314306D01*
X92814735Y-129334517D01*
X92787196Y-129281212D01*
X92745310Y-129228690D01*
X92715090Y-129203172D01*
X92693120Y-129170291D01*
X91891517Y-128368689D01*
X91806914Y-128242072D01*
X85625928Y-122061086D01*
X85499310Y-121976482D01*
X85471000Y-121948172D01*
X85471000Y-106372381D01*
X85501147Y-106342287D01*
X85632350Y-106026315D01*
X85632649Y-105684186D01*
X85501997Y-105367986D01*
X85260287Y-105125853D01*
X84944315Y-104994650D01*
X84602186Y-104994351D01*
X84285986Y-105125003D01*
X84043853Y-105366713D01*
X83912650Y-105682685D01*
X83912351Y-106024814D01*
X82579897Y-106024814D01*
X82707147Y-105897787D01*
X82838350Y-105581815D01*
X82838649Y-105239686D01*
X82707997Y-104923486D01*
X82466287Y-104681353D01*
X82150315Y-104550150D01*
X81808186Y-104549851D01*
X81491986Y-104680503D01*
X81249853Y-104922213D01*
X81118650Y-105238185D01*
X81118612Y-105282060D01*
X75960087Y-110440585D01*
X75808671Y-110667194D01*
X75767548Y-110873935D01*
X75755501Y-110934499D01*
X75755501Y-111115119D01*
X75725354Y-111145213D01*
X75594151Y-111461185D01*
X75593852Y-111803314D01*
X69931684Y-111803314D01*
X70230647Y-111603554D01*
X70552554Y-111121785D01*
X70665593Y-110553500D01*
X70552554Y-109985215D01*
X70230647Y-109503446D01*
X69901474Y-109283500D01*
X70230647Y-109063554D01*
X70552554Y-108581785D01*
X70665593Y-108013500D01*
X70552554Y-107445215D01*
X70230647Y-106963446D01*
X69901474Y-106743500D01*
X70230647Y-106523554D01*
X70552554Y-106041785D01*
X70665593Y-105473500D01*
X70552554Y-104905215D01*
X70230647Y-104423446D01*
X69901474Y-104203500D01*
X70230647Y-103983554D01*
X70552554Y-103501785D01*
X70665593Y-102933500D01*
X70552554Y-102365215D01*
X70230647Y-101883446D01*
X69901474Y-101663500D01*
X70230647Y-101443554D01*
X70552554Y-100961785D01*
X70665593Y-100393500D01*
X70552554Y-99825215D01*
X70230647Y-99343446D01*
X69889947Y-99115798D01*
X70032858Y-99048683D01*
X70423145Y-98620424D01*
X70592976Y-98210390D01*
X70471655Y-97980500D01*
X69278500Y-97980500D01*
X69278500Y-98000500D01*
X69024500Y-98000500D01*
X69024500Y-97980500D01*
X67831345Y-97980500D01*
X67710024Y-98210390D01*
X67879855Y-98620424D01*
X68270142Y-99048683D01*
X68413053Y-99115798D01*
X68072353Y-99343446D01*
X67750446Y-99825215D01*
X67637407Y-100393500D01*
X66542613Y-100393500D01*
X66610649Y-54673500D01*
X67637407Y-54673500D01*
X67750446Y-55241785D01*
X68072353Y-55723554D01*
X68401526Y-55943500D01*
X68072353Y-56163446D01*
X67750446Y-56645215D01*
X67637407Y-57213500D01*
X67750446Y-57781785D01*
X68072353Y-58263554D01*
X68401526Y-58483500D01*
X68072353Y-58703446D01*
X67750446Y-59185215D01*
X67637407Y-59753500D01*
X67750446Y-60321785D01*
X68072353Y-60803554D01*
X68401526Y-61023500D01*
X68072353Y-61243446D01*
X67750446Y-61725215D01*
X67637407Y-62293500D01*
X67750446Y-62861785D01*
X68072353Y-63343554D01*
X68401526Y-63563500D01*
X68072353Y-63783446D01*
X67750446Y-64265215D01*
X67637407Y-64833500D01*
X67750446Y-65401785D01*
X68072353Y-65883554D01*
X68401526Y-66103500D01*
X68072353Y-66323446D01*
X67750446Y-66805215D01*
X67637407Y-67373500D01*
X67750446Y-67941785D01*
X68072353Y-68423554D01*
X68401526Y-68643500D01*
X68072353Y-68863446D01*
X67750446Y-69345215D01*
X67637407Y-69913500D01*
X67750446Y-70481785D01*
X68072353Y-70963554D01*
X68401526Y-71183500D01*
X68072353Y-71403446D01*
X67750446Y-71885215D01*
X67637407Y-72453500D01*
X67750446Y-73021785D01*
X68072353Y-73503554D01*
X68401526Y-73723500D01*
X68072353Y-73943446D01*
X67750446Y-74425215D01*
X67637407Y-74993500D01*
X67750446Y-75561785D01*
X68072353Y-76043554D01*
X68401526Y-76263500D01*
X68072353Y-76483446D01*
X67750446Y-76965215D01*
X67637407Y-77533500D01*
X67750446Y-78101785D01*
X68072353Y-78583554D01*
X68401526Y-78803500D01*
X68072353Y-79023446D01*
X67750446Y-79505215D01*
X67637407Y-80073500D01*
X67750446Y-80641785D01*
X68072353Y-81123554D01*
X68401526Y-81343500D01*
X68072353Y-81563446D01*
X67750446Y-82045215D01*
X67637407Y-82613500D01*
X67750446Y-83181785D01*
X68072353Y-83663554D01*
X68401526Y-83883500D01*
X68072353Y-84103446D01*
X67750446Y-84585215D01*
X67637407Y-85153500D01*
X67750446Y-85721785D01*
X68072353Y-86203554D01*
X68401526Y-86423500D01*
X68072353Y-86643446D01*
X67750446Y-87125215D01*
X67637407Y-87693500D01*
X67750446Y-88261785D01*
X68072353Y-88743554D01*
X68401526Y-88963500D01*
X68072353Y-89183446D01*
X67750446Y-89665215D01*
X67637407Y-90233500D01*
X67750446Y-90801785D01*
X68072353Y-91283554D01*
X68401526Y-91503500D01*
X68072353Y-91723446D01*
X67750446Y-92205215D01*
X67637407Y-92773500D01*
X67750446Y-93341785D01*
X68072353Y-93823554D01*
X68401526Y-94043500D01*
X68072353Y-94263446D01*
X67750446Y-94745215D01*
X67637407Y-95313500D01*
X67750446Y-95881785D01*
X68072353Y-96363554D01*
X68413053Y-96591202D01*
X68270142Y-96658317D01*
X67879855Y-97086576D01*
X67710024Y-97496610D01*
X67831345Y-97726500D01*
X69024500Y-97726500D01*
X69024500Y-97706500D01*
X69278500Y-97706500D01*
X69278500Y-97726500D01*
X70471655Y-97726500D01*
X70592976Y-97496610D01*
X70423145Y-97086576D01*
X70177758Y-96817314D01*
X82197851Y-96817314D01*
X82328503Y-97133514D01*
X82570213Y-97375647D01*
X82886185Y-97506850D01*
X83228314Y-97507149D01*
X83544514Y-97376497D01*
X83575565Y-97345500D01*
X84254951Y-97345500D01*
X84475213Y-97566147D01*
X84791185Y-97697350D01*
X85133314Y-97697649D01*
X85449514Y-97566997D01*
X85691647Y-97325287D01*
X85822850Y-97009315D01*
X85823149Y-96667186D01*
X85692497Y-96350986D01*
X85450787Y-96108853D01*
X85134815Y-95977650D01*
X84918096Y-95977461D01*
X84772500Y-95948500D01*
X83575881Y-95948500D01*
X83545787Y-95918353D01*
X83229815Y-95787150D01*
X82887686Y-95786851D01*
X82571486Y-95917503D01*
X82329353Y-96159213D01*
X82198150Y-96475185D01*
X82197851Y-96817314D01*
X70177758Y-96817314D01*
X70032858Y-96658317D01*
X69889947Y-96591202D01*
X70230647Y-96363554D01*
X70552554Y-95881785D01*
X70656977Y-95356814D01*
X85499851Y-95356814D01*
X85630503Y-95673014D01*
X85872213Y-95915147D01*
X86188185Y-96046350D01*
X86411466Y-96046545D01*
X86519503Y-96308014D01*
X86761213Y-96550147D01*
X87077185Y-96681350D01*
X87419314Y-96681649D01*
X87735514Y-96550997D01*
X87977647Y-96309287D01*
X88108850Y-95993315D01*
X88109149Y-95651186D01*
X87978497Y-95334986D01*
X87736787Y-95092853D01*
X87420815Y-94961650D01*
X87376940Y-94961612D01*
X87107914Y-94692586D01*
X87030421Y-94640807D01*
X86847787Y-94457853D01*
X86531815Y-94326650D01*
X86189686Y-94326351D01*
X85873486Y-94457003D01*
X85631353Y-94698713D01*
X85500150Y-95014685D01*
X85499851Y-95356814D01*
X70656977Y-95356814D01*
X70665593Y-95313500D01*
X70552554Y-94745215D01*
X70230647Y-94263446D01*
X69901474Y-94043500D01*
X70230647Y-93823554D01*
X70552554Y-93341785D01*
X70665593Y-92773500D01*
X70552554Y-92205215D01*
X70230647Y-91723446D01*
X69901474Y-91503500D01*
X70230647Y-91283554D01*
X70552554Y-90801785D01*
X70665593Y-90233500D01*
X70552554Y-89665215D01*
X70230647Y-89183446D01*
X69901474Y-88963500D01*
X70230647Y-88743554D01*
X70552554Y-88261785D01*
X70665593Y-87693500D01*
X70552554Y-87125215D01*
X70230647Y-86643446D01*
X69901474Y-86423500D01*
X70230647Y-86203554D01*
X70552554Y-85721785D01*
X70665593Y-85153500D01*
X70552554Y-84585215D01*
X70230647Y-84103446D01*
X69901474Y-83883500D01*
X70230647Y-83663554D01*
X70552554Y-83181785D01*
X70665593Y-82613500D01*
X70552554Y-82045215D01*
X70230647Y-81563446D01*
X69901474Y-81343500D01*
X70230647Y-81123554D01*
X70552554Y-80641785D01*
X70631715Y-80243816D01*
X73498351Y-80243816D01*
X73629003Y-80560016D01*
X73870713Y-80802149D01*
X74186685Y-80933352D01*
X74528814Y-80933651D01*
X74845014Y-80802999D01*
X74876065Y-80772002D01*
X77625174Y-80772002D01*
X91277672Y-94424500D01*
X89887828Y-94424500D01*
X80249914Y-84786586D01*
X80023305Y-84635170D01*
X79756000Y-84582000D01*
X75765381Y-84582000D01*
X75735287Y-84551853D01*
X75419315Y-84420650D01*
X75077186Y-84420351D01*
X74760986Y-84551003D01*
X74518853Y-84792713D01*
X74387650Y-85108685D01*
X74387351Y-85450814D01*
X74518003Y-85767014D01*
X74759713Y-86009147D01*
X75075685Y-86140350D01*
X75417814Y-86140649D01*
X75734014Y-86009997D01*
X75765065Y-85979000D01*
X79466672Y-85979000D01*
X89104586Y-95616914D01*
X89331195Y-95768330D01*
X89598500Y-95821500D01*
X92837000Y-95821500D01*
X93104305Y-95768330D01*
X93330914Y-95616914D01*
X93740915Y-95206913D01*
X93823991Y-95082581D01*
X93958514Y-95026997D01*
X94200647Y-94785287D01*
X94331850Y-94469315D01*
X94332149Y-94127186D01*
X94201497Y-93810986D01*
X93959787Y-93568853D01*
X93643815Y-93437650D01*
X93301686Y-93437351D01*
X92985486Y-93568003D01*
X92743353Y-93809713D01*
X92732535Y-93835766D01*
X92691315Y-93818650D01*
X92647440Y-93818612D01*
X89677142Y-90848314D01*
X91659351Y-90848314D01*
X91790003Y-91164514D01*
X92031713Y-91406647D01*
X92347685Y-91537850D01*
X92689814Y-91538149D01*
X93006014Y-91407497D01*
X93248147Y-91165787D01*
X93379350Y-90849815D01*
X93379649Y-90507686D01*
X93248997Y-90191486D01*
X93218000Y-90160435D01*
X93218000Y-73225387D01*
X93248153Y-73195287D01*
X93379356Y-72879315D01*
X93379655Y-72537186D01*
X93249003Y-72220986D01*
X93007293Y-71978853D01*
X92691321Y-71847650D01*
X92349192Y-71847351D01*
X92032992Y-71978003D01*
X91790859Y-72219713D01*
X91659656Y-72535685D01*
X91659357Y-72877814D01*
X91790009Y-73194014D01*
X91821000Y-73225059D01*
X91821000Y-90160119D01*
X91790853Y-90190213D01*
X91659650Y-90506185D01*
X91659351Y-90848314D01*
X89677142Y-90848314D01*
X78408416Y-79579588D01*
X78181807Y-79428172D01*
X77914502Y-79375002D01*
X74876381Y-79375002D01*
X74846287Y-79344855D01*
X74530315Y-79213652D01*
X74188186Y-79213353D01*
X73871986Y-79344005D01*
X73629853Y-79585715D01*
X73498650Y-79901687D01*
X73498351Y-80243816D01*
X70631715Y-80243816D01*
X70665593Y-80073500D01*
X70552554Y-79505215D01*
X70230647Y-79023446D01*
X69901474Y-78803500D01*
X70230647Y-78583554D01*
X70552554Y-78101785D01*
X70665593Y-77533500D01*
X70552554Y-76965215D01*
X70230647Y-76483446D01*
X69901474Y-76263500D01*
X70230647Y-76043554D01*
X70552554Y-75561785D01*
X70665593Y-74993500D01*
X70552554Y-74425215D01*
X70230647Y-73943446D01*
X69901474Y-73723500D01*
X70230647Y-73503554D01*
X70552554Y-73021785D01*
X70665593Y-72453500D01*
X70552554Y-71885215D01*
X70230647Y-71403446D01*
X69901474Y-71183500D01*
X70230647Y-70963554D01*
X70552554Y-70481785D01*
X70665593Y-69913500D01*
X70552554Y-69345215D01*
X70230647Y-68863446D01*
X69901474Y-68643500D01*
X70230647Y-68423554D01*
X70552554Y-67941785D01*
X70665593Y-67373500D01*
X70552554Y-66805215D01*
X70230647Y-66323446D01*
X69901474Y-66103500D01*
X70230647Y-65883554D01*
X70552554Y-65401785D01*
X70665593Y-64833500D01*
X70552554Y-64265215D01*
X70230647Y-63783446D01*
X69901474Y-63563500D01*
X70230647Y-63343554D01*
X70552554Y-62861785D01*
X70665593Y-62293500D01*
X70552554Y-61725215D01*
X70230647Y-61243446D01*
X69901474Y-61023500D01*
X70230647Y-60803554D01*
X70552554Y-60321785D01*
X70665593Y-59753500D01*
X70552554Y-59185215D01*
X70230647Y-58703446D01*
X69901474Y-58483500D01*
X70230647Y-58263554D01*
X70552554Y-57781785D01*
X70665593Y-57213500D01*
X70552554Y-56645215D01*
X70230647Y-56163446D01*
X69901474Y-55943500D01*
X70230647Y-55723554D01*
X70552554Y-55241785D01*
X70665593Y-54673500D01*
X70552554Y-54105215D01*
X70279722Y-53696892D01*
X78505014Y-53696892D01*
X78751317Y-54221358D01*
X79179576Y-54611645D01*
X79589610Y-54781476D01*
X79819500Y-54660155D01*
X79819500Y-53467000D01*
X78625681Y-53467000D01*
X78505014Y-53696892D01*
X70279722Y-53696892D01*
X70230647Y-53623446D01*
X69748878Y-53301539D01*
X69180593Y-53188500D01*
X69122407Y-53188500D01*
X68554122Y-53301539D01*
X68072353Y-53623446D01*
X67750446Y-54105215D01*
X67637407Y-54673500D01*
X66610649Y-54673500D01*
X66611427Y-54151006D01*
X67668096Y-52983108D01*
X78505014Y-52983108D01*
X78625681Y-53213000D01*
X79819500Y-53213000D01*
X79819500Y-52019845D01*
X80073500Y-52019845D01*
X80073500Y-53213000D01*
X80093500Y-53213000D01*
X80093500Y-53467000D01*
X80073500Y-53467000D01*
X80073500Y-54660155D01*
X80303390Y-54781476D01*
X80713424Y-54611645D01*
X81141683Y-54221358D01*
X81208798Y-54078447D01*
X81436446Y-54419147D01*
X81918215Y-54741054D01*
X82486500Y-54854093D01*
X83054785Y-54741054D01*
X83536554Y-54419147D01*
X83756500Y-54089974D01*
X83976446Y-54419147D01*
X84458215Y-54741054D01*
X85026500Y-54854093D01*
X85594785Y-54741054D01*
X86076554Y-54419147D01*
X86105903Y-54375223D01*
X86118343Y-54437765D01*
X86258691Y-54647809D01*
X86468735Y-54788157D01*
X86716500Y-54837440D01*
X88416500Y-54837440D01*
X88664265Y-54788157D01*
X88874309Y-54647809D01*
X89014657Y-54437765D01*
X89063940Y-54190000D01*
X89063940Y-52490000D01*
X97689560Y-52490000D01*
X97689560Y-54190000D01*
X97738843Y-54437765D01*
X97879191Y-54647809D01*
X98089235Y-54788157D01*
X98337000Y-54837440D01*
X100037000Y-54837440D01*
X100284765Y-54788157D01*
X100494809Y-54647809D01*
X100635157Y-54437765D01*
X100647597Y-54375223D01*
X100676946Y-54419147D01*
X101158715Y-54741054D01*
X101727000Y-54854093D01*
X102295285Y-54741054D01*
X102777054Y-54419147D01*
X102997000Y-54089974D01*
X103216946Y-54419147D01*
X103698715Y-54741054D01*
X104267000Y-54854093D01*
X104835285Y-54741054D01*
X105317054Y-54419147D01*
X105544702Y-54078447D01*
X105611817Y-54221358D01*
X106040076Y-54611645D01*
X106450110Y-54781476D01*
X106680000Y-54660155D01*
X106680000Y-53467000D01*
X106934000Y-53467000D01*
X106934000Y-54660155D01*
X107163890Y-54781476D01*
X107573924Y-54611645D01*
X108002183Y-54221358D01*
X108248486Y-53696892D01*
X108177159Y-53561000D01*
X113650376Y-53561000D01*
X113757706Y-54100584D01*
X114063355Y-54558021D01*
X114520792Y-54863670D01*
X115060376Y-54971000D01*
X115115624Y-54971000D01*
X115655208Y-54863670D01*
X116112645Y-54558021D01*
X116418294Y-54100584D01*
X116525624Y-53561000D01*
X120650376Y-53561000D01*
X120757706Y-54100584D01*
X121063355Y-54558021D01*
X121520792Y-54863670D01*
X122060376Y-54971000D01*
X122115624Y-54971000D01*
X122655208Y-54863670D01*
X123112645Y-54558021D01*
X123418294Y-54100584D01*
X123525624Y-53561000D01*
X123418294Y-53021416D01*
X123112645Y-52563979D01*
X122655208Y-52258330D01*
X122115624Y-52151000D01*
X122060376Y-52151000D01*
X121520792Y-52258330D01*
X121063355Y-52563979D01*
X120757706Y-53021416D01*
X120650376Y-53561000D01*
X116525624Y-53561000D01*
X116418294Y-53021416D01*
X116112645Y-52563979D01*
X115655208Y-52258330D01*
X115115624Y-52151000D01*
X115060376Y-52151000D01*
X114520792Y-52258330D01*
X114063355Y-52563979D01*
X113757706Y-53021416D01*
X113650376Y-53561000D01*
X108177159Y-53561000D01*
X108127819Y-53467000D01*
X106934000Y-53467000D01*
X106680000Y-53467000D01*
X106660000Y-53467000D01*
X106660000Y-53213000D01*
X106680000Y-53213000D01*
X106680000Y-52019845D01*
X106934000Y-52019845D01*
X106934000Y-53213000D01*
X108127819Y-53213000D01*
X108248486Y-52983108D01*
X108002183Y-52458642D01*
X107573924Y-52068355D01*
X107163890Y-51898524D01*
X106934000Y-52019845D01*
X106680000Y-52019845D01*
X106450110Y-51898524D01*
X106040076Y-52068355D01*
X105611817Y-52458642D01*
X105544702Y-52601553D01*
X105317054Y-52260853D01*
X104835285Y-51938946D01*
X104267000Y-51825907D01*
X103698715Y-51938946D01*
X103216946Y-52260853D01*
X102997000Y-52590026D01*
X102777054Y-52260853D01*
X102295285Y-51938946D01*
X101727000Y-51825907D01*
X101158715Y-51938946D01*
X100676946Y-52260853D01*
X100647597Y-52304777D01*
X100635157Y-52242235D01*
X100494809Y-52032191D01*
X100284765Y-51891843D01*
X100037000Y-51842560D01*
X98337000Y-51842560D01*
X98089235Y-51891843D01*
X97879191Y-52032191D01*
X97738843Y-52242235D01*
X97689560Y-52490000D01*
X89063940Y-52490000D01*
X89014657Y-52242235D01*
X88874309Y-52032191D01*
X88664265Y-51891843D01*
X88416500Y-51842560D01*
X86716500Y-51842560D01*
X86468735Y-51891843D01*
X86258691Y-52032191D01*
X86118343Y-52242235D01*
X86105903Y-52304777D01*
X86076554Y-52260853D01*
X85594785Y-51938946D01*
X85026500Y-51825907D01*
X84458215Y-51938946D01*
X83976446Y-52260853D01*
X83756500Y-52590026D01*
X83536554Y-52260853D01*
X83054785Y-51938946D01*
X82486500Y-51825907D01*
X81918215Y-51938946D01*
X81436446Y-52260853D01*
X81208798Y-52601553D01*
X81141683Y-52458642D01*
X80713424Y-52068355D01*
X80303390Y-51898524D01*
X80073500Y-52019845D01*
X79819500Y-52019845D01*
X79589610Y-51898524D01*
X79179576Y-52068355D01*
X78751317Y-52458642D01*
X78505014Y-52983108D01*
X67668096Y-52983108D01*
X70160503Y-50228343D01*
X74941749Y-50215000D01*
X138570512Y-50215000D01*
X139142000Y-50627742D01*
M02*
