G04 #@! TF.GenerationSoftware,KiCad,Pcbnew,(2017-04-29 revision a92ea8c75)-makepkg*
G04 #@! TF.CreationDate,2017-06-13T12:06:22+05:30*
G04 #@! TF.ProjectId,MyIMX233,4D79494D583233332E6B696361645F70,rev?*
G04 #@! TF.FileFunction,Other,User*
%FSLAX46Y46*%
G04 Gerber Fmt 4.6, Leading zero omitted, Abs format (unit mm)*
G04 Created by KiCad (PCBNEW (2017-04-29 revision a92ea8c75)-makepkg) date 06/13/17 12:06:22*
%MOMM*%
%LPD*%
G01*
G04 APERTURE LIST*
%ADD10C,0.100000*%
%ADD11C,0.050000*%
%ADD12C,0.150000*%
G04 APERTURE END LIST*
D10*
D11*
X132711500Y-133096000D02*
G75*
G03X132711500Y-133096000I-2600000J0D01*
G01*
X107457000Y-59421000D02*
X107457000Y-62321000D01*
X106157000Y-59421000D02*
X107457000Y-59421000D01*
X106157000Y-62321000D02*
X106157000Y-59421000D01*
X107457000Y-62321000D02*
X106157000Y-62321000D01*
X107570500Y-63889500D02*
X107570500Y-67799500D01*
X107570500Y-63889500D02*
X106170500Y-63889500D01*
X106170500Y-67799500D02*
X107570500Y-67799500D01*
X106170500Y-67799500D02*
X106170500Y-63889500D01*
X116885000Y-61469500D02*
X112975000Y-61469500D01*
X116885000Y-61469500D02*
X116885000Y-60069500D01*
X112975000Y-60069500D02*
X112975000Y-61469500D01*
X112975000Y-60069500D02*
X116885000Y-60069500D01*
X88625764Y-92366449D02*
X87211551Y-90952236D01*
X88625764Y-92366449D02*
X89191449Y-91800764D01*
X87777236Y-90386551D02*
X87211551Y-90952236D01*
X87777236Y-90386551D02*
X89191449Y-91800764D01*
X110125000Y-103168500D02*
X112125000Y-103168500D01*
X110125000Y-103168500D02*
X110125000Y-103968500D01*
X112125000Y-103968500D02*
X112125000Y-103168500D01*
X112125000Y-103968500D02*
X110125000Y-103968500D01*
X110061500Y-104311500D02*
X112061500Y-104311500D01*
X110061500Y-104311500D02*
X110061500Y-105111500D01*
X112061500Y-105111500D02*
X112061500Y-104311500D01*
X112061500Y-105111500D02*
X110061500Y-105111500D01*
X95333500Y-118045000D02*
X97833500Y-118045000D01*
X95333500Y-118045000D02*
X95333500Y-119445000D01*
X97833500Y-119445000D02*
X97833500Y-118045000D01*
X97833500Y-119445000D02*
X95333500Y-119445000D01*
X93301500Y-116267000D02*
X95801500Y-116267000D01*
X93301500Y-116267000D02*
X93301500Y-117667000D01*
X95801500Y-117667000D02*
X95801500Y-116267000D01*
X95801500Y-117667000D02*
X93301500Y-117667000D01*
X107968142Y-90157673D02*
X109382355Y-88743460D01*
X107968142Y-90157673D02*
X108533827Y-90723358D01*
X109948040Y-89309145D02*
X109382355Y-88743460D01*
X109948040Y-89309145D02*
X108533827Y-90723358D01*
X108690000Y-101585000D02*
X112290000Y-101585000D01*
X108690000Y-101585000D02*
X108690000Y-102885000D01*
X112290000Y-102885000D02*
X112290000Y-101585000D01*
X112290000Y-102885000D02*
X108690000Y-102885000D01*
X109325000Y-97013000D02*
X112925000Y-97013000D01*
X109325000Y-97013000D02*
X109325000Y-98313000D01*
X112925000Y-98313000D02*
X112925000Y-97013000D01*
X112925000Y-98313000D02*
X109325000Y-98313000D01*
X120014500Y-60881500D02*
X123614500Y-60881500D01*
X120014500Y-60881500D02*
X120014500Y-62181500D01*
X123614500Y-62181500D02*
X123614500Y-60881500D01*
X123614500Y-62181500D02*
X120014500Y-62181500D01*
X106189912Y-90499827D02*
X103644327Y-93045412D01*
X106189912Y-90499827D02*
X105270673Y-89580588D01*
X102725088Y-92126173D02*
X103644327Y-93045412D01*
X102725088Y-92126173D02*
X105270673Y-89580588D01*
X85046145Y-98901250D02*
X96996250Y-110851355D01*
X96996250Y-86951145D02*
X108946355Y-98901250D01*
X108946355Y-98901250D02*
X96996250Y-110851355D01*
X96996250Y-86951145D02*
X85046145Y-98901250D01*
X113871500Y-101962000D02*
X115871500Y-101962000D01*
X113871500Y-101962000D02*
X113871500Y-102762000D01*
X115871500Y-102762000D02*
X115871500Y-101962000D01*
X115871500Y-102762000D02*
X113871500Y-102762000D01*
X110125000Y-98660000D02*
X112125000Y-98660000D01*
X110125000Y-98660000D02*
X110125000Y-99460000D01*
X112125000Y-99460000D02*
X112125000Y-98660000D01*
X112125000Y-99460000D02*
X110125000Y-99460000D01*
X111998000Y-100539500D02*
X109998000Y-100539500D01*
X111998000Y-100539500D02*
X111998000Y-99739500D01*
X109998000Y-99739500D02*
X109998000Y-100539500D01*
X109998000Y-99739500D02*
X111998000Y-99739500D01*
X114855500Y-92856000D02*
X112855500Y-92856000D01*
X114855500Y-92856000D02*
X114855500Y-92056000D01*
X112855500Y-92056000D02*
X112855500Y-92856000D01*
X112855500Y-92056000D02*
X114855500Y-92056000D01*
X130393000Y-90341500D02*
X125893000Y-90341500D01*
X130393000Y-90341500D02*
X130393000Y-88591500D01*
X125893000Y-88591500D02*
X125893000Y-90341500D01*
X125893000Y-88591500D02*
X130393000Y-88591500D01*
X137379500Y-53411000D02*
X128979500Y-53411000D01*
X137379500Y-60161000D02*
X137379500Y-53411000D01*
X128979500Y-60161000D02*
X137379500Y-60161000D01*
X128979500Y-53411000D02*
X128979500Y-60161000D01*
X123827500Y-83704500D02*
X125727500Y-83704500D01*
X125727500Y-83704500D02*
X125727500Y-79704500D01*
X123827500Y-79704500D02*
X125727500Y-79704500D01*
X123827500Y-83704500D02*
X123827500Y-79704500D01*
X106012667Y-89656883D02*
X108777455Y-86892096D01*
X106012667Y-89656883D02*
X107002617Y-90646833D01*
X109767404Y-87882045D02*
X108777455Y-86892096D01*
X109767404Y-87882045D02*
X107002617Y-90646833D01*
X109942596Y-87441455D02*
X112707383Y-84676667D01*
X109942596Y-87441455D02*
X110932545Y-88431404D01*
X113697333Y-85666617D02*
X112707383Y-84676667D01*
X113697333Y-85666617D02*
X110932545Y-88431404D01*
X128505500Y-101411000D02*
X124595500Y-101411000D01*
X128505500Y-101411000D02*
X128505500Y-100011000D01*
X124595500Y-100011000D02*
X124595500Y-101411000D01*
X124595500Y-100011000D02*
X128505500Y-100011000D01*
X124643000Y-95967500D02*
X129143000Y-95967500D01*
X124643000Y-95967500D02*
X124643000Y-97717500D01*
X129143000Y-97717500D02*
X129143000Y-95967500D01*
X129143000Y-97717500D02*
X124643000Y-97717500D01*
D12*
X123588000Y-52061000D02*
X123588000Y-58061000D01*
X123588000Y-58061000D02*
X113588000Y-58061000D01*
X113588000Y-58061000D02*
X113588000Y-52061000D01*
X113588000Y-52061000D02*
X123588000Y-52061000D01*
D11*
X97387000Y-51540000D02*
X97387000Y-55140000D01*
X108587000Y-51540000D02*
X97387000Y-51540000D01*
X108587000Y-55140000D02*
X108587000Y-51540000D01*
X97387000Y-55140000D02*
X108587000Y-55140000D01*
X126406500Y-70653500D02*
X126406500Y-74253500D01*
X132556500Y-70653500D02*
X126406500Y-70653500D01*
X132556500Y-74253500D02*
X132556500Y-70653500D01*
X126406500Y-74253500D02*
X132556500Y-74253500D01*
X114919000Y-93935500D02*
X112919000Y-93935500D01*
X114919000Y-93935500D02*
X114919000Y-93135500D01*
X112919000Y-93135500D02*
X112919000Y-93935500D01*
X112919000Y-93135500D02*
X114919000Y-93135500D01*
X109998000Y-100628500D02*
X111998000Y-100628500D01*
X109998000Y-100628500D02*
X109998000Y-101428500D01*
X111998000Y-101428500D02*
X111998000Y-100628500D01*
X111998000Y-101428500D02*
X109998000Y-101428500D01*
X112125000Y-98825000D02*
X110125000Y-98825000D01*
X112125000Y-98825000D02*
X112125000Y-98025000D01*
X110125000Y-98025000D02*
X110125000Y-98825000D01*
X110125000Y-98025000D02*
X112125000Y-98025000D01*
X116515000Y-89871500D02*
X121015000Y-89871500D01*
X116515000Y-89871500D02*
X116515000Y-91621500D01*
X121015000Y-91621500D02*
X121015000Y-89871500D01*
X121015000Y-91621500D02*
X116515000Y-91621500D01*
X126406500Y-66081500D02*
X126406500Y-69681500D01*
X132556500Y-66081500D02*
X126406500Y-66081500D01*
X132556500Y-69681500D02*
X132556500Y-66081500D01*
X126406500Y-69681500D02*
X132556500Y-69681500D01*
X120629500Y-116833500D02*
X120629500Y-101533500D01*
X120629500Y-101533500D02*
X138159500Y-101533500D01*
X138159500Y-101533500D02*
X138159500Y-116833500D01*
X138159500Y-116833500D02*
X120629500Y-116833500D01*
X67351500Y-130133500D02*
X70951500Y-130133500D01*
X67351500Y-52883500D02*
X67351500Y-130133500D01*
X70951500Y-52883500D02*
X67351500Y-52883500D01*
X70951500Y-130133500D02*
X70951500Y-52883500D01*
X86968949Y-102826736D02*
X85554736Y-104240949D01*
X86968949Y-102826736D02*
X86403264Y-102261051D01*
X84989051Y-103675264D02*
X85554736Y-104240949D01*
X84989051Y-103675264D02*
X86403264Y-102261051D01*
X80667000Y-140865000D02*
X80667000Y-137265000D01*
X66917000Y-140865000D02*
X80667000Y-140865000D01*
X66917000Y-137265000D02*
X66917000Y-140865000D01*
X80667000Y-137265000D02*
X66917000Y-137265000D01*
X104801051Y-79164264D02*
X106215264Y-77750051D01*
X104801051Y-79164264D02*
X105366736Y-79729949D01*
X106780949Y-78315736D02*
X106215264Y-77750051D01*
X106780949Y-78315736D02*
X105366736Y-79729949D01*
X92278250Y-120253000D02*
X92278250Y-118253000D01*
X92278250Y-120253000D02*
X93078250Y-120253000D01*
X93078250Y-118253000D02*
X92278250Y-118253000D01*
X93078250Y-118253000D02*
X93078250Y-120253000D01*
X96215250Y-139842750D02*
X96215250Y-137842750D01*
X96215250Y-139842750D02*
X97015250Y-139842750D01*
X97015250Y-137842750D02*
X96215250Y-137842750D01*
X97015250Y-137842750D02*
X97015250Y-139842750D01*
X106413250Y-138033250D02*
X106413250Y-140033250D01*
X106413250Y-138033250D02*
X105613250Y-138033250D01*
X105613250Y-140033250D02*
X106413250Y-140033250D01*
X105613250Y-140033250D02*
X105613250Y-138033250D01*
X94119750Y-139715750D02*
X94119750Y-137715750D01*
X94119750Y-139715750D02*
X94919750Y-139715750D01*
X94919750Y-137715750D02*
X94119750Y-137715750D01*
X94919750Y-137715750D02*
X94919750Y-139715750D01*
X91046250Y-137779250D02*
X91046250Y-139779250D01*
X91046250Y-137779250D02*
X90246250Y-137779250D01*
X90246250Y-139779250D02*
X91046250Y-139779250D01*
X90246250Y-139779250D02*
X90246250Y-137779250D01*
X97901000Y-117303500D02*
X95901000Y-117303500D01*
X97901000Y-117303500D02*
X97901000Y-116503500D01*
X95901000Y-116503500D02*
X95901000Y-117303500D01*
X95901000Y-116503500D02*
X97901000Y-116503500D01*
X108368449Y-93619236D02*
X106954236Y-95033449D01*
X108368449Y-93619236D02*
X107802764Y-93053551D01*
X106388551Y-94467764D02*
X106954236Y-95033449D01*
X106388551Y-94467764D02*
X107802764Y-93053551D01*
X91858449Y-107335236D02*
X90444236Y-108749449D01*
X91858449Y-107335236D02*
X91292764Y-106769551D01*
X89878551Y-108183764D02*
X90444236Y-108749449D01*
X89878551Y-108183764D02*
X91292764Y-106769551D01*
X87592551Y-105961264D02*
X89006764Y-104547051D01*
X87592551Y-105961264D02*
X88158236Y-106526949D01*
X89572449Y-105112736D02*
X89006764Y-104547051D01*
X89572449Y-105112736D02*
X88158236Y-106526949D01*
X106399949Y-92031736D02*
X104985736Y-93445949D01*
X106399949Y-92031736D02*
X105834264Y-91466051D01*
X104420051Y-92880264D02*
X104985736Y-93445949D01*
X104420051Y-92880264D02*
X105834264Y-91466051D01*
X103103764Y-91540949D02*
X101689551Y-90126736D01*
X103103764Y-91540949D02*
X103669449Y-90975264D01*
X102255236Y-89561051D02*
X101689551Y-90126736D01*
X102255236Y-89561051D02*
X103669449Y-90975264D01*
X103732949Y-81363736D02*
X102318736Y-82777949D01*
X103732949Y-81363736D02*
X103167264Y-80798051D01*
X101753051Y-82212264D02*
X102318736Y-82777949D01*
X101753051Y-82212264D02*
X103167264Y-80798051D01*
X85102750Y-139779250D02*
X85102750Y-137779250D01*
X85102750Y-139779250D02*
X85902750Y-139779250D01*
X85902750Y-137779250D02*
X85102750Y-137779250D01*
X85902750Y-137779250D02*
X85902750Y-139779250D01*
X88373000Y-120126000D02*
X88373000Y-118126000D01*
X88373000Y-120126000D02*
X89173000Y-120126000D01*
X89173000Y-118126000D02*
X88373000Y-118126000D01*
X89173000Y-118126000D02*
X89173000Y-120126000D01*
X95424500Y-119145000D02*
X93424500Y-119145000D01*
X95424500Y-119145000D02*
X95424500Y-118345000D01*
X93424500Y-118345000D02*
X93424500Y-119145000D01*
X93424500Y-118345000D02*
X95424500Y-118345000D01*
X112288000Y-69152500D02*
X119288000Y-69152500D01*
X119538000Y-69402500D02*
X119538000Y-78402500D01*
X119288000Y-78652500D02*
X112288000Y-78652500D01*
X112038000Y-78402500D02*
X112038000Y-69402500D01*
X119538000Y-78652500D02*
X119538000Y-78402500D01*
X119288000Y-78652500D02*
X119538000Y-78652500D01*
X112038000Y-78652500D02*
X112038000Y-78402500D01*
X112288000Y-78652500D02*
X112038000Y-78652500D01*
X112038000Y-69152500D02*
X112288000Y-69152500D01*
X112038000Y-69402500D02*
X112038000Y-69152500D01*
X119538000Y-69152500D02*
X119288000Y-69152500D01*
X119538000Y-69402500D02*
X119538000Y-69152500D01*
X113946500Y-106988500D02*
X109446500Y-106988500D01*
X113946500Y-106988500D02*
X113946500Y-105238500D01*
X109446500Y-105238500D02*
X109446500Y-106988500D01*
X109446500Y-105238500D02*
X113946500Y-105238500D01*
X112639744Y-90217264D02*
X109457764Y-93399244D01*
X112639744Y-90217264D02*
X111402307Y-88979827D01*
X108220327Y-92161807D02*
X109457764Y-93399244D01*
X108220327Y-92161807D02*
X111402307Y-88979827D01*
X117312000Y-101718000D02*
X112812000Y-101718000D01*
X117312000Y-101718000D02*
X117312000Y-99968000D01*
X112812000Y-99968000D02*
X112812000Y-101718000D01*
X112812000Y-99968000D02*
X117312000Y-99968000D01*
X94761000Y-86431000D02*
X94761000Y-81931000D01*
X94761000Y-86431000D02*
X96511000Y-86431000D01*
X96511000Y-81931000D02*
X94761000Y-81931000D01*
X96511000Y-81931000D02*
X96511000Y-86431000D01*
X103919491Y-90095807D02*
X112475483Y-81539815D01*
X99959693Y-86136009D02*
X103919491Y-90095807D01*
X108515685Y-77580017D02*
X99959693Y-86136009D01*
X112475483Y-81539815D02*
X108515685Y-77580017D01*
X130937500Y-100603500D02*
X136387500Y-100603500D01*
X130937500Y-95103500D02*
X130937500Y-100603500D01*
X136387500Y-95103500D02*
X130937500Y-95103500D01*
X136387500Y-100603500D02*
X136387500Y-95103500D01*
X89366500Y-55140000D02*
X89366500Y-51540000D01*
X78166500Y-55140000D02*
X89366500Y-55140000D01*
X78166500Y-51540000D02*
X78166500Y-55140000D01*
X89366500Y-51540000D02*
X78166500Y-51540000D01*
M02*
