G04 #@! TF.GenerationSoftware,KiCad,Pcbnew,(2017-06-28 revision 2237de015)-makepkg*
G04 #@! TF.CreationDate,2017-08-30T01:01:02+05:30*
G04 #@! TF.ProjectId,MyIMX233,4D79494D583233332E6B696361645F70,rev?*
G04 #@! TF.SameCoordinates,Original
G04 #@! TF.FileFunction,Other,User*
%FSLAX46Y46*%
G04 Gerber Fmt 4.6, Leading zero omitted, Abs format (unit mm)*
G04 Created by KiCad (PCBNEW (2017-06-28 revision 2237de015)-makepkg) date 08/30/17 01:01:02*
%MOMM*%
%LPD*%
G01*
G04 APERTURE LIST*
%ADD10C,0.100000*%
%ADD11C,0.050000*%
G04 APERTURE END LIST*
D10*
D11*
X125383600Y-128574800D02*
G75*
G03X125383600Y-128574800I-2600000J0D01*
G01*
X125590100Y-83027400D02*
X119890100Y-83027400D01*
X125590100Y-88727400D02*
X125590100Y-83027400D01*
X119890100Y-88727400D02*
X125590100Y-88727400D01*
X119890100Y-83027400D02*
X119890100Y-88727400D01*
X99649600Y-121197600D02*
X97149600Y-121197600D01*
X99649600Y-121197600D02*
X99649600Y-119797600D01*
X97149600Y-119797600D02*
X97149600Y-121197600D01*
X97149600Y-119797600D02*
X99649600Y-119797600D01*
X132543000Y-60704500D02*
X136453000Y-60704500D01*
X132543000Y-60704500D02*
X132543000Y-62104500D01*
X136453000Y-62104500D02*
X136453000Y-60704500D01*
X136453000Y-62104500D02*
X132543000Y-62104500D01*
X117015800Y-90740000D02*
X120925800Y-90740000D01*
X117015800Y-90740000D02*
X117015800Y-92140000D01*
X120925800Y-92140000D02*
X120925800Y-90740000D01*
X120925800Y-92140000D02*
X117015800Y-92140000D01*
X132556500Y-57978000D02*
X132556500Y-59878000D01*
X132556500Y-59878000D02*
X136556500Y-59878000D01*
X136556500Y-57978000D02*
X136556500Y-59878000D01*
X132556500Y-57978000D02*
X136556500Y-57978000D01*
X128104000Y-76786500D02*
X124504000Y-76786500D01*
X128104000Y-76786500D02*
X128104000Y-75486500D01*
X124504000Y-75486500D02*
X124504000Y-76786500D01*
X124504000Y-75486500D02*
X128104000Y-75486500D01*
X132525000Y-62848500D02*
X122775000Y-62848500D01*
X132525000Y-65548500D02*
X132525000Y-62848500D01*
X122775000Y-65548500D02*
X132525000Y-65548500D01*
X122775000Y-62848500D02*
X122775000Y-65548500D01*
X125696000Y-91487000D02*
X125696000Y-94187000D01*
X125696000Y-94187000D02*
X135446000Y-94187000D01*
X135446000Y-94187000D02*
X135446000Y-91487000D01*
X135446000Y-91487000D02*
X125696000Y-91487000D01*
X109902000Y-51879000D02*
X109902000Y-61629000D01*
X112602000Y-51879000D02*
X109902000Y-51879000D01*
X112602000Y-61629000D02*
X112602000Y-51879000D01*
X109902000Y-61629000D02*
X112602000Y-61629000D01*
X128315000Y-55310000D02*
X124405000Y-55310000D01*
X128315000Y-55310000D02*
X128315000Y-53910000D01*
X124405000Y-53910000D02*
X124405000Y-55310000D01*
X124405000Y-53910000D02*
X128315000Y-53910000D01*
X129830000Y-56459000D02*
X124130000Y-56459000D01*
X129830000Y-62159000D02*
X129830000Y-56459000D01*
X124130000Y-62159000D02*
X129830000Y-62159000D01*
X124130000Y-56459000D02*
X124130000Y-62159000D01*
X130366000Y-89796000D02*
X130366000Y-87496000D01*
X125666000Y-87496000D02*
X130366000Y-87496000D01*
X125666000Y-89796000D02*
X125666000Y-87496000D01*
X130366000Y-89796000D02*
X125666000Y-89796000D01*
X110164591Y-111778142D02*
X111932358Y-113545909D01*
X110164591Y-111778142D02*
X109174642Y-112768091D01*
X110942409Y-114535858D02*
X111932358Y-113545909D01*
X110942409Y-114535858D02*
X109174642Y-112768091D01*
X102469000Y-137288500D02*
X99969000Y-137288500D01*
X102469000Y-137288500D02*
X102469000Y-135888500D01*
X99969000Y-135888500D02*
X99969000Y-137288500D01*
X99969000Y-135888500D02*
X102469000Y-135888500D01*
X133928000Y-104475000D02*
X137428000Y-104475000D01*
X133928000Y-103475000D02*
X133928000Y-104475000D01*
X131178000Y-103475000D02*
X133928000Y-103475000D01*
X131178000Y-104475000D02*
X131178000Y-103475000D01*
X123928000Y-104475000D02*
X131178000Y-104475000D01*
X123928000Y-104225000D02*
X123928000Y-104475000D01*
X121928000Y-104225000D02*
X123928000Y-104225000D01*
X121928000Y-106475000D02*
X121928000Y-104225000D01*
X122678000Y-106475000D02*
X121928000Y-106475000D01*
X122678000Y-109475000D02*
X122678000Y-106475000D01*
X121428000Y-109475000D02*
X122678000Y-109475000D01*
X121428000Y-119475000D02*
X121428000Y-109475000D01*
X121928000Y-119475000D02*
X121428000Y-119475000D01*
X121928000Y-120975000D02*
X121928000Y-119475000D01*
X123928000Y-120975000D02*
X121928000Y-120975000D01*
X123928000Y-119975000D02*
X123928000Y-120975000D01*
X131178000Y-119975000D02*
X123928000Y-119975000D01*
X131178000Y-120975000D02*
X131178000Y-119975000D01*
X133928000Y-120975000D02*
X131178000Y-120975000D01*
X133928000Y-119975000D02*
X133928000Y-120975000D01*
X137428000Y-119975000D02*
X133928000Y-119975000D01*
X85046145Y-98901250D02*
X96996250Y-110851355D01*
X96996250Y-86951145D02*
X108946355Y-98901250D01*
X108946355Y-98901250D02*
X96996250Y-110851355D01*
X96996250Y-86951145D02*
X85046145Y-98901250D01*
X106459491Y-87301807D02*
X115015483Y-78745815D01*
X102499693Y-83342009D02*
X106459491Y-87301807D01*
X111055685Y-74786017D02*
X102499693Y-83342009D01*
X115015483Y-78745815D02*
X111055685Y-74786017D01*
X73511000Y-89386000D02*
X73511000Y-92986000D01*
X79661000Y-89386000D02*
X73511000Y-89386000D01*
X79661000Y-92986000D02*
X79661000Y-89386000D01*
X73511000Y-92986000D02*
X79661000Y-92986000D01*
X124819000Y-72920000D02*
X128419000Y-72920000D01*
X124819000Y-66770000D02*
X124819000Y-72920000D01*
X128419000Y-66770000D02*
X124819000Y-66770000D01*
X128419000Y-72920000D02*
X128419000Y-66770000D01*
X132377500Y-75185500D02*
X129877500Y-75185500D01*
X132377500Y-75185500D02*
X132377500Y-73785500D01*
X129877500Y-73785500D02*
X129877500Y-75185500D01*
X129877500Y-73785500D02*
X132377500Y-73785500D01*
X129929000Y-76516000D02*
X132429000Y-76516000D01*
X129929000Y-76516000D02*
X129929000Y-77916000D01*
X132429000Y-77916000D02*
X132429000Y-76516000D01*
X132429000Y-77916000D02*
X129929000Y-77916000D01*
X123218000Y-57962000D02*
X114018000Y-57962000D01*
X114018000Y-57962000D02*
X114018000Y-51112000D01*
X114018000Y-51112000D02*
X123218000Y-51112000D01*
X123218000Y-51112000D02*
X123218000Y-57962000D01*
X78277000Y-61152000D02*
X74367000Y-61152000D01*
X78277000Y-61152000D02*
X78277000Y-59752000D01*
X74367000Y-59752000D02*
X74367000Y-61152000D01*
X74367000Y-59752000D02*
X78277000Y-59752000D01*
X81596000Y-92882000D02*
X81596000Y-88972000D01*
X81596000Y-92882000D02*
X82996000Y-92882000D01*
X82996000Y-88972000D02*
X81596000Y-88972000D01*
X82996000Y-88972000D02*
X82996000Y-92882000D01*
X83875000Y-61152000D02*
X79965000Y-61152000D01*
X83875000Y-61152000D02*
X83875000Y-59752000D01*
X79965000Y-59752000D02*
X79965000Y-61152000D01*
X79965000Y-59752000D02*
X83875000Y-59752000D01*
X78277000Y-68645000D02*
X74367000Y-68645000D01*
X78277000Y-68645000D02*
X78277000Y-67245000D01*
X74367000Y-67245000D02*
X74367000Y-68645000D01*
X74367000Y-67245000D02*
X78277000Y-67245000D01*
X83875000Y-71566000D02*
X79965000Y-71566000D01*
X83875000Y-71566000D02*
X83875000Y-70166000D01*
X79965000Y-70166000D02*
X79965000Y-71566000D01*
X79965000Y-70166000D02*
X83875000Y-70166000D01*
X79965000Y-62165000D02*
X83875000Y-62165000D01*
X79965000Y-62165000D02*
X79965000Y-63565000D01*
X83875000Y-63565000D02*
X83875000Y-62165000D01*
X83875000Y-63565000D02*
X79965000Y-63565000D01*
X83875000Y-68645000D02*
X79965000Y-68645000D01*
X83875000Y-68645000D02*
X83875000Y-67245000D01*
X79965000Y-67245000D02*
X79965000Y-68645000D01*
X79965000Y-67245000D02*
X83875000Y-67245000D01*
X79965000Y-64705000D02*
X83875000Y-64705000D01*
X79965000Y-64705000D02*
X79965000Y-66105000D01*
X83875000Y-66105000D02*
X83875000Y-64705000D01*
X83875000Y-66105000D02*
X79965000Y-66105000D01*
X122098500Y-66101000D02*
X118098500Y-66101000D01*
X118098500Y-66101000D02*
X118098500Y-64201000D01*
X122098500Y-64201000D02*
X118098500Y-64201000D01*
X122098500Y-66101000D02*
X122098500Y-64201000D01*
X116554000Y-63561000D02*
X116554000Y-61661000D01*
X116554000Y-61661000D02*
X112554000Y-61661000D01*
X112554000Y-63561000D02*
X112554000Y-61661000D01*
X116554000Y-63561000D02*
X112554000Y-63561000D01*
X107457000Y-59421000D02*
X107457000Y-62321000D01*
X106157000Y-59421000D02*
X107457000Y-59421000D01*
X106157000Y-62321000D02*
X106157000Y-59421000D01*
X107457000Y-62321000D02*
X106157000Y-62321000D01*
X107570500Y-63889500D02*
X107570500Y-67799500D01*
X107570500Y-63889500D02*
X106170500Y-63889500D01*
X106170500Y-67799500D02*
X107570500Y-67799500D01*
X106170500Y-67799500D02*
X106170500Y-63889500D01*
X88625764Y-92366449D02*
X87211551Y-90952236D01*
X88625764Y-92366449D02*
X89191449Y-91800764D01*
X87777236Y-90386551D02*
X87211551Y-90952236D01*
X87777236Y-90386551D02*
X89191449Y-91800764D01*
X109998000Y-103486000D02*
X111998000Y-103486000D01*
X109998000Y-103486000D02*
X109998000Y-104286000D01*
X111998000Y-104286000D02*
X111998000Y-103486000D01*
X111998000Y-104286000D02*
X109998000Y-104286000D01*
X110061500Y-104502000D02*
X112061500Y-104502000D01*
X110061500Y-104502000D02*
X110061500Y-105302000D01*
X112061500Y-105302000D02*
X112061500Y-104502000D01*
X112061500Y-105302000D02*
X110061500Y-105302000D01*
X95473200Y-118019600D02*
X97973200Y-118019600D01*
X95473200Y-118019600D02*
X95473200Y-119419600D01*
X97973200Y-119419600D02*
X97973200Y-118019600D01*
X97973200Y-119419600D02*
X95473200Y-119419600D01*
X93301500Y-116267000D02*
X95801500Y-116267000D01*
X93301500Y-116267000D02*
X93301500Y-117667000D01*
X95801500Y-117667000D02*
X95801500Y-116267000D01*
X95801500Y-117667000D02*
X93301500Y-117667000D01*
X110844949Y-88285236D02*
X109430736Y-89699449D01*
X110844949Y-88285236D02*
X110279264Y-87719551D01*
X108865051Y-89133764D02*
X109430736Y-89699449D01*
X108865051Y-89133764D02*
X110279264Y-87719551D01*
X109261500Y-102029500D02*
X112861500Y-102029500D01*
X109261500Y-102029500D02*
X109261500Y-103329500D01*
X112861500Y-103329500D02*
X112861500Y-102029500D01*
X112861500Y-103329500D02*
X109261500Y-103329500D01*
X109960000Y-96632000D02*
X113560000Y-96632000D01*
X109960000Y-96632000D02*
X109960000Y-97932000D01*
X113560000Y-97932000D02*
X113560000Y-96632000D01*
X113560000Y-97932000D02*
X109960000Y-97932000D01*
X120014500Y-60881500D02*
X123614500Y-60881500D01*
X120014500Y-60881500D02*
X120014500Y-62181500D01*
X123614500Y-62181500D02*
X123614500Y-60881500D01*
X123614500Y-62181500D02*
X120014500Y-62181500D01*
X107015412Y-89229827D02*
X104469827Y-91775412D01*
X107015412Y-89229827D02*
X106096173Y-88310588D01*
X103550588Y-90856173D02*
X104469827Y-91775412D01*
X103550588Y-90856173D02*
X106096173Y-88310588D01*
X113871500Y-101962000D02*
X115871500Y-101962000D01*
X113871500Y-101962000D02*
X113871500Y-102762000D01*
X115871500Y-102762000D02*
X115871500Y-101962000D01*
X115871500Y-102762000D02*
X113871500Y-102762000D01*
X109998000Y-98914000D02*
X111998000Y-98914000D01*
X109998000Y-98914000D02*
X109998000Y-99714000D01*
X111998000Y-99714000D02*
X111998000Y-98914000D01*
X111998000Y-99714000D02*
X109998000Y-99714000D01*
X111998000Y-100793500D02*
X109998000Y-100793500D01*
X111998000Y-100793500D02*
X111998000Y-99993500D01*
X109998000Y-99993500D02*
X109998000Y-100793500D01*
X109998000Y-99993500D02*
X111998000Y-99993500D01*
X114953200Y-92856000D02*
X112953200Y-92856000D01*
X114953200Y-92856000D02*
X114953200Y-92056000D01*
X112953200Y-92056000D02*
X112953200Y-92856000D01*
X112953200Y-92056000D02*
X114953200Y-92056000D01*
X134969200Y-67304800D02*
X134969200Y-62804800D01*
X134969200Y-67304800D02*
X136719200Y-67304800D01*
X136719200Y-62804800D02*
X134969200Y-62804800D01*
X136719200Y-62804800D02*
X136719200Y-67304800D01*
X138609500Y-50871000D02*
X130209500Y-50871000D01*
X138609500Y-57621000D02*
X138609500Y-50871000D01*
X130209500Y-57621000D02*
X138609500Y-57621000D01*
X130209500Y-50871000D02*
X130209500Y-57621000D01*
X123941800Y-83007900D02*
X125841800Y-83007900D01*
X125841800Y-83007900D02*
X125841800Y-79007900D01*
X123941800Y-79007900D02*
X125841800Y-79007900D01*
X123941800Y-83007900D02*
X123941800Y-79007900D01*
X108108167Y-87116883D02*
X110872955Y-84352096D01*
X108108167Y-87116883D02*
X109098117Y-88106833D01*
X111862904Y-85342045D02*
X110872955Y-84352096D01*
X111862904Y-85342045D02*
X109098117Y-88106833D01*
X110958596Y-86488955D02*
X113723383Y-83724167D01*
X110958596Y-86488955D02*
X111948545Y-87478904D01*
X114713333Y-84714117D02*
X113723383Y-83724167D01*
X114713333Y-84714117D02*
X111948545Y-87478904D01*
X128505500Y-101411000D02*
X124595500Y-101411000D01*
X128505500Y-101411000D02*
X128505500Y-100011000D01*
X124595500Y-100011000D02*
X124595500Y-101411000D01*
X124595500Y-100011000D02*
X128505500Y-100011000D01*
X129143000Y-97707500D02*
X124643000Y-97707500D01*
X129143000Y-97707500D02*
X129143000Y-95957500D01*
X124643000Y-95957500D02*
X124643000Y-97707500D01*
X124643000Y-95957500D02*
X129143000Y-95957500D01*
X97387000Y-51921000D02*
X97387000Y-55521000D01*
X108587000Y-51921000D02*
X97387000Y-51921000D01*
X108587000Y-55521000D02*
X108587000Y-51921000D01*
X97387000Y-55521000D02*
X108587000Y-55521000D01*
X133816500Y-66843500D02*
X130216500Y-66843500D01*
X133816500Y-72993500D02*
X133816500Y-66843500D01*
X130216500Y-72993500D02*
X133816500Y-72993500D01*
X130216500Y-66843500D02*
X130216500Y-72993500D01*
X114919000Y-93935500D02*
X112919000Y-93935500D01*
X114919000Y-93935500D02*
X114919000Y-93135500D01*
X112919000Y-93135500D02*
X112919000Y-93935500D01*
X112919000Y-93135500D02*
X114919000Y-93135500D01*
X109998000Y-100946000D02*
X111998000Y-100946000D01*
X109998000Y-100946000D02*
X109998000Y-101746000D01*
X111998000Y-101746000D02*
X111998000Y-100946000D01*
X111998000Y-101746000D02*
X109998000Y-101746000D01*
X111998000Y-98825000D02*
X109998000Y-98825000D01*
X111998000Y-98825000D02*
X111998000Y-98025000D01*
X109998000Y-98025000D02*
X109998000Y-98825000D01*
X109998000Y-98025000D02*
X111998000Y-98025000D01*
X116946800Y-88855500D02*
X121446800Y-88855500D01*
X116946800Y-88855500D02*
X116946800Y-90605500D01*
X121446800Y-90605500D02*
X121446800Y-88855500D01*
X121446800Y-90605500D02*
X116946800Y-90605500D01*
X67351500Y-130133500D02*
X70951500Y-130133500D01*
X67351500Y-52883500D02*
X67351500Y-130133500D01*
X70951500Y-52883500D02*
X67351500Y-52883500D01*
X70951500Y-130133500D02*
X70951500Y-52883500D01*
X85762449Y-104033236D02*
X84348236Y-105447449D01*
X85762449Y-104033236D02*
X85196764Y-103467551D01*
X83782551Y-104881764D02*
X84348236Y-105447449D01*
X83782551Y-104881764D02*
X85196764Y-103467551D01*
X80667000Y-140865000D02*
X80667000Y-137265000D01*
X66917000Y-140865000D02*
X80667000Y-140865000D01*
X66917000Y-137265000D02*
X66917000Y-140865000D01*
X80667000Y-137265000D02*
X66917000Y-137265000D01*
X107214051Y-76433764D02*
X108628264Y-75019551D01*
X107214051Y-76433764D02*
X107779736Y-76999449D01*
X109193949Y-75585236D02*
X108628264Y-75019551D01*
X109193949Y-75585236D02*
X107779736Y-76999449D01*
X92278250Y-120253000D02*
X92278250Y-118253000D01*
X92278250Y-120253000D02*
X93078250Y-120253000D01*
X93078250Y-118253000D02*
X92278250Y-118253000D01*
X93078250Y-118253000D02*
X93078250Y-120253000D01*
X96215250Y-139842750D02*
X96215250Y-137842750D01*
X96215250Y-139842750D02*
X97015250Y-139842750D01*
X97015250Y-137842750D02*
X96215250Y-137842750D01*
X97015250Y-137842750D02*
X97015250Y-139842750D01*
X106413250Y-138033250D02*
X106413250Y-140033250D01*
X106413250Y-138033250D02*
X105613250Y-138033250D01*
X105613250Y-140033250D02*
X106413250Y-140033250D01*
X105613250Y-140033250D02*
X105613250Y-138033250D01*
X94119750Y-139715750D02*
X94119750Y-137715750D01*
X94119750Y-139715750D02*
X94919750Y-139715750D01*
X94919750Y-137715750D02*
X94119750Y-137715750D01*
X94919750Y-137715750D02*
X94919750Y-139715750D01*
X91046250Y-137779250D02*
X91046250Y-139779250D01*
X91046250Y-137779250D02*
X90246250Y-137779250D01*
X90246250Y-139779250D02*
X91046250Y-139779250D01*
X90246250Y-139779250D02*
X90246250Y-137779250D01*
X97901000Y-117303500D02*
X95901000Y-117303500D01*
X97901000Y-117303500D02*
X97901000Y-116503500D01*
X95901000Y-116503500D02*
X95901000Y-117303500D01*
X95901000Y-116503500D02*
X97901000Y-116503500D01*
X109193949Y-92666736D02*
X107779736Y-94080949D01*
X109193949Y-92666736D02*
X108628264Y-92101051D01*
X107214051Y-93515264D02*
X107779736Y-94080949D01*
X107214051Y-93515264D02*
X108628264Y-92101051D01*
X90461449Y-108795736D02*
X89047236Y-110209949D01*
X90461449Y-108795736D02*
X89895764Y-108230051D01*
X88481551Y-109644264D02*
X89047236Y-110209949D01*
X88481551Y-109644264D02*
X89895764Y-108230051D01*
X86132051Y-107421764D02*
X87546264Y-106007551D01*
X86132051Y-107421764D02*
X86697736Y-107987449D01*
X88111949Y-106573236D02*
X87546264Y-106007551D01*
X88111949Y-106573236D02*
X86697736Y-107987449D01*
X107415949Y-90888736D02*
X106001736Y-92302949D01*
X107415949Y-90888736D02*
X106850264Y-90323051D01*
X105436051Y-91737264D02*
X106001736Y-92302949D01*
X105436051Y-91737264D02*
X106850264Y-90323051D01*
X105320449Y-88666236D02*
X103906236Y-90080449D01*
X105320449Y-88666236D02*
X104754764Y-88100551D01*
X103340551Y-89514764D02*
X103906236Y-90080449D01*
X103340551Y-89514764D02*
X104754764Y-88100551D01*
X105891949Y-78823736D02*
X104477736Y-80237949D01*
X105891949Y-78823736D02*
X105326264Y-78258051D01*
X103912051Y-79672264D02*
X104477736Y-80237949D01*
X103912051Y-79672264D02*
X105326264Y-78258051D01*
X85102750Y-139779250D02*
X85102750Y-137779250D01*
X85102750Y-139779250D02*
X85902750Y-139779250D01*
X85902750Y-137779250D02*
X85102750Y-137779250D01*
X85902750Y-137779250D02*
X85902750Y-139779250D01*
X88373000Y-120126000D02*
X88373000Y-118126000D01*
X88373000Y-120126000D02*
X89173000Y-120126000D01*
X89173000Y-118126000D02*
X88373000Y-118126000D01*
X89173000Y-118126000D02*
X89173000Y-120126000D01*
X95424500Y-119145000D02*
X93424500Y-119145000D01*
X95424500Y-119145000D02*
X95424500Y-118345000D01*
X93424500Y-118345000D02*
X93424500Y-119145000D01*
X93424500Y-118345000D02*
X95424500Y-118345000D01*
X115027000Y-67397500D02*
X122027000Y-67397500D01*
X122277000Y-67647500D02*
X122277000Y-76647500D01*
X122027000Y-76897500D02*
X115027000Y-76897500D01*
X114777000Y-76647500D02*
X114777000Y-67647500D01*
X122277000Y-76897500D02*
X122277000Y-76647500D01*
X122027000Y-76897500D02*
X122277000Y-76897500D01*
X114777000Y-76897500D02*
X114777000Y-76647500D01*
X115027000Y-76897500D02*
X114777000Y-76897500D01*
X114777000Y-67397500D02*
X115027000Y-67397500D01*
X114777000Y-67647500D02*
X114777000Y-67397500D01*
X122277000Y-67397500D02*
X122027000Y-67397500D01*
X122277000Y-67647500D02*
X122277000Y-67397500D01*
X113946500Y-107306000D02*
X109446500Y-107306000D01*
X113946500Y-107306000D02*
X113946500Y-105556000D01*
X109446500Y-105556000D02*
X109446500Y-107306000D01*
X109446500Y-105556000D02*
X113946500Y-105556000D01*
X113523627Y-88693264D02*
X110341647Y-91875244D01*
X113523627Y-88693264D02*
X112286190Y-87455827D01*
X109104210Y-90637807D02*
X110341647Y-91875244D01*
X109104210Y-90637807D02*
X112286190Y-87455827D01*
X117312000Y-101718000D02*
X112812000Y-101718000D01*
X117312000Y-101718000D02*
X117312000Y-99968000D01*
X112812000Y-99968000D02*
X112812000Y-101718000D01*
X112812000Y-99968000D02*
X117312000Y-99968000D01*
X94761000Y-86431000D02*
X94761000Y-81931000D01*
X94761000Y-86431000D02*
X96511000Y-86431000D01*
X96511000Y-81931000D02*
X94761000Y-81931000D01*
X96511000Y-81931000D02*
X96511000Y-86431000D01*
X130937500Y-100603500D02*
X136387500Y-100603500D01*
X130937500Y-95103500D02*
X130937500Y-100603500D01*
X136387500Y-95103500D02*
X130937500Y-95103500D01*
X136387500Y-100603500D02*
X136387500Y-95103500D01*
X89366500Y-55521000D02*
X89366500Y-51921000D01*
X78166500Y-55521000D02*
X89366500Y-55521000D01*
X78166500Y-51921000D02*
X78166500Y-55521000D01*
X89366500Y-51921000D02*
X78166500Y-51921000D01*
M02*
