M48
;DRILL file {KiCad (2017-06-28 revision 2237de015)-makepkg} date 08/27/17 19:18:16
;FORMAT={-:-/ absolute / inch / decimal}
FMAT,2
INCH,TZ
T1C0.006
T2C0.020
T3C0.022
T4C0.031
T5C0.035
T6C0.039
T7C0.040
T8C0.041
T9C0.043
%
G90
G05
M72
T1
X2.785Y-2.55
X2.805Y-2.635
X2.82Y-3.63
X2.84Y-2.55
X2.8519Y-2.6031
X2.8564Y-3.5386
X2.915Y-2.405
X2.915Y-2.625
X2.9275Y-3.1525
X2.945Y-2.83
X2.9625Y-3.3575
X3.01Y-4.395
X3.11Y-2.79
X3.175Y-3.53
X3.2275Y-4.15
X3.27Y-3.805
X3.29Y-4.155
X3.3Y-4.195
X3.3275Y-5.1575
X3.34Y-4.305
X3.345Y-3.795
X3.3725Y-4.0326
X3.3725Y-4.0574
X3.3788Y-3.7289
X3.38Y-4.2625
X3.39Y-2.965
X3.3975Y-4.9175
X3.4Y-3.5475
X3.4052Y-4.1179
X3.425Y-3.735
X3.46Y-4.89
X3.465Y-5.2475
X3.4725Y-4.3425
X3.4875Y-3.8625
X3.4925Y-4.6375
X3.495Y-3.915
X3.495Y-5.355
X3.5725Y-4.6625
X3.5975Y-4.3125
X3.6025Y-4.9025
X3.61Y-3.54
X3.6225Y-2.285
X3.6425Y-3.7275
X3.6425Y-2.8625
X3.6475Y-5.3525
X3.65Y-4.64
X3.68Y-3.7125
X3.7011Y-3.2033
X3.7025Y-4.115
X3.725Y-4.9025
X3.75Y-4.7725
X3.75Y-5.225
X3.7675Y-4.2
X3.81Y-4.19
X3.8125Y-4.9325
X3.8275Y-4.735
X3.8325Y-4.385
X3.85Y-4.7675
X3.85Y-5.215
X3.8525Y-2.2125
X3.8575Y-5.0525
X3.86Y-4.195
X3.8725Y-4.54
X3.8725Y-4.905
X3.8952Y-4.9087
X3.9025Y-4.5375
X3.9025Y-5.2175
X3.9175Y-3.8625
X3.9303Y-3.6672
X3.935Y-5.19
X3.9641Y-5.1541
X3.9718Y-3.7087
X3.975Y-4.49
X3.995Y-4.3975
X4.0125Y-5.18
X4.015Y-3.7575
X4.0225Y-5.135
X4.0375Y-5.21
X4.0667Y-4.1983
X4.0775Y-3.9843
X4.0825Y-5.19
X4.095Y-2.7325
X4.1025Y-3.98
X4.1025Y-4.2
X4.105Y-3.9425
X4.11Y-5.225
X4.1334Y-4.1965
X4.135Y-5.19
X4.15Y-4.16
X4.1503Y-4.2997
X4.1571Y-4.1104
X4.1625Y-5.2175
X4.1775Y-4.5325
X4.1858Y-3.6483
X4.1975Y-4.48
X4.2Y-4.145
X4.205Y-4.8
X4.2075Y-4.375
X4.2141Y-4.2109
X4.215Y-4.4525
X4.2237Y-4.6612
X4.24Y-3.545
X4.2775Y-3.795
X4.285Y-3.9875
X4.2925Y-3.92
X4.305Y-3.625
X4.345Y-2.9325
X4.425Y-3.96
X4.4575Y-4.0375
X4.46Y-4.795
X4.495Y-3.84
X4.504Y-3.436
X4.54Y-4.0714
X4.5525Y-3.26
X4.562Y-3.638
X4.6025Y-2.1625
X4.6425Y-3.945
X4.645Y-2.15
X4.65Y-3.27
X4.6671Y-4.2413
X4.675Y-4.21
X4.675Y-4.32
X4.69Y-4.59
X4.874Y-3.048
X4.91Y-4.306
X4.912Y-4.634
X4.914Y-4.57
X4.916Y-4.368
X4.92Y-2.86
X4.924Y-4.418
X4.995Y-3.255
X5.09Y-3.0375
X5.118Y-4.354
X5.164Y-4.278
X5.225Y-3.15
X5.2275Y-3.2025
X5.265Y-3.02
X5.415Y-3.635
T4
X4.875Y-2.5275
X5.175Y-2.5275
X4.784Y-3.386
X4.8824Y-3.386
X4.2141Y-3.2584
X4.35Y-3.1225
X4.99Y-3.655
X5.29Y-3.655
X4.95Y-2.335
X5.0484Y-2.335
X4.38Y-2.085
X4.38Y-2.385
T5
X5.2125Y-3.8525
X5.3125Y-3.8525
T6
X2.7225Y-2.1525
X2.7225Y-2.2525
X2.7225Y-2.3525
X2.7225Y-2.4525
X2.7225Y-2.5525
X2.7225Y-2.6525
X2.7225Y-2.7525
X2.7225Y-2.8525
X2.7225Y-2.9525
X2.7225Y-3.0525
X2.7225Y-3.1525
X2.7225Y-3.2525
X2.7225Y-3.3525
X2.7225Y-3.4525
X2.7225Y-3.5525
X2.7225Y-3.6525
X2.7225Y-3.7525
X2.7225Y-3.8525
X2.7225Y-3.9525
X2.7225Y-4.0525
X2.7225Y-4.1525
X2.7225Y-4.2525
X2.7225Y-4.3525
X2.7225Y-4.4525
X2.7225Y-4.5525
X2.7225Y-4.6525
X2.7225Y-4.7525
X2.7225Y-4.8525
X2.7225Y-4.9525
X2.7225Y-5.0525
X3.1475Y-2.115
X3.2475Y-2.115
X3.3475Y-2.115
X3.4475Y-2.115
X2.965Y-3.59
X3.065Y-3.59
X3.905Y-2.115
X4.005Y-2.115
X4.105Y-2.115
X4.205Y-2.115
X5.1975Y-2.7025
X5.1975Y-2.8025
X2.705Y-5.475
X2.805Y-5.475
X2.905Y-5.475
X3.005Y-5.475
X3.105Y-5.475
X4.985Y-2.7
X4.985Y-2.8
T7
X5.35Y-3.15
X5.35Y-3.25
X5.35Y-3.35
X5.35Y-3.5475
X5.35Y-3.45
X5.35Y-3.035
T8
X5.2425Y-2.115
X5.3409Y-2.115
T9
X4.5778Y-2.7125
X4.5778Y-2.9684
X4.755Y-2.7125
X4.755Y-2.9684
T2
X4.5322Y-2.1141G85X4.5322Y-2.1396
G05
X4.8078Y-2.1141G85X4.8078Y-2.1396
G05
T3
X4.5775Y-2.2331G85X4.5657Y-2.2331
G05
X4.7743Y-2.2331G85X4.7625Y-2.2331
G05
T0
M30
