G04 #@! TF.GenerationSoftware,KiCad,Pcbnew,(2017-06-28 revision 2237de015)-makepkg*
G04 #@! TF.CreationDate,2017-08-27T19:18:12+05:30*
G04 #@! TF.ProjectId,MyIMX233,4D79494D583233332E6B696361645F70,rev?*
G04 #@! TF.SameCoordinates,Original
G04 #@! TF.FileFunction,Paste,Top*
G04 #@! TF.FilePolarity,Positive*
%FSLAX46Y46*%
G04 Gerber Fmt 4.6, Leading zero omitted, Abs format (unit mm)*
G04 Created by KiCad (PCBNEW (2017-06-28 revision 2237de015)-makepkg) date 08/27/17 19:18:12*
%MOMM*%
%LPD*%
G01*
G04 APERTURE LIST*
%ADD10C,0.100000*%
%ADD11R,0.500000X0.900000*%
%ADD12R,1.200000X0.900000*%
%ADD13R,1.000000X1.000000*%
%ADD14R,1.200000X0.750000*%
%ADD15R,0.900000X1.200000*%
%ADD16C,0.500000*%
%ADD17R,1.600000X0.700000*%
%ADD18R,1.400000X1.200000*%
%ADD19R,1.400000X1.600000*%
%ADD20R,2.200000X1.200000*%
%ADD21C,0.200000*%
%ADD22R,0.400000X1.350000*%
%ADD23R,0.800000X0.800000*%
%ADD24R,0.600000X0.500000*%
%ADD25C,0.750000*%
%ADD26R,1.250000X1.500000*%
%ADD27C,0.900000*%
%ADD28R,1.500000X1.250000*%
%ADD29R,0.320040X1.168400*%
%ADD30R,1.998980X1.998980*%
%ADD31R,0.500000X0.600000*%
%ADD32C,1.250000*%
G04 APERTURE END LIST*
D10*
D11*
X99492500Y-114173000D03*
X97992500Y-114173000D03*
D12*
X133393000Y-61404500D03*
X135593000Y-61404500D03*
X118280000Y-91084400D03*
X120480000Y-91084400D03*
D13*
X135806500Y-58928000D03*
X133306500Y-58928000D03*
D14*
X127254000Y-76136500D03*
X125354000Y-76136500D03*
D12*
X127465000Y-54610000D03*
X125265000Y-54610000D03*
D15*
X126366000Y-88646000D03*
X129666000Y-88646000D03*
D16*
X110023170Y-112626670D03*
D10*
G36*
X109528195Y-112768091D02*
X110164591Y-112131695D01*
X110518145Y-112485249D01*
X109881749Y-113121645D01*
X109528195Y-112768091D01*
X109528195Y-112768091D01*
G37*
D16*
X111083830Y-113687330D03*
D10*
G36*
X110588855Y-113828751D02*
X111225251Y-113192355D01*
X111578805Y-113545909D01*
X110942409Y-114182305D01*
X110588855Y-113828751D01*
X110588855Y-113828751D01*
G37*
D11*
X101969000Y-136588500D03*
X100469000Y-136588500D03*
D17*
X122428000Y-112225000D03*
X122428000Y-111125000D03*
X122428000Y-110025000D03*
X122428000Y-113325000D03*
X122428000Y-114425000D03*
X122428000Y-115525000D03*
X122428000Y-117725000D03*
X122428000Y-116625000D03*
X122428000Y-118825000D03*
D18*
X122928000Y-119975000D03*
D19*
X122928000Y-105375000D03*
D20*
X132528000Y-119975000D03*
X132528000Y-104475000D03*
D21*
X98410464Y-88718912D03*
D10*
G36*
X97774068Y-89496729D02*
X97632647Y-89355308D01*
X99046860Y-87941095D01*
X99188281Y-88082516D01*
X97774068Y-89496729D01*
X97774068Y-89496729D01*
G37*
D21*
X98693306Y-89001755D03*
D10*
G36*
X98056910Y-89779572D02*
X97915489Y-89638151D01*
X99329702Y-88223938D01*
X99471123Y-88365359D01*
X98056910Y-89779572D01*
X98056910Y-89779572D01*
G37*
D21*
X98976149Y-89284598D03*
D10*
G36*
X98339753Y-90062415D02*
X98198332Y-89920994D01*
X99612545Y-88506781D01*
X99753966Y-88648202D01*
X98339753Y-90062415D01*
X98339753Y-90062415D01*
G37*
D21*
X99258992Y-89567440D03*
D10*
G36*
X98622596Y-90345257D02*
X98481175Y-90203836D01*
X99895388Y-88789623D01*
X100036809Y-88931044D01*
X98622596Y-90345257D01*
X98622596Y-90345257D01*
G37*
D21*
X99541834Y-89850283D03*
D10*
G36*
X98905438Y-90628100D02*
X98764017Y-90486679D01*
X100178230Y-89072466D01*
X100319651Y-89213887D01*
X98905438Y-90628100D01*
X98905438Y-90628100D01*
G37*
D21*
X99824677Y-90133126D03*
D10*
G36*
X99188281Y-90910943D02*
X99046860Y-90769522D01*
X100461073Y-89355309D01*
X100602494Y-89496730D01*
X99188281Y-90910943D01*
X99188281Y-90910943D01*
G37*
D21*
X100107520Y-90415969D03*
D10*
G36*
X99471124Y-91193786D02*
X99329703Y-91052365D01*
X100743916Y-89638152D01*
X100885337Y-89779573D01*
X99471124Y-91193786D01*
X99471124Y-91193786D01*
G37*
D21*
X100390363Y-90698811D03*
D10*
G36*
X99753967Y-91476628D02*
X99612546Y-91335207D01*
X101026759Y-89920994D01*
X101168180Y-90062415D01*
X99753967Y-91476628D01*
X99753967Y-91476628D01*
G37*
D21*
X100673205Y-90981654D03*
D10*
G36*
X100036809Y-91759471D02*
X99895388Y-91618050D01*
X101309601Y-90203837D01*
X101451022Y-90345258D01*
X100036809Y-91759471D01*
X100036809Y-91759471D01*
G37*
D21*
X100956048Y-91264497D03*
D10*
G36*
X100319652Y-92042314D02*
X100178231Y-91900893D01*
X101592444Y-90486680D01*
X101733865Y-90628101D01*
X100319652Y-92042314D01*
X100319652Y-92042314D01*
G37*
D21*
X101238891Y-91547339D03*
D10*
G36*
X100602495Y-92325156D02*
X100461074Y-92183735D01*
X101875287Y-90769522D01*
X102016708Y-90910943D01*
X100602495Y-92325156D01*
X100602495Y-92325156D01*
G37*
D21*
X101521733Y-91830182D03*
D10*
G36*
X100885337Y-92607999D02*
X100743916Y-92466578D01*
X102158129Y-91052365D01*
X102299550Y-91193786D01*
X100885337Y-92607999D01*
X100885337Y-92607999D01*
G37*
D21*
X101804576Y-92113025D03*
D10*
G36*
X101168180Y-92890842D02*
X101026759Y-92749421D01*
X102440972Y-91335208D01*
X102582393Y-91476629D01*
X101168180Y-92890842D01*
X101168180Y-92890842D01*
G37*
D21*
X102087419Y-92395868D03*
D10*
G36*
X101451023Y-93173685D02*
X101309602Y-93032264D01*
X102723815Y-91618051D01*
X102865236Y-91759472D01*
X101451023Y-93173685D01*
X101451023Y-93173685D01*
G37*
D21*
X102370262Y-92678710D03*
D10*
G36*
X101733866Y-93456527D02*
X101592445Y-93315106D01*
X103006658Y-91900893D01*
X103148079Y-92042314D01*
X101733866Y-93456527D01*
X101733866Y-93456527D01*
G37*
D21*
X102653104Y-92961553D03*
D10*
G36*
X102016708Y-93739370D02*
X101875287Y-93597949D01*
X103289500Y-92183736D01*
X103430921Y-92325157D01*
X102016708Y-93739370D01*
X102016708Y-93739370D01*
G37*
D21*
X102935947Y-93244396D03*
D10*
G36*
X102299551Y-94022213D02*
X102158130Y-93880792D01*
X103572343Y-92466579D01*
X103713764Y-92608000D01*
X102299551Y-94022213D01*
X102299551Y-94022213D01*
G37*
D21*
X103218790Y-93527238D03*
D10*
G36*
X102582394Y-94305055D02*
X102440973Y-94163634D01*
X103855186Y-92749421D01*
X103996607Y-92890842D01*
X102582394Y-94305055D01*
X102582394Y-94305055D01*
G37*
D21*
X103501632Y-93810081D03*
D10*
G36*
X102865236Y-94587898D02*
X102723815Y-94446477D01*
X104138028Y-93032264D01*
X104279449Y-93173685D01*
X102865236Y-94587898D01*
X102865236Y-94587898D01*
G37*
D21*
X103784475Y-94092924D03*
D10*
G36*
X103148079Y-94870741D02*
X103006658Y-94729320D01*
X104420871Y-93315107D01*
X104562292Y-93456528D01*
X103148079Y-94870741D01*
X103148079Y-94870741D01*
G37*
D21*
X104067318Y-94375767D03*
D10*
G36*
X103430922Y-95153584D02*
X103289501Y-95012163D01*
X104703714Y-93597950D01*
X104845135Y-93739371D01*
X103430922Y-95153584D01*
X103430922Y-95153584D01*
G37*
D21*
X104350161Y-94658609D03*
D10*
G36*
X103713765Y-95436426D02*
X103572344Y-95295005D01*
X104986557Y-93880792D01*
X105127978Y-94022213D01*
X103713765Y-95436426D01*
X103713765Y-95436426D01*
G37*
D21*
X104633003Y-94941452D03*
D10*
G36*
X103996607Y-95719269D02*
X103855186Y-95577848D01*
X105269399Y-94163635D01*
X105410820Y-94305056D01*
X103996607Y-95719269D01*
X103996607Y-95719269D01*
G37*
D21*
X104915846Y-95224295D03*
D10*
G36*
X104279450Y-96002112D02*
X104138029Y-95860691D01*
X105552242Y-94446478D01*
X105693663Y-94587899D01*
X104279450Y-96002112D01*
X104279450Y-96002112D01*
G37*
D21*
X105198689Y-95507137D03*
D10*
G36*
X104562293Y-96284954D02*
X104420872Y-96143533D01*
X105835085Y-94729320D01*
X105976506Y-94870741D01*
X104562293Y-96284954D01*
X104562293Y-96284954D01*
G37*
D21*
X105481531Y-95789980D03*
D10*
G36*
X104845135Y-96567797D02*
X104703714Y-96426376D01*
X106117927Y-95012163D01*
X106259348Y-95153584D01*
X104845135Y-96567797D01*
X104845135Y-96567797D01*
G37*
D21*
X105764374Y-96072823D03*
D10*
G36*
X105127978Y-96850640D02*
X104986557Y-96709219D01*
X106400770Y-95295006D01*
X106542191Y-95436427D01*
X105127978Y-96850640D01*
X105127978Y-96850640D01*
G37*
D21*
X106047217Y-96355666D03*
D10*
G36*
X105410821Y-97133483D02*
X105269400Y-96992062D01*
X106683613Y-95577849D01*
X106825034Y-95719270D01*
X105410821Y-97133483D01*
X105410821Y-97133483D01*
G37*
D21*
X106330060Y-96638508D03*
D10*
G36*
X105693664Y-97416325D02*
X105552243Y-97274904D01*
X106966456Y-95860691D01*
X107107877Y-96002112D01*
X105693664Y-97416325D01*
X105693664Y-97416325D01*
G37*
D21*
X106612902Y-96921351D03*
D10*
G36*
X105976506Y-97699168D02*
X105835085Y-97557747D01*
X107249298Y-96143534D01*
X107390719Y-96284955D01*
X105976506Y-97699168D01*
X105976506Y-97699168D01*
G37*
D21*
X106895745Y-97204194D03*
D10*
G36*
X106259349Y-97982011D02*
X106117928Y-97840590D01*
X107532141Y-96426377D01*
X107673562Y-96567798D01*
X106259349Y-97982011D01*
X106259349Y-97982011D01*
G37*
D21*
X107178588Y-97487036D03*
D10*
G36*
X106542192Y-98264853D02*
X106400771Y-98123432D01*
X107814984Y-96709219D01*
X107956405Y-96850640D01*
X106542192Y-98264853D01*
X106542192Y-98264853D01*
G37*
D21*
X107178588Y-100315464D03*
D10*
G36*
X106400771Y-99679068D02*
X106542192Y-99537647D01*
X107956405Y-100951860D01*
X107814984Y-101093281D01*
X106400771Y-99679068D01*
X106400771Y-99679068D01*
G37*
D21*
X106895745Y-100598306D03*
D10*
G36*
X106117928Y-99961910D02*
X106259349Y-99820489D01*
X107673562Y-101234702D01*
X107532141Y-101376123D01*
X106117928Y-99961910D01*
X106117928Y-99961910D01*
G37*
D21*
X106612902Y-100881149D03*
D10*
G36*
X105835085Y-100244753D02*
X105976506Y-100103332D01*
X107390719Y-101517545D01*
X107249298Y-101658966D01*
X105835085Y-100244753D01*
X105835085Y-100244753D01*
G37*
D21*
X106330060Y-101163992D03*
D10*
G36*
X105552243Y-100527596D02*
X105693664Y-100386175D01*
X107107877Y-101800388D01*
X106966456Y-101941809D01*
X105552243Y-100527596D01*
X105552243Y-100527596D01*
G37*
D21*
X106047217Y-101446834D03*
D10*
G36*
X105269400Y-100810438D02*
X105410821Y-100669017D01*
X106825034Y-102083230D01*
X106683613Y-102224651D01*
X105269400Y-100810438D01*
X105269400Y-100810438D01*
G37*
D21*
X105764374Y-101729677D03*
D10*
G36*
X104986557Y-101093281D02*
X105127978Y-100951860D01*
X106542191Y-102366073D01*
X106400770Y-102507494D01*
X104986557Y-101093281D01*
X104986557Y-101093281D01*
G37*
D21*
X105481531Y-102012520D03*
D10*
G36*
X104703714Y-101376124D02*
X104845135Y-101234703D01*
X106259348Y-102648916D01*
X106117927Y-102790337D01*
X104703714Y-101376124D01*
X104703714Y-101376124D01*
G37*
D21*
X105198689Y-102295363D03*
D10*
G36*
X104420872Y-101658967D02*
X104562293Y-101517546D01*
X105976506Y-102931759D01*
X105835085Y-103073180D01*
X104420872Y-101658967D01*
X104420872Y-101658967D01*
G37*
D21*
X104915846Y-102578205D03*
D10*
G36*
X104138029Y-101941809D02*
X104279450Y-101800388D01*
X105693663Y-103214601D01*
X105552242Y-103356022D01*
X104138029Y-101941809D01*
X104138029Y-101941809D01*
G37*
D21*
X104633003Y-102861048D03*
D10*
G36*
X103855186Y-102224652D02*
X103996607Y-102083231D01*
X105410820Y-103497444D01*
X105269399Y-103638865D01*
X103855186Y-102224652D01*
X103855186Y-102224652D01*
G37*
D21*
X104350161Y-103143891D03*
D10*
G36*
X103572344Y-102507495D02*
X103713765Y-102366074D01*
X105127978Y-103780287D01*
X104986557Y-103921708D01*
X103572344Y-102507495D01*
X103572344Y-102507495D01*
G37*
D21*
X104067318Y-103426733D03*
D10*
G36*
X103289501Y-102790337D02*
X103430922Y-102648916D01*
X104845135Y-104063129D01*
X104703714Y-104204550D01*
X103289501Y-102790337D01*
X103289501Y-102790337D01*
G37*
D21*
X103784475Y-103709576D03*
D10*
G36*
X103006658Y-103073180D02*
X103148079Y-102931759D01*
X104562292Y-104345972D01*
X104420871Y-104487393D01*
X103006658Y-103073180D01*
X103006658Y-103073180D01*
G37*
D21*
X103501632Y-103992419D03*
D10*
G36*
X102723815Y-103356023D02*
X102865236Y-103214602D01*
X104279449Y-104628815D01*
X104138028Y-104770236D01*
X102723815Y-103356023D01*
X102723815Y-103356023D01*
G37*
D21*
X103218790Y-104275262D03*
D10*
G36*
X102440973Y-103638866D02*
X102582394Y-103497445D01*
X103996607Y-104911658D01*
X103855186Y-105053079D01*
X102440973Y-103638866D01*
X102440973Y-103638866D01*
G37*
D21*
X102935947Y-104558104D03*
D10*
G36*
X102158130Y-103921708D02*
X102299551Y-103780287D01*
X103713764Y-105194500D01*
X103572343Y-105335921D01*
X102158130Y-103921708D01*
X102158130Y-103921708D01*
G37*
D21*
X102653104Y-104840947D03*
D10*
G36*
X101875287Y-104204551D02*
X102016708Y-104063130D01*
X103430921Y-105477343D01*
X103289500Y-105618764D01*
X101875287Y-104204551D01*
X101875287Y-104204551D01*
G37*
D21*
X102370262Y-105123790D03*
D10*
G36*
X101592445Y-104487394D02*
X101733866Y-104345973D01*
X103148079Y-105760186D01*
X103006658Y-105901607D01*
X101592445Y-104487394D01*
X101592445Y-104487394D01*
G37*
D21*
X102087419Y-105406632D03*
D10*
G36*
X101309602Y-104770236D02*
X101451023Y-104628815D01*
X102865236Y-106043028D01*
X102723815Y-106184449D01*
X101309602Y-104770236D01*
X101309602Y-104770236D01*
G37*
D21*
X101804576Y-105689475D03*
D10*
G36*
X101026759Y-105053079D02*
X101168180Y-104911658D01*
X102582393Y-106325871D01*
X102440972Y-106467292D01*
X101026759Y-105053079D01*
X101026759Y-105053079D01*
G37*
D21*
X101521733Y-105972318D03*
D10*
G36*
X100743916Y-105335922D02*
X100885337Y-105194501D01*
X102299550Y-106608714D01*
X102158129Y-106750135D01*
X100743916Y-105335922D01*
X100743916Y-105335922D01*
G37*
D21*
X101238891Y-106255161D03*
D10*
G36*
X100461074Y-105618765D02*
X100602495Y-105477344D01*
X102016708Y-106891557D01*
X101875287Y-107032978D01*
X100461074Y-105618765D01*
X100461074Y-105618765D01*
G37*
D21*
X100956048Y-106538003D03*
D10*
G36*
X100178231Y-105901607D02*
X100319652Y-105760186D01*
X101733865Y-107174399D01*
X101592444Y-107315820D01*
X100178231Y-105901607D01*
X100178231Y-105901607D01*
G37*
D21*
X100673205Y-106820846D03*
D10*
G36*
X99895388Y-106184450D02*
X100036809Y-106043029D01*
X101451022Y-107457242D01*
X101309601Y-107598663D01*
X99895388Y-106184450D01*
X99895388Y-106184450D01*
G37*
D21*
X100390363Y-107103689D03*
D10*
G36*
X99612546Y-106467293D02*
X99753967Y-106325872D01*
X101168180Y-107740085D01*
X101026759Y-107881506D01*
X99612546Y-106467293D01*
X99612546Y-106467293D01*
G37*
D21*
X100107520Y-107386531D03*
D10*
G36*
X99329703Y-106750135D02*
X99471124Y-106608714D01*
X100885337Y-108022927D01*
X100743916Y-108164348D01*
X99329703Y-106750135D01*
X99329703Y-106750135D01*
G37*
D21*
X99824677Y-107669374D03*
D10*
G36*
X99046860Y-107032978D02*
X99188281Y-106891557D01*
X100602494Y-108305770D01*
X100461073Y-108447191D01*
X99046860Y-107032978D01*
X99046860Y-107032978D01*
G37*
D21*
X99541834Y-107952217D03*
D10*
G36*
X98764017Y-107315821D02*
X98905438Y-107174400D01*
X100319651Y-108588613D01*
X100178230Y-108730034D01*
X98764017Y-107315821D01*
X98764017Y-107315821D01*
G37*
D21*
X99258992Y-108235060D03*
D10*
G36*
X98481175Y-107598664D02*
X98622596Y-107457243D01*
X100036809Y-108871456D01*
X99895388Y-109012877D01*
X98481175Y-107598664D01*
X98481175Y-107598664D01*
G37*
D21*
X98976149Y-108517902D03*
D10*
G36*
X98198332Y-107881506D02*
X98339753Y-107740085D01*
X99753966Y-109154298D01*
X99612545Y-109295719D01*
X98198332Y-107881506D01*
X98198332Y-107881506D01*
G37*
D21*
X98693306Y-108800745D03*
D10*
G36*
X97915489Y-108164349D02*
X98056910Y-108022928D01*
X99471123Y-109437141D01*
X99329702Y-109578562D01*
X97915489Y-108164349D01*
X97915489Y-108164349D01*
G37*
D21*
X98410464Y-109083588D03*
D10*
G36*
X97632647Y-108447192D02*
X97774068Y-108305771D01*
X99188281Y-109719984D01*
X99046860Y-109861405D01*
X97632647Y-108447192D01*
X97632647Y-108447192D01*
G37*
D21*
X95582036Y-109083588D03*
D10*
G36*
X94945640Y-109861405D02*
X94804219Y-109719984D01*
X96218432Y-108305771D01*
X96359853Y-108447192D01*
X94945640Y-109861405D01*
X94945640Y-109861405D01*
G37*
D21*
X95299194Y-108800745D03*
D10*
G36*
X94662798Y-109578562D02*
X94521377Y-109437141D01*
X95935590Y-108022928D01*
X96077011Y-108164349D01*
X94662798Y-109578562D01*
X94662798Y-109578562D01*
G37*
D21*
X95016351Y-108517902D03*
D10*
G36*
X94379955Y-109295719D02*
X94238534Y-109154298D01*
X95652747Y-107740085D01*
X95794168Y-107881506D01*
X94379955Y-109295719D01*
X94379955Y-109295719D01*
G37*
D21*
X94733508Y-108235060D03*
D10*
G36*
X94097112Y-109012877D02*
X93955691Y-108871456D01*
X95369904Y-107457243D01*
X95511325Y-107598664D01*
X94097112Y-109012877D01*
X94097112Y-109012877D01*
G37*
D21*
X94450666Y-107952217D03*
D10*
G36*
X93814270Y-108730034D02*
X93672849Y-108588613D01*
X95087062Y-107174400D01*
X95228483Y-107315821D01*
X93814270Y-108730034D01*
X93814270Y-108730034D01*
G37*
D21*
X94167823Y-107669374D03*
D10*
G36*
X93531427Y-108447191D02*
X93390006Y-108305770D01*
X94804219Y-106891557D01*
X94945640Y-107032978D01*
X93531427Y-108447191D01*
X93531427Y-108447191D01*
G37*
D21*
X93884980Y-107386531D03*
D10*
G36*
X93248584Y-108164348D02*
X93107163Y-108022927D01*
X94521376Y-106608714D01*
X94662797Y-106750135D01*
X93248584Y-108164348D01*
X93248584Y-108164348D01*
G37*
D21*
X93602137Y-107103689D03*
D10*
G36*
X92965741Y-107881506D02*
X92824320Y-107740085D01*
X94238533Y-106325872D01*
X94379954Y-106467293D01*
X92965741Y-107881506D01*
X92965741Y-107881506D01*
G37*
D21*
X93319295Y-106820846D03*
D10*
G36*
X92682899Y-107598663D02*
X92541478Y-107457242D01*
X93955691Y-106043029D01*
X94097112Y-106184450D01*
X92682899Y-107598663D01*
X92682899Y-107598663D01*
G37*
D21*
X93036452Y-106538003D03*
D10*
G36*
X92400056Y-107315820D02*
X92258635Y-107174399D01*
X93672848Y-105760186D01*
X93814269Y-105901607D01*
X92400056Y-107315820D01*
X92400056Y-107315820D01*
G37*
D21*
X92753609Y-106255161D03*
D10*
G36*
X92117213Y-107032978D02*
X91975792Y-106891557D01*
X93390005Y-105477344D01*
X93531426Y-105618765D01*
X92117213Y-107032978D01*
X92117213Y-107032978D01*
G37*
D21*
X92470767Y-105972318D03*
D10*
G36*
X91834371Y-106750135D02*
X91692950Y-106608714D01*
X93107163Y-105194501D01*
X93248584Y-105335922D01*
X91834371Y-106750135D01*
X91834371Y-106750135D01*
G37*
D21*
X92187924Y-105689475D03*
D10*
G36*
X91551528Y-106467292D02*
X91410107Y-106325871D01*
X92824320Y-104911658D01*
X92965741Y-105053079D01*
X91551528Y-106467292D01*
X91551528Y-106467292D01*
G37*
D21*
X91905081Y-105406632D03*
D10*
G36*
X91268685Y-106184449D02*
X91127264Y-106043028D01*
X92541477Y-104628815D01*
X92682898Y-104770236D01*
X91268685Y-106184449D01*
X91268685Y-106184449D01*
G37*
D21*
X91622238Y-105123790D03*
D10*
G36*
X90985842Y-105901607D02*
X90844421Y-105760186D01*
X92258634Y-104345973D01*
X92400055Y-104487394D01*
X90985842Y-105901607D01*
X90985842Y-105901607D01*
G37*
D21*
X91339396Y-104840947D03*
D10*
G36*
X90703000Y-105618764D02*
X90561579Y-105477343D01*
X91975792Y-104063130D01*
X92117213Y-104204551D01*
X90703000Y-105618764D01*
X90703000Y-105618764D01*
G37*
D21*
X91056553Y-104558104D03*
D10*
G36*
X90420157Y-105335921D02*
X90278736Y-105194500D01*
X91692949Y-103780287D01*
X91834370Y-103921708D01*
X90420157Y-105335921D01*
X90420157Y-105335921D01*
G37*
D21*
X90773710Y-104275262D03*
D10*
G36*
X90137314Y-105053079D02*
X89995893Y-104911658D01*
X91410106Y-103497445D01*
X91551527Y-103638866D01*
X90137314Y-105053079D01*
X90137314Y-105053079D01*
G37*
D21*
X90490868Y-103992419D03*
D10*
G36*
X89854472Y-104770236D02*
X89713051Y-104628815D01*
X91127264Y-103214602D01*
X91268685Y-103356023D01*
X89854472Y-104770236D01*
X89854472Y-104770236D01*
G37*
D21*
X90208025Y-103709576D03*
D10*
G36*
X89571629Y-104487393D02*
X89430208Y-104345972D01*
X90844421Y-102931759D01*
X90985842Y-103073180D01*
X89571629Y-104487393D01*
X89571629Y-104487393D01*
G37*
D21*
X89925182Y-103426733D03*
D10*
G36*
X89288786Y-104204550D02*
X89147365Y-104063129D01*
X90561578Y-102648916D01*
X90702999Y-102790337D01*
X89288786Y-104204550D01*
X89288786Y-104204550D01*
G37*
D21*
X89642339Y-103143891D03*
D10*
G36*
X89005943Y-103921708D02*
X88864522Y-103780287D01*
X90278735Y-102366074D01*
X90420156Y-102507495D01*
X89005943Y-103921708D01*
X89005943Y-103921708D01*
G37*
D21*
X89359497Y-102861048D03*
D10*
G36*
X88723101Y-103638865D02*
X88581680Y-103497444D01*
X89995893Y-102083231D01*
X90137314Y-102224652D01*
X88723101Y-103638865D01*
X88723101Y-103638865D01*
G37*
D21*
X89076654Y-102578205D03*
D10*
G36*
X88440258Y-103356022D02*
X88298837Y-103214601D01*
X89713050Y-101800388D01*
X89854471Y-101941809D01*
X88440258Y-103356022D01*
X88440258Y-103356022D01*
G37*
D21*
X88793811Y-102295363D03*
D10*
G36*
X88157415Y-103073180D02*
X88015994Y-102931759D01*
X89430207Y-101517546D01*
X89571628Y-101658967D01*
X88157415Y-103073180D01*
X88157415Y-103073180D01*
G37*
D21*
X88510969Y-102012520D03*
D10*
G36*
X87874573Y-102790337D02*
X87733152Y-102648916D01*
X89147365Y-101234703D01*
X89288786Y-101376124D01*
X87874573Y-102790337D01*
X87874573Y-102790337D01*
G37*
D21*
X88228126Y-101729677D03*
D10*
G36*
X87591730Y-102507494D02*
X87450309Y-102366073D01*
X88864522Y-100951860D01*
X89005943Y-101093281D01*
X87591730Y-102507494D01*
X87591730Y-102507494D01*
G37*
D21*
X87945283Y-101446834D03*
D10*
G36*
X87308887Y-102224651D02*
X87167466Y-102083230D01*
X88581679Y-100669017D01*
X88723100Y-100810438D01*
X87308887Y-102224651D01*
X87308887Y-102224651D01*
G37*
D21*
X87662440Y-101163992D03*
D10*
G36*
X87026044Y-101941809D02*
X86884623Y-101800388D01*
X88298836Y-100386175D01*
X88440257Y-100527596D01*
X87026044Y-101941809D01*
X87026044Y-101941809D01*
G37*
D21*
X87379598Y-100881149D03*
D10*
G36*
X86743202Y-101658966D02*
X86601781Y-101517545D01*
X88015994Y-100103332D01*
X88157415Y-100244753D01*
X86743202Y-101658966D01*
X86743202Y-101658966D01*
G37*
D21*
X87096755Y-100598306D03*
D10*
G36*
X86460359Y-101376123D02*
X86318938Y-101234702D01*
X87733151Y-99820489D01*
X87874572Y-99961910D01*
X86460359Y-101376123D01*
X86460359Y-101376123D01*
G37*
D21*
X86813912Y-100315464D03*
D10*
G36*
X86177516Y-101093281D02*
X86036095Y-100951860D01*
X87450308Y-99537647D01*
X87591729Y-99679068D01*
X86177516Y-101093281D01*
X86177516Y-101093281D01*
G37*
D21*
X86813912Y-97487036D03*
D10*
G36*
X86036095Y-96850640D02*
X86177516Y-96709219D01*
X87591729Y-98123432D01*
X87450308Y-98264853D01*
X86036095Y-96850640D01*
X86036095Y-96850640D01*
G37*
D21*
X87096755Y-97204194D03*
D10*
G36*
X86318938Y-96567798D02*
X86460359Y-96426377D01*
X87874572Y-97840590D01*
X87733151Y-97982011D01*
X86318938Y-96567798D01*
X86318938Y-96567798D01*
G37*
D21*
X87379598Y-96921351D03*
D10*
G36*
X86601781Y-96284955D02*
X86743202Y-96143534D01*
X88157415Y-97557747D01*
X88015994Y-97699168D01*
X86601781Y-96284955D01*
X86601781Y-96284955D01*
G37*
D21*
X87662440Y-96638508D03*
D10*
G36*
X86884623Y-96002112D02*
X87026044Y-95860691D01*
X88440257Y-97274904D01*
X88298836Y-97416325D01*
X86884623Y-96002112D01*
X86884623Y-96002112D01*
G37*
D21*
X87945283Y-96355666D03*
D10*
G36*
X87167466Y-95719270D02*
X87308887Y-95577849D01*
X88723100Y-96992062D01*
X88581679Y-97133483D01*
X87167466Y-95719270D01*
X87167466Y-95719270D01*
G37*
D21*
X88228126Y-96072823D03*
D10*
G36*
X87450309Y-95436427D02*
X87591730Y-95295006D01*
X89005943Y-96709219D01*
X88864522Y-96850640D01*
X87450309Y-95436427D01*
X87450309Y-95436427D01*
G37*
D21*
X88510969Y-95789980D03*
D10*
G36*
X87733152Y-95153584D02*
X87874573Y-95012163D01*
X89288786Y-96426376D01*
X89147365Y-96567797D01*
X87733152Y-95153584D01*
X87733152Y-95153584D01*
G37*
D21*
X88793811Y-95507137D03*
D10*
G36*
X88015994Y-94870741D02*
X88157415Y-94729320D01*
X89571628Y-96143533D01*
X89430207Y-96284954D01*
X88015994Y-94870741D01*
X88015994Y-94870741D01*
G37*
D21*
X89076654Y-95224295D03*
D10*
G36*
X88298837Y-94587899D02*
X88440258Y-94446478D01*
X89854471Y-95860691D01*
X89713050Y-96002112D01*
X88298837Y-94587899D01*
X88298837Y-94587899D01*
G37*
D21*
X89359497Y-94941452D03*
D10*
G36*
X88581680Y-94305056D02*
X88723101Y-94163635D01*
X90137314Y-95577848D01*
X89995893Y-95719269D01*
X88581680Y-94305056D01*
X88581680Y-94305056D01*
G37*
D21*
X89642339Y-94658609D03*
D10*
G36*
X88864522Y-94022213D02*
X89005943Y-93880792D01*
X90420156Y-95295005D01*
X90278735Y-95436426D01*
X88864522Y-94022213D01*
X88864522Y-94022213D01*
G37*
D21*
X89925182Y-94375767D03*
D10*
G36*
X89147365Y-93739371D02*
X89288786Y-93597950D01*
X90702999Y-95012163D01*
X90561578Y-95153584D01*
X89147365Y-93739371D01*
X89147365Y-93739371D01*
G37*
D21*
X90208025Y-94092924D03*
D10*
G36*
X89430208Y-93456528D02*
X89571629Y-93315107D01*
X90985842Y-94729320D01*
X90844421Y-94870741D01*
X89430208Y-93456528D01*
X89430208Y-93456528D01*
G37*
D21*
X90490868Y-93810081D03*
D10*
G36*
X89713051Y-93173685D02*
X89854472Y-93032264D01*
X91268685Y-94446477D01*
X91127264Y-94587898D01*
X89713051Y-93173685D01*
X89713051Y-93173685D01*
G37*
D21*
X90773710Y-93527238D03*
D10*
G36*
X89995893Y-92890842D02*
X90137314Y-92749421D01*
X91551527Y-94163634D01*
X91410106Y-94305055D01*
X89995893Y-92890842D01*
X89995893Y-92890842D01*
G37*
D21*
X91056553Y-93244396D03*
D10*
G36*
X90278736Y-92608000D02*
X90420157Y-92466579D01*
X91834370Y-93880792D01*
X91692949Y-94022213D01*
X90278736Y-92608000D01*
X90278736Y-92608000D01*
G37*
D21*
X91339396Y-92961553D03*
D10*
G36*
X90561579Y-92325157D02*
X90703000Y-92183736D01*
X92117213Y-93597949D01*
X91975792Y-93739370D01*
X90561579Y-92325157D01*
X90561579Y-92325157D01*
G37*
D21*
X91622238Y-92678710D03*
D10*
G36*
X90844421Y-92042314D02*
X90985842Y-91900893D01*
X92400055Y-93315106D01*
X92258634Y-93456527D01*
X90844421Y-92042314D01*
X90844421Y-92042314D01*
G37*
D21*
X91905081Y-92395868D03*
D10*
G36*
X91127264Y-91759472D02*
X91268685Y-91618051D01*
X92682898Y-93032264D01*
X92541477Y-93173685D01*
X91127264Y-91759472D01*
X91127264Y-91759472D01*
G37*
D21*
X92187924Y-92113025D03*
D10*
G36*
X91410107Y-91476629D02*
X91551528Y-91335208D01*
X92965741Y-92749421D01*
X92824320Y-92890842D01*
X91410107Y-91476629D01*
X91410107Y-91476629D01*
G37*
D21*
X92470767Y-91830182D03*
D10*
G36*
X91692950Y-91193786D02*
X91834371Y-91052365D01*
X93248584Y-92466578D01*
X93107163Y-92607999D01*
X91692950Y-91193786D01*
X91692950Y-91193786D01*
G37*
D21*
X92753609Y-91547339D03*
D10*
G36*
X91975792Y-90910943D02*
X92117213Y-90769522D01*
X93531426Y-92183735D01*
X93390005Y-92325156D01*
X91975792Y-90910943D01*
X91975792Y-90910943D01*
G37*
D21*
X93036452Y-91264497D03*
D10*
G36*
X92258635Y-90628101D02*
X92400056Y-90486680D01*
X93814269Y-91900893D01*
X93672848Y-92042314D01*
X92258635Y-90628101D01*
X92258635Y-90628101D01*
G37*
D21*
X93319295Y-90981654D03*
D10*
G36*
X92541478Y-90345258D02*
X92682899Y-90203837D01*
X94097112Y-91618050D01*
X93955691Y-91759471D01*
X92541478Y-90345258D01*
X92541478Y-90345258D01*
G37*
D21*
X93602137Y-90698811D03*
D10*
G36*
X92824320Y-90062415D02*
X92965741Y-89920994D01*
X94379954Y-91335207D01*
X94238533Y-91476628D01*
X92824320Y-90062415D01*
X92824320Y-90062415D01*
G37*
D21*
X93884980Y-90415969D03*
D10*
G36*
X93107163Y-89779573D02*
X93248584Y-89638152D01*
X94662797Y-91052365D01*
X94521376Y-91193786D01*
X93107163Y-89779573D01*
X93107163Y-89779573D01*
G37*
D21*
X94167823Y-90133126D03*
D10*
G36*
X93390006Y-89496730D02*
X93531427Y-89355309D01*
X94945640Y-90769522D01*
X94804219Y-90910943D01*
X93390006Y-89496730D01*
X93390006Y-89496730D01*
G37*
D21*
X94450666Y-89850283D03*
D10*
G36*
X93672849Y-89213887D02*
X93814270Y-89072466D01*
X95228483Y-90486679D01*
X95087062Y-90628100D01*
X93672849Y-89213887D01*
X93672849Y-89213887D01*
G37*
D21*
X94733508Y-89567440D03*
D10*
G36*
X93955691Y-88931044D02*
X94097112Y-88789623D01*
X95511325Y-90203836D01*
X95369904Y-90345257D01*
X93955691Y-88931044D01*
X93955691Y-88931044D01*
G37*
D21*
X95016351Y-89284598D03*
D10*
G36*
X94238534Y-88648202D02*
X94379955Y-88506781D01*
X95794168Y-89920994D01*
X95652747Y-90062415D01*
X94238534Y-88648202D01*
X94238534Y-88648202D01*
G37*
D21*
X95299194Y-89001755D03*
D10*
G36*
X94521377Y-88365359D02*
X94662798Y-88223938D01*
X96077011Y-89638151D01*
X95935590Y-89779572D01*
X94521377Y-88365359D01*
X94521377Y-88365359D01*
G37*
D21*
X95582036Y-88718912D03*
D10*
G36*
X94804219Y-88082516D02*
X94945640Y-87941095D01*
X96359853Y-89355308D01*
X96218432Y-89496729D01*
X94804219Y-88082516D01*
X94804219Y-88082516D01*
G37*
D11*
X131877500Y-74485500D03*
X130377500Y-74485500D03*
X130429000Y-77216000D03*
X131929000Y-77216000D03*
D22*
X119918000Y-56722000D03*
X119268000Y-56722000D03*
X118618000Y-56722000D03*
X117968000Y-56722000D03*
X117318000Y-56722000D03*
D12*
X77427000Y-60452000D03*
X75227000Y-60452000D03*
D15*
X82296000Y-92032000D03*
X82296000Y-89832000D03*
D12*
X83015000Y-60452000D03*
X80815000Y-60452000D03*
X77427000Y-67945000D03*
X75227000Y-67945000D03*
X83015000Y-70866000D03*
X80815000Y-70866000D03*
X80815000Y-62865000D03*
X83015000Y-62865000D03*
X83015000Y-67945000D03*
X80815000Y-67945000D03*
X80815000Y-65405000D03*
X83015000Y-65405000D03*
D13*
X121348500Y-65151000D03*
X118848500Y-65151000D03*
X113304000Y-62611000D03*
X115804000Y-62611000D03*
D23*
X106807000Y-60071000D03*
X106807000Y-61671000D03*
D15*
X106870500Y-64749500D03*
X106870500Y-66949500D03*
D16*
X88590409Y-91765409D03*
D10*
G36*
X88201500Y-91730054D02*
X88555054Y-91376500D01*
X88979318Y-91800764D01*
X88625764Y-92154318D01*
X88201500Y-91730054D01*
X88201500Y-91730054D01*
G37*
D16*
X87812591Y-90987591D03*
D10*
G36*
X87423682Y-90952236D02*
X87777236Y-90598682D01*
X88201500Y-91022946D01*
X87847946Y-91376500D01*
X87423682Y-90952236D01*
X87423682Y-90952236D01*
G37*
D24*
X110448000Y-103886000D03*
X111548000Y-103886000D03*
X110511500Y-104902000D03*
X111611500Y-104902000D03*
D11*
X95833500Y-118745000D03*
X97333500Y-118745000D03*
X93801500Y-116967000D03*
X95301500Y-116967000D03*
D16*
X110243909Y-88320591D03*
D10*
G36*
X110279264Y-87931682D02*
X110632818Y-88285236D01*
X110208554Y-88709500D01*
X109855000Y-88355946D01*
X110279264Y-87931682D01*
X110279264Y-87931682D01*
G37*
D16*
X109466091Y-89098409D03*
D10*
G36*
X109501446Y-88709500D02*
X109855000Y-89063054D01*
X109430736Y-89487318D01*
X109077182Y-89133764D01*
X109501446Y-88709500D01*
X109501446Y-88709500D01*
G37*
D14*
X110111500Y-102679500D03*
X112011500Y-102679500D03*
X110810000Y-97282000D03*
X112710000Y-97282000D03*
X120864500Y-61531500D03*
X122764500Y-61531500D03*
D25*
X105954751Y-89371249D03*
D10*
G36*
X105795652Y-90060678D02*
X105265322Y-89530348D01*
X106113850Y-88681820D01*
X106644180Y-89212150D01*
X105795652Y-90060678D01*
X105795652Y-90060678D01*
G37*
D25*
X104611249Y-90714751D03*
D10*
G36*
X104452150Y-91404180D02*
X103921820Y-90873850D01*
X104770348Y-90025322D01*
X105300678Y-90555652D01*
X104452150Y-91404180D01*
X104452150Y-91404180D01*
G37*
D24*
X114321500Y-102362000D03*
X115421500Y-102362000D03*
X110448000Y-99314000D03*
X111548000Y-99314000D03*
X111548000Y-100393500D03*
X110448000Y-100393500D03*
X114503200Y-92456000D03*
X113403200Y-92456000D03*
D26*
X135839200Y-66304800D03*
X135839200Y-63804800D03*
D13*
X124777500Y-80454500D03*
X124777500Y-82954500D03*
D27*
X109204183Y-87010817D03*
D10*
G36*
X109310249Y-86268355D02*
X109946645Y-86904751D01*
X109098117Y-87753279D01*
X108461721Y-87116883D01*
X109310249Y-86268355D01*
X109310249Y-86268355D01*
G37*
D27*
X110759817Y-85455183D03*
D10*
G36*
X110865883Y-84712721D02*
X111502279Y-85349117D01*
X110653751Y-86197645D01*
X110017355Y-85561249D01*
X110865883Y-84712721D01*
X110865883Y-84712721D01*
G37*
D27*
X112061683Y-86375817D03*
D10*
G36*
X111955617Y-87118279D02*
X111319221Y-86481883D01*
X112167749Y-85633355D01*
X112804145Y-86269751D01*
X111955617Y-87118279D01*
X111955617Y-87118279D01*
G37*
D27*
X113617317Y-84820183D03*
D10*
G36*
X113511251Y-85562645D02*
X112874855Y-84926249D01*
X113723383Y-84077721D01*
X114359779Y-84714117D01*
X113511251Y-85562645D01*
X113511251Y-85562645D01*
G37*
D12*
X127655500Y-100711000D03*
X125455500Y-100711000D03*
D28*
X128143000Y-96837500D03*
X125643000Y-96837500D03*
D29*
X85512910Y-134499350D03*
X85512910Y-122866150D03*
X86163150Y-134499350D03*
X86163150Y-122866150D03*
X86813390Y-134499350D03*
X86813390Y-122866150D03*
X87463630Y-134499350D03*
X87463630Y-122866150D03*
X88113870Y-134499350D03*
X88113870Y-122866150D03*
X88764110Y-134499350D03*
X88764110Y-122866150D03*
X89414350Y-134499350D03*
X89414350Y-122866150D03*
X90064590Y-134499350D03*
X90064590Y-122866150D03*
X90714830Y-134499350D03*
X90714830Y-122866150D03*
X91365070Y-134499350D03*
X91365070Y-122866150D03*
X92015310Y-134499350D03*
X92015310Y-122866150D03*
X92665550Y-134499350D03*
X92665550Y-122866150D03*
X93315790Y-134499350D03*
X93315790Y-122866150D03*
X93966030Y-134499350D03*
X93966030Y-122866150D03*
X94616270Y-134499350D03*
X94616270Y-122866150D03*
X95266510Y-134499350D03*
X95266510Y-122866150D03*
X95916750Y-134499350D03*
X95916750Y-122866150D03*
X96566990Y-134499350D03*
X96566990Y-122866150D03*
X97217230Y-134499350D03*
X97217230Y-122866150D03*
X97867470Y-134499350D03*
X97867470Y-122866150D03*
X98517710Y-134499350D03*
X98517710Y-122866150D03*
X99167950Y-134499350D03*
X99167950Y-122866150D03*
X99818190Y-134499350D03*
X99818190Y-122866150D03*
X100468430Y-134499350D03*
X100468430Y-122866150D03*
X101118670Y-134499350D03*
X101118670Y-122866150D03*
X101768910Y-134499350D03*
X101768910Y-122866150D03*
X102419150Y-134499350D03*
X102419150Y-122866150D03*
X103069390Y-134499350D03*
X103069390Y-122866150D03*
X103719630Y-134499350D03*
X103719630Y-122866150D03*
X104369870Y-134499350D03*
X104369870Y-122866150D03*
X105020110Y-134499350D03*
X105020110Y-122866150D03*
X105670350Y-134499350D03*
X105670350Y-122866150D03*
X106320590Y-134499350D03*
X106320590Y-122866150D03*
D30*
X116713000Y-95758000D03*
X122809000Y-95758000D03*
D24*
X114469000Y-93535500D03*
X113369000Y-93535500D03*
X110448000Y-101346000D03*
X111548000Y-101346000D03*
X111548000Y-98425000D03*
X110448000Y-98425000D03*
D28*
X118454800Y-89103200D03*
X120954800Y-89103200D03*
D16*
X85161409Y-104068591D03*
D10*
G36*
X85126054Y-104457500D02*
X84772500Y-104103946D01*
X85196764Y-103679682D01*
X85550318Y-104033236D01*
X85126054Y-104457500D01*
X85126054Y-104457500D01*
G37*
D16*
X84383591Y-104846409D03*
D10*
G36*
X84348236Y-105235318D02*
X83994682Y-104881764D01*
X84418946Y-104457500D01*
X84772500Y-104811054D01*
X84348236Y-105235318D01*
X84348236Y-105235318D01*
G37*
D16*
X107815091Y-76398409D03*
D10*
G36*
X107850446Y-76009500D02*
X108204000Y-76363054D01*
X107779736Y-76787318D01*
X107426182Y-76433764D01*
X107850446Y-76009500D01*
X107850446Y-76009500D01*
G37*
D16*
X108592909Y-75620591D03*
D10*
G36*
X108628264Y-75231682D02*
X108981818Y-75585236D01*
X108557554Y-76009500D01*
X108204000Y-75655946D01*
X108628264Y-75231682D01*
X108628264Y-75231682D01*
G37*
D31*
X92678250Y-119803000D03*
X92678250Y-118703000D03*
X96615250Y-139392750D03*
X96615250Y-138292750D03*
X106013250Y-138483250D03*
X106013250Y-139583250D03*
X94519750Y-139265750D03*
X94519750Y-138165750D03*
X90646250Y-138229250D03*
X90646250Y-139329250D03*
D24*
X97451000Y-116903500D03*
X96351000Y-116903500D03*
D16*
X108592909Y-92702091D03*
D10*
G36*
X108628264Y-92313182D02*
X108981818Y-92666736D01*
X108557554Y-93091000D01*
X108204000Y-92737446D01*
X108628264Y-92313182D01*
X108628264Y-92313182D01*
G37*
D16*
X107815091Y-93479909D03*
D10*
G36*
X107850446Y-93091000D02*
X108204000Y-93444554D01*
X107779736Y-93868818D01*
X107426182Y-93515264D01*
X107850446Y-93091000D01*
X107850446Y-93091000D01*
G37*
D16*
X89860409Y-108831091D03*
D10*
G36*
X89825054Y-109220000D02*
X89471500Y-108866446D01*
X89895764Y-108442182D01*
X90249318Y-108795736D01*
X89825054Y-109220000D01*
X89825054Y-109220000D01*
G37*
D16*
X89082591Y-109608909D03*
D10*
G36*
X89047236Y-109997818D02*
X88693682Y-109644264D01*
X89117946Y-109220000D01*
X89471500Y-109573554D01*
X89047236Y-109997818D01*
X89047236Y-109997818D01*
G37*
D16*
X86733091Y-107386409D03*
D10*
G36*
X86697736Y-107775318D02*
X86344182Y-107421764D01*
X86768446Y-106997500D01*
X87122000Y-107351054D01*
X86697736Y-107775318D01*
X86697736Y-107775318D01*
G37*
D16*
X87510909Y-106608591D03*
D10*
G36*
X87475554Y-106997500D02*
X87122000Y-106643946D01*
X87546264Y-106219682D01*
X87899818Y-106573236D01*
X87475554Y-106997500D01*
X87475554Y-106997500D01*
G37*
D16*
X106814909Y-90924091D03*
D10*
G36*
X106850264Y-90535182D02*
X107203818Y-90888736D01*
X106779554Y-91313000D01*
X106426000Y-90959446D01*
X106850264Y-90535182D01*
X106850264Y-90535182D01*
G37*
D16*
X106037091Y-91701909D03*
D10*
G36*
X106072446Y-91313000D02*
X106426000Y-91666554D01*
X106001736Y-92090818D01*
X105648182Y-91737264D01*
X106072446Y-91313000D01*
X106072446Y-91313000D01*
G37*
D16*
X104719409Y-88701591D03*
D10*
G36*
X104684054Y-89090500D02*
X104330500Y-88736946D01*
X104754764Y-88312682D01*
X105108318Y-88666236D01*
X104684054Y-89090500D01*
X104684054Y-89090500D01*
G37*
D16*
X103941591Y-89479409D03*
D10*
G36*
X103906236Y-89868318D02*
X103552682Y-89514764D01*
X103976946Y-89090500D01*
X104330500Y-89444054D01*
X103906236Y-89868318D01*
X103906236Y-89868318D01*
G37*
D16*
X105290909Y-78859091D03*
D10*
G36*
X105326264Y-78470182D02*
X105679818Y-78823736D01*
X105255554Y-79248000D01*
X104902000Y-78894446D01*
X105326264Y-78470182D01*
X105326264Y-78470182D01*
G37*
D16*
X104513091Y-79636909D03*
D10*
G36*
X104548446Y-79248000D02*
X104902000Y-79601554D01*
X104477736Y-80025818D01*
X104124182Y-79672264D01*
X104548446Y-79248000D01*
X104548446Y-79248000D01*
G37*
D31*
X85502750Y-139329250D03*
X85502750Y-138229250D03*
X88773000Y-119676000D03*
X88773000Y-118576000D03*
D24*
X94974500Y-118745000D03*
X93874500Y-118745000D03*
D28*
X112946499Y-106426000D03*
X110446501Y-106426000D03*
D32*
X112194266Y-88778117D03*
D10*
G36*
X112282654Y-87805845D02*
X113166538Y-88689729D01*
X112105878Y-89750389D01*
X111221994Y-88866505D01*
X112282654Y-87805845D01*
X112282654Y-87805845D01*
G37*
D32*
X110426500Y-90545883D03*
D10*
G36*
X110514888Y-89573611D02*
X111398772Y-90457495D01*
X110338112Y-91518155D01*
X109454228Y-90634271D01*
X110514888Y-89573611D01*
X110514888Y-89573611D01*
G37*
D28*
X116312000Y-100838000D03*
X113812000Y-100838000D03*
D26*
X95631000Y-85431000D03*
X95631000Y-82931000D03*
M02*
