G04 #@! TF.GenerationSoftware,KiCad,Pcbnew,(2017-06-28 revision 2237de015)-makepkg*
G04 #@! TF.CreationDate,2017-08-27T19:53:26+05:30*
G04 #@! TF.ProjectId,MyIMX233,4D79494D583233332E6B696361645F70,rev?*
G04 #@! TF.SameCoordinates,Original
G04 #@! TF.FileFunction,Legend,Bot*
G04 #@! TF.FilePolarity,Positive*
%FSLAX46Y46*%
G04 Gerber Fmt 4.6, Leading zero omitted, Abs format (unit mm)*
G04 Created by KiCad (PCBNEW (2017-06-28 revision 2237de015)-makepkg) date 08/27/17 19:53:26*
%MOMM*%
%LPD*%
G01*
G04 APERTURE LIST*
%ADD10C,0.100000*%
%ADD11C,0.120000*%
%ADD12C,0.150000*%
G04 APERTURE END LIST*
D10*
D11*
X128058800Y-109962400D02*
X127058800Y-109962400D01*
X127058800Y-111322400D02*
X128058800Y-111322400D01*
X127211200Y-116707200D02*
X128211200Y-116707200D01*
X128211200Y-115347200D02*
X127211200Y-115347200D01*
X127058800Y-109747600D02*
X128058800Y-109747600D01*
X128058800Y-108387600D02*
X127058800Y-108387600D01*
X128211200Y-117074400D02*
X127211200Y-117074400D01*
X127211200Y-118434400D02*
X128211200Y-118434400D01*
X127076400Y-112948000D02*
X128076400Y-112948000D01*
X128076400Y-111588000D02*
X127076400Y-111588000D01*
D12*
X131706857Y-111145580D02*
X132040190Y-110669390D01*
X132278285Y-111145580D02*
X132278285Y-110145580D01*
X131897333Y-110145580D01*
X131802095Y-110193200D01*
X131754476Y-110240819D01*
X131706857Y-110336057D01*
X131706857Y-110478914D01*
X131754476Y-110574152D01*
X131802095Y-110621771D01*
X131897333Y-110669390D01*
X132278285Y-110669390D01*
X131325904Y-110240819D02*
X131278285Y-110193200D01*
X131183047Y-110145580D01*
X130944952Y-110145580D01*
X130849714Y-110193200D01*
X130802095Y-110240819D01*
X130754476Y-110336057D01*
X130754476Y-110431295D01*
X130802095Y-110574152D01*
X131373523Y-111145580D01*
X130754476Y-111145580D01*
X130135428Y-110145580D02*
X130040190Y-110145580D01*
X129944952Y-110193200D01*
X129897333Y-110240819D01*
X129849714Y-110336057D01*
X129802095Y-110526533D01*
X129802095Y-110764628D01*
X129849714Y-110955104D01*
X129897333Y-111050342D01*
X129944952Y-111097961D01*
X130040190Y-111145580D01*
X130135428Y-111145580D01*
X130230666Y-111097961D01*
X130278285Y-111050342D01*
X130325904Y-110955104D01*
X130373523Y-110764628D01*
X130373523Y-110526533D01*
X130325904Y-110336057D01*
X130278285Y-110240819D01*
X130230666Y-110193200D01*
X130135428Y-110145580D01*
X131808457Y-116581180D02*
X132141790Y-116104990D01*
X132379885Y-116581180D02*
X132379885Y-115581180D01*
X131998933Y-115581180D01*
X131903695Y-115628800D01*
X131856076Y-115676419D01*
X131808457Y-115771657D01*
X131808457Y-115914514D01*
X131856076Y-116009752D01*
X131903695Y-116057371D01*
X131998933Y-116104990D01*
X132379885Y-116104990D01*
X131427504Y-115676419D02*
X131379885Y-115628800D01*
X131284647Y-115581180D01*
X131046552Y-115581180D01*
X130951314Y-115628800D01*
X130903695Y-115676419D01*
X130856076Y-115771657D01*
X130856076Y-115866895D01*
X130903695Y-116009752D01*
X131475123Y-116581180D01*
X130856076Y-116581180D01*
X129903695Y-116581180D02*
X130475123Y-116581180D01*
X130189409Y-116581180D02*
X130189409Y-115581180D01*
X130284647Y-115724038D01*
X130379885Y-115819276D01*
X130475123Y-115866895D01*
X131808457Y-109418380D02*
X132141790Y-108942190D01*
X132379885Y-109418380D02*
X132379885Y-108418380D01*
X131998933Y-108418380D01*
X131903695Y-108466000D01*
X131856076Y-108513619D01*
X131808457Y-108608857D01*
X131808457Y-108751714D01*
X131856076Y-108846952D01*
X131903695Y-108894571D01*
X131998933Y-108942190D01*
X132379885Y-108942190D01*
X131427504Y-108513619D02*
X131379885Y-108466000D01*
X131284647Y-108418380D01*
X131046552Y-108418380D01*
X130951314Y-108466000D01*
X130903695Y-108513619D01*
X130856076Y-108608857D01*
X130856076Y-108704095D01*
X130903695Y-108846952D01*
X131475123Y-109418380D01*
X130856076Y-109418380D01*
X130522742Y-108418380D02*
X129903695Y-108418380D01*
X130237028Y-108799333D01*
X130094171Y-108799333D01*
X129998933Y-108846952D01*
X129951314Y-108894571D01*
X129903695Y-108989809D01*
X129903695Y-109227904D01*
X129951314Y-109323142D01*
X129998933Y-109370761D01*
X130094171Y-109418380D01*
X130379885Y-109418380D01*
X130475123Y-109370761D01*
X130522742Y-109323142D01*
X131910057Y-118308380D02*
X132243390Y-117832190D01*
X132481485Y-118308380D02*
X132481485Y-117308380D01*
X132100533Y-117308380D01*
X132005295Y-117356000D01*
X131957676Y-117403619D01*
X131910057Y-117498857D01*
X131910057Y-117641714D01*
X131957676Y-117736952D01*
X132005295Y-117784571D01*
X132100533Y-117832190D01*
X132481485Y-117832190D01*
X131529104Y-117403619D02*
X131481485Y-117356000D01*
X131386247Y-117308380D01*
X131148152Y-117308380D01*
X131052914Y-117356000D01*
X131005295Y-117403619D01*
X130957676Y-117498857D01*
X130957676Y-117594095D01*
X131005295Y-117736952D01*
X131576723Y-118308380D01*
X130957676Y-118308380D01*
X130576723Y-117403619D02*
X130529104Y-117356000D01*
X130433866Y-117308380D01*
X130195771Y-117308380D01*
X130100533Y-117356000D01*
X130052914Y-117403619D01*
X130005295Y-117498857D01*
X130005295Y-117594095D01*
X130052914Y-117736952D01*
X130624342Y-118308380D01*
X130005295Y-118308380D01*
X131757657Y-112771180D02*
X132090990Y-112294990D01*
X132329085Y-112771180D02*
X132329085Y-111771180D01*
X131948133Y-111771180D01*
X131852895Y-111818800D01*
X131805276Y-111866419D01*
X131757657Y-111961657D01*
X131757657Y-112104514D01*
X131805276Y-112199752D01*
X131852895Y-112247371D01*
X131948133Y-112294990D01*
X132329085Y-112294990D01*
X131376704Y-111866419D02*
X131329085Y-111818800D01*
X131233847Y-111771180D01*
X130995752Y-111771180D01*
X130900514Y-111818800D01*
X130852895Y-111866419D01*
X130805276Y-111961657D01*
X130805276Y-112056895D01*
X130852895Y-112199752D01*
X131424323Y-112771180D01*
X130805276Y-112771180D01*
X129948133Y-112104514D02*
X129948133Y-112771180D01*
X130186228Y-111723561D02*
X130424323Y-112437847D01*
X129805276Y-112437847D01*
M02*
