G04 #@! TF.GenerationSoftware,KiCad,Pcbnew,(2017-04-29 revision a92ea8c75)-makepkg*
G04 #@! TF.CreationDate,2017-06-10T12:44:28+05:30*
G04 #@! TF.ProjectId,MyIMX233,4D79494D583233332E6B696361645F70,rev?*
G04 #@! TF.FileFunction,Legend,Top*
G04 #@! TF.FilePolarity,Positive*
%FSLAX46Y46*%
G04 Gerber Fmt 4.6, Leading zero omitted, Abs format (unit mm)*
G04 Created by KiCad (PCBNEW (2017-04-29 revision a92ea8c75)-makepkg) date 06/10/17 12:44:28*
%MOMM*%
%LPD*%
G01*
G04 APERTURE LIST*
%ADD10C,0.100000*%
%ADD11C,0.120000*%
%ADD12C,0.150000*%
%ADD13C,0.300000*%
%ADD14C,0.203200*%
%ADD15C,0.254000*%
G04 APERTURE END LIST*
D10*
D11*
X132397500Y-133096000D02*
G75*
G03X132397500Y-133096000I-2286000J0D01*
G01*
X107307000Y-59571000D02*
X107307000Y-61671000D01*
X106307000Y-59571000D02*
X106307000Y-61671000D01*
X107307000Y-59571000D02*
X106307000Y-59571000D01*
X106190500Y-66349500D02*
X106190500Y-65349500D01*
X107550500Y-65349500D02*
X107550500Y-66349500D01*
X114435000Y-60089500D02*
X115435000Y-60089500D01*
X115435000Y-61449500D02*
X114435000Y-61449500D01*
X87692383Y-91532063D02*
X88045937Y-91885617D01*
X88710617Y-91220937D02*
X88357063Y-90867383D01*
X111375000Y-103098500D02*
X110875000Y-103098500D01*
X110875000Y-104038500D02*
X111375000Y-104038500D01*
X111311500Y-104241500D02*
X110811500Y-104241500D01*
X110811500Y-105181500D02*
X111311500Y-105181500D01*
X97083500Y-119425000D02*
X96083500Y-119425000D01*
X96083500Y-118065000D02*
X97083500Y-118065000D01*
X95051500Y-117647000D02*
X94051500Y-117647000D01*
X94051500Y-116287000D02*
X95051500Y-116287000D01*
X108802528Y-89224292D02*
X108448974Y-89577846D01*
X109113654Y-90242526D02*
X109467208Y-89888972D01*
X110140000Y-101635000D02*
X110840000Y-101635000D01*
X110840000Y-102835000D02*
X110140000Y-102835000D01*
X110775000Y-97063000D02*
X111475000Y-97063000D01*
X111475000Y-98263000D02*
X110775000Y-98263000D01*
X121464500Y-60931500D02*
X122164500Y-60931500D01*
X122164500Y-62131500D02*
X121464500Y-62131500D01*
X105129251Y-91489777D02*
X104634277Y-91984751D01*
X103785749Y-91136223D02*
X104280723Y-90641249D01*
D12*
X96625019Y-89196209D02*
X95864879Y-88436070D01*
X107072522Y-98901250D02*
X106648258Y-98476986D01*
X96996250Y-108977522D02*
X96571986Y-108553258D01*
X86919978Y-98901250D02*
X87344242Y-99325514D01*
X96996250Y-88824978D02*
X97420514Y-89249242D01*
X86919978Y-98901250D02*
X87344242Y-98476986D01*
X96996250Y-108977522D02*
X97420514Y-108553258D01*
X107072522Y-98901250D02*
X106648258Y-99325514D01*
X96996250Y-88824978D02*
X96625019Y-89196209D01*
D11*
X115121500Y-101892000D02*
X114621500Y-101892000D01*
X114621500Y-102832000D02*
X115121500Y-102832000D01*
X111375000Y-98590000D02*
X110875000Y-98590000D01*
X110875000Y-99530000D02*
X111375000Y-99530000D01*
X110748000Y-100609500D02*
X111248000Y-100609500D01*
X111248000Y-99669500D02*
X110748000Y-99669500D01*
X113605500Y-92926000D02*
X114105500Y-92926000D01*
X114105500Y-91986000D02*
X113605500Y-91986000D01*
X127643000Y-90321500D02*
X128643000Y-90321500D01*
X128643000Y-88621500D02*
X127643000Y-88621500D01*
X129079500Y-53511000D02*
X129079500Y-56011000D01*
X131579500Y-53511000D02*
X129079500Y-53511000D01*
X136229500Y-59011000D02*
X133179500Y-59011000D01*
X136229500Y-56061000D02*
X136229500Y-59011000D01*
X136979500Y-56061000D02*
X136229500Y-56061000D01*
X130129500Y-59011000D02*
X133179500Y-59011000D01*
X130129500Y-56061000D02*
X130129500Y-59011000D01*
X129379500Y-56061000D02*
X130129500Y-56061000D01*
X136979500Y-53811000D02*
X135179500Y-53811000D01*
X136979500Y-54561000D02*
X136979500Y-53811000D01*
X135179500Y-54561000D02*
X136979500Y-54561000D01*
X135179500Y-53811000D02*
X135179500Y-54561000D01*
X131179500Y-53811000D02*
X129379500Y-53811000D01*
X131179500Y-54561000D02*
X131179500Y-53811000D01*
X129379500Y-54561000D02*
X131179500Y-54561000D01*
X129379500Y-53811000D02*
X129379500Y-54561000D01*
X133679500Y-53811000D02*
X132679500Y-53811000D01*
X133679500Y-54561000D02*
X133679500Y-53811000D01*
X132679500Y-54561000D02*
X133679500Y-54561000D01*
X132679500Y-53811000D02*
X132679500Y-54561000D01*
X136979500Y-53811000D02*
X129379500Y-53811000D01*
X136979500Y-59761000D02*
X136979500Y-53811000D01*
X129379500Y-59761000D02*
X136979500Y-59761000D01*
X129379500Y-53811000D02*
X129379500Y-59761000D01*
X123927500Y-83604500D02*
X123927500Y-80454500D01*
X125627500Y-83604500D02*
X125627500Y-80454500D01*
X123927500Y-83604500D02*
X125627500Y-83604500D01*
X108720886Y-88900279D02*
X108013779Y-89607386D01*
X107052114Y-88645721D02*
X107759221Y-87938614D01*
X112657886Y-86677779D02*
X111950779Y-87384886D01*
X110989114Y-86423221D02*
X111696221Y-85716114D01*
X126055500Y-100031000D02*
X127055500Y-100031000D01*
X127055500Y-101391000D02*
X126055500Y-101391000D01*
X127393000Y-95987500D02*
X126393000Y-95987500D01*
X126393000Y-97687500D02*
X127393000Y-97687500D01*
D12*
X120338000Y-58061000D02*
X119588000Y-58061000D01*
D13*
X123088000Y-52561000D02*
X123088000Y-57061000D01*
X123088000Y-57061000D02*
X123088000Y-57561000D01*
X123088000Y-57561000D02*
X114088000Y-57561000D01*
X114088000Y-57561000D02*
X114088000Y-52561000D01*
D14*
X87124794Y-131682490D02*
G75*
G03X87124794Y-131682490I-707644J0D01*
G01*
X85667850Y-127181610D02*
X84916010Y-127181610D01*
X85667850Y-125182630D02*
X84916010Y-125182630D01*
X106165650Y-127433070D02*
X106917490Y-127433070D01*
X106165650Y-125431550D02*
X106917490Y-125431550D01*
X106119930Y-125431550D02*
G75*
G03X106119930Y-127433070I1000760J-1000760D01*
G01*
X85713570Y-127184150D02*
G75*
G03X85713570Y-125182630I-1000760J1000760D01*
G01*
X84816950Y-133762750D02*
X85266530Y-133762750D01*
X107016550Y-133762750D02*
X106566970Y-133762750D01*
X107016550Y-123602750D02*
X106566970Y-123602750D01*
X84816950Y-123602750D02*
X85266530Y-123602750D01*
X84806790Y-123602750D02*
X84806790Y-133762750D01*
X107026710Y-123602750D02*
X107026710Y-133762750D01*
D11*
X97857000Y-54670000D02*
X97857000Y-53340000D01*
X99187000Y-54670000D02*
X97857000Y-54670000D01*
X100457000Y-52010000D02*
X100457000Y-54670000D01*
X108137000Y-52010000D02*
X100457000Y-52010000D01*
X108137000Y-54670000D02*
X108137000Y-52010000D01*
X100457000Y-54670000D02*
X108137000Y-54670000D01*
X126876500Y-73783500D02*
X126876500Y-72453500D01*
X128206500Y-73783500D02*
X126876500Y-73783500D01*
X129476500Y-71123500D02*
X129476500Y-73783500D01*
X132076500Y-71123500D02*
X129476500Y-71123500D01*
X132076500Y-73783500D02*
X132076500Y-71123500D01*
X129476500Y-73783500D02*
X132076500Y-73783500D01*
D12*
X121285000Y-96964500D02*
G75*
G03X121285000Y-96964500I-2540000J0D01*
G01*
X119761000Y-99504500D02*
X118745000Y-99504500D01*
X122047000Y-98488500D02*
X119761000Y-99504500D01*
X122047000Y-95440500D02*
X122047000Y-98488500D01*
X119761000Y-94424500D02*
X122047000Y-95440500D01*
X117729000Y-94424500D02*
X119761000Y-94424500D01*
X115443000Y-95440500D02*
X117729000Y-94424500D01*
X115443000Y-98488500D02*
X115443000Y-95440500D01*
X117729000Y-99504500D02*
X115443000Y-98488500D01*
X118745000Y-99504500D02*
X117729000Y-99504500D01*
D11*
X113669000Y-94005500D02*
X114169000Y-94005500D01*
X114169000Y-93065500D02*
X113669000Y-93065500D01*
X111248000Y-100558500D02*
X110748000Y-100558500D01*
X110748000Y-101498500D02*
X111248000Y-101498500D01*
X110875000Y-98895000D02*
X111375000Y-98895000D01*
X111375000Y-97955000D02*
X110875000Y-97955000D01*
X119265000Y-89891500D02*
X118265000Y-89891500D01*
X118265000Y-91591500D02*
X119265000Y-91591500D01*
X126876500Y-69211500D02*
X126876500Y-67881500D01*
X128206500Y-69211500D02*
X126876500Y-69211500D01*
X129476500Y-66551500D02*
X129476500Y-69211500D01*
X132076500Y-66551500D02*
X129476500Y-66551500D01*
X132076500Y-69211500D02*
X132076500Y-66551500D01*
X129476500Y-69211500D02*
X132076500Y-69211500D01*
X121519500Y-103603500D02*
X121519500Y-102073500D01*
X121519500Y-102073500D02*
X123429500Y-102073500D01*
X121519500Y-115983500D02*
X121519500Y-116303500D01*
X121519500Y-116303500D02*
X122029500Y-116303500D01*
X138029500Y-103913500D02*
X138029500Y-106143500D01*
X138029500Y-115153500D02*
X138029500Y-113313500D01*
X70481500Y-129663500D02*
X69151500Y-129663500D01*
X70481500Y-128333500D02*
X70481500Y-129663500D01*
X67821500Y-127063500D02*
X70481500Y-127063500D01*
X67821500Y-53343500D02*
X67821500Y-127063500D01*
X70481500Y-53343500D02*
X67821500Y-53343500D01*
X70481500Y-127063500D02*
X70481500Y-53343500D01*
X86134563Y-103760117D02*
X86488117Y-103406563D01*
X85823437Y-102741883D02*
X85469883Y-103095437D01*
X80197000Y-137735000D02*
X80197000Y-139065000D01*
X78867000Y-137735000D02*
X80197000Y-137735000D01*
X77597000Y-140395000D02*
X77597000Y-137735000D01*
X67377000Y-140395000D02*
X77597000Y-140395000D01*
X67377000Y-137735000D02*
X67377000Y-140395000D01*
X77597000Y-137735000D02*
X67377000Y-137735000D01*
X105635437Y-78230883D02*
X105281883Y-78584437D01*
X105946563Y-79249117D02*
X106300117Y-78895563D01*
X92208250Y-119003000D02*
X92208250Y-119503000D01*
X93148250Y-119503000D02*
X93148250Y-119003000D01*
X96145250Y-138592750D02*
X96145250Y-139092750D01*
X97085250Y-139092750D02*
X97085250Y-138592750D01*
X106483250Y-139283250D02*
X106483250Y-138783250D01*
X105543250Y-138783250D02*
X105543250Y-139283250D01*
X94049750Y-138465750D02*
X94049750Y-138965750D01*
X94989750Y-138965750D02*
X94989750Y-138465750D01*
X91116250Y-139029250D02*
X91116250Y-138529250D01*
X90176250Y-138529250D02*
X90176250Y-139029250D01*
X96651000Y-117373500D02*
X97151000Y-117373500D01*
X97151000Y-116433500D02*
X96651000Y-116433500D01*
X107534063Y-94552617D02*
X107887617Y-94199063D01*
X107222937Y-93534383D02*
X106869383Y-93887937D01*
X91024063Y-108268617D02*
X91377617Y-107915063D01*
X90712937Y-107250383D02*
X90359383Y-107603937D01*
X88426937Y-105027883D02*
X88073383Y-105381437D01*
X88738063Y-106046117D02*
X89091617Y-105692563D01*
X105565563Y-92965117D02*
X105919117Y-92611563D01*
X105254437Y-91946883D02*
X104900883Y-92300437D01*
X102170383Y-90706563D02*
X102523937Y-91060117D01*
X103188617Y-90395437D02*
X102835063Y-90041883D01*
X102898563Y-82297117D02*
X103252117Y-81943563D01*
X102587437Y-81278883D02*
X102233883Y-81632437D01*
X85032750Y-138529250D02*
X85032750Y-139029250D01*
X85972750Y-139029250D02*
X85972750Y-138529250D01*
X88303000Y-118876000D02*
X88303000Y-119376000D01*
X89243000Y-119376000D02*
X89243000Y-118876000D01*
X94174500Y-119215000D02*
X94674500Y-119215000D01*
X94674500Y-118275000D02*
X94174500Y-118275000D01*
X116538000Y-70402500D02*
X115038000Y-70402500D01*
X112538000Y-71652500D02*
X112538000Y-76152500D01*
X115038000Y-77402500D02*
X116538000Y-77402500D01*
X119038000Y-76152500D02*
X119038000Y-71652500D01*
X111196500Y-106958500D02*
X112196500Y-106958500D01*
X112196500Y-105258500D02*
X111196500Y-105258500D01*
X110673987Y-92140594D02*
X111381094Y-91433487D01*
X110179013Y-90231406D02*
X109471906Y-90938513D01*
X114562000Y-101688000D02*
X115562000Y-101688000D01*
X115562000Y-99988000D02*
X114562000Y-99988000D01*
X94781000Y-83681000D02*
X94781000Y-84681000D01*
X96481000Y-84681000D02*
X96481000Y-83681000D01*
X102176474Y-84308137D02*
G75*
G03X105747362Y-87879027I1785444J-1785445D01*
G01*
X106701956Y-79782655D02*
G75*
G02X110272846Y-83353543I1785445J-1785444D01*
G01*
X106701957Y-79782654D02*
X102176473Y-84308138D01*
X110272846Y-83353543D02*
X105747362Y-87879027D01*
X135727500Y-96773500D02*
X135727500Y-96454500D01*
X135727500Y-99252500D02*
X135727500Y-98933500D01*
X131984787Y-96772539D02*
G75*
G02X135350830Y-96773500I1682713J-1080961D01*
G01*
X131984787Y-98934461D02*
G75*
G03X135350830Y-98933500I1682713J1080961D01*
G01*
X131424258Y-96772776D02*
G75*
G02X135727500Y-96454751I2243242J-1080724D01*
G01*
X131424258Y-98934224D02*
G75*
G03X135727500Y-99252249I2243242J1080724D01*
G01*
X88896500Y-52010000D02*
X88896500Y-53340000D01*
X87566500Y-52010000D02*
X88896500Y-52010000D01*
X86296500Y-54670000D02*
X86296500Y-52010000D01*
X78616500Y-54670000D02*
X86296500Y-54670000D01*
X78616500Y-52010000D02*
X78616500Y-54670000D01*
X86296500Y-52010000D02*
X78616500Y-52010000D01*
D12*
X108509380Y-61609095D02*
X107509380Y-61609095D01*
X107509380Y-61371000D01*
X107557000Y-61228142D01*
X107652238Y-61132904D01*
X107747476Y-61085285D01*
X107937952Y-61037666D01*
X108080809Y-61037666D01*
X108271285Y-61085285D01*
X108366523Y-61132904D01*
X108461761Y-61228142D01*
X108509380Y-61371000D01*
X108509380Y-61609095D01*
X107509380Y-60704333D02*
X107509380Y-60085285D01*
X107890333Y-60418619D01*
X107890333Y-60275761D01*
X107937952Y-60180523D01*
X107985571Y-60132904D01*
X108080809Y-60085285D01*
X108318904Y-60085285D01*
X108414142Y-60132904D01*
X108461761Y-60180523D01*
X108509380Y-60275761D01*
X108509380Y-60561476D01*
X108461761Y-60656714D01*
X108414142Y-60704333D01*
X108772880Y-66016166D02*
X108296690Y-66349500D01*
X108772880Y-66587595D02*
X107772880Y-66587595D01*
X107772880Y-66206642D01*
X107820500Y-66111404D01*
X107868119Y-66063785D01*
X107963357Y-66016166D01*
X108106214Y-66016166D01*
X108201452Y-66063785D01*
X108249071Y-66111404D01*
X108296690Y-66206642D01*
X108296690Y-66587595D01*
X107772880Y-65682833D02*
X107772880Y-65016166D01*
X108772880Y-65444738D01*
X114768333Y-59771880D02*
X114435000Y-59295690D01*
X114196904Y-59771880D02*
X114196904Y-58771880D01*
X114577857Y-58771880D01*
X114673095Y-58819500D01*
X114720714Y-58867119D01*
X114768333Y-58962357D01*
X114768333Y-59105214D01*
X114720714Y-59200452D01*
X114673095Y-59248071D01*
X114577857Y-59295690D01*
X114196904Y-59295690D01*
X115625476Y-58771880D02*
X115435000Y-58771880D01*
X115339761Y-58819500D01*
X115292142Y-58867119D01*
X115196904Y-59009976D01*
X115149285Y-59200452D01*
X115149285Y-59581404D01*
X115196904Y-59676642D01*
X115244523Y-59724261D01*
X115339761Y-59771880D01*
X115530238Y-59771880D01*
X115625476Y-59724261D01*
X115673095Y-59676642D01*
X115720714Y-59581404D01*
X115720714Y-59343309D01*
X115673095Y-59248071D01*
X115625476Y-59200452D01*
X115530238Y-59152833D01*
X115339761Y-59152833D01*
X115244523Y-59200452D01*
X115196904Y-59248071D01*
X115149285Y-59343309D01*
D15*
X134945361Y-76587047D02*
X134945361Y-75380547D01*
X135404980Y-75380547D01*
X135519885Y-75438000D01*
X135577338Y-75495452D01*
X135634790Y-75610357D01*
X135634790Y-75782714D01*
X135577338Y-75897619D01*
X135519885Y-75955071D01*
X135404980Y-76012523D01*
X134945361Y-76012523D01*
X136783838Y-76587047D02*
X136094409Y-76587047D01*
X136439123Y-76587047D02*
X136439123Y-75380547D01*
X136324219Y-75552904D01*
X136209314Y-75667809D01*
X136094409Y-75725261D01*
D12*
X133649357Y-78349928D02*
X133649357Y-76825928D01*
X134229928Y-76825928D01*
X134375071Y-76898500D01*
X134447642Y-76971071D01*
X134520214Y-77116214D01*
X134520214Y-77333928D01*
X134447642Y-77479071D01*
X134375071Y-77551642D01*
X134229928Y-77624214D01*
X133649357Y-77624214D01*
X135826500Y-77333928D02*
X135826500Y-78349928D01*
X135463642Y-76753357D02*
X135100785Y-77841928D01*
X136044214Y-77841928D01*
X136479642Y-77333928D02*
X136842500Y-78349928D01*
X137205357Y-77333928D01*
X137713357Y-76971071D02*
X137785928Y-76898500D01*
X137931071Y-76825928D01*
X138293928Y-76825928D01*
X138439071Y-76898500D01*
X138511642Y-76971071D01*
X138584214Y-77116214D01*
X138584214Y-77261357D01*
X138511642Y-77479071D01*
X137640785Y-78349928D01*
X138584214Y-78349928D01*
D15*
X134308547Y-88701638D02*
X133102047Y-88701638D01*
X133102047Y-88242019D01*
X133159500Y-88127114D01*
X133216952Y-88069661D01*
X133331857Y-88012209D01*
X133504214Y-88012209D01*
X133619119Y-88069661D01*
X133676571Y-88127114D01*
X133734023Y-88242019D01*
X133734023Y-88701638D01*
X133216952Y-87552590D02*
X133159500Y-87495138D01*
X133102047Y-87380233D01*
X133102047Y-87092971D01*
X133159500Y-86978066D01*
X133216952Y-86920614D01*
X133331857Y-86863161D01*
X133446761Y-86863161D01*
X133619119Y-86920614D01*
X134308547Y-87610042D01*
X134308547Y-86863161D01*
D12*
X132705928Y-89453357D02*
X132705928Y-90324214D01*
X132705928Y-89888785D02*
X131181928Y-89888785D01*
X131399642Y-90033928D01*
X131544785Y-90179071D01*
X131617357Y-90324214D01*
X131689928Y-88945357D02*
X132705928Y-88582500D01*
X131689928Y-88219642D01*
X131327071Y-87711642D02*
X131254500Y-87639071D01*
X131181928Y-87493928D01*
X131181928Y-87131071D01*
X131254500Y-86985928D01*
X131327071Y-86913357D01*
X131472214Y-86840785D01*
X131617357Y-86840785D01*
X131835071Y-86913357D01*
X132705928Y-87784214D01*
X132705928Y-86840785D01*
D15*
X134245047Y-82605638D02*
X133038547Y-82605638D01*
X133038547Y-82146019D01*
X133096000Y-82031114D01*
X133153452Y-81973661D01*
X133268357Y-81916209D01*
X133440714Y-81916209D01*
X133555619Y-81973661D01*
X133613071Y-82031114D01*
X133670523Y-82146019D01*
X133670523Y-82605638D01*
X133440714Y-80882066D02*
X134245047Y-80882066D01*
X132981095Y-81169328D02*
X133842880Y-81456590D01*
X133842880Y-80709709D01*
D12*
X130946071Y-82958214D02*
X130873500Y-82885642D01*
X130800928Y-82740500D01*
X130800928Y-82377642D01*
X130873500Y-82232500D01*
X130946071Y-82159928D01*
X131091214Y-82087357D01*
X131236357Y-82087357D01*
X131454071Y-82159928D01*
X132324928Y-83030785D01*
X132324928Y-82087357D01*
X131308928Y-81579357D02*
X132324928Y-81216500D01*
X131308928Y-80853642D01*
X130800928Y-79547357D02*
X130800928Y-80273071D01*
X131526642Y-80345642D01*
X131454071Y-80273071D01*
X131381500Y-80127928D01*
X131381500Y-79765071D01*
X131454071Y-79619928D01*
X131526642Y-79547357D01*
X131671785Y-79474785D01*
X132034642Y-79474785D01*
X132179785Y-79547357D01*
X132252357Y-79619928D01*
X132324928Y-79765071D01*
X132324928Y-80127928D01*
X132252357Y-80273071D01*
X132179785Y-80345642D01*
D15*
X131262361Y-93160547D02*
X131262361Y-91954047D01*
X131721980Y-91954047D01*
X131836885Y-92011500D01*
X131894338Y-92068952D01*
X131951790Y-92183857D01*
X131951790Y-92356214D01*
X131894338Y-92471119D01*
X131836885Y-92528571D01*
X131721980Y-92586023D01*
X131262361Y-92586023D01*
X133043385Y-91954047D02*
X132468861Y-91954047D01*
X132411409Y-92528571D01*
X132468861Y-92471119D01*
X132583766Y-92413666D01*
X132871028Y-92413666D01*
X132985933Y-92471119D01*
X133043385Y-92528571D01*
X133100838Y-92643476D01*
X133100838Y-92930738D01*
X133043385Y-93045642D01*
X132985933Y-93103095D01*
X132871028Y-93160547D01*
X132583766Y-93160547D01*
X132468861Y-93103095D01*
X132411409Y-93045642D01*
D12*
X133504214Y-91557928D02*
X134447642Y-91557928D01*
X133939642Y-92138500D01*
X134157357Y-92138500D01*
X134302500Y-92211071D01*
X134375071Y-92283642D01*
X134447642Y-92428785D01*
X134447642Y-92791642D01*
X134375071Y-92936785D01*
X134302500Y-93009357D01*
X134157357Y-93081928D01*
X133721928Y-93081928D01*
X133576785Y-93009357D01*
X133504214Y-92936785D01*
X134955642Y-92065928D02*
X135318500Y-93081928D01*
X135681357Y-92065928D01*
X136116785Y-91557928D02*
X137060214Y-91557928D01*
X136552214Y-92138500D01*
X136769928Y-92138500D01*
X136915071Y-92211071D01*
X136987642Y-92283642D01*
X137060214Y-92428785D01*
X137060214Y-92791642D01*
X136987642Y-92936785D01*
X136915071Y-93009357D01*
X136769928Y-93081928D01*
X136334500Y-93081928D01*
X136189357Y-93009357D01*
X136116785Y-92936785D01*
D15*
X134118047Y-85907638D02*
X132911547Y-85907638D01*
X132911547Y-85448019D01*
X132969000Y-85333114D01*
X133026452Y-85275661D01*
X133141357Y-85218209D01*
X133313714Y-85218209D01*
X133428619Y-85275661D01*
X133486071Y-85333114D01*
X133543523Y-85448019D01*
X133543523Y-85907638D01*
X132911547Y-84816042D02*
X132911547Y-84069161D01*
X133371166Y-84471328D01*
X133371166Y-84298971D01*
X133428619Y-84184066D01*
X133486071Y-84126614D01*
X133600976Y-84069161D01*
X133888238Y-84069161D01*
X134003142Y-84126614D01*
X134060595Y-84184066D01*
X134118047Y-84298971D01*
X134118047Y-84643685D01*
X134060595Y-84758590D01*
X134003142Y-84816042D01*
D12*
X137531928Y-91839142D02*
X139055928Y-91331142D01*
X137531928Y-90823142D01*
X139055928Y-90315142D02*
X137531928Y-90315142D01*
X137531928Y-89952285D01*
X137604500Y-89734571D01*
X137749642Y-89589428D01*
X137894785Y-89516857D01*
X138185071Y-89444285D01*
X138402785Y-89444285D01*
X138693071Y-89516857D01*
X138838214Y-89589428D01*
X138983357Y-89734571D01*
X139055928Y-89952285D01*
X139055928Y-90315142D01*
X139055928Y-88791142D02*
X137531928Y-88791142D01*
X137531928Y-88428285D01*
X137604500Y-88210571D01*
X137749642Y-88065428D01*
X137894785Y-87992857D01*
X138185071Y-87920285D01*
X138402785Y-87920285D01*
X138693071Y-87992857D01*
X138838214Y-88065428D01*
X138983357Y-88210571D01*
X139055928Y-88428285D01*
X139055928Y-88791142D01*
X138620500Y-87339714D02*
X138620500Y-86614000D01*
X139055928Y-87484857D02*
X137531928Y-86976857D01*
X139055928Y-86468857D01*
X139055928Y-85162571D02*
X139055928Y-86033428D01*
X139055928Y-85598000D02*
X137531928Y-85598000D01*
X137749642Y-85743142D01*
X137894785Y-85888285D01*
X137967357Y-86033428D01*
X138039928Y-84654571D02*
X139055928Y-84291714D01*
X138039928Y-83928857D01*
X138185071Y-83130571D02*
X138112500Y-83275714D01*
X138039928Y-83348285D01*
X137894785Y-83420857D01*
X137822214Y-83420857D01*
X137677071Y-83348285D01*
X137604500Y-83275714D01*
X137531928Y-83130571D01*
X137531928Y-82840285D01*
X137604500Y-82695142D01*
X137677071Y-82622571D01*
X137822214Y-82550000D01*
X137894785Y-82550000D01*
X138039928Y-82622571D01*
X138112500Y-82695142D01*
X138185071Y-82840285D01*
X138185071Y-83130571D01*
X138257642Y-83275714D01*
X138330214Y-83348285D01*
X138475357Y-83420857D01*
X138765642Y-83420857D01*
X138910785Y-83348285D01*
X138983357Y-83275714D01*
X139055928Y-83130571D01*
X139055928Y-82840285D01*
X138983357Y-82695142D01*
X138910785Y-82622571D01*
X138765642Y-82550000D01*
X138475357Y-82550000D01*
X138330214Y-82622571D01*
X138257642Y-82695142D01*
X138185071Y-82840285D01*
X88392419Y-90276443D02*
X88325075Y-90276443D01*
X88190388Y-90209099D01*
X88123045Y-90141756D01*
X88055701Y-90007069D01*
X88055701Y-89872382D01*
X88089373Y-89771367D01*
X88190388Y-89603008D01*
X88291403Y-89501993D01*
X88459762Y-89400977D01*
X88560777Y-89367306D01*
X88695464Y-89367306D01*
X88830151Y-89434649D01*
X88897495Y-89501993D01*
X88964838Y-89636680D01*
X88964838Y-89704023D01*
X88998510Y-91017222D02*
X88594449Y-90613161D01*
X88796480Y-90815191D02*
X89503587Y-90108084D01*
X89335228Y-90141756D01*
X89200541Y-90141756D01*
X89099526Y-90108084D01*
X89907648Y-90646832D02*
X89974991Y-90646832D01*
X90076006Y-90680504D01*
X90244365Y-90848863D01*
X90278037Y-90949878D01*
X90278037Y-91017222D01*
X90244365Y-91118237D01*
X90177022Y-91185580D01*
X90042335Y-91252924D01*
X89234213Y-91252924D01*
X89671945Y-91690657D01*
X112958642Y-104116142D02*
X112911023Y-104163761D01*
X112768166Y-104211380D01*
X112672928Y-104211380D01*
X112530071Y-104163761D01*
X112434833Y-104068523D01*
X112387214Y-103973285D01*
X112339595Y-103782809D01*
X112339595Y-103639952D01*
X112387214Y-103449476D01*
X112434833Y-103354238D01*
X112530071Y-103259000D01*
X112672928Y-103211380D01*
X112768166Y-103211380D01*
X112911023Y-103259000D01*
X112958642Y-103306619D01*
X113815785Y-103544714D02*
X113815785Y-104211380D01*
X113577690Y-103163761D02*
X113339595Y-103878047D01*
X113958642Y-103878047D01*
X114530071Y-103211380D02*
X114625309Y-103211380D01*
X114720547Y-103259000D01*
X114768166Y-103306619D01*
X114815785Y-103401857D01*
X114863404Y-103592333D01*
X114863404Y-103830428D01*
X114815785Y-104020904D01*
X114768166Y-104116142D01*
X114720547Y-104163761D01*
X114625309Y-104211380D01*
X114530071Y-104211380D01*
X114434833Y-104163761D01*
X114387214Y-104116142D01*
X114339595Y-104020904D01*
X114291976Y-103830428D01*
X114291976Y-103592333D01*
X114339595Y-103401857D01*
X114387214Y-103306619D01*
X114434833Y-103259000D01*
X114530071Y-103211380D01*
X113022142Y-105005142D02*
X112974523Y-105052761D01*
X112831666Y-105100380D01*
X112736428Y-105100380D01*
X112593571Y-105052761D01*
X112498333Y-104957523D01*
X112450714Y-104862285D01*
X112403095Y-104671809D01*
X112403095Y-104528952D01*
X112450714Y-104338476D01*
X112498333Y-104243238D01*
X112593571Y-104148000D01*
X112736428Y-104100380D01*
X112831666Y-104100380D01*
X112974523Y-104148000D01*
X113022142Y-104195619D01*
X113355476Y-104100380D02*
X113974523Y-104100380D01*
X113641190Y-104481333D01*
X113784047Y-104481333D01*
X113879285Y-104528952D01*
X113926904Y-104576571D01*
X113974523Y-104671809D01*
X113974523Y-104909904D01*
X113926904Y-105005142D01*
X113879285Y-105052761D01*
X113784047Y-105100380D01*
X113498333Y-105100380D01*
X113403095Y-105052761D01*
X113355476Y-105005142D01*
X114450714Y-105100380D02*
X114641190Y-105100380D01*
X114736428Y-105052761D01*
X114784047Y-105005142D01*
X114879285Y-104862285D01*
X114926904Y-104671809D01*
X114926904Y-104290857D01*
X114879285Y-104195619D01*
X114831666Y-104148000D01*
X114736428Y-104100380D01*
X114545952Y-104100380D01*
X114450714Y-104148000D01*
X114403095Y-104195619D01*
X114355476Y-104290857D01*
X114355476Y-104528952D01*
X114403095Y-104624190D01*
X114450714Y-104671809D01*
X114545952Y-104719428D01*
X114736428Y-104719428D01*
X114831666Y-104671809D01*
X114879285Y-104624190D01*
X114926904Y-104528952D01*
X96416833Y-117747380D02*
X96083500Y-117271190D01*
X95845404Y-117747380D02*
X95845404Y-116747380D01*
X96226357Y-116747380D01*
X96321595Y-116795000D01*
X96369214Y-116842619D01*
X96416833Y-116937857D01*
X96416833Y-117080714D01*
X96369214Y-117175952D01*
X96321595Y-117223571D01*
X96226357Y-117271190D01*
X95845404Y-117271190D01*
X96750166Y-116747380D02*
X97369214Y-116747380D01*
X97035880Y-117128333D01*
X97178738Y-117128333D01*
X97273976Y-117175952D01*
X97321595Y-117223571D01*
X97369214Y-117318809D01*
X97369214Y-117556904D01*
X97321595Y-117652142D01*
X97273976Y-117699761D01*
X97178738Y-117747380D01*
X96893023Y-117747380D01*
X96797785Y-117699761D01*
X96750166Y-117652142D01*
X94384833Y-118869380D02*
X94051500Y-118393190D01*
X93813404Y-118869380D02*
X93813404Y-117869380D01*
X94194357Y-117869380D01*
X94289595Y-117917000D01*
X94337214Y-117964619D01*
X94384833Y-118059857D01*
X94384833Y-118202714D01*
X94337214Y-118297952D01*
X94289595Y-118345571D01*
X94194357Y-118393190D01*
X93813404Y-118393190D01*
X94765785Y-117964619D02*
X94813404Y-117917000D01*
X94908642Y-117869380D01*
X95146738Y-117869380D01*
X95241976Y-117917000D01*
X95289595Y-117964619D01*
X95337214Y-118059857D01*
X95337214Y-118155095D01*
X95289595Y-118297952D01*
X94718166Y-118869380D01*
X95337214Y-118869380D01*
X110097468Y-89861106D02*
X110097468Y-89928450D01*
X110030124Y-90063137D01*
X109962781Y-90130480D01*
X109828094Y-90197824D01*
X109693407Y-90197824D01*
X109592392Y-90164152D01*
X109424033Y-90063137D01*
X109323018Y-89962122D01*
X109222002Y-89793763D01*
X109188331Y-89692748D01*
X109188331Y-89558061D01*
X109255674Y-89423374D01*
X109323018Y-89356030D01*
X109457705Y-89288687D01*
X109525048Y-89288687D01*
X109794422Y-89019312D02*
X109794422Y-88951969D01*
X109828094Y-88850954D01*
X109996453Y-88682595D01*
X110097468Y-88648923D01*
X110164811Y-88648923D01*
X110265827Y-88682595D01*
X110333170Y-88749938D01*
X110400514Y-88884625D01*
X110400514Y-89692748D01*
X110838247Y-89255015D01*
X110972934Y-88177519D02*
X111444338Y-88648923D01*
X110535201Y-88076503D02*
X110871918Y-88749938D01*
X111309651Y-88312206D01*
X106799142Y-102782642D02*
X106751523Y-102830261D01*
X106608666Y-102877880D01*
X106513428Y-102877880D01*
X106370571Y-102830261D01*
X106275333Y-102735023D01*
X106227714Y-102639785D01*
X106180095Y-102449309D01*
X106180095Y-102306452D01*
X106227714Y-102115976D01*
X106275333Y-102020738D01*
X106370571Y-101925500D01*
X106513428Y-101877880D01*
X106608666Y-101877880D01*
X106751523Y-101925500D01*
X106799142Y-101973119D01*
X107132476Y-101877880D02*
X107751523Y-101877880D01*
X107418190Y-102258833D01*
X107561047Y-102258833D01*
X107656285Y-102306452D01*
X107703904Y-102354071D01*
X107751523Y-102449309D01*
X107751523Y-102687404D01*
X107703904Y-102782642D01*
X107656285Y-102830261D01*
X107561047Y-102877880D01*
X107275333Y-102877880D01*
X107180095Y-102830261D01*
X107132476Y-102782642D01*
X108084857Y-101877880D02*
X108751523Y-101877880D01*
X108322952Y-102877880D01*
X108831142Y-96750142D02*
X108783523Y-96797761D01*
X108640666Y-96845380D01*
X108545428Y-96845380D01*
X108402571Y-96797761D01*
X108307333Y-96702523D01*
X108259714Y-96607285D01*
X108212095Y-96416809D01*
X108212095Y-96273952D01*
X108259714Y-96083476D01*
X108307333Y-95988238D01*
X108402571Y-95893000D01*
X108545428Y-95845380D01*
X108640666Y-95845380D01*
X108783523Y-95893000D01*
X108831142Y-95940619D01*
X109164476Y-95845380D02*
X109783523Y-95845380D01*
X109450190Y-96226333D01*
X109593047Y-96226333D01*
X109688285Y-96273952D01*
X109735904Y-96321571D01*
X109783523Y-96416809D01*
X109783523Y-96654904D01*
X109735904Y-96750142D01*
X109688285Y-96797761D01*
X109593047Y-96845380D01*
X109307333Y-96845380D01*
X109212095Y-96797761D01*
X109164476Y-96750142D01*
X110640666Y-95845380D02*
X110450190Y-95845380D01*
X110354952Y-95893000D01*
X110307333Y-95940619D01*
X110212095Y-96083476D01*
X110164476Y-96273952D01*
X110164476Y-96654904D01*
X110212095Y-96750142D01*
X110259714Y-96797761D01*
X110354952Y-96845380D01*
X110545428Y-96845380D01*
X110640666Y-96797761D01*
X110688285Y-96750142D01*
X110735904Y-96654904D01*
X110735904Y-96416809D01*
X110688285Y-96321571D01*
X110640666Y-96273952D01*
X110545428Y-96226333D01*
X110354952Y-96226333D01*
X110259714Y-96273952D01*
X110212095Y-96321571D01*
X110164476Y-96416809D01*
X121171642Y-60638642D02*
X121124023Y-60686261D01*
X120981166Y-60733880D01*
X120885928Y-60733880D01*
X120743071Y-60686261D01*
X120647833Y-60591023D01*
X120600214Y-60495785D01*
X120552595Y-60305309D01*
X120552595Y-60162452D01*
X120600214Y-59971976D01*
X120647833Y-59876738D01*
X120743071Y-59781500D01*
X120885928Y-59733880D01*
X120981166Y-59733880D01*
X121124023Y-59781500D01*
X121171642Y-59829119D01*
X121504976Y-59733880D02*
X122124023Y-59733880D01*
X121790690Y-60114833D01*
X121933547Y-60114833D01*
X122028785Y-60162452D01*
X122076404Y-60210071D01*
X122124023Y-60305309D01*
X122124023Y-60543404D01*
X122076404Y-60638642D01*
X122028785Y-60686261D01*
X121933547Y-60733880D01*
X121647833Y-60733880D01*
X121552595Y-60686261D01*
X121504976Y-60638642D01*
X122504976Y-59829119D02*
X122552595Y-59781500D01*
X122647833Y-59733880D01*
X122885928Y-59733880D01*
X122981166Y-59781500D01*
X123028785Y-59829119D01*
X123076404Y-59924357D01*
X123076404Y-60019595D01*
X123028785Y-60162452D01*
X122457357Y-60733880D01*
X123076404Y-60733880D01*
X105969969Y-89353106D02*
X105969969Y-89420450D01*
X105902625Y-89555137D01*
X105835282Y-89622480D01*
X105700595Y-89689824D01*
X105565908Y-89689824D01*
X105464893Y-89656152D01*
X105296534Y-89555137D01*
X105195519Y-89454122D01*
X105094503Y-89285763D01*
X105060832Y-89184748D01*
X105060832Y-89050061D01*
X105128175Y-88915374D01*
X105195519Y-88848030D01*
X105330206Y-88780687D01*
X105397549Y-88780687D01*
X106710748Y-88747015D02*
X106306687Y-89151076D01*
X106508717Y-88949045D02*
X105801610Y-88241938D01*
X105835282Y-88410297D01*
X105835282Y-88544984D01*
X105801610Y-88646000D01*
X106239343Y-87804206D02*
X106677076Y-87366473D01*
X106710748Y-87871549D01*
X106811763Y-87770534D01*
X106912778Y-87736862D01*
X106980122Y-87736862D01*
X107081137Y-87770534D01*
X107249496Y-87938893D01*
X107283167Y-88039908D01*
X107283167Y-88107251D01*
X107249496Y-88208267D01*
X107047465Y-88410297D01*
X106946450Y-88443969D01*
X106879106Y-88443969D01*
X102491479Y-92025478D02*
X103198586Y-91318371D01*
X103299601Y-92698913D02*
X103232257Y-92698913D01*
X103097570Y-92631570D01*
X103030227Y-92564226D01*
X102962883Y-92429539D01*
X102962883Y-92294852D01*
X102996555Y-92193837D01*
X103097570Y-92025478D01*
X103198586Y-91924463D01*
X103366944Y-91823448D01*
X103467960Y-91789776D01*
X103602647Y-91789776D01*
X103737334Y-91857119D01*
X103804677Y-91924463D01*
X103872021Y-92059150D01*
X103872021Y-92126493D01*
X103905693Y-93439692D02*
X103501632Y-93035631D01*
X103703662Y-93237661D02*
X104410769Y-92530555D01*
X104242410Y-92564226D01*
X104107723Y-92564226D01*
X104006708Y-92530555D01*
X118102142Y-101449142D02*
X118054523Y-101496761D01*
X117911666Y-101544380D01*
X117816428Y-101544380D01*
X117673571Y-101496761D01*
X117578333Y-101401523D01*
X117530714Y-101306285D01*
X117483095Y-101115809D01*
X117483095Y-100972952D01*
X117530714Y-100782476D01*
X117578333Y-100687238D01*
X117673571Y-100592000D01*
X117816428Y-100544380D01*
X117911666Y-100544380D01*
X118054523Y-100592000D01*
X118102142Y-100639619D01*
X118435476Y-100544380D02*
X119054523Y-100544380D01*
X118721190Y-100925333D01*
X118864047Y-100925333D01*
X118959285Y-100972952D01*
X119006904Y-101020571D01*
X119054523Y-101115809D01*
X119054523Y-101353904D01*
X119006904Y-101449142D01*
X118959285Y-101496761D01*
X118864047Y-101544380D01*
X118578333Y-101544380D01*
X118483095Y-101496761D01*
X118435476Y-101449142D01*
X119387857Y-100544380D02*
X120006904Y-100544380D01*
X119673571Y-100925333D01*
X119816428Y-100925333D01*
X119911666Y-100972952D01*
X119959285Y-101020571D01*
X120006904Y-101115809D01*
X120006904Y-101353904D01*
X119959285Y-101449142D01*
X119911666Y-101496761D01*
X119816428Y-101544380D01*
X119530714Y-101544380D01*
X119435476Y-101496761D01*
X119387857Y-101449142D01*
X108005642Y-99353642D02*
X107958023Y-99401261D01*
X107815166Y-99448880D01*
X107719928Y-99448880D01*
X107577071Y-99401261D01*
X107481833Y-99306023D01*
X107434214Y-99210785D01*
X107386595Y-99020309D01*
X107386595Y-98877452D01*
X107434214Y-98686976D01*
X107481833Y-98591738D01*
X107577071Y-98496500D01*
X107719928Y-98448880D01*
X107815166Y-98448880D01*
X107958023Y-98496500D01*
X108005642Y-98544119D01*
X108338976Y-98448880D02*
X108958023Y-98448880D01*
X108624690Y-98829833D01*
X108767547Y-98829833D01*
X108862785Y-98877452D01*
X108910404Y-98925071D01*
X108958023Y-99020309D01*
X108958023Y-99258404D01*
X108910404Y-99353642D01*
X108862785Y-99401261D01*
X108767547Y-99448880D01*
X108481833Y-99448880D01*
X108386595Y-99401261D01*
X108338976Y-99353642D01*
X109862785Y-98448880D02*
X109386595Y-98448880D01*
X109338976Y-98925071D01*
X109386595Y-98877452D01*
X109481833Y-98829833D01*
X109719928Y-98829833D01*
X109815166Y-98877452D01*
X109862785Y-98925071D01*
X109910404Y-99020309D01*
X109910404Y-99258404D01*
X109862785Y-99353642D01*
X109815166Y-99401261D01*
X109719928Y-99448880D01*
X109481833Y-99448880D01*
X109386595Y-99401261D01*
X109338976Y-99353642D01*
X112895142Y-99988642D02*
X112847523Y-100036261D01*
X112704666Y-100083880D01*
X112609428Y-100083880D01*
X112466571Y-100036261D01*
X112371333Y-99941023D01*
X112323714Y-99845785D01*
X112276095Y-99655309D01*
X112276095Y-99512452D01*
X112323714Y-99321976D01*
X112371333Y-99226738D01*
X112466571Y-99131500D01*
X112609428Y-99083880D01*
X112704666Y-99083880D01*
X112847523Y-99131500D01*
X112895142Y-99179119D01*
X113228476Y-99083880D02*
X113847523Y-99083880D01*
X113514190Y-99464833D01*
X113657047Y-99464833D01*
X113752285Y-99512452D01*
X113799904Y-99560071D01*
X113847523Y-99655309D01*
X113847523Y-99893404D01*
X113799904Y-99988642D01*
X113752285Y-100036261D01*
X113657047Y-100083880D01*
X113371333Y-100083880D01*
X113276095Y-100036261D01*
X113228476Y-99988642D01*
X114704666Y-99417214D02*
X114704666Y-100083880D01*
X114466571Y-99036261D02*
X114228476Y-99750547D01*
X114847523Y-99750547D01*
X113212642Y-91543142D02*
X113165023Y-91590761D01*
X113022166Y-91638380D01*
X112926928Y-91638380D01*
X112784071Y-91590761D01*
X112688833Y-91495523D01*
X112641214Y-91400285D01*
X112593595Y-91209809D01*
X112593595Y-91066952D01*
X112641214Y-90876476D01*
X112688833Y-90781238D01*
X112784071Y-90686000D01*
X112926928Y-90638380D01*
X113022166Y-90638380D01*
X113165023Y-90686000D01*
X113212642Y-90733619D01*
X113545976Y-90638380D02*
X114165023Y-90638380D01*
X113831690Y-91019333D01*
X113974547Y-91019333D01*
X114069785Y-91066952D01*
X114117404Y-91114571D01*
X114165023Y-91209809D01*
X114165023Y-91447904D01*
X114117404Y-91543142D01*
X114069785Y-91590761D01*
X113974547Y-91638380D01*
X113688833Y-91638380D01*
X113593595Y-91590761D01*
X113545976Y-91543142D01*
X115117404Y-91638380D02*
X114545976Y-91638380D01*
X114831690Y-91638380D02*
X114831690Y-90638380D01*
X114736452Y-90781238D01*
X114641214Y-90876476D01*
X114545976Y-90924095D01*
X127500142Y-88078642D02*
X127452523Y-88126261D01*
X127309666Y-88173880D01*
X127214428Y-88173880D01*
X127071571Y-88126261D01*
X126976333Y-88031023D01*
X126928714Y-87935785D01*
X126881095Y-87745309D01*
X126881095Y-87602452D01*
X126928714Y-87411976D01*
X126976333Y-87316738D01*
X127071571Y-87221500D01*
X127214428Y-87173880D01*
X127309666Y-87173880D01*
X127452523Y-87221500D01*
X127500142Y-87269119D01*
X127833476Y-87173880D02*
X128452523Y-87173880D01*
X128119190Y-87554833D01*
X128262047Y-87554833D01*
X128357285Y-87602452D01*
X128404904Y-87650071D01*
X128452523Y-87745309D01*
X128452523Y-87983404D01*
X128404904Y-88078642D01*
X128357285Y-88126261D01*
X128262047Y-88173880D01*
X127976333Y-88173880D01*
X127881095Y-88126261D01*
X127833476Y-88078642D01*
X129071571Y-87173880D02*
X129166809Y-87173880D01*
X129262047Y-87221500D01*
X129309666Y-87269119D01*
X129357285Y-87364357D01*
X129404904Y-87554833D01*
X129404904Y-87792928D01*
X129357285Y-87983404D01*
X129309666Y-88078642D01*
X129262047Y-88126261D01*
X129166809Y-88173880D01*
X129071571Y-88173880D01*
X128976333Y-88126261D01*
X128928714Y-88078642D01*
X128881095Y-87983404D01*
X128833476Y-87792928D01*
X128833476Y-87554833D01*
X128881095Y-87364357D01*
X128928714Y-87269119D01*
X128976333Y-87221500D01*
X129071571Y-87173880D01*
X132393785Y-52689571D02*
X132536642Y-52737190D01*
X132584261Y-52784809D01*
X132631880Y-52880047D01*
X132631880Y-53022904D01*
X132584261Y-53118142D01*
X132536642Y-53165761D01*
X132441404Y-53213380D01*
X132060452Y-53213380D01*
X132060452Y-52213380D01*
X132393785Y-52213380D01*
X132489023Y-52261000D01*
X132536642Y-52308619D01*
X132584261Y-52403857D01*
X132584261Y-52499095D01*
X132536642Y-52594333D01*
X132489023Y-52641952D01*
X132393785Y-52689571D01*
X132060452Y-52689571D01*
X132917595Y-52213380D02*
X133489023Y-52213380D01*
X133203309Y-53213380D02*
X133203309Y-52213380D01*
X134346166Y-53213380D02*
X133774738Y-53213380D01*
X134060452Y-53213380D02*
X134060452Y-52213380D01*
X133965214Y-52356238D01*
X133869976Y-52451476D01*
X133774738Y-52499095D01*
X123379880Y-82442595D02*
X122379880Y-82442595D01*
X122379880Y-82204500D01*
X122427500Y-82061642D01*
X122522738Y-81966404D01*
X122617976Y-81918785D01*
X122808452Y-81871166D01*
X122951309Y-81871166D01*
X123141785Y-81918785D01*
X123237023Y-81966404D01*
X123332261Y-82061642D01*
X123379880Y-82204500D01*
X123379880Y-82442595D01*
X122475119Y-81490214D02*
X122427500Y-81442595D01*
X122379880Y-81347357D01*
X122379880Y-81109261D01*
X122427500Y-81014023D01*
X122475119Y-80966404D01*
X122570357Y-80918785D01*
X122665595Y-80918785D01*
X122808452Y-80966404D01*
X123379880Y-81537833D01*
X123379880Y-80918785D01*
X108660030Y-86988232D02*
X108087610Y-86887217D01*
X108255969Y-87392293D02*
X107548862Y-86685187D01*
X107818236Y-86415812D01*
X107919251Y-86382141D01*
X107986595Y-86382141D01*
X108087610Y-86415812D01*
X108188625Y-86516828D01*
X108222297Y-86617843D01*
X108222297Y-86685187D01*
X108188625Y-86786202D01*
X107919251Y-87055576D01*
X108592687Y-85641362D02*
X108255969Y-85978080D01*
X108559015Y-86348469D01*
X108559015Y-86281125D01*
X108592687Y-86180110D01*
X108761045Y-86011751D01*
X108862061Y-85978080D01*
X108929404Y-85978080D01*
X109030419Y-86011751D01*
X109198778Y-86180110D01*
X109232450Y-86281125D01*
X109232450Y-86348469D01*
X109198778Y-86449484D01*
X109030419Y-86617843D01*
X108929404Y-86651515D01*
X108862061Y-86651515D01*
X114121030Y-84448232D02*
X113548610Y-84347217D01*
X113716969Y-84852293D02*
X113009862Y-84145187D01*
X113279236Y-83875812D01*
X113380251Y-83842141D01*
X113447595Y-83842141D01*
X113548610Y-83875812D01*
X113649625Y-83976828D01*
X113683297Y-84077843D01*
X113683297Y-84145187D01*
X113649625Y-84246202D01*
X113380251Y-84515576D01*
X114255717Y-83370736D02*
X114727122Y-83842141D01*
X113817984Y-83269721D02*
X114154702Y-83943156D01*
X114592435Y-83505423D01*
X123721833Y-100909380D02*
X123388500Y-100433190D01*
X123150404Y-100909380D02*
X123150404Y-99909380D01*
X123531357Y-99909380D01*
X123626595Y-99957000D01*
X123674214Y-100004619D01*
X123721833Y-100099857D01*
X123721833Y-100242714D01*
X123674214Y-100337952D01*
X123626595Y-100385571D01*
X123531357Y-100433190D01*
X123150404Y-100433190D01*
X124674214Y-100909380D02*
X124102785Y-100909380D01*
X124388500Y-100909380D02*
X124388500Y-99909380D01*
X124293261Y-100052238D01*
X124198023Y-100147476D01*
X124102785Y-100195095D01*
X126250142Y-98944642D02*
X126202523Y-98992261D01*
X126059666Y-99039880D01*
X125964428Y-99039880D01*
X125821571Y-98992261D01*
X125726333Y-98897023D01*
X125678714Y-98801785D01*
X125631095Y-98611309D01*
X125631095Y-98468452D01*
X125678714Y-98277976D01*
X125726333Y-98182738D01*
X125821571Y-98087500D01*
X125964428Y-98039880D01*
X126059666Y-98039880D01*
X126202523Y-98087500D01*
X126250142Y-98135119D01*
X126631095Y-98135119D02*
X126678714Y-98087500D01*
X126773952Y-98039880D01*
X127012047Y-98039880D01*
X127107285Y-98087500D01*
X127154904Y-98135119D01*
X127202523Y-98230357D01*
X127202523Y-98325595D01*
X127154904Y-98468452D01*
X126583476Y-99039880D01*
X127202523Y-99039880D01*
X127678714Y-99039880D02*
X127869190Y-99039880D01*
X127964428Y-98992261D01*
X128012047Y-98944642D01*
X128107285Y-98801785D01*
X128154904Y-98611309D01*
X128154904Y-98230357D01*
X128107285Y-98135119D01*
X128059666Y-98087500D01*
X127964428Y-98039880D01*
X127773952Y-98039880D01*
X127678714Y-98087500D01*
X127631095Y-98135119D01*
X127583476Y-98230357D01*
X127583476Y-98468452D01*
X127631095Y-98563690D01*
X127678714Y-98611309D01*
X127773952Y-98658928D01*
X127964428Y-98658928D01*
X128059666Y-98611309D01*
X128107285Y-98563690D01*
X128154904Y-98468452D01*
X118321333Y-53122904D02*
X118321333Y-53694333D01*
X118283238Y-53808619D01*
X118207047Y-53884809D01*
X118092761Y-53922904D01*
X118016571Y-53922904D01*
X119121333Y-53922904D02*
X118664190Y-53922904D01*
X118892761Y-53922904D02*
X118892761Y-53122904D01*
X118816571Y-53237190D01*
X118740380Y-53313380D01*
X118664190Y-53351476D01*
D14*
X95123302Y-128095647D02*
X95123302Y-127181247D01*
X95974807Y-128008561D02*
X95936102Y-128052104D01*
X95819988Y-128095647D01*
X95742578Y-128095647D01*
X95626464Y-128052104D01*
X95549054Y-127965018D01*
X95510350Y-127877932D01*
X95471645Y-127703761D01*
X95471645Y-127573132D01*
X95510350Y-127398961D01*
X95549054Y-127311875D01*
X95626464Y-127224790D01*
X95742578Y-127181247D01*
X95819988Y-127181247D01*
X95936102Y-127224790D01*
X95974807Y-127268332D01*
X96284445Y-127268332D02*
X96323150Y-127224790D01*
X96400559Y-127181247D01*
X96594083Y-127181247D01*
X96671492Y-127224790D01*
X96710197Y-127268332D01*
X96748902Y-127355418D01*
X96748902Y-127442504D01*
X96710197Y-127573132D01*
X96245740Y-128095647D01*
X96748902Y-128095647D01*
X89298235Y-130097167D02*
X89298235Y-129182767D01*
X89491759Y-129182767D01*
X89607873Y-129226310D01*
X89685283Y-129313395D01*
X89723988Y-129400481D01*
X89762692Y-129574652D01*
X89762692Y-129705281D01*
X89723988Y-129879452D01*
X89685283Y-129966538D01*
X89607873Y-130053624D01*
X89491759Y-130097167D01*
X89298235Y-130097167D01*
X90111035Y-130097167D02*
X90111035Y-129182767D01*
X90304559Y-129182767D01*
X90420673Y-129226310D01*
X90498083Y-129313395D01*
X90536788Y-129400481D01*
X90575492Y-129574652D01*
X90575492Y-129705281D01*
X90536788Y-129879452D01*
X90498083Y-129966538D01*
X90420673Y-130053624D01*
X90304559Y-130097167D01*
X90111035Y-130097167D01*
X91388292Y-130097167D02*
X91117359Y-129661738D01*
X90923835Y-130097167D02*
X90923835Y-129182767D01*
X91233473Y-129182767D01*
X91310883Y-129226310D01*
X91349588Y-129269852D01*
X91388292Y-129356938D01*
X91388292Y-129487567D01*
X91349588Y-129574652D01*
X91310883Y-129618195D01*
X91233473Y-129661738D01*
X90923835Y-129661738D01*
X91543111Y-130184252D02*
X92162388Y-130184252D01*
X92317207Y-130053624D02*
X92433321Y-130097167D01*
X92626845Y-130097167D01*
X92704254Y-130053624D01*
X92742959Y-130010081D01*
X92781664Y-129922995D01*
X92781664Y-129835910D01*
X92742959Y-129748824D01*
X92704254Y-129705281D01*
X92626845Y-129661738D01*
X92472026Y-129618195D01*
X92394616Y-129574652D01*
X92355911Y-129531110D01*
X92317207Y-129444024D01*
X92317207Y-129356938D01*
X92355911Y-129269852D01*
X92394616Y-129226310D01*
X92472026Y-129182767D01*
X92665550Y-129182767D01*
X92781664Y-129226310D01*
X93130007Y-130097167D02*
X93130007Y-129182767D01*
X93323530Y-129182767D01*
X93439645Y-129226310D01*
X93517054Y-129313395D01*
X93555759Y-129400481D01*
X93594464Y-129574652D01*
X93594464Y-129705281D01*
X93555759Y-129879452D01*
X93517054Y-129966538D01*
X93439645Y-130053624D01*
X93323530Y-130097167D01*
X93130007Y-130097167D01*
X94407264Y-130097167D02*
X94136330Y-129661738D01*
X93942807Y-130097167D02*
X93942807Y-129182767D01*
X94252445Y-129182767D01*
X94329854Y-129226310D01*
X94368559Y-129269852D01*
X94407264Y-129356938D01*
X94407264Y-129487567D01*
X94368559Y-129574652D01*
X94329854Y-129618195D01*
X94252445Y-129661738D01*
X93942807Y-129661738D01*
X94716902Y-129835910D02*
X95103950Y-129835910D01*
X94639492Y-130097167D02*
X94910426Y-129182767D01*
X95181359Y-130097167D01*
X95452292Y-130097167D02*
X95452292Y-129182767D01*
X95723226Y-129835910D01*
X95994159Y-129182767D01*
X95994159Y-130097167D01*
X96187683Y-130184252D02*
X96806959Y-130184252D01*
X97000483Y-130097167D02*
X97000483Y-129182767D01*
X97271416Y-129835910D01*
X97542350Y-129182767D01*
X97542350Y-130097167D01*
X97813283Y-129182767D02*
X98277740Y-129182767D01*
X98045511Y-130097167D02*
X98045511Y-129182767D01*
X98897016Y-129487567D02*
X98897016Y-130097167D01*
X98703492Y-129139224D02*
X98509969Y-129792367D01*
X99013130Y-129792367D01*
X99671111Y-129182767D02*
X99516292Y-129182767D01*
X99438883Y-129226310D01*
X99400178Y-129269852D01*
X99322769Y-129400481D01*
X99284064Y-129574652D01*
X99284064Y-129922995D01*
X99322769Y-130010081D01*
X99361473Y-130053624D01*
X99438883Y-130097167D01*
X99593702Y-130097167D01*
X99671111Y-130053624D01*
X99709816Y-130010081D01*
X99748521Y-129922995D01*
X99748521Y-129705281D01*
X99709816Y-129618195D01*
X99671111Y-129574652D01*
X99593702Y-129531110D01*
X99438883Y-129531110D01*
X99361473Y-129574652D01*
X99322769Y-129618195D01*
X99284064Y-129705281D01*
X99903340Y-130184252D02*
X100522616Y-130184252D01*
X100638730Y-130097167D02*
X101064483Y-129487567D01*
X100638730Y-129487567D02*
X101064483Y-130097167D01*
X101799873Y-130097167D02*
X101335416Y-130097167D01*
X101567645Y-130097167D02*
X101567645Y-129182767D01*
X101490235Y-129313395D01*
X101412826Y-129400481D01*
X101335416Y-129444024D01*
X102496559Y-129182767D02*
X102341740Y-129182767D01*
X102264330Y-129226310D01*
X102225626Y-129269852D01*
X102148216Y-129400481D01*
X102109511Y-129574652D01*
X102109511Y-129922995D01*
X102148216Y-130010081D01*
X102186921Y-130053624D01*
X102264330Y-130097167D01*
X102419150Y-130097167D01*
X102496559Y-130053624D01*
X102535264Y-130010081D01*
X102573969Y-129922995D01*
X102573969Y-129705281D01*
X102535264Y-129618195D01*
X102496559Y-129574652D01*
X102419150Y-129531110D01*
X102264330Y-129531110D01*
X102186921Y-129574652D01*
X102148216Y-129618195D01*
X102109511Y-129705281D01*
D12*
X97289880Y-60046571D02*
X96289880Y-60046571D01*
X96289880Y-59808476D01*
X96337500Y-59665619D01*
X96432738Y-59570380D01*
X96527976Y-59522761D01*
X96718452Y-59475142D01*
X96861309Y-59475142D01*
X97051785Y-59522761D01*
X97147023Y-59570380D01*
X97242261Y-59665619D01*
X97289880Y-59808476D01*
X97289880Y-60046571D01*
X96766071Y-59046571D02*
X96766071Y-58713238D01*
X97289880Y-58570380D02*
X97289880Y-59046571D01*
X96289880Y-59046571D01*
X96289880Y-58570380D01*
X96766071Y-57808476D02*
X96813690Y-57665619D01*
X96861309Y-57618000D01*
X96956547Y-57570380D01*
X97099404Y-57570380D01*
X97194642Y-57618000D01*
X97242261Y-57665619D01*
X97289880Y-57760857D01*
X97289880Y-58141809D01*
X96289880Y-58141809D01*
X96289880Y-57808476D01*
X96337500Y-57713238D01*
X96385119Y-57665619D01*
X96480357Y-57618000D01*
X96575595Y-57618000D01*
X96670833Y-57665619D01*
X96718452Y-57713238D01*
X96766071Y-57808476D01*
X96766071Y-58141809D01*
X96289880Y-57141809D02*
X97099404Y-57141809D01*
X97194642Y-57094190D01*
X97242261Y-57046571D01*
X97289880Y-56951333D01*
X97289880Y-56760857D01*
X97242261Y-56665619D01*
X97194642Y-56618000D01*
X97099404Y-56570380D01*
X96289880Y-56570380D01*
X96337500Y-55570380D02*
X96289880Y-55665619D01*
X96289880Y-55808476D01*
X96337500Y-55951333D01*
X96432738Y-56046571D01*
X96527976Y-56094190D01*
X96718452Y-56141809D01*
X96861309Y-56141809D01*
X97051785Y-56094190D01*
X97147023Y-56046571D01*
X97242261Y-55951333D01*
X97289880Y-55808476D01*
X97289880Y-55713238D01*
X97242261Y-55570380D01*
X97194642Y-55522761D01*
X96861309Y-55522761D01*
X96861309Y-55713238D01*
X97385119Y-55332285D02*
X97385119Y-54570380D01*
X96289880Y-54332285D02*
X97099404Y-54332285D01*
X97194642Y-54284666D01*
X97242261Y-54237047D01*
X97289880Y-54141809D01*
X97289880Y-53951333D01*
X97242261Y-53856095D01*
X97194642Y-53808476D01*
X97099404Y-53760857D01*
X96289880Y-53760857D01*
X97004166Y-53332285D02*
X97004166Y-52856095D01*
X97289880Y-53427523D02*
X96289880Y-53094190D01*
X97289880Y-52760857D01*
X97289880Y-51856095D02*
X96813690Y-52189428D01*
X97289880Y-52427523D02*
X96289880Y-52427523D01*
X96289880Y-52046571D01*
X96337500Y-51951333D01*
X96385119Y-51903714D01*
X96480357Y-51856095D01*
X96623214Y-51856095D01*
X96718452Y-51903714D01*
X96766071Y-51951333D01*
X96813690Y-52046571D01*
X96813690Y-52427523D01*
X96289880Y-51570380D02*
X96289880Y-50998952D01*
X97289880Y-51284666D02*
X96289880Y-51284666D01*
X97289880Y-50141809D02*
X97289880Y-50713238D01*
X97289880Y-50427523D02*
X96289880Y-50427523D01*
X96432738Y-50522761D01*
X96527976Y-50618000D01*
X96575595Y-50713238D01*
X125328880Y-73286833D02*
X126043166Y-73286833D01*
X126186023Y-73334452D01*
X126281261Y-73429690D01*
X126328880Y-73572547D01*
X126328880Y-73667785D01*
X126328880Y-72810642D02*
X125328880Y-72810642D01*
X125328880Y-72429690D01*
X125376500Y-72334452D01*
X125424119Y-72286833D01*
X125519357Y-72239214D01*
X125662214Y-72239214D01*
X125757452Y-72286833D01*
X125805071Y-72334452D01*
X125852690Y-72429690D01*
X125852690Y-72810642D01*
X125424119Y-71858261D02*
X125376500Y-71810642D01*
X125328880Y-71715404D01*
X125328880Y-71477309D01*
X125376500Y-71382071D01*
X125424119Y-71334452D01*
X125519357Y-71286833D01*
X125614595Y-71286833D01*
X125757452Y-71334452D01*
X126328880Y-71905880D01*
X126328880Y-71286833D01*
X119467333Y-97416880D02*
X118991142Y-97416880D01*
X118991142Y-96416880D01*
X120324476Y-97416880D02*
X119753047Y-97416880D01*
X120038761Y-97416880D02*
X120038761Y-96416880D01*
X119943523Y-96559738D01*
X119848285Y-96654976D01*
X119753047Y-96702595D01*
X113276142Y-95162642D02*
X113228523Y-95210261D01*
X113085666Y-95257880D01*
X112990428Y-95257880D01*
X112847571Y-95210261D01*
X112752333Y-95115023D01*
X112704714Y-95019785D01*
X112657095Y-94829309D01*
X112657095Y-94686452D01*
X112704714Y-94495976D01*
X112752333Y-94400738D01*
X112847571Y-94305500D01*
X112990428Y-94257880D01*
X113085666Y-94257880D01*
X113228523Y-94305500D01*
X113276142Y-94353119D01*
X113657095Y-94353119D02*
X113704714Y-94305500D01*
X113799952Y-94257880D01*
X114038047Y-94257880D01*
X114133285Y-94305500D01*
X114180904Y-94353119D01*
X114228523Y-94448357D01*
X114228523Y-94543595D01*
X114180904Y-94686452D01*
X113609476Y-95257880D01*
X114228523Y-95257880D01*
X115085666Y-94257880D02*
X114895190Y-94257880D01*
X114799952Y-94305500D01*
X114752333Y-94353119D01*
X114657095Y-94495976D01*
X114609476Y-94686452D01*
X114609476Y-95067404D01*
X114657095Y-95162642D01*
X114704714Y-95210261D01*
X114799952Y-95257880D01*
X114990428Y-95257880D01*
X115085666Y-95210261D01*
X115133285Y-95162642D01*
X115180904Y-95067404D01*
X115180904Y-94829309D01*
X115133285Y-94734071D01*
X115085666Y-94686452D01*
X114990428Y-94638833D01*
X114799952Y-94638833D01*
X114704714Y-94686452D01*
X114657095Y-94734071D01*
X114609476Y-94829309D01*
X108005642Y-101639642D02*
X107958023Y-101687261D01*
X107815166Y-101734880D01*
X107719928Y-101734880D01*
X107577071Y-101687261D01*
X107481833Y-101592023D01*
X107434214Y-101496785D01*
X107386595Y-101306309D01*
X107386595Y-101163452D01*
X107434214Y-100972976D01*
X107481833Y-100877738D01*
X107577071Y-100782500D01*
X107719928Y-100734880D01*
X107815166Y-100734880D01*
X107958023Y-100782500D01*
X108005642Y-100830119D01*
X108386595Y-100830119D02*
X108434214Y-100782500D01*
X108529452Y-100734880D01*
X108767547Y-100734880D01*
X108862785Y-100782500D01*
X108910404Y-100830119D01*
X108958023Y-100925357D01*
X108958023Y-101020595D01*
X108910404Y-101163452D01*
X108338976Y-101734880D01*
X108958023Y-101734880D01*
X109291357Y-100734880D02*
X109958023Y-100734880D01*
X109529452Y-101734880D01*
X113212642Y-98655142D02*
X113165023Y-98702761D01*
X113022166Y-98750380D01*
X112926928Y-98750380D01*
X112784071Y-98702761D01*
X112688833Y-98607523D01*
X112641214Y-98512285D01*
X112593595Y-98321809D01*
X112593595Y-98178952D01*
X112641214Y-97988476D01*
X112688833Y-97893238D01*
X112784071Y-97798000D01*
X112926928Y-97750380D01*
X113022166Y-97750380D01*
X113165023Y-97798000D01*
X113212642Y-97845619D01*
X113593595Y-97845619D02*
X113641214Y-97798000D01*
X113736452Y-97750380D01*
X113974547Y-97750380D01*
X114069785Y-97798000D01*
X114117404Y-97845619D01*
X114165023Y-97940857D01*
X114165023Y-98036095D01*
X114117404Y-98178952D01*
X113545976Y-98750380D01*
X114165023Y-98750380D01*
X114736452Y-98178952D02*
X114641214Y-98131333D01*
X114593595Y-98083714D01*
X114545976Y-97988476D01*
X114545976Y-97940857D01*
X114593595Y-97845619D01*
X114641214Y-97798000D01*
X114736452Y-97750380D01*
X114926928Y-97750380D01*
X115022166Y-97798000D01*
X115069785Y-97845619D01*
X115117404Y-97940857D01*
X115117404Y-97988476D01*
X115069785Y-98083714D01*
X115022166Y-98131333D01*
X114926928Y-98178952D01*
X114736452Y-98178952D01*
X114641214Y-98226571D01*
X114593595Y-98274190D01*
X114545976Y-98369428D01*
X114545976Y-98559904D01*
X114593595Y-98655142D01*
X114641214Y-98702761D01*
X114736452Y-98750380D01*
X114926928Y-98750380D01*
X115022166Y-98702761D01*
X115069785Y-98655142D01*
X115117404Y-98559904D01*
X115117404Y-98369428D01*
X115069785Y-98274190D01*
X115022166Y-98226571D01*
X114926928Y-98178952D01*
X121721642Y-91035142D02*
X121674023Y-91082761D01*
X121531166Y-91130380D01*
X121435928Y-91130380D01*
X121293071Y-91082761D01*
X121197833Y-90987523D01*
X121150214Y-90892285D01*
X121102595Y-90701809D01*
X121102595Y-90558952D01*
X121150214Y-90368476D01*
X121197833Y-90273238D01*
X121293071Y-90178000D01*
X121435928Y-90130380D01*
X121531166Y-90130380D01*
X121674023Y-90178000D01*
X121721642Y-90225619D01*
X122102595Y-90225619D02*
X122150214Y-90178000D01*
X122245452Y-90130380D01*
X122483547Y-90130380D01*
X122578785Y-90178000D01*
X122626404Y-90225619D01*
X122674023Y-90320857D01*
X122674023Y-90416095D01*
X122626404Y-90558952D01*
X122054976Y-91130380D01*
X122674023Y-91130380D01*
X123578785Y-90130380D02*
X123102595Y-90130380D01*
X123054976Y-90606571D01*
X123102595Y-90558952D01*
X123197833Y-90511333D01*
X123435928Y-90511333D01*
X123531166Y-90558952D01*
X123578785Y-90606571D01*
X123626404Y-90701809D01*
X123626404Y-90939904D01*
X123578785Y-91035142D01*
X123531166Y-91082761D01*
X123435928Y-91130380D01*
X123197833Y-91130380D01*
X123102595Y-91082761D01*
X123054976Y-91035142D01*
X125328880Y-68714833D02*
X126043166Y-68714833D01*
X126186023Y-68762452D01*
X126281261Y-68857690D01*
X126328880Y-69000547D01*
X126328880Y-69095785D01*
X126328880Y-68238642D02*
X125328880Y-68238642D01*
X125328880Y-67857690D01*
X125376500Y-67762452D01*
X125424119Y-67714833D01*
X125519357Y-67667214D01*
X125662214Y-67667214D01*
X125757452Y-67714833D01*
X125805071Y-67762452D01*
X125852690Y-67857690D01*
X125852690Y-68238642D01*
X126328880Y-66714833D02*
X126328880Y-67286261D01*
X126328880Y-67000547D02*
X125328880Y-67000547D01*
X125471738Y-67095785D01*
X125566976Y-67191023D01*
X125614595Y-67286261D01*
X134477166Y-100988880D02*
X134477166Y-101703166D01*
X134429547Y-101846023D01*
X134334309Y-101941261D01*
X134191452Y-101988880D01*
X134096214Y-101988880D01*
X134905738Y-101084119D02*
X134953357Y-101036500D01*
X135048595Y-100988880D01*
X135286690Y-100988880D01*
X135381928Y-101036500D01*
X135429547Y-101084119D01*
X135477166Y-101179357D01*
X135477166Y-101274595D01*
X135429547Y-101417452D01*
X134858119Y-101988880D01*
X135477166Y-101988880D01*
X67984833Y-131115880D02*
X67508642Y-131115880D01*
X67508642Y-130115880D01*
X68889595Y-131020642D02*
X68841976Y-131068261D01*
X68699119Y-131115880D01*
X68603880Y-131115880D01*
X68461023Y-131068261D01*
X68365785Y-130973023D01*
X68318166Y-130877785D01*
X68270547Y-130687309D01*
X68270547Y-130544452D01*
X68318166Y-130353976D01*
X68365785Y-130258738D01*
X68461023Y-130163500D01*
X68603880Y-130115880D01*
X68699119Y-130115880D01*
X68841976Y-130163500D01*
X68889595Y-130211119D01*
X69318166Y-131115880D02*
X69318166Y-130115880D01*
X69556261Y-130115880D01*
X69699119Y-130163500D01*
X69794357Y-130258738D01*
X69841976Y-130353976D01*
X69889595Y-130544452D01*
X69889595Y-130687309D01*
X69841976Y-130877785D01*
X69794357Y-130973023D01*
X69699119Y-131068261D01*
X69556261Y-131115880D01*
X69318166Y-131115880D01*
X70841976Y-131115880D02*
X70270547Y-131115880D01*
X70556261Y-131115880D02*
X70556261Y-130115880D01*
X70461023Y-130258738D01*
X70365785Y-130353976D01*
X70270547Y-130401595D01*
X85215661Y-102723363D02*
X85215661Y-102790706D01*
X85148317Y-102925393D01*
X85080974Y-102992737D01*
X84946286Y-103060080D01*
X84811599Y-103060080D01*
X84710584Y-103026409D01*
X84542225Y-102925393D01*
X84441210Y-102824378D01*
X84340195Y-102656019D01*
X84306523Y-102555004D01*
X84306523Y-102420317D01*
X84373867Y-102285630D01*
X84441210Y-102218286D01*
X84575897Y-102150943D01*
X84643241Y-102150943D01*
X85283004Y-101982584D02*
X85181989Y-102016256D01*
X85114645Y-102016256D01*
X85013630Y-101982584D01*
X84979958Y-101948912D01*
X84946286Y-101847897D01*
X84946286Y-101780554D01*
X84979958Y-101679538D01*
X85114645Y-101544851D01*
X85215661Y-101511180D01*
X85283004Y-101511180D01*
X85384019Y-101544851D01*
X85417691Y-101578523D01*
X85451363Y-101679538D01*
X85451363Y-101746882D01*
X85417691Y-101847897D01*
X85283004Y-101982584D01*
X85249332Y-102083599D01*
X85249332Y-102150943D01*
X85283004Y-102251958D01*
X85417691Y-102386645D01*
X85518706Y-102420317D01*
X85586050Y-102420317D01*
X85687065Y-102386645D01*
X85821752Y-102251958D01*
X85855424Y-102150943D01*
X85855424Y-102083599D01*
X85821752Y-101982584D01*
X85687065Y-101847897D01*
X85586050Y-101814225D01*
X85518706Y-101814225D01*
X85417691Y-101847897D01*
X80716500Y-139969690D02*
X80668880Y-140064928D01*
X80668880Y-140207785D01*
X80716500Y-140350642D01*
X80811738Y-140445880D01*
X80906976Y-140493500D01*
X81097452Y-140541119D01*
X81240309Y-140541119D01*
X81430785Y-140493500D01*
X81526023Y-140445880D01*
X81621261Y-140350642D01*
X81668880Y-140207785D01*
X81668880Y-140112547D01*
X81621261Y-139969690D01*
X81573642Y-139922071D01*
X81240309Y-139922071D01*
X81240309Y-140112547D01*
X81668880Y-139493500D02*
X80668880Y-139493500D01*
X80668880Y-139112547D01*
X80716500Y-139017309D01*
X80764119Y-138969690D01*
X80859357Y-138922071D01*
X81002214Y-138922071D01*
X81097452Y-138969690D01*
X81145071Y-139017309D01*
X81192690Y-139112547D01*
X81192690Y-139493500D01*
X81668880Y-138493500D02*
X80668880Y-138493500D01*
X80668880Y-137826833D02*
X80668880Y-137636357D01*
X80716500Y-137541119D01*
X80811738Y-137445880D01*
X81002214Y-137398261D01*
X81335547Y-137398261D01*
X81526023Y-137445880D01*
X81621261Y-137541119D01*
X81668880Y-137636357D01*
X81668880Y-137826833D01*
X81621261Y-137922071D01*
X81526023Y-138017309D01*
X81335547Y-138064928D01*
X81002214Y-138064928D01*
X80811738Y-138017309D01*
X80716500Y-137922071D01*
X80668880Y-137826833D01*
X81668880Y-136445880D02*
X81668880Y-137017309D01*
X81668880Y-136731595D02*
X80668880Y-136731595D01*
X80811738Y-136826833D01*
X80906976Y-136922071D01*
X80954595Y-137017309D01*
X106823713Y-80008415D02*
X106823713Y-80075758D01*
X106756369Y-80210445D01*
X106689026Y-80277789D01*
X106554338Y-80345132D01*
X106419651Y-80345132D01*
X106318636Y-80311461D01*
X106150277Y-80210445D01*
X106049262Y-80109430D01*
X105948247Y-79941071D01*
X105914575Y-79840056D01*
X105914575Y-79705369D01*
X105981919Y-79570682D01*
X106049262Y-79503338D01*
X106183949Y-79435995D01*
X106251293Y-79435995D01*
X107564491Y-79402323D02*
X107160430Y-79806384D01*
X107362461Y-79604354D02*
X106655354Y-78897247D01*
X106689026Y-79065606D01*
X106689026Y-79200293D01*
X106655354Y-79301308D01*
X91765392Y-119895857D02*
X91813011Y-119943476D01*
X91860630Y-120086333D01*
X91860630Y-120181571D01*
X91813011Y-120324428D01*
X91717773Y-120419666D01*
X91622535Y-120467285D01*
X91432059Y-120514904D01*
X91289202Y-120514904D01*
X91098726Y-120467285D01*
X91003488Y-120419666D01*
X90908250Y-120324428D01*
X90860630Y-120181571D01*
X90860630Y-120086333D01*
X90908250Y-119943476D01*
X90955869Y-119895857D01*
X90955869Y-119514904D02*
X90908250Y-119467285D01*
X90860630Y-119372047D01*
X90860630Y-119133952D01*
X90908250Y-119038714D01*
X90955869Y-118991095D01*
X91051107Y-118943476D01*
X91146345Y-118943476D01*
X91289202Y-118991095D01*
X91860630Y-119562523D01*
X91860630Y-118943476D01*
X90860630Y-118324428D02*
X90860630Y-118229190D01*
X90908250Y-118133952D01*
X90955869Y-118086333D01*
X91051107Y-118038714D01*
X91241583Y-117991095D01*
X91479678Y-117991095D01*
X91670154Y-118038714D01*
X91765392Y-118086333D01*
X91813011Y-118133952D01*
X91860630Y-118229190D01*
X91860630Y-118324428D01*
X91813011Y-118419666D01*
X91765392Y-118467285D01*
X91670154Y-118514904D01*
X91479678Y-118562523D01*
X91241583Y-118562523D01*
X91051107Y-118514904D01*
X90955869Y-118467285D01*
X90908250Y-118419666D01*
X90860630Y-118324428D01*
X98242392Y-139485607D02*
X98290011Y-139533226D01*
X98337630Y-139676083D01*
X98337630Y-139771321D01*
X98290011Y-139914178D01*
X98194773Y-140009416D01*
X98099535Y-140057035D01*
X97909059Y-140104654D01*
X97766202Y-140104654D01*
X97575726Y-140057035D01*
X97480488Y-140009416D01*
X97385250Y-139914178D01*
X97337630Y-139771321D01*
X97337630Y-139676083D01*
X97385250Y-139533226D01*
X97432869Y-139485607D01*
X98337630Y-138533226D02*
X98337630Y-139104654D01*
X98337630Y-138818940D02*
X97337630Y-138818940D01*
X97480488Y-138914178D01*
X97575726Y-139009416D01*
X97623345Y-139104654D01*
X98337630Y-138057035D02*
X98337630Y-137866559D01*
X98290011Y-137771321D01*
X98242392Y-137723702D01*
X98099535Y-137628464D01*
X97909059Y-137580845D01*
X97528107Y-137580845D01*
X97432869Y-137628464D01*
X97385250Y-137676083D01*
X97337630Y-137771321D01*
X97337630Y-137961797D01*
X97385250Y-138057035D01*
X97432869Y-138104654D01*
X97528107Y-138152273D01*
X97766202Y-138152273D01*
X97861440Y-138104654D01*
X97909059Y-138057035D01*
X97956678Y-137961797D01*
X97956678Y-137771321D01*
X97909059Y-137676083D01*
X97861440Y-137628464D01*
X97766202Y-137580845D01*
X107640392Y-139676107D02*
X107688011Y-139723726D01*
X107735630Y-139866583D01*
X107735630Y-139961821D01*
X107688011Y-140104678D01*
X107592773Y-140199916D01*
X107497535Y-140247535D01*
X107307059Y-140295154D01*
X107164202Y-140295154D01*
X106973726Y-140247535D01*
X106878488Y-140199916D01*
X106783250Y-140104678D01*
X106735630Y-139961821D01*
X106735630Y-139866583D01*
X106783250Y-139723726D01*
X106830869Y-139676107D01*
X107735630Y-138723726D02*
X107735630Y-139295154D01*
X107735630Y-139009440D02*
X106735630Y-139009440D01*
X106878488Y-139104678D01*
X106973726Y-139199916D01*
X107021345Y-139295154D01*
X107164202Y-138152297D02*
X107116583Y-138247535D01*
X107068964Y-138295154D01*
X106973726Y-138342773D01*
X106926107Y-138342773D01*
X106830869Y-138295154D01*
X106783250Y-138247535D01*
X106735630Y-138152297D01*
X106735630Y-137961821D01*
X106783250Y-137866583D01*
X106830869Y-137818964D01*
X106926107Y-137771345D01*
X106973726Y-137771345D01*
X107068964Y-137818964D01*
X107116583Y-137866583D01*
X107164202Y-137961821D01*
X107164202Y-138152297D01*
X107211821Y-138247535D01*
X107259440Y-138295154D01*
X107354678Y-138342773D01*
X107545154Y-138342773D01*
X107640392Y-138295154D01*
X107688011Y-138247535D01*
X107735630Y-138152297D01*
X107735630Y-137961821D01*
X107688011Y-137866583D01*
X107640392Y-137818964D01*
X107545154Y-137771345D01*
X107354678Y-137771345D01*
X107259440Y-137818964D01*
X107211821Y-137866583D01*
X107164202Y-137961821D01*
X96146892Y-139358607D02*
X96194511Y-139406226D01*
X96242130Y-139549083D01*
X96242130Y-139644321D01*
X96194511Y-139787178D01*
X96099273Y-139882416D01*
X96004035Y-139930035D01*
X95813559Y-139977654D01*
X95670702Y-139977654D01*
X95480226Y-139930035D01*
X95384988Y-139882416D01*
X95289750Y-139787178D01*
X95242130Y-139644321D01*
X95242130Y-139549083D01*
X95289750Y-139406226D01*
X95337369Y-139358607D01*
X96242130Y-138406226D02*
X96242130Y-138977654D01*
X96242130Y-138691940D02*
X95242130Y-138691940D01*
X95384988Y-138787178D01*
X95480226Y-138882416D01*
X95527845Y-138977654D01*
X95242130Y-138072892D02*
X95242130Y-137406226D01*
X96242130Y-137834797D01*
X92273392Y-139422107D02*
X92321011Y-139469726D01*
X92368630Y-139612583D01*
X92368630Y-139707821D01*
X92321011Y-139850678D01*
X92225773Y-139945916D01*
X92130535Y-139993535D01*
X91940059Y-140041154D01*
X91797202Y-140041154D01*
X91606726Y-139993535D01*
X91511488Y-139945916D01*
X91416250Y-139850678D01*
X91368630Y-139707821D01*
X91368630Y-139612583D01*
X91416250Y-139469726D01*
X91463869Y-139422107D01*
X92368630Y-138469726D02*
X92368630Y-139041154D01*
X92368630Y-138755440D02*
X91368630Y-138755440D01*
X91511488Y-138850678D01*
X91606726Y-138945916D01*
X91654345Y-139041154D01*
X91368630Y-137612583D02*
X91368630Y-137803059D01*
X91416250Y-137898297D01*
X91463869Y-137945916D01*
X91606726Y-138041154D01*
X91797202Y-138088773D01*
X92178154Y-138088773D01*
X92273392Y-138041154D01*
X92321011Y-137993535D01*
X92368630Y-137898297D01*
X92368630Y-137707821D01*
X92321011Y-137612583D01*
X92273392Y-137564964D01*
X92178154Y-137517345D01*
X91940059Y-137517345D01*
X91844821Y-137564964D01*
X91797202Y-137612583D01*
X91749583Y-137707821D01*
X91749583Y-137898297D01*
X91797202Y-137993535D01*
X91844821Y-138041154D01*
X91940059Y-138088773D01*
X96258142Y-115990642D02*
X96210523Y-116038261D01*
X96067666Y-116085880D01*
X95972428Y-116085880D01*
X95829571Y-116038261D01*
X95734333Y-115943023D01*
X95686714Y-115847785D01*
X95639095Y-115657309D01*
X95639095Y-115514452D01*
X95686714Y-115323976D01*
X95734333Y-115228738D01*
X95829571Y-115133500D01*
X95972428Y-115085880D01*
X96067666Y-115085880D01*
X96210523Y-115133500D01*
X96258142Y-115181119D01*
X96639095Y-115181119D02*
X96686714Y-115133500D01*
X96781952Y-115085880D01*
X97020047Y-115085880D01*
X97115285Y-115133500D01*
X97162904Y-115181119D01*
X97210523Y-115276357D01*
X97210523Y-115371595D01*
X97162904Y-115514452D01*
X96591476Y-116085880D01*
X97210523Y-116085880D01*
X97543857Y-115085880D02*
X98162904Y-115085880D01*
X97829571Y-115466833D01*
X97972428Y-115466833D01*
X98067666Y-115514452D01*
X98115285Y-115562071D01*
X98162904Y-115657309D01*
X98162904Y-115895404D01*
X98115285Y-115990642D01*
X98067666Y-116038261D01*
X97972428Y-116085880D01*
X97686714Y-116085880D01*
X97591476Y-116038261D01*
X97543857Y-115990642D01*
X108074495Y-95648632D02*
X108074495Y-95715976D01*
X108007151Y-95850663D01*
X107939808Y-95918006D01*
X107805121Y-95985350D01*
X107670434Y-95985350D01*
X107569419Y-95951678D01*
X107401060Y-95850663D01*
X107300045Y-95749648D01*
X107199029Y-95581289D01*
X107165358Y-95480274D01*
X107165358Y-95345587D01*
X107232701Y-95210900D01*
X107300045Y-95143556D01*
X107434732Y-95076213D01*
X107502075Y-95076213D01*
X108815274Y-95042541D02*
X108411213Y-95446602D01*
X108613243Y-95244571D02*
X107906136Y-94537464D01*
X107939808Y-94705823D01*
X107939808Y-94840510D01*
X107906136Y-94941526D01*
X108949961Y-93965045D02*
X109421365Y-94436449D01*
X108512228Y-93864029D02*
X108848945Y-94537464D01*
X109286678Y-94099732D01*
X89768443Y-107568580D02*
X89768443Y-107635924D01*
X89701099Y-107770611D01*
X89633756Y-107837954D01*
X89499069Y-107905298D01*
X89364382Y-107905298D01*
X89263367Y-107871626D01*
X89095008Y-107770611D01*
X88993993Y-107669596D01*
X88892977Y-107501237D01*
X88859306Y-107400222D01*
X88859306Y-107265535D01*
X88926649Y-107130848D01*
X88993993Y-107063504D01*
X89128680Y-106996161D01*
X89196023Y-106996161D01*
X90509222Y-106962489D02*
X90105161Y-107366550D01*
X90307191Y-107164519D02*
X89600084Y-106457412D01*
X89633756Y-106625771D01*
X89633756Y-106760458D01*
X89600084Y-106861474D01*
X90239848Y-105817649D02*
X90307191Y-105750306D01*
X90408206Y-105716634D01*
X90475550Y-105716634D01*
X90576565Y-105750306D01*
X90744924Y-105851321D01*
X90913283Y-106019680D01*
X91014298Y-106188038D01*
X91047970Y-106289054D01*
X91047970Y-106356397D01*
X91014298Y-106457412D01*
X90946954Y-106524756D01*
X90845939Y-106558428D01*
X90778596Y-106558428D01*
X90677580Y-106524756D01*
X90509222Y-106423741D01*
X90340863Y-106255382D01*
X90239848Y-106087023D01*
X90206176Y-105986008D01*
X90206176Y-105918664D01*
X90239848Y-105817649D01*
X87819161Y-105009363D02*
X87819161Y-105076706D01*
X87751817Y-105211393D01*
X87684474Y-105278737D01*
X87549786Y-105346080D01*
X87415099Y-105346080D01*
X87314084Y-105312409D01*
X87145725Y-105211393D01*
X87044710Y-105110378D01*
X86943695Y-104942019D01*
X86910023Y-104841004D01*
X86910023Y-104706317D01*
X86977367Y-104571630D01*
X87044710Y-104504286D01*
X87179397Y-104436943D01*
X87246741Y-104436943D01*
X88223222Y-104739989D02*
X88357909Y-104605302D01*
X88391580Y-104504286D01*
X88391580Y-104436943D01*
X88357909Y-104268584D01*
X88256893Y-104100225D01*
X87987519Y-103830851D01*
X87886504Y-103797180D01*
X87819161Y-103797180D01*
X87718145Y-103830851D01*
X87583458Y-103965538D01*
X87549786Y-104066554D01*
X87549786Y-104133897D01*
X87583458Y-104234912D01*
X87751817Y-104403271D01*
X87852832Y-104436943D01*
X87920176Y-104436943D01*
X88021191Y-104403271D01*
X88155878Y-104268584D01*
X88189550Y-104167569D01*
X88189550Y-104100225D01*
X88155878Y-103999210D01*
X107259187Y-92000889D02*
X107259187Y-92068232D01*
X107191843Y-92202919D01*
X107124500Y-92270263D01*
X106989812Y-92337606D01*
X106855125Y-92337606D01*
X106754110Y-92303935D01*
X106585751Y-92202919D01*
X106484736Y-92101904D01*
X106383721Y-91933545D01*
X106350049Y-91832530D01*
X106350049Y-91697843D01*
X106417393Y-91563156D01*
X106484736Y-91495812D01*
X106619423Y-91428469D01*
X106686767Y-91428469D01*
X107225515Y-90755034D02*
X107090828Y-90889721D01*
X107057156Y-90990736D01*
X107057156Y-91058080D01*
X107090828Y-91226438D01*
X107191843Y-91394797D01*
X107461217Y-91664171D01*
X107562232Y-91697843D01*
X107629576Y-91697843D01*
X107730591Y-91664171D01*
X107865278Y-91529484D01*
X107898950Y-91428469D01*
X107898950Y-91361125D01*
X107865278Y-91260110D01*
X107696919Y-91091751D01*
X107595904Y-91058080D01*
X107528561Y-91058080D01*
X107427545Y-91091751D01*
X107292858Y-91226438D01*
X107259187Y-91327454D01*
X107259187Y-91394797D01*
X107292858Y-91495812D01*
X103207136Y-89787661D02*
X103139793Y-89787661D01*
X103005106Y-89720317D01*
X102937762Y-89652974D01*
X102870419Y-89518286D01*
X102870419Y-89383599D01*
X102904090Y-89282584D01*
X103005106Y-89114225D01*
X103106121Y-89013210D01*
X103274480Y-88912195D01*
X103375495Y-88878523D01*
X103510182Y-88878523D01*
X103644869Y-88945867D01*
X103712213Y-89013210D01*
X103779556Y-89147897D01*
X103779556Y-89215241D01*
X104082602Y-89383599D02*
X104520335Y-89821332D01*
X104015258Y-89855004D01*
X104116274Y-89956019D01*
X104149945Y-90057035D01*
X104149945Y-90124378D01*
X104116274Y-90225393D01*
X103947915Y-90393752D01*
X103846900Y-90427424D01*
X103779556Y-90427424D01*
X103678541Y-90393752D01*
X103476510Y-90191722D01*
X103442838Y-90090706D01*
X103442838Y-90023363D01*
X103775713Y-83056415D02*
X103775713Y-83123758D01*
X103708369Y-83258445D01*
X103641026Y-83325789D01*
X103506338Y-83393132D01*
X103371651Y-83393132D01*
X103270636Y-83359461D01*
X103102277Y-83258445D01*
X103001262Y-83157430D01*
X102900247Y-82989071D01*
X102866575Y-82888056D01*
X102866575Y-82753369D01*
X102933919Y-82618682D01*
X103001262Y-82551338D01*
X103135949Y-82483995D01*
X103203293Y-82483995D01*
X103472667Y-82214621D02*
X103472667Y-82147277D01*
X103506338Y-82046262D01*
X103674697Y-81877903D01*
X103775713Y-81844232D01*
X103843056Y-81844232D01*
X103944071Y-81877903D01*
X104011415Y-81945247D01*
X104078758Y-82079934D01*
X104078758Y-82888056D01*
X104516491Y-82450323D01*
X87129892Y-139422107D02*
X87177511Y-139469726D01*
X87225130Y-139612583D01*
X87225130Y-139707821D01*
X87177511Y-139850678D01*
X87082273Y-139945916D01*
X86987035Y-139993535D01*
X86796559Y-140041154D01*
X86653702Y-140041154D01*
X86463226Y-139993535D01*
X86367988Y-139945916D01*
X86272750Y-139850678D01*
X86225130Y-139707821D01*
X86225130Y-139612583D01*
X86272750Y-139469726D01*
X86320369Y-139422107D01*
X87225130Y-138469726D02*
X87225130Y-139041154D01*
X87225130Y-138755440D02*
X86225130Y-138755440D01*
X86367988Y-138850678D01*
X86463226Y-138945916D01*
X86510845Y-139041154D01*
X86225130Y-137564964D02*
X86225130Y-138041154D01*
X86701321Y-138088773D01*
X86653702Y-138041154D01*
X86606083Y-137945916D01*
X86606083Y-137707821D01*
X86653702Y-137612583D01*
X86701321Y-137564964D01*
X86796559Y-137517345D01*
X87034654Y-137517345D01*
X87129892Y-137564964D01*
X87177511Y-137612583D01*
X87225130Y-137707821D01*
X87225130Y-137945916D01*
X87177511Y-138041154D01*
X87129892Y-138088773D01*
X87860142Y-119768857D02*
X87907761Y-119816476D01*
X87955380Y-119959333D01*
X87955380Y-120054571D01*
X87907761Y-120197428D01*
X87812523Y-120292666D01*
X87717285Y-120340285D01*
X87526809Y-120387904D01*
X87383952Y-120387904D01*
X87193476Y-120340285D01*
X87098238Y-120292666D01*
X87003000Y-120197428D01*
X86955380Y-120054571D01*
X86955380Y-119959333D01*
X87003000Y-119816476D01*
X87050619Y-119768857D01*
X87050619Y-119387904D02*
X87003000Y-119340285D01*
X86955380Y-119245047D01*
X86955380Y-119006952D01*
X87003000Y-118911714D01*
X87050619Y-118864095D01*
X87145857Y-118816476D01*
X87241095Y-118816476D01*
X87383952Y-118864095D01*
X87955380Y-119435523D01*
X87955380Y-118816476D01*
X87955380Y-117864095D02*
X87955380Y-118435523D01*
X87955380Y-118149809D02*
X86955380Y-118149809D01*
X87098238Y-118245047D01*
X87193476Y-118340285D01*
X87241095Y-118435523D01*
X93781642Y-117832142D02*
X93734023Y-117879761D01*
X93591166Y-117927380D01*
X93495928Y-117927380D01*
X93353071Y-117879761D01*
X93257833Y-117784523D01*
X93210214Y-117689285D01*
X93162595Y-117498809D01*
X93162595Y-117355952D01*
X93210214Y-117165476D01*
X93257833Y-117070238D01*
X93353071Y-116975000D01*
X93495928Y-116927380D01*
X93591166Y-116927380D01*
X93734023Y-116975000D01*
X93781642Y-117022619D01*
X94162595Y-117022619D02*
X94210214Y-116975000D01*
X94305452Y-116927380D01*
X94543547Y-116927380D01*
X94638785Y-116975000D01*
X94686404Y-117022619D01*
X94734023Y-117117857D01*
X94734023Y-117213095D01*
X94686404Y-117355952D01*
X94114976Y-117927380D01*
X94734023Y-117927380D01*
X95114976Y-117022619D02*
X95162595Y-116975000D01*
X95257833Y-116927380D01*
X95495928Y-116927380D01*
X95591166Y-116975000D01*
X95638785Y-117022619D01*
X95686404Y-117117857D01*
X95686404Y-117213095D01*
X95638785Y-117355952D01*
X95067357Y-117927380D01*
X95686404Y-117927380D01*
X111942761Y-75235833D02*
X111990380Y-75092976D01*
X111990380Y-74854880D01*
X111942761Y-74759642D01*
X111895142Y-74712023D01*
X111799904Y-74664404D01*
X111704666Y-74664404D01*
X111609428Y-74712023D01*
X111561809Y-74759642D01*
X111514190Y-74854880D01*
X111466571Y-75045357D01*
X111418952Y-75140595D01*
X111371333Y-75188214D01*
X111276095Y-75235833D01*
X111180857Y-75235833D01*
X111085619Y-75188214D01*
X111038000Y-75140595D01*
X110990380Y-75045357D01*
X110990380Y-74807261D01*
X111038000Y-74664404D01*
X110990380Y-74331071D02*
X111990380Y-74092976D01*
X111276095Y-73902500D01*
X111990380Y-73712023D01*
X110990380Y-73473928D01*
X111990380Y-72569166D02*
X111990380Y-73140595D01*
X111990380Y-72854880D02*
X110990380Y-72854880D01*
X111133238Y-72950119D01*
X111228476Y-73045357D01*
X111276095Y-73140595D01*
X111053642Y-108215642D02*
X111006023Y-108263261D01*
X110863166Y-108310880D01*
X110767928Y-108310880D01*
X110625071Y-108263261D01*
X110529833Y-108168023D01*
X110482214Y-108072785D01*
X110434595Y-107882309D01*
X110434595Y-107739452D01*
X110482214Y-107548976D01*
X110529833Y-107453738D01*
X110625071Y-107358500D01*
X110767928Y-107310880D01*
X110863166Y-107310880D01*
X111006023Y-107358500D01*
X111053642Y-107406119D01*
X112006023Y-108310880D02*
X111434595Y-108310880D01*
X111720309Y-108310880D02*
X111720309Y-107310880D01*
X111625071Y-107453738D01*
X111529833Y-107548976D01*
X111434595Y-107596595D01*
X112958404Y-108310880D02*
X112386976Y-108310880D01*
X112672690Y-108310880D02*
X112672690Y-107310880D01*
X112577452Y-107453738D01*
X112482214Y-107548976D01*
X112386976Y-107596595D01*
X113164687Y-89333889D02*
X113164687Y-89401232D01*
X113097343Y-89535919D01*
X113030000Y-89603263D01*
X112895312Y-89670606D01*
X112760625Y-89670606D01*
X112659610Y-89636935D01*
X112491251Y-89535919D01*
X112390236Y-89434904D01*
X112289221Y-89266545D01*
X112255549Y-89165530D01*
X112255549Y-89030843D01*
X112322893Y-88896156D01*
X112390236Y-88828812D01*
X112524923Y-88761469D01*
X112592267Y-88761469D01*
X112760625Y-88458423D02*
X113232030Y-87987019D01*
X113636091Y-88997171D01*
X116292333Y-103544642D02*
X116244714Y-103592261D01*
X116101857Y-103639880D01*
X116006619Y-103639880D01*
X115863761Y-103592261D01*
X115768523Y-103497023D01*
X115720904Y-103401785D01*
X115673285Y-103211309D01*
X115673285Y-103068452D01*
X115720904Y-102877976D01*
X115768523Y-102782738D01*
X115863761Y-102687500D01*
X116006619Y-102639880D01*
X116101857Y-102639880D01*
X116244714Y-102687500D01*
X116292333Y-102735119D01*
X117197095Y-102639880D02*
X116720904Y-102639880D01*
X116673285Y-103116071D01*
X116720904Y-103068452D01*
X116816142Y-103020833D01*
X117054238Y-103020833D01*
X117149476Y-103068452D01*
X117197095Y-103116071D01*
X117244714Y-103211309D01*
X117244714Y-103449404D01*
X117197095Y-103544642D01*
X117149476Y-103592261D01*
X117054238Y-103639880D01*
X116816142Y-103639880D01*
X116720904Y-103592261D01*
X116673285Y-103544642D01*
X97738142Y-84347666D02*
X97785761Y-84395285D01*
X97833380Y-84538142D01*
X97833380Y-84633380D01*
X97785761Y-84776238D01*
X97690523Y-84871476D01*
X97595285Y-84919095D01*
X97404809Y-84966714D01*
X97261952Y-84966714D01*
X97071476Y-84919095D01*
X96976238Y-84871476D01*
X96881000Y-84776238D01*
X96833380Y-84633380D01*
X96833380Y-84538142D01*
X96881000Y-84395285D01*
X96928619Y-84347666D01*
X97166714Y-83490523D02*
X97833380Y-83490523D01*
X96785761Y-83728619D02*
X97500047Y-83966714D01*
X97500047Y-83347666D01*
X108836618Y-77433946D02*
X108499900Y-77770664D01*
X108971305Y-76827855D02*
X108836618Y-77433946D01*
X109442709Y-77299259D01*
X109341694Y-78612457D02*
X108937633Y-78208396D01*
X109139664Y-78410427D02*
X109846770Y-77703320D01*
X109678412Y-77736992D01*
X109543725Y-77736992D01*
X109442709Y-77703320D01*
X136612404Y-98623380D02*
X136612404Y-97623380D01*
X136850500Y-97623380D01*
X136993357Y-97671000D01*
X137088595Y-97766238D01*
X137136214Y-97861476D01*
X137183833Y-98051952D01*
X137183833Y-98194809D01*
X137136214Y-98385285D01*
X137088595Y-98480523D01*
X136993357Y-98575761D01*
X136850500Y-98623380D01*
X136612404Y-98623380D01*
X138136214Y-98623380D02*
X137564785Y-98623380D01*
X137850500Y-98623380D02*
X137850500Y-97623380D01*
X137755261Y-97766238D01*
X137660023Y-97861476D01*
X137564785Y-97909095D01*
X90348880Y-54792380D02*
X89348880Y-54792380D01*
X89444119Y-54363809D02*
X89396500Y-54316190D01*
X89348880Y-54220952D01*
X89348880Y-53982857D01*
X89396500Y-53887619D01*
X89444119Y-53840000D01*
X89539357Y-53792380D01*
X89634595Y-53792380D01*
X89777452Y-53840000D01*
X90348880Y-54411428D01*
X90348880Y-53792380D01*
X90253642Y-52792380D02*
X90301261Y-52840000D01*
X90348880Y-52982857D01*
X90348880Y-53078095D01*
X90301261Y-53220952D01*
X90206023Y-53316190D01*
X90110785Y-53363809D01*
X89920309Y-53411428D01*
X89777452Y-53411428D01*
X89586976Y-53363809D01*
X89491738Y-53316190D01*
X89396500Y-53220952D01*
X89348880Y-53078095D01*
X89348880Y-52982857D01*
X89396500Y-52840000D01*
X89444119Y-52792380D01*
X90348880Y-51840000D02*
X90348880Y-52411428D01*
X90348880Y-52125714D02*
X89348880Y-52125714D01*
X89491738Y-52220952D01*
X89586976Y-52316190D01*
X89634595Y-52411428D01*
M02*
