G04 #@! TF.GenerationSoftware,KiCad,Pcbnew,(2017-04-29 revision a92ea8c75)-makepkg*
G04 #@! TF.CreationDate,2017-06-10T12:44:28+05:30*
G04 #@! TF.ProjectId,MyIMX233,4D79494D583233332E6B696361645F70,rev?*
G04 #@! TF.FileFunction,Soldermask,Bot*
G04 #@! TF.FilePolarity,Negative*
%FSLAX46Y46*%
G04 Gerber Fmt 4.6, Leading zero omitted, Abs format (unit mm)*
G04 Created by KiCad (PCBNEW (2017-04-29 revision a92ea8c75)-makepkg) date 06/10/17 12:44:28*
%MOMM*%
%LPD*%
G01*
G04 APERTURE LIST*
%ADD10C,0.100000*%
%ADD11C,5.000000*%
%ADD12R,1.905000X1.905000*%
%ADD13C,1.750000*%
%ADD14R,1.750000X1.750000*%
%ADD15O,1.550000X1.550000*%
%ADD16O,1.250000X1.250000*%
%ADD17O,1.700000X1.700000*%
%ADD18R,1.700000X1.700000*%
%ADD19C,2.000000*%
%ADD20C,1.500000*%
%ADD21C,1.800000*%
%ADD22R,1.800000X1.800000*%
G04 APERTURE END LIST*
D10*
D11*
X130111500Y-133096000D03*
D12*
X135890000Y-80010000D03*
X135890000Y-87630000D03*
X135890000Y-82550000D03*
X135890000Y-90106500D03*
X135890000Y-85090000D03*
D13*
X134429500Y-56261000D03*
D14*
X131929500Y-56261000D03*
D15*
X122088000Y-53561000D03*
X115088000Y-53561000D03*
D16*
X121088000Y-56261000D03*
X116088000Y-56261000D03*
D17*
X106807000Y-53340000D03*
X104267000Y-53340000D03*
X101727000Y-53340000D03*
D18*
X99187000Y-53340000D03*
D17*
X130746500Y-72453500D03*
D18*
X128206500Y-72453500D03*
D17*
X130746500Y-67881500D03*
D18*
X128206500Y-67881500D03*
D17*
X69151500Y-54673500D03*
X69151500Y-57213500D03*
X69151500Y-59753500D03*
X69151500Y-62293500D03*
X69151500Y-64833500D03*
X69151500Y-67373500D03*
X69151500Y-69913500D03*
X69151500Y-72453500D03*
X69151500Y-74993500D03*
X69151500Y-77533500D03*
X69151500Y-80073500D03*
X69151500Y-82613500D03*
X69151500Y-85153500D03*
X69151500Y-87693500D03*
X69151500Y-90233500D03*
X69151500Y-92773500D03*
X69151500Y-95313500D03*
X69151500Y-97853500D03*
X69151500Y-100393500D03*
X69151500Y-102933500D03*
X69151500Y-105473500D03*
X69151500Y-108013500D03*
X69151500Y-110553500D03*
X69151500Y-113093500D03*
X69151500Y-115633500D03*
X69151500Y-118173500D03*
X69151500Y-120713500D03*
X69151500Y-123253500D03*
X69151500Y-125793500D03*
D18*
X69151500Y-128333500D03*
D17*
X68707000Y-139065000D03*
X71247000Y-139065000D03*
X73787000Y-139065000D03*
X76327000Y-139065000D03*
D18*
X78867000Y-139065000D03*
D19*
X113538000Y-70652500D03*
X118038000Y-70652500D03*
X113538000Y-77152500D03*
X118038000Y-77152500D03*
D20*
X104499319Y-85556181D03*
X107950000Y-82105500D03*
D21*
X132397500Y-97853500D03*
D22*
X134937500Y-97853500D03*
D17*
X79946500Y-53340000D03*
X82486500Y-53340000D03*
X85026500Y-53340000D03*
D18*
X87566500Y-53340000D03*
M02*
