G04 #@! TF.GenerationSoftware,KiCad,Pcbnew,(2017-06-28 revision 2237de015)-makepkg*
G04 #@! TF.CreationDate,2017-08-27T19:53:26+05:30*
G04 #@! TF.ProjectId,MyIMX233,4D79494D583233332E6B696361645F70,rev?*
G04 #@! TF.SameCoordinates,Original
G04 #@! TF.FileFunction,Soldermask,Bot*
G04 #@! TF.FilePolarity,Negative*
%FSLAX46Y46*%
G04 Gerber Fmt 4.6, Leading zero omitted, Abs format (unit mm)*
G04 Created by KiCad (PCBNEW (2017-06-28 revision 2237de015)-makepkg) date 08/27/17 19:53:26*
%MOMM*%
%LPD*%
G01*
G04 APERTURE LIST*
%ADD10C,0.100000*%
%ADD11C,4.184000*%
%ADD12C,1.720000*%
%ADD13R,1.720000X1.720000*%
%ADD14R,1.320000X1.020000*%
%ADD15O,1.720000X1.720000*%
%ADD16C,1.620000*%
%ADD17O,1.820000X1.820000*%
%ADD18R,1.820000X1.820000*%
%ADD19O,1.370000X1.070000*%
%ADD20O,1.120000X1.670000*%
%ADD21R,2.025000X2.025000*%
%ADD22C,1.870000*%
%ADD23R,1.870000X1.870000*%
%ADD24C,2.120000*%
%ADD25C,1.920000*%
%ADD26R,1.920000X1.920000*%
G04 APERTURE END LIST*
D10*
D11*
X122783600Y-128574800D03*
D12*
X124013600Y-86004400D03*
D13*
X121513600Y-86004400D03*
D14*
X126458800Y-110642400D03*
X128658800Y-110642400D03*
X128811200Y-116027200D03*
X126611200Y-116027200D03*
X128658800Y-109067600D03*
X126458800Y-109067600D03*
X126611200Y-117754400D03*
X128811200Y-117754400D03*
X128676400Y-112268000D03*
X126476400Y-112268000D03*
D15*
X131445000Y-64198500D03*
D13*
X123825000Y-64198500D03*
X126746000Y-92837000D03*
D15*
X134366000Y-92837000D03*
X111252000Y-52959000D03*
D13*
X111252000Y-60579000D03*
D12*
X128230000Y-59309000D03*
D13*
X125730000Y-59309000D03*
D16*
X107039319Y-82762181D03*
X110490000Y-79311500D03*
D17*
X77851000Y-91186000D03*
D18*
X75311000Y-91186000D03*
D17*
X126619000Y-68580000D03*
D18*
X126619000Y-71120000D03*
D19*
X121118000Y-56722000D03*
X116118000Y-56722000D03*
D20*
X122118000Y-54022000D03*
X115118000Y-54022000D03*
D21*
X135890000Y-77089000D03*
X135890000Y-80010000D03*
X135890000Y-87630000D03*
X135890000Y-82550000D03*
X135890000Y-90106500D03*
X135890000Y-85090000D03*
D22*
X135659500Y-53721000D03*
D23*
X133159500Y-53721000D03*
D17*
X106807000Y-53721000D03*
X104267000Y-53721000D03*
X101727000Y-53721000D03*
D18*
X99187000Y-53721000D03*
D17*
X132016500Y-71183500D03*
D18*
X132016500Y-68643500D03*
D17*
X69151500Y-54673500D03*
X69151500Y-57213500D03*
X69151500Y-59753500D03*
X69151500Y-62293500D03*
X69151500Y-64833500D03*
X69151500Y-67373500D03*
X69151500Y-69913500D03*
X69151500Y-72453500D03*
X69151500Y-74993500D03*
X69151500Y-77533500D03*
X69151500Y-80073500D03*
X69151500Y-82613500D03*
X69151500Y-85153500D03*
X69151500Y-87693500D03*
X69151500Y-90233500D03*
X69151500Y-92773500D03*
X69151500Y-95313500D03*
X69151500Y-97853500D03*
X69151500Y-100393500D03*
X69151500Y-102933500D03*
X69151500Y-105473500D03*
X69151500Y-108013500D03*
X69151500Y-110553500D03*
X69151500Y-113093500D03*
X69151500Y-115633500D03*
X69151500Y-118173500D03*
X69151500Y-120713500D03*
X69151500Y-123253500D03*
X69151500Y-125793500D03*
D18*
X69151500Y-128333500D03*
D17*
X68707000Y-139065000D03*
X71247000Y-139065000D03*
X73787000Y-139065000D03*
X76327000Y-139065000D03*
D18*
X78867000Y-139065000D03*
D24*
X116277000Y-68897500D03*
X120777000Y-68897500D03*
X116277000Y-75397500D03*
X120777000Y-75397500D03*
D25*
X132397500Y-97853500D03*
D26*
X134937500Y-97853500D03*
D17*
X79946500Y-53721000D03*
X82486500Y-53721000D03*
X85026500Y-53721000D03*
D18*
X87566500Y-53721000D03*
M02*
