G04 #@! TF.GenerationSoftware,KiCad,Pcbnew,(2017-04-29 revision a92ea8c75)-makepkg*
G04 #@! TF.CreationDate,2017-06-13T12:06:22+05:30*
G04 #@! TF.ProjectId,MyIMX233,4D79494D583233332E6B696361645F70,rev?*
G04 #@! TF.FileFunction,Soldermask,Top*
G04 #@! TF.FilePolarity,Negative*
%FSLAX46Y46*%
G04 Gerber Fmt 4.6, Leading zero omitted, Abs format (unit mm)*
G04 Created by KiCad (PCBNEW (2017-04-29 revision a92ea8c75)-makepkg) date 06/13/17 12:06:22*
%MOMM*%
%LPD*%
G01*
G04 APERTURE LIST*
%ADD10C,0.100000*%
%ADD11C,5.000000*%
%ADD12R,0.800000X0.800000*%
%ADD13R,0.900000X1.200000*%
%ADD14R,1.200000X0.900000*%
%ADD15R,1.905000X1.905000*%
%ADD16C,0.500000*%
%ADD17R,0.600000X0.500000*%
%ADD18R,0.500000X0.900000*%
%ADD19R,1.200000X0.750000*%
%ADD20C,0.750000*%
%ADD21C,0.200000*%
%ADD22R,1.500000X1.250000*%
%ADD23C,1.750000*%
%ADD24R,1.750000X1.750000*%
%ADD25R,1.000000X1.000000*%
%ADD26C,0.900000*%
%ADD27R,0.400000X1.350000*%
%ADD28O,1.550000X1.550000*%
%ADD29O,1.250000X1.250000*%
%ADD30R,0.320040X1.168400*%
%ADD31O,1.700000X1.700000*%
%ADD32R,1.700000X1.700000*%
%ADD33R,1.998980X1.998980*%
%ADD34R,1.900000X1.300000*%
%ADD35R,2.800000X1.000000*%
%ADD36R,0.800000X1.000000*%
%ADD37R,1.200000X1.000000*%
%ADD38R,1.200000X0.700000*%
%ADD39R,0.500000X0.600000*%
%ADD40C,2.000000*%
%ADD41C,1.250000*%
%ADD42R,1.250000X1.500000*%
%ADD43C,1.500000*%
%ADD44C,1.800000*%
%ADD45R,1.800000X1.800000*%
G04 APERTURE END LIST*
D10*
D11*
X130111500Y-133096000D03*
D12*
X106807000Y-60071000D03*
X106807000Y-61671000D03*
D13*
X106870500Y-64749500D03*
X106870500Y-66949500D03*
D14*
X116035000Y-60769500D03*
X113835000Y-60769500D03*
D15*
X135890000Y-80010000D03*
X135890000Y-87630000D03*
X135890000Y-82550000D03*
X135890000Y-90106500D03*
X135890000Y-85090000D03*
D16*
X88590409Y-91765409D03*
D10*
G36*
X88201500Y-91730054D02*
X88555054Y-91376500D01*
X88979318Y-91800764D01*
X88625764Y-92154318D01*
X88201500Y-91730054D01*
X88201500Y-91730054D01*
G37*
D16*
X87812591Y-90987591D03*
D10*
G36*
X87423682Y-90952236D02*
X87777236Y-90598682D01*
X88201500Y-91022946D01*
X87847946Y-91376500D01*
X87423682Y-90952236D01*
X87423682Y-90952236D01*
G37*
D17*
X110575000Y-103568500D03*
X111675000Y-103568500D03*
X110511500Y-104711500D03*
X111611500Y-104711500D03*
D18*
X95833500Y-118745000D03*
X97333500Y-118745000D03*
X93801500Y-116967000D03*
X95301500Y-116967000D03*
D16*
X108569182Y-90122318D03*
D10*
G36*
X108533827Y-90511227D02*
X108180273Y-90157673D01*
X108604537Y-89733409D01*
X108958091Y-90086963D01*
X108533827Y-90511227D01*
X108533827Y-90511227D01*
G37*
D16*
X109347000Y-89344500D03*
D10*
G36*
X109311645Y-89733409D02*
X108958091Y-89379855D01*
X109382355Y-88955591D01*
X109735909Y-89309145D01*
X109311645Y-89733409D01*
X109311645Y-89733409D01*
G37*
D19*
X109540000Y-102235000D03*
X111440000Y-102235000D03*
X110175000Y-97663000D03*
X112075000Y-97663000D03*
X120864500Y-61531500D03*
X122764500Y-61531500D03*
D20*
X105129251Y-90641249D03*
D10*
G36*
X104970152Y-91330678D02*
X104439822Y-90800348D01*
X105288350Y-89951820D01*
X105818680Y-90482150D01*
X104970152Y-91330678D01*
X104970152Y-91330678D01*
G37*
D20*
X103785749Y-91984751D03*
D10*
G36*
X103626650Y-92674180D02*
X103096320Y-92143850D01*
X103944848Y-91295322D01*
X104475178Y-91825652D01*
X103626650Y-92674180D01*
X103626650Y-92674180D01*
G37*
D21*
X98056910Y-89072466D03*
D10*
G36*
X97774067Y-89496730D02*
X97632646Y-89355309D01*
X98339753Y-88648202D01*
X98481174Y-88789623D01*
X97774067Y-89496730D01*
X97774067Y-89496730D01*
G37*
D21*
X98339753Y-89355308D03*
D10*
G36*
X98056910Y-89779572D02*
X97915489Y-89638151D01*
X98622596Y-88931044D01*
X98764017Y-89072465D01*
X98056910Y-89779572D01*
X98056910Y-89779572D01*
G37*
D21*
X98622596Y-89638151D03*
D10*
G36*
X98339753Y-90062415D02*
X98198332Y-89920994D01*
X98905439Y-89213887D01*
X99046860Y-89355308D01*
X98339753Y-90062415D01*
X98339753Y-90062415D01*
G37*
D21*
X98905438Y-89920994D03*
D10*
G36*
X98622595Y-90345258D02*
X98481174Y-90203837D01*
X99188281Y-89496730D01*
X99329702Y-89638151D01*
X98622595Y-90345258D01*
X98622595Y-90345258D01*
G37*
D21*
X99188281Y-90203837D03*
D10*
G36*
X98905438Y-90628101D02*
X98764017Y-90486680D01*
X99471124Y-89779573D01*
X99612545Y-89920994D01*
X98905438Y-90628101D01*
X98905438Y-90628101D01*
G37*
D21*
X99471124Y-90486679D03*
D10*
G36*
X99188281Y-90910943D02*
X99046860Y-90769522D01*
X99753967Y-90062415D01*
X99895388Y-90203836D01*
X99188281Y-90910943D01*
X99188281Y-90910943D01*
G37*
D21*
X99753966Y-90769522D03*
D10*
G36*
X99471123Y-91193786D02*
X99329702Y-91052365D01*
X100036809Y-90345258D01*
X100178230Y-90486679D01*
X99471123Y-91193786D01*
X99471123Y-91193786D01*
G37*
D21*
X100036809Y-91052365D03*
D10*
G36*
X99753966Y-91476629D02*
X99612545Y-91335208D01*
X100319652Y-90628101D01*
X100461073Y-90769522D01*
X99753966Y-91476629D01*
X99753966Y-91476629D01*
G37*
D21*
X100319652Y-91335207D03*
D10*
G36*
X100036809Y-91759471D02*
X99895388Y-91618050D01*
X100602495Y-90910943D01*
X100743916Y-91052364D01*
X100036809Y-91759471D01*
X100036809Y-91759471D01*
G37*
D21*
X100602495Y-91618050D03*
D10*
G36*
X100319652Y-92042314D02*
X100178231Y-91900893D01*
X100885338Y-91193786D01*
X101026759Y-91335207D01*
X100319652Y-92042314D01*
X100319652Y-92042314D01*
G37*
D21*
X100885337Y-91900893D03*
D10*
G36*
X100602494Y-92325157D02*
X100461073Y-92183736D01*
X101168180Y-91476629D01*
X101309601Y-91618050D01*
X100602494Y-92325157D01*
X100602494Y-92325157D01*
G37*
D21*
X101168180Y-92183736D03*
D10*
G36*
X100885337Y-92608000D02*
X100743916Y-92466579D01*
X101451023Y-91759472D01*
X101592444Y-91900893D01*
X100885337Y-92608000D01*
X100885337Y-92608000D01*
G37*
D21*
X101451023Y-92466578D03*
D10*
G36*
X101168180Y-92890842D02*
X101026759Y-92749421D01*
X101733866Y-92042314D01*
X101875287Y-92183735D01*
X101168180Y-92890842D01*
X101168180Y-92890842D01*
G37*
D21*
X101733865Y-92749421D03*
D10*
G36*
X101451022Y-93173685D02*
X101309601Y-93032264D01*
X102016708Y-92325157D01*
X102158129Y-92466578D01*
X101451022Y-93173685D01*
X101451022Y-93173685D01*
G37*
D21*
X102016708Y-93032264D03*
D10*
G36*
X101733865Y-93456528D02*
X101592444Y-93315107D01*
X102299551Y-92608000D01*
X102440972Y-92749421D01*
X101733865Y-93456528D01*
X101733865Y-93456528D01*
G37*
D21*
X102299551Y-93315106D03*
D10*
G36*
X102016708Y-93739370D02*
X101875287Y-93597949D01*
X102582394Y-92890842D01*
X102723815Y-93032263D01*
X102016708Y-93739370D01*
X102016708Y-93739370D01*
G37*
D21*
X102582394Y-93597949D03*
D10*
G36*
X102299551Y-94022213D02*
X102158130Y-93880792D01*
X102865237Y-93173685D01*
X103006658Y-93315106D01*
X102299551Y-94022213D01*
X102299551Y-94022213D01*
G37*
D21*
X102865236Y-93880792D03*
D10*
G36*
X102582393Y-94305056D02*
X102440972Y-94163635D01*
X103148079Y-93456528D01*
X103289500Y-93597949D01*
X102582393Y-94305056D01*
X102582393Y-94305056D01*
G37*
D21*
X103148079Y-94163635D03*
D10*
G36*
X102865236Y-94587899D02*
X102723815Y-94446478D01*
X103430922Y-93739371D01*
X103572343Y-93880792D01*
X102865236Y-94587899D01*
X102865236Y-94587899D01*
G37*
D21*
X103430922Y-94446477D03*
D10*
G36*
X103148079Y-94870741D02*
X103006658Y-94729320D01*
X103713765Y-94022213D01*
X103855186Y-94163634D01*
X103148079Y-94870741D01*
X103148079Y-94870741D01*
G37*
D21*
X103713764Y-94729320D03*
D10*
G36*
X103430921Y-95153584D02*
X103289500Y-95012163D01*
X103996607Y-94305056D01*
X104138028Y-94446477D01*
X103430921Y-95153584D01*
X103430921Y-95153584D01*
G37*
D21*
X103996607Y-95012163D03*
D10*
G36*
X103713764Y-95436427D02*
X103572343Y-95295006D01*
X104279450Y-94587899D01*
X104420871Y-94729320D01*
X103713764Y-95436427D01*
X103713764Y-95436427D01*
G37*
D21*
X104279450Y-95295005D03*
D10*
G36*
X103996607Y-95719269D02*
X103855186Y-95577848D01*
X104562293Y-94870741D01*
X104703714Y-95012162D01*
X103996607Y-95719269D01*
X103996607Y-95719269D01*
G37*
D21*
X104562293Y-95577848D03*
D10*
G36*
X104279450Y-96002112D02*
X104138029Y-95860691D01*
X104845136Y-95153584D01*
X104986557Y-95295005D01*
X104279450Y-96002112D01*
X104279450Y-96002112D01*
G37*
D21*
X104845135Y-95860691D03*
D10*
G36*
X104562292Y-96284955D02*
X104420871Y-96143534D01*
X105127978Y-95436427D01*
X105269399Y-95577848D01*
X104562292Y-96284955D01*
X104562292Y-96284955D01*
G37*
D21*
X105127978Y-96143534D03*
D10*
G36*
X104845135Y-96567798D02*
X104703714Y-96426377D01*
X105410821Y-95719270D01*
X105552242Y-95860691D01*
X104845135Y-96567798D01*
X104845135Y-96567798D01*
G37*
D21*
X105410821Y-96426376D03*
D10*
G36*
X105127978Y-96850640D02*
X104986557Y-96709219D01*
X105693664Y-96002112D01*
X105835085Y-96143533D01*
X105127978Y-96850640D01*
X105127978Y-96850640D01*
G37*
D21*
X105693663Y-96709219D03*
D10*
G36*
X105410820Y-97133483D02*
X105269399Y-96992062D01*
X105976506Y-96284955D01*
X106117927Y-96426376D01*
X105410820Y-97133483D01*
X105410820Y-97133483D01*
G37*
D21*
X105976506Y-96992062D03*
D10*
G36*
X105693663Y-97416326D02*
X105552242Y-97274905D01*
X106259349Y-96567798D01*
X106400770Y-96709219D01*
X105693663Y-97416326D01*
X105693663Y-97416326D01*
G37*
D21*
X106259349Y-97274904D03*
D10*
G36*
X105976506Y-97699168D02*
X105835085Y-97557747D01*
X106542192Y-96850640D01*
X106683613Y-96992061D01*
X105976506Y-97699168D01*
X105976506Y-97699168D01*
G37*
D21*
X106542192Y-97557747D03*
D10*
G36*
X106259349Y-97982011D02*
X106117928Y-97840590D01*
X106825035Y-97133483D01*
X106966456Y-97274904D01*
X106259349Y-97982011D01*
X106259349Y-97982011D01*
G37*
D21*
X106825034Y-97840590D03*
D10*
G36*
X106542191Y-98264854D02*
X106400770Y-98123433D01*
X107107877Y-97416326D01*
X107249298Y-97557747D01*
X106542191Y-98264854D01*
X106542191Y-98264854D01*
G37*
D21*
X106825034Y-99961910D03*
D10*
G36*
X106400770Y-99679067D02*
X106542191Y-99537646D01*
X107249298Y-100244753D01*
X107107877Y-100386174D01*
X106400770Y-99679067D01*
X106400770Y-99679067D01*
G37*
D21*
X106542192Y-100244753D03*
D10*
G36*
X106117928Y-99961910D02*
X106259349Y-99820489D01*
X106966456Y-100527596D01*
X106825035Y-100669017D01*
X106117928Y-99961910D01*
X106117928Y-99961910D01*
G37*
D21*
X106259349Y-100527596D03*
D10*
G36*
X105835085Y-100244753D02*
X105976506Y-100103332D01*
X106683613Y-100810439D01*
X106542192Y-100951860D01*
X105835085Y-100244753D01*
X105835085Y-100244753D01*
G37*
D21*
X105976506Y-100810438D03*
D10*
G36*
X105552242Y-100527595D02*
X105693663Y-100386174D01*
X106400770Y-101093281D01*
X106259349Y-101234702D01*
X105552242Y-100527595D01*
X105552242Y-100527595D01*
G37*
D21*
X105693663Y-101093281D03*
D10*
G36*
X105269399Y-100810438D02*
X105410820Y-100669017D01*
X106117927Y-101376124D01*
X105976506Y-101517545D01*
X105269399Y-100810438D01*
X105269399Y-100810438D01*
G37*
D21*
X105410821Y-101376124D03*
D10*
G36*
X104986557Y-101093281D02*
X105127978Y-100951860D01*
X105835085Y-101658967D01*
X105693664Y-101800388D01*
X104986557Y-101093281D01*
X104986557Y-101093281D01*
G37*
D21*
X105127978Y-101658966D03*
D10*
G36*
X104703714Y-101376123D02*
X104845135Y-101234702D01*
X105552242Y-101941809D01*
X105410821Y-102083230D01*
X104703714Y-101376123D01*
X104703714Y-101376123D01*
G37*
D21*
X104845135Y-101941809D03*
D10*
G36*
X104420871Y-101658966D02*
X104562292Y-101517545D01*
X105269399Y-102224652D01*
X105127978Y-102366073D01*
X104420871Y-101658966D01*
X104420871Y-101658966D01*
G37*
D21*
X104562293Y-102224652D03*
D10*
G36*
X104138029Y-101941809D02*
X104279450Y-101800388D01*
X104986557Y-102507495D01*
X104845136Y-102648916D01*
X104138029Y-101941809D01*
X104138029Y-101941809D01*
G37*
D21*
X104279450Y-102507495D03*
D10*
G36*
X103855186Y-102224652D02*
X103996607Y-102083231D01*
X104703714Y-102790338D01*
X104562293Y-102931759D01*
X103855186Y-102224652D01*
X103855186Y-102224652D01*
G37*
D21*
X103996607Y-102790337D03*
D10*
G36*
X103572343Y-102507494D02*
X103713764Y-102366073D01*
X104420871Y-103073180D01*
X104279450Y-103214601D01*
X103572343Y-102507494D01*
X103572343Y-102507494D01*
G37*
D21*
X103713764Y-103073180D03*
D10*
G36*
X103289500Y-102790337D02*
X103430921Y-102648916D01*
X104138028Y-103356023D01*
X103996607Y-103497444D01*
X103289500Y-102790337D01*
X103289500Y-102790337D01*
G37*
D21*
X103430922Y-103356023D03*
D10*
G36*
X103006658Y-103073180D02*
X103148079Y-102931759D01*
X103855186Y-103638866D01*
X103713765Y-103780287D01*
X103006658Y-103073180D01*
X103006658Y-103073180D01*
G37*
D21*
X103148079Y-103638865D03*
D10*
G36*
X102723815Y-103356022D02*
X102865236Y-103214601D01*
X103572343Y-103921708D01*
X103430922Y-104063129D01*
X102723815Y-103356022D01*
X102723815Y-103356022D01*
G37*
D21*
X102865236Y-103921708D03*
D10*
G36*
X102440972Y-103638865D02*
X102582393Y-103497444D01*
X103289500Y-104204551D01*
X103148079Y-104345972D01*
X102440972Y-103638865D01*
X102440972Y-103638865D01*
G37*
D21*
X102582394Y-104204551D03*
D10*
G36*
X102158130Y-103921708D02*
X102299551Y-103780287D01*
X103006658Y-104487394D01*
X102865237Y-104628815D01*
X102158130Y-103921708D01*
X102158130Y-103921708D01*
G37*
D21*
X102299551Y-104487394D03*
D10*
G36*
X101875287Y-104204551D02*
X102016708Y-104063130D01*
X102723815Y-104770237D01*
X102582394Y-104911658D01*
X101875287Y-104204551D01*
X101875287Y-104204551D01*
G37*
D21*
X102016708Y-104770236D03*
D10*
G36*
X101592444Y-104487393D02*
X101733865Y-104345972D01*
X102440972Y-105053079D01*
X102299551Y-105194500D01*
X101592444Y-104487393D01*
X101592444Y-104487393D01*
G37*
D21*
X101733865Y-105053079D03*
D10*
G36*
X101309601Y-104770236D02*
X101451022Y-104628815D01*
X102158129Y-105335922D01*
X102016708Y-105477343D01*
X101309601Y-104770236D01*
X101309601Y-104770236D01*
G37*
D21*
X101451023Y-105335922D03*
D10*
G36*
X101026759Y-105053079D02*
X101168180Y-104911658D01*
X101875287Y-105618765D01*
X101733866Y-105760186D01*
X101026759Y-105053079D01*
X101026759Y-105053079D01*
G37*
D21*
X101168180Y-105618764D03*
D10*
G36*
X100743916Y-105335921D02*
X100885337Y-105194500D01*
X101592444Y-105901607D01*
X101451023Y-106043028D01*
X100743916Y-105335921D01*
X100743916Y-105335921D01*
G37*
D21*
X100885337Y-105901607D03*
D10*
G36*
X100461073Y-105618764D02*
X100602494Y-105477343D01*
X101309601Y-106184450D01*
X101168180Y-106325871D01*
X100461073Y-105618764D01*
X100461073Y-105618764D01*
G37*
D21*
X100602495Y-106184450D03*
D10*
G36*
X100178231Y-105901607D02*
X100319652Y-105760186D01*
X101026759Y-106467293D01*
X100885338Y-106608714D01*
X100178231Y-105901607D01*
X100178231Y-105901607D01*
G37*
D21*
X100319652Y-106467293D03*
D10*
G36*
X99895388Y-106184450D02*
X100036809Y-106043029D01*
X100743916Y-106750136D01*
X100602495Y-106891557D01*
X99895388Y-106184450D01*
X99895388Y-106184450D01*
G37*
D21*
X100036809Y-106750135D03*
D10*
G36*
X99612545Y-106467292D02*
X99753966Y-106325871D01*
X100461073Y-107032978D01*
X100319652Y-107174399D01*
X99612545Y-106467292D01*
X99612545Y-106467292D01*
G37*
D21*
X99753966Y-107032978D03*
D10*
G36*
X99329702Y-106750135D02*
X99471123Y-106608714D01*
X100178230Y-107315821D01*
X100036809Y-107457242D01*
X99329702Y-106750135D01*
X99329702Y-106750135D01*
G37*
D21*
X99471124Y-107315821D03*
D10*
G36*
X99046860Y-107032978D02*
X99188281Y-106891557D01*
X99895388Y-107598664D01*
X99753967Y-107740085D01*
X99046860Y-107032978D01*
X99046860Y-107032978D01*
G37*
D21*
X99188281Y-107598663D03*
D10*
G36*
X98764017Y-107315820D02*
X98905438Y-107174399D01*
X99612545Y-107881506D01*
X99471124Y-108022927D01*
X98764017Y-107315820D01*
X98764017Y-107315820D01*
G37*
D21*
X98905438Y-107881506D03*
D10*
G36*
X98481174Y-107598663D02*
X98622595Y-107457242D01*
X99329702Y-108164349D01*
X99188281Y-108305770D01*
X98481174Y-107598663D01*
X98481174Y-107598663D01*
G37*
D21*
X98622596Y-108164349D03*
D10*
G36*
X98198332Y-107881506D02*
X98339753Y-107740085D01*
X99046860Y-108447192D01*
X98905439Y-108588613D01*
X98198332Y-107881506D01*
X98198332Y-107881506D01*
G37*
D21*
X98339753Y-108447192D03*
D10*
G36*
X97915489Y-108164349D02*
X98056910Y-108022928D01*
X98764017Y-108730035D01*
X98622596Y-108871456D01*
X97915489Y-108164349D01*
X97915489Y-108164349D01*
G37*
D21*
X98056910Y-108730034D03*
D10*
G36*
X97632646Y-108447191D02*
X97774067Y-108305770D01*
X98481174Y-109012877D01*
X98339753Y-109154298D01*
X97632646Y-108447191D01*
X97632646Y-108447191D01*
G37*
D21*
X95935590Y-108730034D03*
D10*
G36*
X95652747Y-109154298D02*
X95511326Y-109012877D01*
X96218433Y-108305770D01*
X96359854Y-108447191D01*
X95652747Y-109154298D01*
X95652747Y-109154298D01*
G37*
D21*
X95652747Y-108447192D03*
D10*
G36*
X95369904Y-108871456D02*
X95228483Y-108730035D01*
X95935590Y-108022928D01*
X96077011Y-108164349D01*
X95369904Y-108871456D01*
X95369904Y-108871456D01*
G37*
D21*
X95369904Y-108164349D03*
D10*
G36*
X95087061Y-108588613D02*
X94945640Y-108447192D01*
X95652747Y-107740085D01*
X95794168Y-107881506D01*
X95087061Y-108588613D01*
X95087061Y-108588613D01*
G37*
D21*
X95087062Y-107881506D03*
D10*
G36*
X94804219Y-108305770D02*
X94662798Y-108164349D01*
X95369905Y-107457242D01*
X95511326Y-107598663D01*
X94804219Y-108305770D01*
X94804219Y-108305770D01*
G37*
D21*
X94804219Y-107598663D03*
D10*
G36*
X94521376Y-108022927D02*
X94379955Y-107881506D01*
X95087062Y-107174399D01*
X95228483Y-107315820D01*
X94521376Y-108022927D01*
X94521376Y-108022927D01*
G37*
D21*
X94521376Y-107315821D03*
D10*
G36*
X94238533Y-107740085D02*
X94097112Y-107598664D01*
X94804219Y-106891557D01*
X94945640Y-107032978D01*
X94238533Y-107740085D01*
X94238533Y-107740085D01*
G37*
D21*
X94238534Y-107032978D03*
D10*
G36*
X93955691Y-107457242D02*
X93814270Y-107315821D01*
X94521377Y-106608714D01*
X94662798Y-106750135D01*
X93955691Y-107457242D01*
X93955691Y-107457242D01*
G37*
D21*
X93955691Y-106750135D03*
D10*
G36*
X93672848Y-107174399D02*
X93531427Y-107032978D01*
X94238534Y-106325871D01*
X94379955Y-106467292D01*
X93672848Y-107174399D01*
X93672848Y-107174399D01*
G37*
D21*
X93672848Y-106467293D03*
D10*
G36*
X93390005Y-106891557D02*
X93248584Y-106750136D01*
X93955691Y-106043029D01*
X94097112Y-106184450D01*
X93390005Y-106891557D01*
X93390005Y-106891557D01*
G37*
D21*
X93390005Y-106184450D03*
D10*
G36*
X93107162Y-106608714D02*
X92965741Y-106467293D01*
X93672848Y-105760186D01*
X93814269Y-105901607D01*
X93107162Y-106608714D01*
X93107162Y-106608714D01*
G37*
D21*
X93107163Y-105901607D03*
D10*
G36*
X92824320Y-106325871D02*
X92682899Y-106184450D01*
X93390006Y-105477343D01*
X93531427Y-105618764D01*
X92824320Y-106325871D01*
X92824320Y-106325871D01*
G37*
D21*
X92824320Y-105618764D03*
D10*
G36*
X92541477Y-106043028D02*
X92400056Y-105901607D01*
X93107163Y-105194500D01*
X93248584Y-105335921D01*
X92541477Y-106043028D01*
X92541477Y-106043028D01*
G37*
D21*
X92541477Y-105335922D03*
D10*
G36*
X92258634Y-105760186D02*
X92117213Y-105618765D01*
X92824320Y-104911658D01*
X92965741Y-105053079D01*
X92258634Y-105760186D01*
X92258634Y-105760186D01*
G37*
D21*
X92258635Y-105053079D03*
D10*
G36*
X91975792Y-105477343D02*
X91834371Y-105335922D01*
X92541478Y-104628815D01*
X92682899Y-104770236D01*
X91975792Y-105477343D01*
X91975792Y-105477343D01*
G37*
D21*
X91975792Y-104770236D03*
D10*
G36*
X91692949Y-105194500D02*
X91551528Y-105053079D01*
X92258635Y-104345972D01*
X92400056Y-104487393D01*
X91692949Y-105194500D01*
X91692949Y-105194500D01*
G37*
D21*
X91692949Y-104487394D03*
D10*
G36*
X91410106Y-104911658D02*
X91268685Y-104770237D01*
X91975792Y-104063130D01*
X92117213Y-104204551D01*
X91410106Y-104911658D01*
X91410106Y-104911658D01*
G37*
D21*
X91410106Y-104204551D03*
D10*
G36*
X91127263Y-104628815D02*
X90985842Y-104487394D01*
X91692949Y-103780287D01*
X91834370Y-103921708D01*
X91127263Y-104628815D01*
X91127263Y-104628815D01*
G37*
D21*
X91127264Y-103921708D03*
D10*
G36*
X90844421Y-104345972D02*
X90703000Y-104204551D01*
X91410107Y-103497444D01*
X91551528Y-103638865D01*
X90844421Y-104345972D01*
X90844421Y-104345972D01*
G37*
D21*
X90844421Y-103638865D03*
D10*
G36*
X90561578Y-104063129D02*
X90420157Y-103921708D01*
X91127264Y-103214601D01*
X91268685Y-103356022D01*
X90561578Y-104063129D01*
X90561578Y-104063129D01*
G37*
D21*
X90561578Y-103356023D03*
D10*
G36*
X90278735Y-103780287D02*
X90137314Y-103638866D01*
X90844421Y-102931759D01*
X90985842Y-103073180D01*
X90278735Y-103780287D01*
X90278735Y-103780287D01*
G37*
D21*
X90278736Y-103073180D03*
D10*
G36*
X89995893Y-103497444D02*
X89854472Y-103356023D01*
X90561579Y-102648916D01*
X90703000Y-102790337D01*
X89995893Y-103497444D01*
X89995893Y-103497444D01*
G37*
D21*
X89995893Y-102790337D03*
D10*
G36*
X89713050Y-103214601D02*
X89571629Y-103073180D01*
X90278736Y-102366073D01*
X90420157Y-102507494D01*
X89713050Y-103214601D01*
X89713050Y-103214601D01*
G37*
D21*
X89713050Y-102507495D03*
D10*
G36*
X89430207Y-102931759D02*
X89288786Y-102790338D01*
X89995893Y-102083231D01*
X90137314Y-102224652D01*
X89430207Y-102931759D01*
X89430207Y-102931759D01*
G37*
D21*
X89430207Y-102224652D03*
D10*
G36*
X89147364Y-102648916D02*
X89005943Y-102507495D01*
X89713050Y-101800388D01*
X89854471Y-101941809D01*
X89147364Y-102648916D01*
X89147364Y-102648916D01*
G37*
D21*
X89147365Y-101941809D03*
D10*
G36*
X88864522Y-102366073D02*
X88723101Y-102224652D01*
X89430208Y-101517545D01*
X89571629Y-101658966D01*
X88864522Y-102366073D01*
X88864522Y-102366073D01*
G37*
D21*
X88864522Y-101658966D03*
D10*
G36*
X88581679Y-102083230D02*
X88440258Y-101941809D01*
X89147365Y-101234702D01*
X89288786Y-101376123D01*
X88581679Y-102083230D01*
X88581679Y-102083230D01*
G37*
D21*
X88581679Y-101376124D03*
D10*
G36*
X88298836Y-101800388D02*
X88157415Y-101658967D01*
X88864522Y-100951860D01*
X89005943Y-101093281D01*
X88298836Y-101800388D01*
X88298836Y-101800388D01*
G37*
D21*
X88298837Y-101093281D03*
D10*
G36*
X88015994Y-101517545D02*
X87874573Y-101376124D01*
X88581680Y-100669017D01*
X88723101Y-100810438D01*
X88015994Y-101517545D01*
X88015994Y-101517545D01*
G37*
D21*
X88015994Y-100810438D03*
D10*
G36*
X87733151Y-101234702D02*
X87591730Y-101093281D01*
X88298837Y-100386174D01*
X88440258Y-100527595D01*
X87733151Y-101234702D01*
X87733151Y-101234702D01*
G37*
D21*
X87733151Y-100527596D03*
D10*
G36*
X87450308Y-100951860D02*
X87308887Y-100810439D01*
X88015994Y-100103332D01*
X88157415Y-100244753D01*
X87450308Y-100951860D01*
X87450308Y-100951860D01*
G37*
D21*
X87450308Y-100244753D03*
D10*
G36*
X87167465Y-100669017D02*
X87026044Y-100527596D01*
X87733151Y-99820489D01*
X87874572Y-99961910D01*
X87167465Y-100669017D01*
X87167465Y-100669017D01*
G37*
D21*
X87167466Y-99961910D03*
D10*
G36*
X86884623Y-100386174D02*
X86743202Y-100244753D01*
X87450309Y-99537646D01*
X87591730Y-99679067D01*
X86884623Y-100386174D01*
X86884623Y-100386174D01*
G37*
D21*
X87167466Y-97840590D03*
D10*
G36*
X86743202Y-97557747D02*
X86884623Y-97416326D01*
X87591730Y-98123433D01*
X87450309Y-98264854D01*
X86743202Y-97557747D01*
X86743202Y-97557747D01*
G37*
D21*
X87450308Y-97557747D03*
D10*
G36*
X87026044Y-97274904D02*
X87167465Y-97133483D01*
X87874572Y-97840590D01*
X87733151Y-97982011D01*
X87026044Y-97274904D01*
X87026044Y-97274904D01*
G37*
D21*
X87733151Y-97274904D03*
D10*
G36*
X87308887Y-96992061D02*
X87450308Y-96850640D01*
X88157415Y-97557747D01*
X88015994Y-97699168D01*
X87308887Y-96992061D01*
X87308887Y-96992061D01*
G37*
D21*
X88015994Y-96992062D03*
D10*
G36*
X87591730Y-96709219D02*
X87733151Y-96567798D01*
X88440258Y-97274905D01*
X88298837Y-97416326D01*
X87591730Y-96709219D01*
X87591730Y-96709219D01*
G37*
D21*
X88298837Y-96709219D03*
D10*
G36*
X87874573Y-96426376D02*
X88015994Y-96284955D01*
X88723101Y-96992062D01*
X88581680Y-97133483D01*
X87874573Y-96426376D01*
X87874573Y-96426376D01*
G37*
D21*
X88581679Y-96426376D03*
D10*
G36*
X88157415Y-96143533D02*
X88298836Y-96002112D01*
X89005943Y-96709219D01*
X88864522Y-96850640D01*
X88157415Y-96143533D01*
X88157415Y-96143533D01*
G37*
D21*
X88864522Y-96143534D03*
D10*
G36*
X88440258Y-95860691D02*
X88581679Y-95719270D01*
X89288786Y-96426377D01*
X89147365Y-96567798D01*
X88440258Y-95860691D01*
X88440258Y-95860691D01*
G37*
D21*
X89147365Y-95860691D03*
D10*
G36*
X88723101Y-95577848D02*
X88864522Y-95436427D01*
X89571629Y-96143534D01*
X89430208Y-96284955D01*
X88723101Y-95577848D01*
X88723101Y-95577848D01*
G37*
D21*
X89430207Y-95577848D03*
D10*
G36*
X89005943Y-95295005D02*
X89147364Y-95153584D01*
X89854471Y-95860691D01*
X89713050Y-96002112D01*
X89005943Y-95295005D01*
X89005943Y-95295005D01*
G37*
D21*
X89713050Y-95295005D03*
D10*
G36*
X89288786Y-95012162D02*
X89430207Y-94870741D01*
X90137314Y-95577848D01*
X89995893Y-95719269D01*
X89288786Y-95012162D01*
X89288786Y-95012162D01*
G37*
D21*
X89995893Y-95012163D03*
D10*
G36*
X89571629Y-94729320D02*
X89713050Y-94587899D01*
X90420157Y-95295006D01*
X90278736Y-95436427D01*
X89571629Y-94729320D01*
X89571629Y-94729320D01*
G37*
D21*
X90278736Y-94729320D03*
D10*
G36*
X89854472Y-94446477D02*
X89995893Y-94305056D01*
X90703000Y-95012163D01*
X90561579Y-95153584D01*
X89854472Y-94446477D01*
X89854472Y-94446477D01*
G37*
D21*
X90561578Y-94446477D03*
D10*
G36*
X90137314Y-94163634D02*
X90278735Y-94022213D01*
X90985842Y-94729320D01*
X90844421Y-94870741D01*
X90137314Y-94163634D01*
X90137314Y-94163634D01*
G37*
D21*
X90844421Y-94163635D03*
D10*
G36*
X90420157Y-93880792D02*
X90561578Y-93739371D01*
X91268685Y-94446478D01*
X91127264Y-94587899D01*
X90420157Y-93880792D01*
X90420157Y-93880792D01*
G37*
D21*
X91127264Y-93880792D03*
D10*
G36*
X90703000Y-93597949D02*
X90844421Y-93456528D01*
X91551528Y-94163635D01*
X91410107Y-94305056D01*
X90703000Y-93597949D01*
X90703000Y-93597949D01*
G37*
D21*
X91410106Y-93597949D03*
D10*
G36*
X90985842Y-93315106D02*
X91127263Y-93173685D01*
X91834370Y-93880792D01*
X91692949Y-94022213D01*
X90985842Y-93315106D01*
X90985842Y-93315106D01*
G37*
D21*
X91692949Y-93315106D03*
D10*
G36*
X91268685Y-93032263D02*
X91410106Y-92890842D01*
X92117213Y-93597949D01*
X91975792Y-93739370D01*
X91268685Y-93032263D01*
X91268685Y-93032263D01*
G37*
D21*
X91975792Y-93032264D03*
D10*
G36*
X91551528Y-92749421D02*
X91692949Y-92608000D01*
X92400056Y-93315107D01*
X92258635Y-93456528D01*
X91551528Y-92749421D01*
X91551528Y-92749421D01*
G37*
D21*
X92258635Y-92749421D03*
D10*
G36*
X91834371Y-92466578D02*
X91975792Y-92325157D01*
X92682899Y-93032264D01*
X92541478Y-93173685D01*
X91834371Y-92466578D01*
X91834371Y-92466578D01*
G37*
D21*
X92541477Y-92466578D03*
D10*
G36*
X92117213Y-92183735D02*
X92258634Y-92042314D01*
X92965741Y-92749421D01*
X92824320Y-92890842D01*
X92117213Y-92183735D01*
X92117213Y-92183735D01*
G37*
D21*
X92824320Y-92183736D03*
D10*
G36*
X92400056Y-91900893D02*
X92541477Y-91759472D01*
X93248584Y-92466579D01*
X93107163Y-92608000D01*
X92400056Y-91900893D01*
X92400056Y-91900893D01*
G37*
D21*
X93107163Y-91900893D03*
D10*
G36*
X92682899Y-91618050D02*
X92824320Y-91476629D01*
X93531427Y-92183736D01*
X93390006Y-92325157D01*
X92682899Y-91618050D01*
X92682899Y-91618050D01*
G37*
D21*
X93390005Y-91618050D03*
D10*
G36*
X92965741Y-91335207D02*
X93107162Y-91193786D01*
X93814269Y-91900893D01*
X93672848Y-92042314D01*
X92965741Y-91335207D01*
X92965741Y-91335207D01*
G37*
D21*
X93672848Y-91335207D03*
D10*
G36*
X93248584Y-91052364D02*
X93390005Y-90910943D01*
X94097112Y-91618050D01*
X93955691Y-91759471D01*
X93248584Y-91052364D01*
X93248584Y-91052364D01*
G37*
D21*
X93955691Y-91052365D03*
D10*
G36*
X93531427Y-90769522D02*
X93672848Y-90628101D01*
X94379955Y-91335208D01*
X94238534Y-91476629D01*
X93531427Y-90769522D01*
X93531427Y-90769522D01*
G37*
D21*
X94238534Y-90769522D03*
D10*
G36*
X93814270Y-90486679D02*
X93955691Y-90345258D01*
X94662798Y-91052365D01*
X94521377Y-91193786D01*
X93814270Y-90486679D01*
X93814270Y-90486679D01*
G37*
D21*
X94521376Y-90486679D03*
D10*
G36*
X94097112Y-90203836D02*
X94238533Y-90062415D01*
X94945640Y-90769522D01*
X94804219Y-90910943D01*
X94097112Y-90203836D01*
X94097112Y-90203836D01*
G37*
D21*
X94804219Y-90203837D03*
D10*
G36*
X94379955Y-89920994D02*
X94521376Y-89779573D01*
X95228483Y-90486680D01*
X95087062Y-90628101D01*
X94379955Y-89920994D01*
X94379955Y-89920994D01*
G37*
D21*
X95087062Y-89920994D03*
D10*
G36*
X94662798Y-89638151D02*
X94804219Y-89496730D01*
X95511326Y-90203837D01*
X95369905Y-90345258D01*
X94662798Y-89638151D01*
X94662798Y-89638151D01*
G37*
D21*
X95369904Y-89638151D03*
D10*
G36*
X94945640Y-89355308D02*
X95087061Y-89213887D01*
X95794168Y-89920994D01*
X95652747Y-90062415D01*
X94945640Y-89355308D01*
X94945640Y-89355308D01*
G37*
D21*
X95652747Y-89355308D03*
D10*
G36*
X95228483Y-89072465D02*
X95369904Y-88931044D01*
X96077011Y-89638151D01*
X95935590Y-89779572D01*
X95228483Y-89072465D01*
X95228483Y-89072465D01*
G37*
D21*
X95935590Y-89072466D03*
D10*
G36*
X95511326Y-88789623D02*
X95652747Y-88648202D01*
X96359854Y-89355309D01*
X96218433Y-89496730D01*
X95511326Y-88789623D01*
X95511326Y-88789623D01*
G37*
D17*
X114321500Y-102362000D03*
X115421500Y-102362000D03*
X110575000Y-99060000D03*
X111675000Y-99060000D03*
X111548000Y-100139500D03*
X110448000Y-100139500D03*
X114405500Y-92456000D03*
X113305500Y-92456000D03*
D22*
X129393000Y-89471500D03*
X126893000Y-89471500D03*
D23*
X134429500Y-56261000D03*
D24*
X131929500Y-56261000D03*
D25*
X124777500Y-80454500D03*
X124777500Y-82954500D03*
D26*
X107108683Y-89550817D03*
D10*
G36*
X107214749Y-88808355D02*
X107851145Y-89444751D01*
X107002617Y-90293279D01*
X106366221Y-89656883D01*
X107214749Y-88808355D01*
X107214749Y-88808355D01*
G37*
D26*
X108664317Y-87995183D03*
D10*
G36*
X108770383Y-87252721D02*
X109406779Y-87889117D01*
X108558251Y-88737645D01*
X107921855Y-88101249D01*
X108770383Y-87252721D01*
X108770383Y-87252721D01*
G37*
D26*
X111045683Y-87328317D03*
D10*
G36*
X110939617Y-88070779D02*
X110303221Y-87434383D01*
X111151749Y-86585855D01*
X111788145Y-87222251D01*
X110939617Y-88070779D01*
X110939617Y-88070779D01*
G37*
D26*
X112601317Y-85772683D03*
D10*
G36*
X112495251Y-86515145D02*
X111858855Y-85878749D01*
X112707383Y-85030221D01*
X113343779Y-85666617D01*
X112495251Y-86515145D01*
X112495251Y-86515145D01*
G37*
D14*
X127655500Y-100711000D03*
X125455500Y-100711000D03*
D22*
X125643000Y-96837500D03*
X128143000Y-96837500D03*
D27*
X119888000Y-56261000D03*
X119238000Y-56261000D03*
X118588000Y-56261000D03*
X117938000Y-56261000D03*
X117288000Y-56261000D03*
D28*
X122088000Y-53561000D03*
X115088000Y-53561000D03*
D29*
X121088000Y-56261000D03*
X116088000Y-56261000D03*
D30*
X85512910Y-134499350D03*
X85512910Y-122866150D03*
X86163150Y-134499350D03*
X86163150Y-122866150D03*
X86813390Y-134499350D03*
X86813390Y-122866150D03*
X87463630Y-134499350D03*
X87463630Y-122866150D03*
X88113870Y-134499350D03*
X88113870Y-122866150D03*
X88764110Y-134499350D03*
X88764110Y-122866150D03*
X89414350Y-134499350D03*
X89414350Y-122866150D03*
X90064590Y-134499350D03*
X90064590Y-122866150D03*
X90714830Y-134499350D03*
X90714830Y-122866150D03*
X91365070Y-134499350D03*
X91365070Y-122866150D03*
X92015310Y-134499350D03*
X92015310Y-122866150D03*
X92665550Y-134499350D03*
X92665550Y-122866150D03*
X93315790Y-134499350D03*
X93315790Y-122866150D03*
X93966030Y-134499350D03*
X93966030Y-122866150D03*
X94616270Y-134499350D03*
X94616270Y-122866150D03*
X95266510Y-134499350D03*
X95266510Y-122866150D03*
X95916750Y-134499350D03*
X95916750Y-122866150D03*
X96566990Y-134499350D03*
X96566990Y-122866150D03*
X97217230Y-134499350D03*
X97217230Y-122866150D03*
X97867470Y-134499350D03*
X97867470Y-122866150D03*
X98517710Y-134499350D03*
X98517710Y-122866150D03*
X99167950Y-134499350D03*
X99167950Y-122866150D03*
X99818190Y-134499350D03*
X99818190Y-122866150D03*
X100468430Y-134499350D03*
X100468430Y-122866150D03*
X101118670Y-134499350D03*
X101118670Y-122866150D03*
X101768910Y-134499350D03*
X101768910Y-122866150D03*
X102419150Y-134499350D03*
X102419150Y-122866150D03*
X103069390Y-134499350D03*
X103069390Y-122866150D03*
X103719630Y-134499350D03*
X103719630Y-122866150D03*
X104369870Y-134499350D03*
X104369870Y-122866150D03*
X105020110Y-134499350D03*
X105020110Y-122866150D03*
X105670350Y-134499350D03*
X105670350Y-122866150D03*
X106320590Y-134499350D03*
X106320590Y-122866150D03*
D31*
X106807000Y-53340000D03*
X104267000Y-53340000D03*
X101727000Y-53340000D03*
D32*
X99187000Y-53340000D03*
D31*
X130746500Y-72453500D03*
D32*
X128206500Y-72453500D03*
D33*
X115697000Y-96964500D03*
X121793000Y-96964500D03*
D17*
X114469000Y-93535500D03*
X113369000Y-93535500D03*
X110448000Y-101028500D03*
X111548000Y-101028500D03*
X111675000Y-98425000D03*
X110575000Y-98425000D03*
D22*
X117515000Y-90741500D03*
X120015000Y-90741500D03*
D31*
X130746500Y-67881500D03*
D32*
X128206500Y-67881500D03*
D34*
X136899500Y-102533500D03*
D35*
X136449500Y-116033500D03*
D36*
X132299500Y-116033500D03*
D37*
X126099500Y-116033500D03*
X121799500Y-104883500D03*
D38*
X121799500Y-113033500D03*
X121799500Y-111933500D03*
X121799500Y-110833500D03*
X121799500Y-109733500D03*
X121799500Y-108633500D03*
X121799500Y-107533500D03*
X121799500Y-106433500D03*
X121799500Y-114133500D03*
X121799500Y-115083500D03*
D31*
X69151500Y-54673500D03*
X69151500Y-57213500D03*
X69151500Y-59753500D03*
X69151500Y-62293500D03*
X69151500Y-64833500D03*
X69151500Y-67373500D03*
X69151500Y-69913500D03*
X69151500Y-72453500D03*
X69151500Y-74993500D03*
X69151500Y-77533500D03*
X69151500Y-80073500D03*
X69151500Y-82613500D03*
X69151500Y-85153500D03*
X69151500Y-87693500D03*
X69151500Y-90233500D03*
X69151500Y-92773500D03*
X69151500Y-95313500D03*
X69151500Y-97853500D03*
X69151500Y-100393500D03*
X69151500Y-102933500D03*
X69151500Y-105473500D03*
X69151500Y-108013500D03*
X69151500Y-110553500D03*
X69151500Y-113093500D03*
X69151500Y-115633500D03*
X69151500Y-118173500D03*
X69151500Y-120713500D03*
X69151500Y-123253500D03*
X69151500Y-125793500D03*
D32*
X69151500Y-128333500D03*
D16*
X86367909Y-102862091D03*
D10*
G36*
X86332554Y-103251000D02*
X85979000Y-102897446D01*
X86403264Y-102473182D01*
X86756818Y-102826736D01*
X86332554Y-103251000D01*
X86332554Y-103251000D01*
G37*
D16*
X85590091Y-103639909D03*
D10*
G36*
X85554736Y-104028818D02*
X85201182Y-103675264D01*
X85625446Y-103251000D01*
X85979000Y-103604554D01*
X85554736Y-104028818D01*
X85554736Y-104028818D01*
G37*
D31*
X68707000Y-139065000D03*
X71247000Y-139065000D03*
X73787000Y-139065000D03*
X76327000Y-139065000D03*
D32*
X78867000Y-139065000D03*
D16*
X105402091Y-79128909D03*
D10*
G36*
X105437446Y-78740000D02*
X105791000Y-79093554D01*
X105366736Y-79517818D01*
X105013182Y-79164264D01*
X105437446Y-78740000D01*
X105437446Y-78740000D01*
G37*
D16*
X106179909Y-78351091D03*
D10*
G36*
X106215264Y-77962182D02*
X106568818Y-78315736D01*
X106144554Y-78740000D01*
X105791000Y-78386446D01*
X106215264Y-77962182D01*
X106215264Y-77962182D01*
G37*
D39*
X92678250Y-119803000D03*
X92678250Y-118703000D03*
X96615250Y-139392750D03*
X96615250Y-138292750D03*
X106013250Y-138483250D03*
X106013250Y-139583250D03*
X94519750Y-139265750D03*
X94519750Y-138165750D03*
X90646250Y-138229250D03*
X90646250Y-139329250D03*
D17*
X97451000Y-116903500D03*
X96351000Y-116903500D03*
D16*
X107767409Y-93654591D03*
D10*
G36*
X107802764Y-93265682D02*
X108156318Y-93619236D01*
X107732054Y-94043500D01*
X107378500Y-93689946D01*
X107802764Y-93265682D01*
X107802764Y-93265682D01*
G37*
D16*
X106989591Y-94432409D03*
D10*
G36*
X107024946Y-94043500D02*
X107378500Y-94397054D01*
X106954236Y-94821318D01*
X106600682Y-94467764D01*
X107024946Y-94043500D01*
X107024946Y-94043500D01*
G37*
D16*
X91257409Y-107370591D03*
D10*
G36*
X91222054Y-107759500D02*
X90868500Y-107405946D01*
X91292764Y-106981682D01*
X91646318Y-107335236D01*
X91222054Y-107759500D01*
X91222054Y-107759500D01*
G37*
D16*
X90479591Y-108148409D03*
D10*
G36*
X90444236Y-108537318D02*
X90090682Y-108183764D01*
X90514946Y-107759500D01*
X90868500Y-108113054D01*
X90444236Y-108537318D01*
X90444236Y-108537318D01*
G37*
D16*
X88193591Y-105925909D03*
D10*
G36*
X88158236Y-106314818D02*
X87804682Y-105961264D01*
X88228946Y-105537000D01*
X88582500Y-105890554D01*
X88158236Y-106314818D01*
X88158236Y-106314818D01*
G37*
D16*
X88971409Y-105148091D03*
D10*
G36*
X88936054Y-105537000D02*
X88582500Y-105183446D01*
X89006764Y-104759182D01*
X89360318Y-105112736D01*
X88936054Y-105537000D01*
X88936054Y-105537000D01*
G37*
D16*
X105798909Y-92067091D03*
D10*
G36*
X105834264Y-91678182D02*
X106187818Y-92031736D01*
X105763554Y-92456000D01*
X105410000Y-92102446D01*
X105834264Y-91678182D01*
X105834264Y-91678182D01*
G37*
D16*
X105021091Y-92844909D03*
D10*
G36*
X105056446Y-92456000D02*
X105410000Y-92809554D01*
X104985736Y-93233818D01*
X104632182Y-92880264D01*
X105056446Y-92456000D01*
X105056446Y-92456000D01*
G37*
D16*
X103068409Y-90939909D03*
D10*
G36*
X102679500Y-90904554D02*
X103033054Y-90551000D01*
X103457318Y-90975264D01*
X103103764Y-91328818D01*
X102679500Y-90904554D01*
X102679500Y-90904554D01*
G37*
D16*
X102290591Y-90162091D03*
D10*
G36*
X101901682Y-90126736D02*
X102255236Y-89773182D01*
X102679500Y-90197446D01*
X102325946Y-90551000D01*
X101901682Y-90126736D01*
X101901682Y-90126736D01*
G37*
D16*
X103131909Y-81399091D03*
D10*
G36*
X103167264Y-81010182D02*
X103520818Y-81363736D01*
X103096554Y-81788000D01*
X102743000Y-81434446D01*
X103167264Y-81010182D01*
X103167264Y-81010182D01*
G37*
D16*
X102354091Y-82176909D03*
D10*
G36*
X102389446Y-81788000D02*
X102743000Y-82141554D01*
X102318736Y-82565818D01*
X101965182Y-82212264D01*
X102389446Y-81788000D01*
X102389446Y-81788000D01*
G37*
D39*
X85502750Y-139329250D03*
X85502750Y-138229250D03*
X88773000Y-119676000D03*
X88773000Y-118576000D03*
D17*
X94974500Y-118745000D03*
X93874500Y-118745000D03*
D40*
X113538000Y-70652500D03*
X118038000Y-70652500D03*
X113538000Y-77152500D03*
X118038000Y-77152500D03*
D22*
X112946499Y-106108500D03*
X110446501Y-106108500D03*
D41*
X111310383Y-90302117D03*
D10*
G36*
X111398771Y-89329845D02*
X112282655Y-90213729D01*
X111221995Y-91274389D01*
X110338111Y-90390505D01*
X111398771Y-89329845D01*
X111398771Y-89329845D01*
G37*
D41*
X109542617Y-92069883D03*
D10*
G36*
X109631005Y-91097611D02*
X110514889Y-91981495D01*
X109454229Y-93042155D01*
X108570345Y-92158271D01*
X109631005Y-91097611D01*
X109631005Y-91097611D01*
G37*
D22*
X116312000Y-100838000D03*
X113812000Y-100838000D03*
D42*
X95631000Y-85431000D03*
X95631000Y-82931000D03*
D43*
X104499319Y-85556181D03*
X107950000Y-82105500D03*
D44*
X132397500Y-97853500D03*
D45*
X134937500Y-97853500D03*
D31*
X79946500Y-53340000D03*
X82486500Y-53340000D03*
X85026500Y-53340000D03*
D32*
X87566500Y-53340000D03*
M02*
