M48
;DRILL file {KiCad (2017-04-29 revision a92ea8c75)-makepkg} date 06/10/17 12:47:51
;FORMAT={-:-/ absolute / inch / decimal}
FMAT,2
INCH,TZ
T1C0.004
T2C0.020
T3C0.022
T4C0.031
T5C0.035
T6C0.039
T7C0.040
T8C0.041
T9C0.043
T10C0.126
%
G90
G05
M72
T1
X2.9275Y-3.1525
X2.9625Y-3.3575
X3.01Y-4.395
X3.2275Y-4.15
X3.27Y-3.805
X3.3375Y-4.1675
X3.34Y-4.1
X3.345Y-3.8125
X3.4Y-3.5475
X3.4Y-3.7475
X3.4025Y-4.24
X3.4025Y-5.24
X3.4052Y-4.1178
X3.4064Y-4.0061
X3.4234Y-4.9216
X3.4236Y-3.9889
X3.435Y-3.7725
X3.445Y-4.1975
X3.46Y-4.89
X3.465Y-5.2475
X3.4875Y-3.8625
X3.4925Y-4.6375
X3.495Y-3.915
X3.495Y-5.355
X3.5325Y-4.295
X3.5725Y-4.6625
X3.6025Y-4.9025
X3.64Y-4.285
X3.6425Y-3.57
X3.6425Y-3.7275
X3.6425Y-2.8625
X3.6475Y-5.3525
X3.65Y-4.64
X3.68Y-3.7125
X3.7011Y-3.2033
X3.7025Y-4.115
X3.725Y-4.9025
X3.75Y-4.7725
X3.75Y-5.225
X3.7675Y-4.2
X3.81Y-4.19
X3.8125Y-4.9325
X3.8275Y-4.735
X3.85Y-4.7675
X3.85Y-5.215
X3.8525Y-2.2125
X3.86Y-4.195
X3.8675Y-4.39
X3.8689Y-4.8914
X3.8861Y-4.9086
X3.9025Y-5.2175
X3.9175Y-3.8625
X3.9303Y-3.6672
X3.935Y-5.19
X3.9641Y-5.1541
X3.9718Y-3.7087
X3.975Y-4.49
X3.995Y-4.3975
X4.0125Y-5.18
X4.015Y-3.7575
X4.0225Y-5.135
X4.0373Y-4.1675
X4.0375Y-5.21
X4.0725Y-4.1925
X4.0775Y-3.9843
X4.0825Y-5.19
X4.095Y-2.7325
X4.1025Y-3.98
X4.105Y-3.9425
X4.1075Y-4.1275
X4.11Y-4.2
X4.11Y-5.225
X4.135Y-5.19
X4.1392Y-4.0908
X4.1503Y-4.2997
X4.1625Y-5.2175
X4.1775Y-4.5325
X4.19Y-3.6525
X4.1975Y-4.48
X4.2Y-4.1414
X4.205Y-4.8
X4.2075Y-4.375
X4.2141Y-4.2109
X4.215Y-4.4525
X4.2237Y-4.6612
X4.2597Y-3.8364
X4.2675Y-3.985
X4.27Y-3.6775
X4.2925Y-3.92
X4.3Y-3.
X4.4425Y-3.5025
X4.4425Y-3.885
X4.4575Y-4.0375
X4.495Y-3.33
X4.54Y-4.0714
X4.56Y-3.635
X4.615Y-2.155
X4.6425Y-3.945
X4.65Y-3.27
X4.6675Y-4.205
X4.6725Y-4.45
X4.6925Y-4.1275
X4.705Y-4.2775
X4.995Y-3.255
X5.0525Y-3.735
X5.15Y-2.9575
X5.225Y-3.15
X5.2275Y-3.2025
T4
X4.1141Y-3.3684
X4.25Y-3.2325
T5
X5.2125Y-3.8525
X5.3125Y-3.8525
T6
X2.705Y-5.475
X2.7225Y-2.1525
X2.7225Y-2.2525
X2.7225Y-2.3525
X2.7225Y-2.4525
X2.7225Y-2.5525
X2.7225Y-2.6525
X2.7225Y-2.7525
X2.7225Y-2.8525
X2.7225Y-2.9525
X2.7225Y-3.0525
X2.7225Y-3.1525
X2.7225Y-3.2525
X2.7225Y-3.3525
X2.7225Y-3.4525
X2.7225Y-3.5525
X2.7225Y-3.6525
X2.7225Y-3.7525
X2.7225Y-3.8525
X2.7225Y-3.9525
X2.7225Y-4.0525
X2.7225Y-4.1525
X2.7225Y-4.2525
X2.7225Y-4.3525
X2.7225Y-4.4525
X2.7225Y-4.5525
X2.7225Y-4.6525
X2.7225Y-4.7525
X2.7225Y-4.8525
X2.7225Y-4.9525
X2.7225Y-5.0525
X2.805Y-5.475
X2.905Y-5.475
X3.005Y-5.475
X3.105Y-5.475
X3.1475Y-2.1
X3.2475Y-2.1
X3.3475Y-2.1
X3.4475Y-2.1
X3.905Y-2.1
X4.005Y-2.1
X4.105Y-2.1
X4.205Y-2.1
X5.0475Y-2.6725
X5.0475Y-2.8525
X5.1475Y-2.6725
X5.1475Y-2.8525
T7
X5.35Y-3.15
X5.35Y-3.25
X5.35Y-3.35
X5.35Y-3.45
X5.35Y-3.5475
T8
X5.1941Y-2.215
X5.2925Y-2.215
T9
X4.47Y-2.7816
X4.47Y-3.0375
X4.6472Y-2.7816
X4.6472Y-3.0375
T10
X5.1225Y-5.24
T2
X4.531Y-2.1215G85X4.531Y-2.0959
G05
X4.8066Y-2.1215G85X4.8066Y-2.0959
G05
T3
X4.5763Y-2.215G85X4.5645Y-2.215
G05
X4.7731Y-2.215G85X4.7613Y-2.215
G05
T0
M30
