G04 #@! TF.GenerationSoftware,KiCad,Pcbnew,(2017-06-28 revision 2237de015)-makepkg*
G04 #@! TF.CreationDate,2017-08-27T19:18:13+05:30*
G04 #@! TF.ProjectId,MyIMX233,4D79494D583233332E6B696361645F70,rev?*
G04 #@! TF.SameCoordinates,Original
G04 #@! TF.FileFunction,Soldermask,Top*
G04 #@! TF.FilePolarity,Negative*
%FSLAX46Y46*%
G04 Gerber Fmt 4.6, Leading zero omitted, Abs format (unit mm)*
G04 Created by KiCad (PCBNEW (2017-06-28 revision 2237de015)-makepkg) date 08/27/17 19:18:13*
%MOMM*%
%LPD*%
G01*
G04 APERTURE LIST*
%ADD10C,0.100000*%
%ADD11C,1.720000*%
%ADD12R,1.720000X1.720000*%
%ADD13R,0.620000X1.020000*%
%ADD14R,1.320000X1.020000*%
%ADD15R,1.120000X1.120000*%
%ADD16R,1.320000X0.870000*%
%ADD17O,1.720000X1.720000*%
%ADD18R,1.020000X1.320000*%
%ADD19C,0.620000*%
%ADD20R,1.720000X0.820000*%
%ADD21R,1.520000X1.320000*%
%ADD22R,1.520000X1.720000*%
%ADD23R,2.320000X1.320000*%
%ADD24C,0.320000*%
%ADD25C,1.620000*%
%ADD26O,1.820000X1.820000*%
%ADD27R,1.820000X1.820000*%
%ADD28R,0.520000X1.470000*%
%ADD29O,1.370000X1.070000*%
%ADD30O,1.120000X1.670000*%
%ADD31R,2.025000X2.025000*%
%ADD32R,0.920000X0.920000*%
%ADD33R,0.720000X0.620000*%
%ADD34C,0.870000*%
%ADD35R,1.370000X1.620000*%
%ADD36C,1.870000*%
%ADD37R,1.870000X1.870000*%
%ADD38C,1.020000*%
%ADD39R,1.620000X1.370000*%
%ADD40R,0.440040X1.288400*%
%ADD41R,2.118980X2.118980*%
%ADD42R,0.620000X0.720000*%
%ADD43C,2.120000*%
%ADD44C,1.370000*%
%ADD45C,1.920000*%
%ADD46R,1.920000X1.920000*%
G04 APERTURE END LIST*
D10*
D11*
X124013600Y-86004400D03*
D12*
X121513600Y-86004400D03*
D13*
X99492500Y-114173000D03*
X97992500Y-114173000D03*
D14*
X133393000Y-61404500D03*
X135593000Y-61404500D03*
X118280000Y-91084400D03*
X120480000Y-91084400D03*
D15*
X135806500Y-58928000D03*
X133306500Y-58928000D03*
D16*
X127254000Y-76136500D03*
X125354000Y-76136500D03*
D17*
X131445000Y-64198500D03*
D12*
X123825000Y-64198500D03*
X126746000Y-92837000D03*
D17*
X134366000Y-92837000D03*
X111252000Y-52959000D03*
D12*
X111252000Y-60579000D03*
D14*
X127465000Y-54610000D03*
X125265000Y-54610000D03*
D11*
X128230000Y-59309000D03*
D12*
X125730000Y-59309000D03*
D18*
X126366000Y-88646000D03*
X129666000Y-88646000D03*
D19*
X110023170Y-112626670D03*
D10*
G36*
X109443342Y-112768091D02*
X110164591Y-112046842D01*
X110602998Y-112485249D01*
X109881749Y-113206498D01*
X109443342Y-112768091D01*
X109443342Y-112768091D01*
G37*
D19*
X111083830Y-113687330D03*
D10*
G36*
X110504002Y-113828751D02*
X111225251Y-113107502D01*
X111663658Y-113545909D01*
X110942409Y-114267158D01*
X110504002Y-113828751D01*
X110504002Y-113828751D01*
G37*
D13*
X101969000Y-136588500D03*
X100469000Y-136588500D03*
D20*
X122428000Y-112225000D03*
X122428000Y-111125000D03*
X122428000Y-110025000D03*
X122428000Y-113325000D03*
X122428000Y-114425000D03*
X122428000Y-115525000D03*
X122428000Y-117725000D03*
X122428000Y-116625000D03*
X122428000Y-118825000D03*
D21*
X122928000Y-119975000D03*
D22*
X122928000Y-105375000D03*
D23*
X132528000Y-119975000D03*
X132528000Y-104475000D03*
D24*
X98410464Y-88718912D03*
D10*
G36*
X97774068Y-89581582D02*
X97547794Y-89355308D01*
X99046860Y-87856242D01*
X99273134Y-88082516D01*
X97774068Y-89581582D01*
X97774068Y-89581582D01*
G37*
D24*
X98693306Y-89001755D03*
D10*
G36*
X98056910Y-89864425D02*
X97830636Y-89638151D01*
X99329702Y-88139085D01*
X99555976Y-88365359D01*
X98056910Y-89864425D01*
X98056910Y-89864425D01*
G37*
D24*
X98976149Y-89284598D03*
D10*
G36*
X98339753Y-90147268D02*
X98113479Y-89920994D01*
X99612545Y-88421928D01*
X99838819Y-88648202D01*
X98339753Y-90147268D01*
X98339753Y-90147268D01*
G37*
D24*
X99258992Y-89567440D03*
D10*
G36*
X98622596Y-90430110D02*
X98396322Y-90203836D01*
X99895388Y-88704770D01*
X100121662Y-88931044D01*
X98622596Y-90430110D01*
X98622596Y-90430110D01*
G37*
D24*
X99541834Y-89850283D03*
D10*
G36*
X98905438Y-90712953D02*
X98679164Y-90486679D01*
X100178230Y-88987613D01*
X100404504Y-89213887D01*
X98905438Y-90712953D01*
X98905438Y-90712953D01*
G37*
D24*
X99824677Y-90133126D03*
D10*
G36*
X99188281Y-90995796D02*
X98962007Y-90769522D01*
X100461073Y-89270456D01*
X100687347Y-89496730D01*
X99188281Y-90995796D01*
X99188281Y-90995796D01*
G37*
D24*
X100107520Y-90415969D03*
D10*
G36*
X99471124Y-91278639D02*
X99244850Y-91052365D01*
X100743916Y-89553299D01*
X100970190Y-89779573D01*
X99471124Y-91278639D01*
X99471124Y-91278639D01*
G37*
D24*
X100390363Y-90698811D03*
D10*
G36*
X99753967Y-91561481D02*
X99527693Y-91335207D01*
X101026759Y-89836141D01*
X101253033Y-90062415D01*
X99753967Y-91561481D01*
X99753967Y-91561481D01*
G37*
D24*
X100673205Y-90981654D03*
D10*
G36*
X100036809Y-91844324D02*
X99810535Y-91618050D01*
X101309601Y-90118984D01*
X101535875Y-90345258D01*
X100036809Y-91844324D01*
X100036809Y-91844324D01*
G37*
D24*
X100956048Y-91264497D03*
D10*
G36*
X100319652Y-92127167D02*
X100093378Y-91900893D01*
X101592444Y-90401827D01*
X101818718Y-90628101D01*
X100319652Y-92127167D01*
X100319652Y-92127167D01*
G37*
D24*
X101238891Y-91547339D03*
D10*
G36*
X100602495Y-92410009D02*
X100376221Y-92183735D01*
X101875287Y-90684669D01*
X102101561Y-90910943D01*
X100602495Y-92410009D01*
X100602495Y-92410009D01*
G37*
D24*
X101521733Y-91830182D03*
D10*
G36*
X100885337Y-92692852D02*
X100659063Y-92466578D01*
X102158129Y-90967512D01*
X102384403Y-91193786D01*
X100885337Y-92692852D01*
X100885337Y-92692852D01*
G37*
D24*
X101804576Y-92113025D03*
D10*
G36*
X101168180Y-92975695D02*
X100941906Y-92749421D01*
X102440972Y-91250355D01*
X102667246Y-91476629D01*
X101168180Y-92975695D01*
X101168180Y-92975695D01*
G37*
D24*
X102087419Y-92395868D03*
D10*
G36*
X101451023Y-93258538D02*
X101224749Y-93032264D01*
X102723815Y-91533198D01*
X102950089Y-91759472D01*
X101451023Y-93258538D01*
X101451023Y-93258538D01*
G37*
D24*
X102370262Y-92678710D03*
D10*
G36*
X101733866Y-93541380D02*
X101507592Y-93315106D01*
X103006658Y-91816040D01*
X103232932Y-92042314D01*
X101733866Y-93541380D01*
X101733866Y-93541380D01*
G37*
D24*
X102653104Y-92961553D03*
D10*
G36*
X102016708Y-93824223D02*
X101790434Y-93597949D01*
X103289500Y-92098883D01*
X103515774Y-92325157D01*
X102016708Y-93824223D01*
X102016708Y-93824223D01*
G37*
D24*
X102935947Y-93244396D03*
D10*
G36*
X102299551Y-94107066D02*
X102073277Y-93880792D01*
X103572343Y-92381726D01*
X103798617Y-92608000D01*
X102299551Y-94107066D01*
X102299551Y-94107066D01*
G37*
D24*
X103218790Y-93527238D03*
D10*
G36*
X102582394Y-94389908D02*
X102356120Y-94163634D01*
X103855186Y-92664568D01*
X104081460Y-92890842D01*
X102582394Y-94389908D01*
X102582394Y-94389908D01*
G37*
D24*
X103501632Y-93810081D03*
D10*
G36*
X102865236Y-94672751D02*
X102638962Y-94446477D01*
X104138028Y-92947411D01*
X104364302Y-93173685D01*
X102865236Y-94672751D01*
X102865236Y-94672751D01*
G37*
D24*
X103784475Y-94092924D03*
D10*
G36*
X103148079Y-94955594D02*
X102921805Y-94729320D01*
X104420871Y-93230254D01*
X104647145Y-93456528D01*
X103148079Y-94955594D01*
X103148079Y-94955594D01*
G37*
D24*
X104067318Y-94375767D03*
D10*
G36*
X103430922Y-95238437D02*
X103204648Y-95012163D01*
X104703714Y-93513097D01*
X104929988Y-93739371D01*
X103430922Y-95238437D01*
X103430922Y-95238437D01*
G37*
D24*
X104350161Y-94658609D03*
D10*
G36*
X103713765Y-95521279D02*
X103487491Y-95295005D01*
X104986557Y-93795939D01*
X105212831Y-94022213D01*
X103713765Y-95521279D01*
X103713765Y-95521279D01*
G37*
D24*
X104633003Y-94941452D03*
D10*
G36*
X103996607Y-95804122D02*
X103770333Y-95577848D01*
X105269399Y-94078782D01*
X105495673Y-94305056D01*
X103996607Y-95804122D01*
X103996607Y-95804122D01*
G37*
D24*
X104915846Y-95224295D03*
D10*
G36*
X104279450Y-96086965D02*
X104053176Y-95860691D01*
X105552242Y-94361625D01*
X105778516Y-94587899D01*
X104279450Y-96086965D01*
X104279450Y-96086965D01*
G37*
D24*
X105198689Y-95507137D03*
D10*
G36*
X104562293Y-96369807D02*
X104336019Y-96143533D01*
X105835085Y-94644467D01*
X106061359Y-94870741D01*
X104562293Y-96369807D01*
X104562293Y-96369807D01*
G37*
D24*
X105481531Y-95789980D03*
D10*
G36*
X104845135Y-96652650D02*
X104618861Y-96426376D01*
X106117927Y-94927310D01*
X106344201Y-95153584D01*
X104845135Y-96652650D01*
X104845135Y-96652650D01*
G37*
D24*
X105764374Y-96072823D03*
D10*
G36*
X105127978Y-96935493D02*
X104901704Y-96709219D01*
X106400770Y-95210153D01*
X106627044Y-95436427D01*
X105127978Y-96935493D01*
X105127978Y-96935493D01*
G37*
D24*
X106047217Y-96355666D03*
D10*
G36*
X105410821Y-97218336D02*
X105184547Y-96992062D01*
X106683613Y-95492996D01*
X106909887Y-95719270D01*
X105410821Y-97218336D01*
X105410821Y-97218336D01*
G37*
D24*
X106330060Y-96638508D03*
D10*
G36*
X105693664Y-97501178D02*
X105467390Y-97274904D01*
X106966456Y-95775838D01*
X107192730Y-96002112D01*
X105693664Y-97501178D01*
X105693664Y-97501178D01*
G37*
D24*
X106612902Y-96921351D03*
D10*
G36*
X105976506Y-97784021D02*
X105750232Y-97557747D01*
X107249298Y-96058681D01*
X107475572Y-96284955D01*
X105976506Y-97784021D01*
X105976506Y-97784021D01*
G37*
D24*
X106895745Y-97204194D03*
D10*
G36*
X106259349Y-98066864D02*
X106033075Y-97840590D01*
X107532141Y-96341524D01*
X107758415Y-96567798D01*
X106259349Y-98066864D01*
X106259349Y-98066864D01*
G37*
D24*
X107178588Y-97487036D03*
D10*
G36*
X106542192Y-98349706D02*
X106315918Y-98123432D01*
X107814984Y-96624366D01*
X108041258Y-96850640D01*
X106542192Y-98349706D01*
X106542192Y-98349706D01*
G37*
D24*
X107178588Y-100315464D03*
D10*
G36*
X106315918Y-99679068D02*
X106542192Y-99452794D01*
X108041258Y-100951860D01*
X107814984Y-101178134D01*
X106315918Y-99679068D01*
X106315918Y-99679068D01*
G37*
D24*
X106895745Y-100598306D03*
D10*
G36*
X106033075Y-99961910D02*
X106259349Y-99735636D01*
X107758415Y-101234702D01*
X107532141Y-101460976D01*
X106033075Y-99961910D01*
X106033075Y-99961910D01*
G37*
D24*
X106612902Y-100881149D03*
D10*
G36*
X105750232Y-100244753D02*
X105976506Y-100018479D01*
X107475572Y-101517545D01*
X107249298Y-101743819D01*
X105750232Y-100244753D01*
X105750232Y-100244753D01*
G37*
D24*
X106330060Y-101163992D03*
D10*
G36*
X105467390Y-100527596D02*
X105693664Y-100301322D01*
X107192730Y-101800388D01*
X106966456Y-102026662D01*
X105467390Y-100527596D01*
X105467390Y-100527596D01*
G37*
D24*
X106047217Y-101446834D03*
D10*
G36*
X105184547Y-100810438D02*
X105410821Y-100584164D01*
X106909887Y-102083230D01*
X106683613Y-102309504D01*
X105184547Y-100810438D01*
X105184547Y-100810438D01*
G37*
D24*
X105764374Y-101729677D03*
D10*
G36*
X104901704Y-101093281D02*
X105127978Y-100867007D01*
X106627044Y-102366073D01*
X106400770Y-102592347D01*
X104901704Y-101093281D01*
X104901704Y-101093281D01*
G37*
D24*
X105481531Y-102012520D03*
D10*
G36*
X104618861Y-101376124D02*
X104845135Y-101149850D01*
X106344201Y-102648916D01*
X106117927Y-102875190D01*
X104618861Y-101376124D01*
X104618861Y-101376124D01*
G37*
D24*
X105198689Y-102295363D03*
D10*
G36*
X104336019Y-101658967D02*
X104562293Y-101432693D01*
X106061359Y-102931759D01*
X105835085Y-103158033D01*
X104336019Y-101658967D01*
X104336019Y-101658967D01*
G37*
D24*
X104915846Y-102578205D03*
D10*
G36*
X104053176Y-101941809D02*
X104279450Y-101715535D01*
X105778516Y-103214601D01*
X105552242Y-103440875D01*
X104053176Y-101941809D01*
X104053176Y-101941809D01*
G37*
D24*
X104633003Y-102861048D03*
D10*
G36*
X103770333Y-102224652D02*
X103996607Y-101998378D01*
X105495673Y-103497444D01*
X105269399Y-103723718D01*
X103770333Y-102224652D01*
X103770333Y-102224652D01*
G37*
D24*
X104350161Y-103143891D03*
D10*
G36*
X103487491Y-102507495D02*
X103713765Y-102281221D01*
X105212831Y-103780287D01*
X104986557Y-104006561D01*
X103487491Y-102507495D01*
X103487491Y-102507495D01*
G37*
D24*
X104067318Y-103426733D03*
D10*
G36*
X103204648Y-102790337D02*
X103430922Y-102564063D01*
X104929988Y-104063129D01*
X104703714Y-104289403D01*
X103204648Y-102790337D01*
X103204648Y-102790337D01*
G37*
D24*
X103784475Y-103709576D03*
D10*
G36*
X102921805Y-103073180D02*
X103148079Y-102846906D01*
X104647145Y-104345972D01*
X104420871Y-104572246D01*
X102921805Y-103073180D01*
X102921805Y-103073180D01*
G37*
D24*
X103501632Y-103992419D03*
D10*
G36*
X102638962Y-103356023D02*
X102865236Y-103129749D01*
X104364302Y-104628815D01*
X104138028Y-104855089D01*
X102638962Y-103356023D01*
X102638962Y-103356023D01*
G37*
D24*
X103218790Y-104275262D03*
D10*
G36*
X102356120Y-103638866D02*
X102582394Y-103412592D01*
X104081460Y-104911658D01*
X103855186Y-105137932D01*
X102356120Y-103638866D01*
X102356120Y-103638866D01*
G37*
D24*
X102935947Y-104558104D03*
D10*
G36*
X102073277Y-103921708D02*
X102299551Y-103695434D01*
X103798617Y-105194500D01*
X103572343Y-105420774D01*
X102073277Y-103921708D01*
X102073277Y-103921708D01*
G37*
D24*
X102653104Y-104840947D03*
D10*
G36*
X101790434Y-104204551D02*
X102016708Y-103978277D01*
X103515774Y-105477343D01*
X103289500Y-105703617D01*
X101790434Y-104204551D01*
X101790434Y-104204551D01*
G37*
D24*
X102370262Y-105123790D03*
D10*
G36*
X101507592Y-104487394D02*
X101733866Y-104261120D01*
X103232932Y-105760186D01*
X103006658Y-105986460D01*
X101507592Y-104487394D01*
X101507592Y-104487394D01*
G37*
D24*
X102087419Y-105406632D03*
D10*
G36*
X101224749Y-104770236D02*
X101451023Y-104543962D01*
X102950089Y-106043028D01*
X102723815Y-106269302D01*
X101224749Y-104770236D01*
X101224749Y-104770236D01*
G37*
D24*
X101804576Y-105689475D03*
D10*
G36*
X100941906Y-105053079D02*
X101168180Y-104826805D01*
X102667246Y-106325871D01*
X102440972Y-106552145D01*
X100941906Y-105053079D01*
X100941906Y-105053079D01*
G37*
D24*
X101521733Y-105972318D03*
D10*
G36*
X100659063Y-105335922D02*
X100885337Y-105109648D01*
X102384403Y-106608714D01*
X102158129Y-106834988D01*
X100659063Y-105335922D01*
X100659063Y-105335922D01*
G37*
D24*
X101238891Y-106255161D03*
D10*
G36*
X100376221Y-105618765D02*
X100602495Y-105392491D01*
X102101561Y-106891557D01*
X101875287Y-107117831D01*
X100376221Y-105618765D01*
X100376221Y-105618765D01*
G37*
D24*
X100956048Y-106538003D03*
D10*
G36*
X100093378Y-105901607D02*
X100319652Y-105675333D01*
X101818718Y-107174399D01*
X101592444Y-107400673D01*
X100093378Y-105901607D01*
X100093378Y-105901607D01*
G37*
D24*
X100673205Y-106820846D03*
D10*
G36*
X99810535Y-106184450D02*
X100036809Y-105958176D01*
X101535875Y-107457242D01*
X101309601Y-107683516D01*
X99810535Y-106184450D01*
X99810535Y-106184450D01*
G37*
D24*
X100390363Y-107103689D03*
D10*
G36*
X99527693Y-106467293D02*
X99753967Y-106241019D01*
X101253033Y-107740085D01*
X101026759Y-107966359D01*
X99527693Y-106467293D01*
X99527693Y-106467293D01*
G37*
D24*
X100107520Y-107386531D03*
D10*
G36*
X99244850Y-106750135D02*
X99471124Y-106523861D01*
X100970190Y-108022927D01*
X100743916Y-108249201D01*
X99244850Y-106750135D01*
X99244850Y-106750135D01*
G37*
D24*
X99824677Y-107669374D03*
D10*
G36*
X98962007Y-107032978D02*
X99188281Y-106806704D01*
X100687347Y-108305770D01*
X100461073Y-108532044D01*
X98962007Y-107032978D01*
X98962007Y-107032978D01*
G37*
D24*
X99541834Y-107952217D03*
D10*
G36*
X98679164Y-107315821D02*
X98905438Y-107089547D01*
X100404504Y-108588613D01*
X100178230Y-108814887D01*
X98679164Y-107315821D01*
X98679164Y-107315821D01*
G37*
D24*
X99258992Y-108235060D03*
D10*
G36*
X98396322Y-107598664D02*
X98622596Y-107372390D01*
X100121662Y-108871456D01*
X99895388Y-109097730D01*
X98396322Y-107598664D01*
X98396322Y-107598664D01*
G37*
D24*
X98976149Y-108517902D03*
D10*
G36*
X98113479Y-107881506D02*
X98339753Y-107655232D01*
X99838819Y-109154298D01*
X99612545Y-109380572D01*
X98113479Y-107881506D01*
X98113479Y-107881506D01*
G37*
D24*
X98693306Y-108800745D03*
D10*
G36*
X97830636Y-108164349D02*
X98056910Y-107938075D01*
X99555976Y-109437141D01*
X99329702Y-109663415D01*
X97830636Y-108164349D01*
X97830636Y-108164349D01*
G37*
D24*
X98410464Y-109083588D03*
D10*
G36*
X97547794Y-108447192D02*
X97774068Y-108220918D01*
X99273134Y-109719984D01*
X99046860Y-109946258D01*
X97547794Y-108447192D01*
X97547794Y-108447192D01*
G37*
D24*
X95582036Y-109083588D03*
D10*
G36*
X94945640Y-109946258D02*
X94719366Y-109719984D01*
X96218432Y-108220918D01*
X96444706Y-108447192D01*
X94945640Y-109946258D01*
X94945640Y-109946258D01*
G37*
D24*
X95299194Y-108800745D03*
D10*
G36*
X94662798Y-109663415D02*
X94436524Y-109437141D01*
X95935590Y-107938075D01*
X96161864Y-108164349D01*
X94662798Y-109663415D01*
X94662798Y-109663415D01*
G37*
D24*
X95016351Y-108517902D03*
D10*
G36*
X94379955Y-109380572D02*
X94153681Y-109154298D01*
X95652747Y-107655232D01*
X95879021Y-107881506D01*
X94379955Y-109380572D01*
X94379955Y-109380572D01*
G37*
D24*
X94733508Y-108235060D03*
D10*
G36*
X94097112Y-109097730D02*
X93870838Y-108871456D01*
X95369904Y-107372390D01*
X95596178Y-107598664D01*
X94097112Y-109097730D01*
X94097112Y-109097730D01*
G37*
D24*
X94450666Y-107952217D03*
D10*
G36*
X93814270Y-108814887D02*
X93587996Y-108588613D01*
X95087062Y-107089547D01*
X95313336Y-107315821D01*
X93814270Y-108814887D01*
X93814270Y-108814887D01*
G37*
D24*
X94167823Y-107669374D03*
D10*
G36*
X93531427Y-108532044D02*
X93305153Y-108305770D01*
X94804219Y-106806704D01*
X95030493Y-107032978D01*
X93531427Y-108532044D01*
X93531427Y-108532044D01*
G37*
D24*
X93884980Y-107386531D03*
D10*
G36*
X93248584Y-108249201D02*
X93022310Y-108022927D01*
X94521376Y-106523861D01*
X94747650Y-106750135D01*
X93248584Y-108249201D01*
X93248584Y-108249201D01*
G37*
D24*
X93602137Y-107103689D03*
D10*
G36*
X92965741Y-107966359D02*
X92739467Y-107740085D01*
X94238533Y-106241019D01*
X94464807Y-106467293D01*
X92965741Y-107966359D01*
X92965741Y-107966359D01*
G37*
D24*
X93319295Y-106820846D03*
D10*
G36*
X92682899Y-107683516D02*
X92456625Y-107457242D01*
X93955691Y-105958176D01*
X94181965Y-106184450D01*
X92682899Y-107683516D01*
X92682899Y-107683516D01*
G37*
D24*
X93036452Y-106538003D03*
D10*
G36*
X92400056Y-107400673D02*
X92173782Y-107174399D01*
X93672848Y-105675333D01*
X93899122Y-105901607D01*
X92400056Y-107400673D01*
X92400056Y-107400673D01*
G37*
D24*
X92753609Y-106255161D03*
D10*
G36*
X92117213Y-107117831D02*
X91890939Y-106891557D01*
X93390005Y-105392491D01*
X93616279Y-105618765D01*
X92117213Y-107117831D01*
X92117213Y-107117831D01*
G37*
D24*
X92470767Y-105972318D03*
D10*
G36*
X91834371Y-106834988D02*
X91608097Y-106608714D01*
X93107163Y-105109648D01*
X93333437Y-105335922D01*
X91834371Y-106834988D01*
X91834371Y-106834988D01*
G37*
D24*
X92187924Y-105689475D03*
D10*
G36*
X91551528Y-106552145D02*
X91325254Y-106325871D01*
X92824320Y-104826805D01*
X93050594Y-105053079D01*
X91551528Y-106552145D01*
X91551528Y-106552145D01*
G37*
D24*
X91905081Y-105406632D03*
D10*
G36*
X91268685Y-106269302D02*
X91042411Y-106043028D01*
X92541477Y-104543962D01*
X92767751Y-104770236D01*
X91268685Y-106269302D01*
X91268685Y-106269302D01*
G37*
D24*
X91622238Y-105123790D03*
D10*
G36*
X90985842Y-105986460D02*
X90759568Y-105760186D01*
X92258634Y-104261120D01*
X92484908Y-104487394D01*
X90985842Y-105986460D01*
X90985842Y-105986460D01*
G37*
D24*
X91339396Y-104840947D03*
D10*
G36*
X90703000Y-105703617D02*
X90476726Y-105477343D01*
X91975792Y-103978277D01*
X92202066Y-104204551D01*
X90703000Y-105703617D01*
X90703000Y-105703617D01*
G37*
D24*
X91056553Y-104558104D03*
D10*
G36*
X90420157Y-105420774D02*
X90193883Y-105194500D01*
X91692949Y-103695434D01*
X91919223Y-103921708D01*
X90420157Y-105420774D01*
X90420157Y-105420774D01*
G37*
D24*
X90773710Y-104275262D03*
D10*
G36*
X90137314Y-105137932D02*
X89911040Y-104911658D01*
X91410106Y-103412592D01*
X91636380Y-103638866D01*
X90137314Y-105137932D01*
X90137314Y-105137932D01*
G37*
D24*
X90490868Y-103992419D03*
D10*
G36*
X89854472Y-104855089D02*
X89628198Y-104628815D01*
X91127264Y-103129749D01*
X91353538Y-103356023D01*
X89854472Y-104855089D01*
X89854472Y-104855089D01*
G37*
D24*
X90208025Y-103709576D03*
D10*
G36*
X89571629Y-104572246D02*
X89345355Y-104345972D01*
X90844421Y-102846906D01*
X91070695Y-103073180D01*
X89571629Y-104572246D01*
X89571629Y-104572246D01*
G37*
D24*
X89925182Y-103426733D03*
D10*
G36*
X89288786Y-104289403D02*
X89062512Y-104063129D01*
X90561578Y-102564063D01*
X90787852Y-102790337D01*
X89288786Y-104289403D01*
X89288786Y-104289403D01*
G37*
D24*
X89642339Y-103143891D03*
D10*
G36*
X89005943Y-104006561D02*
X88779669Y-103780287D01*
X90278735Y-102281221D01*
X90505009Y-102507495D01*
X89005943Y-104006561D01*
X89005943Y-104006561D01*
G37*
D24*
X89359497Y-102861048D03*
D10*
G36*
X88723101Y-103723718D02*
X88496827Y-103497444D01*
X89995893Y-101998378D01*
X90222167Y-102224652D01*
X88723101Y-103723718D01*
X88723101Y-103723718D01*
G37*
D24*
X89076654Y-102578205D03*
D10*
G36*
X88440258Y-103440875D02*
X88213984Y-103214601D01*
X89713050Y-101715535D01*
X89939324Y-101941809D01*
X88440258Y-103440875D01*
X88440258Y-103440875D01*
G37*
D24*
X88793811Y-102295363D03*
D10*
G36*
X88157415Y-103158033D02*
X87931141Y-102931759D01*
X89430207Y-101432693D01*
X89656481Y-101658967D01*
X88157415Y-103158033D01*
X88157415Y-103158033D01*
G37*
D24*
X88510969Y-102012520D03*
D10*
G36*
X87874573Y-102875190D02*
X87648299Y-102648916D01*
X89147365Y-101149850D01*
X89373639Y-101376124D01*
X87874573Y-102875190D01*
X87874573Y-102875190D01*
G37*
D24*
X88228126Y-101729677D03*
D10*
G36*
X87591730Y-102592347D02*
X87365456Y-102366073D01*
X88864522Y-100867007D01*
X89090796Y-101093281D01*
X87591730Y-102592347D01*
X87591730Y-102592347D01*
G37*
D24*
X87945283Y-101446834D03*
D10*
G36*
X87308887Y-102309504D02*
X87082613Y-102083230D01*
X88581679Y-100584164D01*
X88807953Y-100810438D01*
X87308887Y-102309504D01*
X87308887Y-102309504D01*
G37*
D24*
X87662440Y-101163992D03*
D10*
G36*
X87026044Y-102026662D02*
X86799770Y-101800388D01*
X88298836Y-100301322D01*
X88525110Y-100527596D01*
X87026044Y-102026662D01*
X87026044Y-102026662D01*
G37*
D24*
X87379598Y-100881149D03*
D10*
G36*
X86743202Y-101743819D02*
X86516928Y-101517545D01*
X88015994Y-100018479D01*
X88242268Y-100244753D01*
X86743202Y-101743819D01*
X86743202Y-101743819D01*
G37*
D24*
X87096755Y-100598306D03*
D10*
G36*
X86460359Y-101460976D02*
X86234085Y-101234702D01*
X87733151Y-99735636D01*
X87959425Y-99961910D01*
X86460359Y-101460976D01*
X86460359Y-101460976D01*
G37*
D24*
X86813912Y-100315464D03*
D10*
G36*
X86177516Y-101178134D02*
X85951242Y-100951860D01*
X87450308Y-99452794D01*
X87676582Y-99679068D01*
X86177516Y-101178134D01*
X86177516Y-101178134D01*
G37*
D24*
X86813912Y-97487036D03*
D10*
G36*
X85951242Y-96850640D02*
X86177516Y-96624366D01*
X87676582Y-98123432D01*
X87450308Y-98349706D01*
X85951242Y-96850640D01*
X85951242Y-96850640D01*
G37*
D24*
X87096755Y-97204194D03*
D10*
G36*
X86234085Y-96567798D02*
X86460359Y-96341524D01*
X87959425Y-97840590D01*
X87733151Y-98066864D01*
X86234085Y-96567798D01*
X86234085Y-96567798D01*
G37*
D24*
X87379598Y-96921351D03*
D10*
G36*
X86516928Y-96284955D02*
X86743202Y-96058681D01*
X88242268Y-97557747D01*
X88015994Y-97784021D01*
X86516928Y-96284955D01*
X86516928Y-96284955D01*
G37*
D24*
X87662440Y-96638508D03*
D10*
G36*
X86799770Y-96002112D02*
X87026044Y-95775838D01*
X88525110Y-97274904D01*
X88298836Y-97501178D01*
X86799770Y-96002112D01*
X86799770Y-96002112D01*
G37*
D24*
X87945283Y-96355666D03*
D10*
G36*
X87082613Y-95719270D02*
X87308887Y-95492996D01*
X88807953Y-96992062D01*
X88581679Y-97218336D01*
X87082613Y-95719270D01*
X87082613Y-95719270D01*
G37*
D24*
X88228126Y-96072823D03*
D10*
G36*
X87365456Y-95436427D02*
X87591730Y-95210153D01*
X89090796Y-96709219D01*
X88864522Y-96935493D01*
X87365456Y-95436427D01*
X87365456Y-95436427D01*
G37*
D24*
X88510969Y-95789980D03*
D10*
G36*
X87648299Y-95153584D02*
X87874573Y-94927310D01*
X89373639Y-96426376D01*
X89147365Y-96652650D01*
X87648299Y-95153584D01*
X87648299Y-95153584D01*
G37*
D24*
X88793811Y-95507137D03*
D10*
G36*
X87931141Y-94870741D02*
X88157415Y-94644467D01*
X89656481Y-96143533D01*
X89430207Y-96369807D01*
X87931141Y-94870741D01*
X87931141Y-94870741D01*
G37*
D24*
X89076654Y-95224295D03*
D10*
G36*
X88213984Y-94587899D02*
X88440258Y-94361625D01*
X89939324Y-95860691D01*
X89713050Y-96086965D01*
X88213984Y-94587899D01*
X88213984Y-94587899D01*
G37*
D24*
X89359497Y-94941452D03*
D10*
G36*
X88496827Y-94305056D02*
X88723101Y-94078782D01*
X90222167Y-95577848D01*
X89995893Y-95804122D01*
X88496827Y-94305056D01*
X88496827Y-94305056D01*
G37*
D24*
X89642339Y-94658609D03*
D10*
G36*
X88779669Y-94022213D02*
X89005943Y-93795939D01*
X90505009Y-95295005D01*
X90278735Y-95521279D01*
X88779669Y-94022213D01*
X88779669Y-94022213D01*
G37*
D24*
X89925182Y-94375767D03*
D10*
G36*
X89062512Y-93739371D02*
X89288786Y-93513097D01*
X90787852Y-95012163D01*
X90561578Y-95238437D01*
X89062512Y-93739371D01*
X89062512Y-93739371D01*
G37*
D24*
X90208025Y-94092924D03*
D10*
G36*
X89345355Y-93456528D02*
X89571629Y-93230254D01*
X91070695Y-94729320D01*
X90844421Y-94955594D01*
X89345355Y-93456528D01*
X89345355Y-93456528D01*
G37*
D24*
X90490868Y-93810081D03*
D10*
G36*
X89628198Y-93173685D02*
X89854472Y-92947411D01*
X91353538Y-94446477D01*
X91127264Y-94672751D01*
X89628198Y-93173685D01*
X89628198Y-93173685D01*
G37*
D24*
X90773710Y-93527238D03*
D10*
G36*
X89911040Y-92890842D02*
X90137314Y-92664568D01*
X91636380Y-94163634D01*
X91410106Y-94389908D01*
X89911040Y-92890842D01*
X89911040Y-92890842D01*
G37*
D24*
X91056553Y-93244396D03*
D10*
G36*
X90193883Y-92608000D02*
X90420157Y-92381726D01*
X91919223Y-93880792D01*
X91692949Y-94107066D01*
X90193883Y-92608000D01*
X90193883Y-92608000D01*
G37*
D24*
X91339396Y-92961553D03*
D10*
G36*
X90476726Y-92325157D02*
X90703000Y-92098883D01*
X92202066Y-93597949D01*
X91975792Y-93824223D01*
X90476726Y-92325157D01*
X90476726Y-92325157D01*
G37*
D24*
X91622238Y-92678710D03*
D10*
G36*
X90759568Y-92042314D02*
X90985842Y-91816040D01*
X92484908Y-93315106D01*
X92258634Y-93541380D01*
X90759568Y-92042314D01*
X90759568Y-92042314D01*
G37*
D24*
X91905081Y-92395868D03*
D10*
G36*
X91042411Y-91759472D02*
X91268685Y-91533198D01*
X92767751Y-93032264D01*
X92541477Y-93258538D01*
X91042411Y-91759472D01*
X91042411Y-91759472D01*
G37*
D24*
X92187924Y-92113025D03*
D10*
G36*
X91325254Y-91476629D02*
X91551528Y-91250355D01*
X93050594Y-92749421D01*
X92824320Y-92975695D01*
X91325254Y-91476629D01*
X91325254Y-91476629D01*
G37*
D24*
X92470767Y-91830182D03*
D10*
G36*
X91608097Y-91193786D02*
X91834371Y-90967512D01*
X93333437Y-92466578D01*
X93107163Y-92692852D01*
X91608097Y-91193786D01*
X91608097Y-91193786D01*
G37*
D24*
X92753609Y-91547339D03*
D10*
G36*
X91890939Y-90910943D02*
X92117213Y-90684669D01*
X93616279Y-92183735D01*
X93390005Y-92410009D01*
X91890939Y-90910943D01*
X91890939Y-90910943D01*
G37*
D24*
X93036452Y-91264497D03*
D10*
G36*
X92173782Y-90628101D02*
X92400056Y-90401827D01*
X93899122Y-91900893D01*
X93672848Y-92127167D01*
X92173782Y-90628101D01*
X92173782Y-90628101D01*
G37*
D24*
X93319295Y-90981654D03*
D10*
G36*
X92456625Y-90345258D02*
X92682899Y-90118984D01*
X94181965Y-91618050D01*
X93955691Y-91844324D01*
X92456625Y-90345258D01*
X92456625Y-90345258D01*
G37*
D24*
X93602137Y-90698811D03*
D10*
G36*
X92739467Y-90062415D02*
X92965741Y-89836141D01*
X94464807Y-91335207D01*
X94238533Y-91561481D01*
X92739467Y-90062415D01*
X92739467Y-90062415D01*
G37*
D24*
X93884980Y-90415969D03*
D10*
G36*
X93022310Y-89779573D02*
X93248584Y-89553299D01*
X94747650Y-91052365D01*
X94521376Y-91278639D01*
X93022310Y-89779573D01*
X93022310Y-89779573D01*
G37*
D24*
X94167823Y-90133126D03*
D10*
G36*
X93305153Y-89496730D02*
X93531427Y-89270456D01*
X95030493Y-90769522D01*
X94804219Y-90995796D01*
X93305153Y-89496730D01*
X93305153Y-89496730D01*
G37*
D24*
X94450666Y-89850283D03*
D10*
G36*
X93587996Y-89213887D02*
X93814270Y-88987613D01*
X95313336Y-90486679D01*
X95087062Y-90712953D01*
X93587996Y-89213887D01*
X93587996Y-89213887D01*
G37*
D24*
X94733508Y-89567440D03*
D10*
G36*
X93870838Y-88931044D02*
X94097112Y-88704770D01*
X95596178Y-90203836D01*
X95369904Y-90430110D01*
X93870838Y-88931044D01*
X93870838Y-88931044D01*
G37*
D24*
X95016351Y-89284598D03*
D10*
G36*
X94153681Y-88648202D02*
X94379955Y-88421928D01*
X95879021Y-89920994D01*
X95652747Y-90147268D01*
X94153681Y-88648202D01*
X94153681Y-88648202D01*
G37*
D24*
X95299194Y-89001755D03*
D10*
G36*
X94436524Y-88365359D02*
X94662798Y-88139085D01*
X96161864Y-89638151D01*
X95935590Y-89864425D01*
X94436524Y-88365359D01*
X94436524Y-88365359D01*
G37*
D24*
X95582036Y-88718912D03*
D10*
G36*
X94719366Y-88082516D02*
X94945640Y-87856242D01*
X96444706Y-89355308D01*
X96218432Y-89581582D01*
X94719366Y-88082516D01*
X94719366Y-88082516D01*
G37*
D25*
X107039319Y-82762181D03*
X110490000Y-79311500D03*
D26*
X77851000Y-91186000D03*
D27*
X75311000Y-91186000D03*
D26*
X126619000Y-68580000D03*
D27*
X126619000Y-71120000D03*
D13*
X131877500Y-74485500D03*
X130377500Y-74485500D03*
X130429000Y-77216000D03*
X131929000Y-77216000D03*
D28*
X119918000Y-56722000D03*
X119268000Y-56722000D03*
X118618000Y-56722000D03*
X117968000Y-56722000D03*
X117318000Y-56722000D03*
D29*
X121118000Y-56722000D03*
X116118000Y-56722000D03*
D30*
X122118000Y-54022000D03*
X115118000Y-54022000D03*
D14*
X77427000Y-60452000D03*
X75227000Y-60452000D03*
D18*
X82296000Y-92032000D03*
X82296000Y-89832000D03*
D14*
X83015000Y-60452000D03*
X80815000Y-60452000D03*
X77427000Y-67945000D03*
X75227000Y-67945000D03*
X83015000Y-70866000D03*
X80815000Y-70866000D03*
X80815000Y-62865000D03*
X83015000Y-62865000D03*
X83015000Y-67945000D03*
X80815000Y-67945000D03*
X80815000Y-65405000D03*
X83015000Y-65405000D03*
D15*
X121348500Y-65151000D03*
X118848500Y-65151000D03*
X113304000Y-62611000D03*
X115804000Y-62611000D03*
D31*
X135890000Y-77089000D03*
D32*
X106807000Y-60071000D03*
X106807000Y-61671000D03*
D18*
X106870500Y-64749500D03*
X106870500Y-66949500D03*
D31*
X135890000Y-80010000D03*
X135890000Y-87630000D03*
X135890000Y-82550000D03*
X135890000Y-90106500D03*
X135890000Y-85090000D03*
D19*
X88590409Y-91765409D03*
D10*
G36*
X88116647Y-91730054D02*
X88555054Y-91291647D01*
X89064171Y-91800764D01*
X88625764Y-92239171D01*
X88116647Y-91730054D01*
X88116647Y-91730054D01*
G37*
D19*
X87812591Y-90987591D03*
D10*
G36*
X87338829Y-90952236D02*
X87777236Y-90513829D01*
X88286353Y-91022946D01*
X87847946Y-91461353D01*
X87338829Y-90952236D01*
X87338829Y-90952236D01*
G37*
D33*
X110448000Y-103886000D03*
X111548000Y-103886000D03*
X110511500Y-104902000D03*
X111611500Y-104902000D03*
D13*
X95833500Y-118745000D03*
X97333500Y-118745000D03*
X93801500Y-116967000D03*
X95301500Y-116967000D03*
D19*
X110243909Y-88320591D03*
D10*
G36*
X110279264Y-87846829D02*
X110717671Y-88285236D01*
X110208554Y-88794353D01*
X109770147Y-88355946D01*
X110279264Y-87846829D01*
X110279264Y-87846829D01*
G37*
D19*
X109466091Y-89098409D03*
D10*
G36*
X109501446Y-88624647D02*
X109939853Y-89063054D01*
X109430736Y-89572171D01*
X108992329Y-89133764D01*
X109501446Y-88624647D01*
X109501446Y-88624647D01*
G37*
D16*
X110111500Y-102679500D03*
X112011500Y-102679500D03*
X110810000Y-97282000D03*
X112710000Y-97282000D03*
X120864500Y-61531500D03*
X122764500Y-61531500D03*
D34*
X105954751Y-89371249D03*
D10*
G36*
X105795652Y-90145531D02*
X105180469Y-89530348D01*
X106113850Y-88596967D01*
X106729033Y-89212150D01*
X105795652Y-90145531D01*
X105795652Y-90145531D01*
G37*
D34*
X104611249Y-90714751D03*
D10*
G36*
X104452150Y-91489033D02*
X103836967Y-90873850D01*
X104770348Y-89940469D01*
X105385531Y-90555652D01*
X104452150Y-91489033D01*
X104452150Y-91489033D01*
G37*
D33*
X114321500Y-102362000D03*
X115421500Y-102362000D03*
X110448000Y-99314000D03*
X111548000Y-99314000D03*
X111548000Y-100393500D03*
X110448000Y-100393500D03*
X114503200Y-92456000D03*
X113403200Y-92456000D03*
D35*
X135839200Y-66304800D03*
X135839200Y-63804800D03*
D36*
X135659500Y-53721000D03*
D37*
X133159500Y-53721000D03*
D15*
X124777500Y-80454500D03*
X124777500Y-82954500D03*
D38*
X109204183Y-87010817D03*
D10*
G36*
X109310249Y-86183502D02*
X110031498Y-86904751D01*
X109098117Y-87838132D01*
X108376868Y-87116883D01*
X109310249Y-86183502D01*
X109310249Y-86183502D01*
G37*
D38*
X110759817Y-85455183D03*
D10*
G36*
X110865883Y-84627868D02*
X111587132Y-85349117D01*
X110653751Y-86282498D01*
X109932502Y-85561249D01*
X110865883Y-84627868D01*
X110865883Y-84627868D01*
G37*
D38*
X112061683Y-86375817D03*
D10*
G36*
X111955617Y-87203132D02*
X111234368Y-86481883D01*
X112167749Y-85548502D01*
X112888998Y-86269751D01*
X111955617Y-87203132D01*
X111955617Y-87203132D01*
G37*
D38*
X113617317Y-84820183D03*
D10*
G36*
X113511251Y-85647498D02*
X112790002Y-84926249D01*
X113723383Y-83992868D01*
X114444632Y-84714117D01*
X113511251Y-85647498D01*
X113511251Y-85647498D01*
G37*
D14*
X127655500Y-100711000D03*
X125455500Y-100711000D03*
D39*
X128143000Y-96837500D03*
X125643000Y-96837500D03*
D40*
X85512910Y-134499350D03*
X85512910Y-122866150D03*
X86163150Y-134499350D03*
X86163150Y-122866150D03*
X86813390Y-134499350D03*
X86813390Y-122866150D03*
X87463630Y-134499350D03*
X87463630Y-122866150D03*
X88113870Y-134499350D03*
X88113870Y-122866150D03*
X88764110Y-134499350D03*
X88764110Y-122866150D03*
X89414350Y-134499350D03*
X89414350Y-122866150D03*
X90064590Y-134499350D03*
X90064590Y-122866150D03*
X90714830Y-134499350D03*
X90714830Y-122866150D03*
X91365070Y-134499350D03*
X91365070Y-122866150D03*
X92015310Y-134499350D03*
X92015310Y-122866150D03*
X92665550Y-134499350D03*
X92665550Y-122866150D03*
X93315790Y-134499350D03*
X93315790Y-122866150D03*
X93966030Y-134499350D03*
X93966030Y-122866150D03*
X94616270Y-134499350D03*
X94616270Y-122866150D03*
X95266510Y-134499350D03*
X95266510Y-122866150D03*
X95916750Y-134499350D03*
X95916750Y-122866150D03*
X96566990Y-134499350D03*
X96566990Y-122866150D03*
X97217230Y-134499350D03*
X97217230Y-122866150D03*
X97867470Y-134499350D03*
X97867470Y-122866150D03*
X98517710Y-134499350D03*
X98517710Y-122866150D03*
X99167950Y-134499350D03*
X99167950Y-122866150D03*
X99818190Y-134499350D03*
X99818190Y-122866150D03*
X100468430Y-134499350D03*
X100468430Y-122866150D03*
X101118670Y-134499350D03*
X101118670Y-122866150D03*
X101768910Y-134499350D03*
X101768910Y-122866150D03*
X102419150Y-134499350D03*
X102419150Y-122866150D03*
X103069390Y-134499350D03*
X103069390Y-122866150D03*
X103719630Y-134499350D03*
X103719630Y-122866150D03*
X104369870Y-134499350D03*
X104369870Y-122866150D03*
X105020110Y-134499350D03*
X105020110Y-122866150D03*
X105670350Y-134499350D03*
X105670350Y-122866150D03*
X106320590Y-134499350D03*
X106320590Y-122866150D03*
D26*
X106807000Y-53721000D03*
X104267000Y-53721000D03*
X101727000Y-53721000D03*
D27*
X99187000Y-53721000D03*
D26*
X132016500Y-71183500D03*
D27*
X132016500Y-68643500D03*
D41*
X116713000Y-95758000D03*
X122809000Y-95758000D03*
D33*
X114469000Y-93535500D03*
X113369000Y-93535500D03*
X110448000Y-101346000D03*
X111548000Y-101346000D03*
X111548000Y-98425000D03*
X110448000Y-98425000D03*
D39*
X118454800Y-89103200D03*
X120954800Y-89103200D03*
D26*
X69151500Y-54673500D03*
X69151500Y-57213500D03*
X69151500Y-59753500D03*
X69151500Y-62293500D03*
X69151500Y-64833500D03*
X69151500Y-67373500D03*
X69151500Y-69913500D03*
X69151500Y-72453500D03*
X69151500Y-74993500D03*
X69151500Y-77533500D03*
X69151500Y-80073500D03*
X69151500Y-82613500D03*
X69151500Y-85153500D03*
X69151500Y-87693500D03*
X69151500Y-90233500D03*
X69151500Y-92773500D03*
X69151500Y-95313500D03*
X69151500Y-97853500D03*
X69151500Y-100393500D03*
X69151500Y-102933500D03*
X69151500Y-105473500D03*
X69151500Y-108013500D03*
X69151500Y-110553500D03*
X69151500Y-113093500D03*
X69151500Y-115633500D03*
X69151500Y-118173500D03*
X69151500Y-120713500D03*
X69151500Y-123253500D03*
X69151500Y-125793500D03*
D27*
X69151500Y-128333500D03*
D19*
X85161409Y-104068591D03*
D10*
G36*
X85126054Y-104542353D02*
X84687647Y-104103946D01*
X85196764Y-103594829D01*
X85635171Y-104033236D01*
X85126054Y-104542353D01*
X85126054Y-104542353D01*
G37*
D19*
X84383591Y-104846409D03*
D10*
G36*
X84348236Y-105320171D02*
X83909829Y-104881764D01*
X84418946Y-104372647D01*
X84857353Y-104811054D01*
X84348236Y-105320171D01*
X84348236Y-105320171D01*
G37*
D26*
X68707000Y-139065000D03*
X71247000Y-139065000D03*
X73787000Y-139065000D03*
X76327000Y-139065000D03*
D27*
X78867000Y-139065000D03*
D19*
X107815091Y-76398409D03*
D10*
G36*
X107850446Y-75924647D02*
X108288853Y-76363054D01*
X107779736Y-76872171D01*
X107341329Y-76433764D01*
X107850446Y-75924647D01*
X107850446Y-75924647D01*
G37*
D19*
X108592909Y-75620591D03*
D10*
G36*
X108628264Y-75146829D02*
X109066671Y-75585236D01*
X108557554Y-76094353D01*
X108119147Y-75655946D01*
X108628264Y-75146829D01*
X108628264Y-75146829D01*
G37*
D42*
X92678250Y-119803000D03*
X92678250Y-118703000D03*
X96615250Y-139392750D03*
X96615250Y-138292750D03*
X106013250Y-138483250D03*
X106013250Y-139583250D03*
X94519750Y-139265750D03*
X94519750Y-138165750D03*
X90646250Y-138229250D03*
X90646250Y-139329250D03*
D33*
X97451000Y-116903500D03*
X96351000Y-116903500D03*
D19*
X108592909Y-92702091D03*
D10*
G36*
X108628264Y-92228329D02*
X109066671Y-92666736D01*
X108557554Y-93175853D01*
X108119147Y-92737446D01*
X108628264Y-92228329D01*
X108628264Y-92228329D01*
G37*
D19*
X107815091Y-93479909D03*
D10*
G36*
X107850446Y-93006147D02*
X108288853Y-93444554D01*
X107779736Y-93953671D01*
X107341329Y-93515264D01*
X107850446Y-93006147D01*
X107850446Y-93006147D01*
G37*
D19*
X89860409Y-108831091D03*
D10*
G36*
X89825054Y-109304853D02*
X89386647Y-108866446D01*
X89895764Y-108357329D01*
X90334171Y-108795736D01*
X89825054Y-109304853D01*
X89825054Y-109304853D01*
G37*
D19*
X89082591Y-109608909D03*
D10*
G36*
X89047236Y-110082671D02*
X88608829Y-109644264D01*
X89117946Y-109135147D01*
X89556353Y-109573554D01*
X89047236Y-110082671D01*
X89047236Y-110082671D01*
G37*
D19*
X86733091Y-107386409D03*
D10*
G36*
X86697736Y-107860171D02*
X86259329Y-107421764D01*
X86768446Y-106912647D01*
X87206853Y-107351054D01*
X86697736Y-107860171D01*
X86697736Y-107860171D01*
G37*
D19*
X87510909Y-106608591D03*
D10*
G36*
X87475554Y-107082353D02*
X87037147Y-106643946D01*
X87546264Y-106134829D01*
X87984671Y-106573236D01*
X87475554Y-107082353D01*
X87475554Y-107082353D01*
G37*
D19*
X106814909Y-90924091D03*
D10*
G36*
X106850264Y-90450329D02*
X107288671Y-90888736D01*
X106779554Y-91397853D01*
X106341147Y-90959446D01*
X106850264Y-90450329D01*
X106850264Y-90450329D01*
G37*
D19*
X106037091Y-91701909D03*
D10*
G36*
X106072446Y-91228147D02*
X106510853Y-91666554D01*
X106001736Y-92175671D01*
X105563329Y-91737264D01*
X106072446Y-91228147D01*
X106072446Y-91228147D01*
G37*
D19*
X104719409Y-88701591D03*
D10*
G36*
X104684054Y-89175353D02*
X104245647Y-88736946D01*
X104754764Y-88227829D01*
X105193171Y-88666236D01*
X104684054Y-89175353D01*
X104684054Y-89175353D01*
G37*
D19*
X103941591Y-89479409D03*
D10*
G36*
X103906236Y-89953171D02*
X103467829Y-89514764D01*
X103976946Y-89005647D01*
X104415353Y-89444054D01*
X103906236Y-89953171D01*
X103906236Y-89953171D01*
G37*
D19*
X105290909Y-78859091D03*
D10*
G36*
X105326264Y-78385329D02*
X105764671Y-78823736D01*
X105255554Y-79332853D01*
X104817147Y-78894446D01*
X105326264Y-78385329D01*
X105326264Y-78385329D01*
G37*
D19*
X104513091Y-79636909D03*
D10*
G36*
X104548446Y-79163147D02*
X104986853Y-79601554D01*
X104477736Y-80110671D01*
X104039329Y-79672264D01*
X104548446Y-79163147D01*
X104548446Y-79163147D01*
G37*
D42*
X85502750Y-139329250D03*
X85502750Y-138229250D03*
X88773000Y-119676000D03*
X88773000Y-118576000D03*
D33*
X94974500Y-118745000D03*
X93874500Y-118745000D03*
D43*
X116277000Y-68897500D03*
X120777000Y-68897500D03*
X116277000Y-75397500D03*
X120777000Y-75397500D03*
D39*
X112946499Y-106426000D03*
X110446501Y-106426000D03*
D44*
X112194266Y-88778117D03*
D10*
G36*
X112282654Y-87720992D02*
X113251391Y-88689729D01*
X112105878Y-89835242D01*
X111137141Y-88866505D01*
X112282654Y-87720992D01*
X112282654Y-87720992D01*
G37*
D44*
X110426500Y-90545883D03*
D10*
G36*
X110514888Y-89488758D02*
X111483625Y-90457495D01*
X110338112Y-91603008D01*
X109369375Y-90634271D01*
X110514888Y-89488758D01*
X110514888Y-89488758D01*
G37*
D39*
X116312000Y-100838000D03*
X113812000Y-100838000D03*
D35*
X95631000Y-85431000D03*
X95631000Y-82931000D03*
D45*
X132397500Y-97853500D03*
D46*
X134937500Y-97853500D03*
D26*
X79946500Y-53721000D03*
X82486500Y-53721000D03*
X85026500Y-53721000D03*
D27*
X87566500Y-53721000D03*
M02*
